<?xml version="1.0" encoding="UTF-8"?>
<svg id="Layer_1" xmlns="http://www.w3.org/2000/svg" version="1.1" viewBox="0 0 160 160">
  <!-- Generator: Adobe Illustrator 29.8.3, SVG Export Plug-In . SVG Version: 2.1.1 Build 3)  -->
  <defs>
    <style>
      .st0 {
        fill: #f9f0e2;
      }

      .st1 {
        fill: #edb753;
      }

      .st2 {
        fill: #d2923f;
      }

      .st3 {
        fill: #773d30;
      }

      .st4 {
        fill: #e7b250;
      }

      .st5 {
        fill: #773e30;
      }

      .st6 {
        fill: #f4c265;
      }

      .st7 {
        fill: #edb854;
      }

      .st8 {
        fill: #8a5239;
      }

      .st9 {
        fill: #f5eadd;
      }

      .st10 {
        fill: #e7b04b;
      }

      .st11 {
        fill: #d5a147;
      }

      .st12 {
        fill: #b08551;
      }

      .st13 {
        fill: #935f35;
      }

      .st14 {
        fill: #ef9f71;
      }

      .st15 {
        fill: #fbf7e8;
      }

      .st16 {
        fill: #f3e2b7;
      }

      .st17 {
        fill: #d39440;
      }

      .st18 {
        fill: #d69b48;
      }

      .st19 {
        fill: #e7b04f;
      }

      .st20 {
        fill: #d08e3b;
      }

      .st21 {
        fill: #eab45b;
      }

      .st22 {
        fill: #f3e1b4;
      }

      .st23 {
        fill: #fbf7e9;
      }

      .st24 {
        fill: #d5a248;
      }

      .st25 {
        fill: #dc9e48;
      }

      .st26 {
        fill: #f0be65;
      }

      .st27 {
        fill: #e6b04c;
      }

      .st28 {
        fill: #f2e2b4;
      }

      .st29 {
        fill: #efa075;
      }
    </style>
  </defs>
  <path class="st19" d="M55.11,121.43"/>
  <path class="st17" d="M56.12,93.29c10.81,2.38,1.57,11.31,4.49,20.32-3.99,6.27-12.37,8.48-20.28,8.74-5.55.68-4.89-4.55-8.29-7.38-.22-.56-.25-1.01.36-1.18,13.22-1.56-2.71-5.99,2.14-8.08,2.59-2.42,2.27-4.18-1.26-5.46,5.43-4.16,15.02-9.28,22.85-6.96Z"/>
  <path class="st16" d="M33.82,99.97c1.19.62,2.25.56,2.78,2.06.78,2.19-1.4,4.17-3.18,5.03,6.9,2.17,5.87,7.77-1.2,7.21.9,1.4,2.29,2.32,3.06,3.86.42.85,1.3,2.69,1.69,3,.73.58,2.4.75,3.35,1.22-5.87,0-12.76-3.81-16.26-8.57-1.88-2.57-3.46-5.88-3.93-9.04-.19-1.29-.64-5.48.5-6.15.79-.47,5.41,2.5,7.45,2.48"/>
  <g>
    <path class="st19" d="M52.81,120.39c-.56-.29-.83-.9-1.08-1.45-2.22-5.02-.42-12.06,1.25-17.05,1.11-3.29,4.09-10.46,6.89-12.56,1.64-1.24,3.17-1.42,4.98-.44,3.37,1.83,3.18,6.44,3.14,9.78,0,.29.11.78-.18.96-1.56,4.78-2.68,9.77-3.37,14.72-.5,2.38-1.15,5.27-2.91,6.92-.02.02-.33-.02-.5.1-1,.68-1.73,1.17-2.99,1.3"/>
    <path class="st6" d="M114.2,79.68c-.26-.64-.31-1.03-.14-1.18-.83-1.62-.87-4.12-1.27-5.97-1.05-4.86-2.95-9.54-5.67-13.7-.24-.36-1.17-1.36-1.23-1.57-.16-.54.92-2.64,1.19-3.37-.07-.07-.13-.13-.21-.17-.53-.27-1.35,1.86-1.51,2.33-.48-.52-.92-1.07-1.32-1.66l-.44.03-.06-.54c-2.38-2.22-5.2-3.76-8.03-5.18-.04-.68-.19-1.1-.46-1.27-.29.14-.51.4-.65.79l-3.16-.98c-.22.15-.46.22-.72.18-.1-.11-.2-.22-.32-.31-.77-.57-8.05-1.21-8.91-.8-.13.06-.25.15-.37.24-.08,0-.17.32-.3.34-2.25.31-4.44.68-6.61,1.4l-.21-.03c-.15-.41-.46-.7-.73-1.02-.73.18-.16,1.09.25,1.5.95.64,1.38,1.44,1.9,2.43.23.43,1.54,2.96,1.54,3.14,0,.27-3.18,3.43-3.7,3.75-.31.26-.55.65-.73,1.19-2.48,2.96-4.51,6.48-5.87,10.13-.16.33-.35.63-.55.89-.01.68-1.34,4.57-1.73,4.76-.15.07-.65.13-.89.13l-.39-.43c-2.86-.65-5.43-2.25-7.58-4.21l-.58-.07c-.16,1.47-.7,2.88-1,4.33-1.55,7.72-1.56,15.84-.92,23.68.09,1.14.54,2.27.17,3.4l.43-.18c1.01-2.79,2.15-5.57,3.63-8.15,1.63-2.84,4.17-6.47,7.79-4.28,2.82,1.7,2.83,5.48,2.82,8.4.43.33.28,1.38.16,1.95-.1.12-.2.24-.24.37-.24.69-.8,6.24-.64,6.72.05.14.11.28.19.41l-.39.35c-.17,2.11-.4,4.22-.69,6.32-.43,2.73-1.3,6.28-4.17,7.27l-.16.36c1,.89,2.7,1.96,3.49,2.79.11.11.29.38.35.52,3.72,1.96,7.63,3.18,11.87,3.44,1.12.07,7.56.08,8.39-.24.04.03.09.07.15.11.04-.12.2-.48.3-.52.67-.17,1.49-.19,2.14-.35.12.06.23.12.36.15.77.21,5.1-1.44,6.17-1.87,2.44-.97,4.8-2.08,6.96-3.56.82-.56,2.08-1.53,2.39-2.41-.02-.78-.58-2.38-1.57-1.57l-.5-.04c-8.2,6.51-24.25,9.33-21.99-6.23l-.37-.19c.53-.69.87-1.53,1.01-2.53,2.61-13.32,30.87-27.73,29.36-5.16-.24.8-.24,1.5,0,2.1.84-.5,1.3.41,1.55,1.22l.37.17c.29-.17.29-.48.37-.76.32-1.14.81-2.67,1.02-3.78.22-.28.44-.57.52-.92,1.33-6.14.96-15.87.15-22.16Z"/>
    <path class="st1" d="M73.05,47.27c-.15,1.14,1.03,1.53,1.55,2.21.97,1.27,1.68,3.43,2.47,4.87-.86,1.59-2.5,2.52-3.49,4.01l-.53-.26-.38-.25c-1.63-5.44-6.8-9.95-11.15-13.42-1.27-1.01-7.34-5.07-7.66-1.51-.45,5.01,1.63,12.36,3.83,16.88,1.86,3.82,4.4,8.14,8.24,10.11l-.04.4c.19.15.32.43.28.7-.04.29-1.45,4.01-1.59,4.19-.39.47-.99.05-1.31,0-2.6-2.49-4.91-5.05-6.84-8.18-5.44-8.83-7.17-19.14-8.3-29.25-.21-1.83-.59-5.37,1.7-5.85,2.72.05,10.64,4.65,13.14,6.32,3.78,2.52,7.18,5.55,10.07,9.04Z"/>
    <path class="st7" d="M107.08,53.9c-.78.13-1.37,2.47-1.57,2.62-.17.13-.31-.07-.42-.19-.46-.46-1.15-1.57-1.49-1.91l.03-.94c3.57-8.42,3.76-16.89,1.54-25.64-1.48-5.85-5.88,5.34-6.3,6.62-1.35,4.13-2.54,8.25-3.48,12.49l-.34.49c-.07.33-.12.62-.18.96-.04.25.12.29-.26.27-1.35-.43-2.72-.92-4.1-1.23l1.48-7.89c.04-.42.27-.75.61-1.01.49-3.76,1.97-7.35,3.46-10.84,1.67-3.92,3.6-7.93,6.01-11.33.57-.89,1.16-1.34,2.22-1.39,1.43.23,2.68,4.26,3.09,5.55,3.51,10.95,3.71,22.55-.3,33.37Z"/>
    <path class="st18" d="M49.84,31.91c-1.79,1.08-1.49,3.27-1.39,5.15.15,3.02.76,6.71,1.27,9.72,1.75,10.18,5.8,21.74,14.17,28.24l-.61.18c-3.09-.51-6.33-2.54-8.55-4.71-8.47-8.27-9.83-22.74-7.98-33.89.33-1.98.57-4.72,3.09-4.67Z"/>
    <path class="st25" d="M99.14,17.43c-3.04,2.5-6.29,5.98-8.71,9.09-1.82,2.33-3.51,4.84-4.82,7.49-.77.76-2.29,4.37-2.75,5.54-.88,2.23-1.67,4.64-1.96,7.03,3.04-.03,6.58.2,9.6.87.4.08.41-.18.48-.48.63-2.81.82-5.51,1.62-8.42,1.8-6.54,4.96-14.11,8.41-19.95.49-.84,1.74-2.75,2.49-3.27.25-.17.59-.12.79-.34-2.09-.34-3.65,1.22-5.14,2.45Z"/>
    <path class="st4" d="M114.06,78.5c2.81,5.51,5.91,10.12,6.45,16.67.39,4.7-1.94,8.3-6.98,7.59,1.43-7.44,1.02-16.47.22-24.04-.05-.47-.14-.48.31-.22Z"/>
    <path class="st20" d="M105.16,119.16c-.17.44-.13.79-.17,1.22-.18.21-.29.61-.35.87-1.44,2.29-4.23,3.91-6.61,5.18-1.54.82-6.86,3.29-8.27,3.13-.16-.02-.32-.06-.47-.11-.41-.71-.69-1.45-.87-2.27,4.05-.98,9.22-2.91,12.73-5.16,1.15-.74,2.06-1.74,3.16-2.52-.25-.46,1.07-1.08.87-.35Z"/>
    <path class="st17" d="M67.81,99.62c-.05,2.42-.44,5.07-.7,7.5-.34,3.19-.58,8.64-2.09,11.43-.61,1.13-1.95,2.85-3.32,2.88-.06-.05-.12-.11-.17-.17.02-.02-.02-.34.1-.51,2.58-3.53,2.58-8.22,3.47-12.41.69-3.22,1.7-6.36,2.49-9.55l.05-1.09c.31-.04.16.4.17.61.02.43,0,.88,0,1.31Z"/>
    <path class="st26" d="M112.14,107.3c0,1.8-2.89,6.71-4.05,8.26-.74.99-2.57,2.64-2.93,3.61l-.09-.17c-.16.36-.6.39-.79.52-.8-.51-.47-1.8-1.57-1.57l.2-.62c3.34-2.95,5.98-6.86,6.86-11.24l.44-.18c.05-.11.21-.52.27-.54.8-.19,1.64,1.2,1.65,1.93Z"/>
    <path class="st22" d="M110.22,105.9c-.36.85-.49,1.98-.84,2.91-1.28,3.4-3.87,6.84-6.66,9.13-6.67,5.47-22.22,10.28-23.03-2.88-.07-1.15.32-2.66.17-3.58.59-2.7,1.42-5.18,2.83-7.56,3.48-5.87,10.6-11.02,17.39-12.11,9.2-1.48,11.86,6.47,10.15,14.08Z"/>
    <path class="st28" d="M73.05,58.09c.08,1.28-1.28,2.28-1.99,3.33-1.12,1.67-2.37,3.82-3.28,5.62-.42.85-.7,1.96-1.18,2.84-.2.37-.23.48-.71.42-.51-.41-1.47-.78-2.1-1.31-3.87-3.27-7.31-10.06-8.67-14.89-.82-2.88-1.95-8.22-1.62-11.12.43-3.78,5.33-.85,7.04.29,3.68,2.45,12.23,10.27,12.51,14.8Z"/>
    <path class="st22" d="M103.59,54.42c-1.23-1.19-3.13-2.55-4.62-3.49-.65-.41-3.57-1.79-3.76-2-.33-.37-.13-1.01-.17-1.49,1.08-5.4,2.31-10.56,4.51-15.65,1.02-2.38,4.31-9.72,6.09-3.59,2.03,6.96,1.7,14.82-.35,21.72-.46,1.54-1.04,3.04-1.69,4.5Z"/>
    <path class="st23" d="M85.06,72.96c3.31-.23,5.08,2.79,4.73,5.79-.54,4.61-6.44,8.11-9.55,3.65-2.41-3.45.72-9.15,4.82-9.44Z"/>
    <path class="st15" d="M103.73,65.46c3.96-.43,4,5.62,2.81,8.22-1.38,3.02-5.06,5.34-6.91,1.37-1.41-3.02.48-9.2,4.1-9.6Z"/>
    <path class="st29" d="M81.39,85.18c3.63-.36,4.28,2.35,1.03,3.82-1.28.58-5.28,1.4-5.67-.51s3.22-3.17,4.64-3.31Z"/>
    <path class="st13" d="M106.46,79.55c1.3-.42.6,1.88.37,2.47-.76,1.95-2.99,3.49-4.94,2.05-1.12,2.07-3.5,3.49-5.73,2.06-.54-.35-1.72-1.6-1.26-2.25.61-.87,1.4,1,1.85,1.31,1.52,1.06,3.04,0,3.91-1.31.24-.37.3-1.06.74-1.19.72-.21,1.18.72,1.93.82,1.3.16,2.23-1.34,2.58-2.4.14-.42.01-1.39.54-1.56Z"/>
    <path class="st14" d="M109.31,74.19c3.28-.4,1.95,2.61.07,3.73-.86.51-3.77,1.37-4.04-.02-.38-1.97,2.27-3.5,3.97-3.71Z"/>
    <path class="st8" d="M102.43,78.34c2.36-.21.28,3.66-.96,3.94-1.41.32-4.12-1.16-2.41-2.58.43-.35,2.82-1.31,3.37-1.36Z"/>
    <path class="st11" d="M83.65,68.6c1.02-.18,1.92-.18,1.81,1.09-.09.99-1.39,1.02-2.12,1.39-.88.45-2.75,2.52-3.67,1.24-1.03-1.44,2.84-3.53,3.98-3.72Z"/>
    <path class="st24" d="M102.68,61.28c.97-.09,3.72.08,3.05,1.64-.47,1.1-2.57.72-3.62.75-.66.02-1.85.58-2.15-.48-.39-1.33,1.81-1.83,2.72-1.92Z"/>
    <path class="st21" d="M79.85,107.12c.27.25-.86,1.06-1.22.87-.27-.24,1-1.08,1.22-.87Z"/>
    <path class="st10" d="M85.79,141.85c-1.13.88-1.75,1.01-3.14,1.22q-.17-.29,0,0c-4.05.6-11.2-.85-12.92-5.14-1.48-3.68-2.54-8.14-3.84-11.96l.74.16c5.11,3.95,11.83,4.89,18.1,4.13l.7.26c-.15.6-.91,3.26-.87,3.58.04.42,1.65,1.94,2,2.54.77,1.32.99,3.06.1,4.35"/>
    <path class="st27" d="M101.49,133.82c-3.78.53-10.13-.75-12.22-4.36,5.7-1.59,11.08-4.05,15.36-8.2-.14.65-.92,3.28-.88,3.57s1.4,1.64,1.72,2.14c.94,1.44,1.42,3.27.38,4.77"/>
    <path class="st2" d="M65.55,124.75c-.05-.56.1-.35.44-.18,7.32,3.67,11.66,3.57,19.67,3.1.55-.03.3-.28.31.4-.22.67-.33,1.68-.52,2.44-6.66.98-14.3-.06-19.55-4.54-.12-.37-.24-.98-.35-1.22Z"/>
    <path class="st12" d="M99.6,115.82c.08.13,1.92,1.07,1.03,1.7-.64.45-1.6-.77-1.84-.77-.36,0-1.94,3.06-2.63,1.71-.29-.56,1.62-1.78,1.51-2.51-.02-.13-2.45-1.23-1.59-1.77s1.91.73,2.34.61c.61-.18.78-2.22,1.75-1.89s-.82,2.49-.57,2.92Z"/>
    <path class="st3" d="M85.57,74.71c4.21-.72,4.89,4.9,1.95,7.01-3.28,2.36-6.47-.73-5.01-4.32.46-1.12,1.83-2.49,3.06-2.7Z"/>
    <path class="st5" d="M102.85,67.72c3.84-.45,2.89,8.34-1.08,8.16-3.59-.16-2.39-7.75,1.08-8.16Z"/>
    <path class="st0" d="M83.47,76.79c1.38-.4,1.44,1.55.3,1.72-1.22.18-1.22-1.45-.3-1.72Z"/>
    <path class="st9" d="M103.46,68.78c1.23-1.13,1.39,1.7.21,1.71-.72,0-.66-1.29-.21-1.71Z"/>
  </g>
</svg>