<?xml version="1.0" encoding="UTF-8"?>
<svg id="Layer_1" xmlns="http://www.w3.org/2000/svg" version="1.1" viewBox="0 0 160 160">
  <!-- Generator: Adobe Illustrator 29.8.3, SVG Export Plug-In . SVG Version: 2.1.1 Build 3)  -->
  <defs>
    <style>
      .st0 {
        fill: #f6dca9;
      }

      .st1 {
        fill: #efc2af;
      }

      .st2 {
        fill: #f4e2b7;
      }

      .st3 {
        fill: #f3deaf;
      }

      .st4 {
        fill: #efb047;
      }

      .st5 {
        fill: #fac060;
      }

      .st6 {
        fill: #d4903a;
      }

      .st7 {
        fill: #d5a14d;
      }

      .st8 {
        fill: #fff3e2;
      }

      .st9 {
        fill: #572623;
      }

      .st10 {
        fill: #d69d49;
      }

      .st11 {
        fill: #f1c5b1;
      }

      .st12 {
        fill: #773d32;
      }

      .st13 {
        fill: #f2deac;
      }

      .st14 {
        fill: #d6a04c;
      }

      .st15 {
        fill: #ac7a4a;
      }

      .st16 {
        fill: #f09b6d;
      }

      .st17 {
        fill: #f7d8a6;
      }

      .st18 {
        fill: #ecae41;
      }

      .st19 {
        fill: #d6a864;
      }

      .st20 {
        fill: #ebad43;
      }

      .st21 {
        fill: #d8a351;
      }

      .st22 {
        fill: #763c31;
      }

      .st23 {
        fill: #804a34;
      }

      .st24 {
        fill: #9d6739;
      }

      .st25 {
        fill: #ef996c;
      }

      .st26 {
        fill: #c1725e;
      }

      .st27 {
        fill: #f2dfad;
      }

      .st28 {
        fill: #f1ddab;
      }
    </style>
  </defs>
  <g>
    <path class="st5" d="M107.36,44.1c.42-.36.55-.13.69.34,4.72,2.25,8.69,5.83,12.21,9.63.12.28.08.48-.22.48-.59-.27-5.19-1.87-4.61,0,.35,1.11,4.77,2.62,5.92,1.96.15-.31.35-.43.62-.37,6.07,7.97,10.06,17.42,11,27.5.21.31.35.65.43,1.01.08,6.81-.09,13.57-.51,20.3l-.26.35c-.7,8.63-3.84,20.6-11.35,25.78l-.38.67c-7.77,4.81-16.88,6.22-25.73,7.11l-.53-.22c-.85.24-4.15-.02-5.33,0-.6-.18-1.09-.16-1.45.07-9.17-.12-18.36-2.8-26.28-7.06l-.29-.57c-4.16-3.02-6.92-7.08-8.77-11.86-.14-.12-.27-.24-.39-.37s-.22-.27-.28-.42c-1.21-3.15-2.11-6.88-2.62-10.22-.02-.16,0-.33.04-.5s.09-.35.15-.52c-1.31-8.8-1.37-19.62.25-28.36.54-2.93,1.31-5.88,2.32-8.68l-.28-.23c-5.48-1.03-11.06-3.35-15.36-6.9h.45c3.59,1.94,7.2,3.67,11.01,5.19,1.17.46,3.95,1.45,4.79.22.65-.95,1.64-3.57,1.99-4.69.02-.07.09-.14.16-.19,3.09-5.23,6.79-10.81,11.85-14.28.21-.31.45-.53.7-.67,10.66-8.8,26.37-10.75,39.24-5.19.16.07.29.18.43.31s.26.27.38.42Z"/>
    <path class="st4" d="M107.36,44.1c-12.53-5.59-26.77-4.49-38.05,3.3-.44.3-1.06.96-1.44,1.16-.33.18-.55-.01-.57.01l-.92-.64c-6.82-8.69-16.71-14.46-27.07-17.71-5.37-1.68-16.43-4.01-13.06,5.19,4.72,12.89,14.84,24.52,28.34,27.76l.16.35.27.52c-.95,1.27-1.44,3.72-2.36,4.87-.75.94-2.83.22-3.85-.06-4.33-1.2-8.57-3.68-12.46-5.85-5.8-3.23-12.91-13.5-16.19-19.31-2.14-3.8-8.1-15.69-7.88-19.62.39-6.99,13.71-6.73,18.65-6.45,10.12.57,26.52,6.31,33.61,13.75.46.37.91.71.78-.14-1.77-6.09-2.65-12.55-2.24-19.05.38-6.03,1.53-9.19,7.97-7.37,10.2,2.88,21.94,10.66,28.57,19.01,4.56,5.74,6.41,10.49,7.84,17.58.14.67.38,2.31-.13,2.68Z"/>
    <path class="st6" d="M19.51,114.4c4.76-3.41,10.59-6.24,16.36-7.45,5.08-1.06,8.28-.71,13.19.67.55.15.34-.06.36-.45.59,3.99,1.64,8.27,3.09,12.03-.87,2.63-1.21,5.74-.84,8.49.09.64.6,1.91.46,2.39-.19.67-2.51,2.86-3.16,3.39-5.49,4.48-14.43,6.31-21.4,6.36-3.39-.36-5.39-1.24-6.59-4.66-1.01-1.4-2.16-2.71-3.43-3.93l.05-.52c-.11-.52,2.47-.41,2.59-.34.13.07.2.21.24.34,0-.14.03-.31.16-.36,2.84-1.11,5.77-2.49,2.34-5.49-1.07-.93-2.31-1.53-3.67-1.89-.36-.22-.38-.65-.07-.94,3.82-1.79,5.47-5.79.33-7.23l-.03-.42Z"/>
    <path class="st20" d="M132.63,105.29c.19-2.3.07-4.82.16-7.14.2-4.81.63-9.69.18-14.52,4.85-2.61,12.24-9.2,17.96-8.76,3.43.26,6.85,3.83,6.81,7.3-.07,6.2-10.87,14.14-15.6,17.42-3,2.08-6.19,4.19-9.51,5.7Z"/>
    <path class="st2" d="M19.51,114.4c.84.57,1.9.63,2.67,1.37,1.97,1.87.6,4.2-1.14,5.58-.47.37-1.23.66-1.6.95-.14.11-.17.29-.11.35s1.27.38,1.61.54c2.12,1.02,5.43,3.51,2.95,6-.59.6-2.65,1.54-3.45,1.54h-2.84c.85,1.24,2.29,2.3,3.17,3.45s1.42,3.15,2.5,4.03c1.21.98,2.99.82,4.3,1.63-12.59.1-26.28-11.21-25.28-24.5.1-1.34.25-2.73,1.91-2.41,2.29.45,5.06,2.45,7.47,2.67s5.45-.95,7.82-1.2Z"/>
    <path class="st18" d="M89.31,138.64c-.45,0-.91-.03-1.36.02-.76,3.8-.97,9.54-4.33,12.08-3.81,2.9-12.67,3.05-16.32-.16-1.56-1.37-2.68-4.53-3.31-6.49-1.36-4.22-2.18-8.63-2.7-13.02.51.37,3.15,1.59,3.95,1.98,6.41,3.13,13.26,4.68,20.38,5.24,1.19.09,2.53-.07,3.69.35Z"/>
    <path class="st18" d="M121.28,131.08c-1.04,5.1-1.65,10.98-3.75,15.76-2.74,6.21-9.79,7.28-15.81,5.43s-6.35-8.26-7.09-13.62c2.08-.58,4.77-.56,7.11-.88,6.18-.86,14.41-3.14,19.54-6.68Z"/>
    <path class="st19" d="M108.04,44.45c-.23-.11-.5-.26-.69-.34l-.2-2.64c-2.36-17.08-18.36-29.82-33.67-35.43-2.5-.92-6.99-2.75-8.74.19-2.27,3.83-1.3,14.91-.49,19.34.23,1.25,1.39,4.89,1.34,5.73-.07,1.08-.63.52-1.05.08l.69.34c-1.13-3.16-1.84-6.54-2.21-9.9-.41-3.75-.82-12.85,1.15-16,2.6-4.17,10.16-.37,13.5,1.17,15.12,7.01,29.79,19.51,30.37,37.45Z"/>
    <path class="st27" d="M134.65,44.65c.67-.13,1.44.27,1.56.95.21,1.17-1.99,2.63-2.84,3.28-1.63,1.23-3.36,2.43-5.3,3.12-.16-.13-.25-.2-.27-.43-.04-.53,1.86-2.67,2.33-3.18.79-.85,3.52-3.55,4.52-3.75Z"/>
    <path class="st14" d="M120.25,54.07c.78.85,1.03,1.16,1.72,2.06-.38,1.05-1.14.96-2.13.84-1.1-.13-4.68-1.21-4.76-2.47-.14-2.16,3.34-.88,4.45-.48.19.07.61.35.73.04Z"/>
    <path class="st3" d="M134.31,54.81c.67-.07,2.06-.24,2.52.3.56.65.21,1.57-.59,1.81s-5.22.14-6.03-.18c-.2-.08-.38-.17-.51-.35,0-.73,3.91-1.51,4.6-1.58Z"/>
    <path class="st28" d="M123.36,48.38c-.3-.2-.06-2.18,0-2.63.1-.72.65-3.66,1.3-3.85.98-.3,1.67,0,1.61,1.08-.05.78-1.6,4.78-2.16,5.24-.24.2-.46.24-.76.16Z"/>
    <path class="st0" d="M106.15,91.54c.58-.48,2.5.09,2.92.69,8.9,1.69,16.56,8.67,16.68,18.13.22,17.37-18.33,22.65-32.41,23.81-13.01,1.07-24.65-4.49-23.63-19.16.02-.24.05-1.28.51-1.12l.67.04c6.13,4.27,13.93.9,19.94-1.93,4.56-2.15,12.42-6.4,9.44-12.6-2.38-4.97-7.29-4.19-11.76-3l-5.84,1.9-.42-.23c-.35-.07.19-.45.26-.51,5.92-4.53,16.27-7.33,23.63-6.02Z"/>
    <path class="st13" d="M67.3,48.57c-.03.05.02.37-.16.61-.4.53-1.99,1.5-2.59,2.05-3.71,3.42-6.82,7.69-9.2,12.12-.16.2-.38.17-.6.17-1.74,0-6.72-2.28-8.43-3.18-8.9-4.66-15.69-13.44-19.5-22.61-1.05-2.53-3.06-6.65.08-8.51,3.76-2.23,11.61.25,15.52,1.68,9.67,3.54,18.71,9.34,24.88,17.66Z"/>
    <path class="st20" d="M82.26,98.08c5.29-1.61,14.17-5.87,17.91.4,4.66,7.79-6.58,12.84-12.24,15.15-6.15,2.51-11.78,4.49-17.7.26-5.26-3.75-13.19-15.14-6.17-20.53,5.67-4.35,10.43,2.55,14.38,5.72,1.33-.09,2.6-.63,3.83-1.01Z"/>
    <path class="st8" d="M90.64,61.85c5.46-.12,9.6,5.24,7.9,10.48s-7.18,7.08-11.8,4.33c-6.62-3.94-3.64-14.64,3.9-14.81Z"/>
    <path class="st8" d="M124.03,64.73c1.46,3.03,1.65,7.25-.49,10-1.87,2.39-5.43,2.35-7.41.14-.65-.49-1.1-1.16-1.47-1.89-3.83-7.55,4.42-16.04,9.37-8.25Z"/>
    <path class="st9" d="M113.34,90.24l-.58-.07c-1.24-3.18-4.71-5.36-8.19-3.35l-.6-.11c-.48-2.55-.96-6.55,1.8-6.37s8.25.76,9.66-1.89c1.53-2.86.52,9.48-2.09,11.79Z"/>
    <path class="st25" d="M83.42,78.36c1.93-.23,4.55-.1,6.06,1.24,2.46,2.18-.67,3.77-2.71,4.17-1.82.35-6,.15-7.18-1.5-1.67-2.33,2.06-3.7,3.84-3.91Z"/>
    <path class="st16" d="M125.54,76.98c1.45-.15,4.8.24,5.02,2.12.45,3.83-8.92,3.5-8.78.16.06-1.45,2.58-2.15,3.75-2.28Z"/>
    <path class="st23" d="M108.66,73.29c1.03-.12,4.39-.18,5.04.71.8,1.1-1.7,3.77-2.89,4.02-2.29.47-8.21-4.01-2.15-4.73Z"/>
    <path class="st26" d="M113.16,90.3c-.97.86-1.72,1.18-2.97,1.67-1.35-.23-2.83-.66-3.89-.83-1.48-1.33-2.17-2.51-2.51-4.37,2.44-1.75,5.69-1.27,7.66.83.82.87,1.07,1.78,1.71,2.71Z"/>
    <path class="st7" d="M89.61,53.26c1.74-.21,2.69,1.11,1.33,2.36-.85.78-4.39,2.25-5.5,2.24-.92,0-1.33-.76-1.08-1.6.35-1.15,4.08-2.85,5.25-3Z"/>
    <path class="st21" d="M82.77,75.9c-3.09-.54-4.37-5.14-2.32-7.39-.03,2.66.71,5.26,2.32,7.39Z"/>
    <path class="st17" d="M116.12,74.87c3.25,2.47,6.94,1.65,8.3-2.27,1.01-2.91.53-5.03-.39-7.87,2.56,4.02,1.36,12.27-4.39,12.04-1.27-.05-3-.67-3.52-1.9Z"/>
    <path class="st10" d="M125.41,75.04c1.09-1.94,1.54-4.14,1.63-6.36,1.81,1.88.76,5.52-1.63,6.36Z"/>
    <path class="st15" d="M95.62,123.03c.59-.11,1.45.2,1.38.89s-2.04,1.93-2,2.4c.08.88,2.8,1.87,1.88,3.14s-2.71-1.31-3.53-1.32c-1.4-.02-2,2.28-3.79,2.09-2.1-.23,1.23-3.12,1.81-3.71,0-.29-4.29-3.04-1.78-3.35,1.49-.18,2.58,1.51,3.42,1.53,1,.02,1.59-1.47,2.63-1.67Z"/>
    <path class="st22" d="M93.56,67.86c3.27-.66,3.5,4.62-.03,4.08-2.14-.33-2.1-3.64.03-4.08Z"/>
    <path class="st12" d="M121.06,67.17c1.59-.35,2.75,1.39,2.07,2.76-1.06,2.15-4.23.65-3.27-1.72.14-.35.82-.96,1.2-1.04Z"/>
    <path class="st11" d="M94.16,69.67c-.66-.65.31-1.8,1.09-1.18.82.66-.29,1.97-1.09,1.18Z"/>
    <path class="st1" d="M121.73,67.67c1.13-.38,1.71,1.45.32,1.37-.9-.05-.73-1.23-.32-1.37Z"/>
  </g>
  <path class="st24" d="M115.31,77.37c.19-.05.41.06.55.19.8.75-.66,2.54-1.32,2.98-.95.63-1.97.76-3.03.43-.26-.08-1.15-.58-1.23-.57-.14.02-.6.48-.86.6-1.88.85-4.05.47-5.67-.84-.48-.39-1.99-1.77-1.25-2.41.56-.49,1.15.63,1.56.97,1.53,1.26,3.27,1.93,5.1.9.24-.13.91-.73.98-.74.46-.09,1.9,1.38,3.24.83,1.1-.45,1.47-2.23,1.93-2.35Z"/>
</svg>