<?xml version="1.0" encoding="UTF-8"?>
<svg id="Layer_1" xmlns="http://www.w3.org/2000/svg" version="1.1" viewBox="0 0 160 160">
  <!-- Generator: Adobe Illustrator 29.8.3, SVG Export Plug-In . SVG Version: 2.1.1 Build 3)  -->
  <defs>
    <style>
      .st0 {
        fill: #d99b45;
      }

      .st1 {
        fill: #ebb44f;
      }

      .st2 {
        fill: #cf9342;
      }

      .st3 {
        fill: #f0deaf;
      }

      .st4 {
        fill: #d49f45;
      }

      .st5 {
        fill: #cf9140;
      }

      .st6 {
        fill: #915d2f;
      }

      .st7 {
        fill: #ee9c6d;
      }

      .st8 {
        fill: #f0dfb1;
      }

      .st9 {
        fill: #f6e6d0;
      }

      .st10 {
        fill: #eab34f;
      }

      .st11 {
        fill: #895237;
      }

      .st12 {
        fill: #7b4234;
      }

      .st13 {
        fill: #ce9241;
      }

      .st14 {
        fill: #f2c062;
      }

      .st15 {
        fill: #ab8250;
      }

      .st16 {
        fill: #d3923f;
      }

      .st17 {
        fill: #d3a047;
      }

      .st18 {
        fill: #f8f3e0;
      }

      .st19 {
        fill: #e7b04f;
      }

      .st20 {
        fill: #d19041;
      }

      .st21 {
        fill: #7b4232;
      }

      .st22 {
        fill: #e6b14c;
      }

      .st23 {
        fill: #d69946;
      }

      .st24 {
        fill: #f9ecda;
      }

      .st25 {
        fill: #f0deb0;
      }

      .st26 {
        fill: #f9f3df;
      }

      .st27 {
        fill: #f9dfb2;
      }

      .st28 {
        fill: #e6b04c;
      }

      .st29 {
        fill: #ee9d6f;
      }

      .st30 {
        fill: #cd913d;
      }

      .st31 {
        fill: #d08f40;
      }
    </style>
  </defs>
  <path class="st19" d="M105.62,127"/>
  <g>
    <path class="st14" d="M40.27,35.16c.12.25.19.51.19.79-.87,4.68-1.39,9.37-.63,14.1.02.13.77,2.31.88,2.38.09.06,1.46-1.55,1.49-1.65-.35-2.59-.36-5.18-.04-7.77l.38-.35.33.36c-.11.53-.27,6.77.32,6.69,2.94-2.65,6.25-4.91,9.92-6.24,1.2-.49,1.89-1.5,2.07-3.02l.36-.07c.3-.09.42.01.39.31l-.44,1.75,3.3-1c.68-.23,1.22-.2,1.63.08.1-.1.19-.2.31-.29s.21-.15.33-.18c3.39-.78,6.64-.97,10.05-.77,0-.48.18-.72.52-.72v1.31c2.81.31,5.66.98,8.35,1.81.87.27,1.34.94,2.21-.01v.5c-1.27,1.48-2.43,3.05-3.25,4.8.94,1.77,2,3.47,3.19,5.11.07-.45.67-2.51,1.17-2.25.07.04.14.1.2.16l.17.36c-.71,1.24-1.15,2.51-.3,3.83,2.43,4.01,3.93,8.75,5.07,13.36.41.07.61.25.59.57.08.27-.07.45-.44.52-.18.35.76,4.7,1.02,5.19.4.73,1.2,1.11,2.01.82l.68-.41c3.61-.48,7.01-1.95,9.92-4.14l.77-.18c.6,3.02,1.37,6.02,1.77,9.08.34,2.58.39,5.15.67,7.73l.81-.33c.16.28,0,.6-.5.94.24,10.56-.21,21.33-3.52,31.4.89-.15,1.63-.05,2.23.29-.67.4-2.41-.09-2.94.56-.22.27-.52,1.6-.74,2.04-.47.97-1.23,2.33-1.79,3.26-.47.78-2.22,2.91-2.41,3.46-.55,1.61.72,1.86,1.7,2.77-.71.71-2.34-.82-2.16-1.79l-.27-.17c-.04.15-.09.3-.16.43s-.13.26-.23.35c-3.78,3.22-7.53,6-12.28,7.6-1.54.52-6.2,1.81-7.52,1.43-.15-.04-.3-.11-.44-.18-.7.06-1.8.15-2.44.16-.16.09-.32.17-.49.22s-.33.11-.49.11c-7.94.08-16.57-2.31-23.47-6.22-1.6-.91-3.38-1.94-4.68-3.2-.01-.01.23.04-.12.12-1.37-1.83-3.18-3.02-4.71-4.82-4-4.73-6.26-10.39-7.64-16.4.57-.13,1.23-.07,1.97.18.76-.05,1.41.05,1.93.31.7,12.16,11.99,21.73,23.6,23.61,11.49,1.87,15.01-6.12,12.66-16.18-.33-.55-.5-1.07-.52-1.56l.64-.06c8.06,3.81,14.19-2.4,15.57-10.16l.21-.22c-.02-.16-.12-.28-.28-.35,1.4-5.8-2.3-11.84-8.47-8.1l-.35-.2c-1.31,1.09-2.63,2.22-3.98,3.37-5.13-1.49-10.73-2.46-15.73-.06l-.6-.05c-4.45-3.2-11.72-6.08-17.02-3.61l-.36-.15-.61-.25c-2.24-2.76-5.53-4.33-9.06-4.47l-.56-.34c-.7.08-.35-2.68-.22-2.78l.39-.07c-.13-.02-.32-.05-.32-.14-.04-.41-.04-3.18.11-3.34.05-.05.13-.08.22-.11-.58-.02-.05-2.29.1-2.33.02,0,.08.22-.1-.2.12-.12.28-.55.32-.74.29-1.62.28-3.56.51-5.2,1.08-7.4,3.47-14.84,7.56-21.13.31-.48,1.22-1.22,1.34-1.77.12-.58-.58-2.2-.74-2.94-.82-3.84-.41-9.42.32-13.3.13-.7.36-1.58.61-2.24Z"/>
    <path class="st16" d="M119.87,77.91c.39-.22.58-.3.59.22-2.17,5.38.5,7.3,5.72,4.92.45.31.46.9.02,1.77-1.93,5.61,1.66,9.71,5.91,3.92l1.11-1.59c.37-.22.77-.02.79.43.06,3.06.52,5.84,1.84,8.56.68,2.35-1.02,5.18-2.34,7.07-.49.74-1.71,2.06-2.35,2.78-6.71,7.44-16.58,13.27-26.73,14.03-.91.07-1.86-.03-2.76.08,3.62-10.16,3.91-21.09,3.74-31.82.05-.28.56-.6.81-.9,4.05-4.67,8.66-6.41,13.65-9.46Z"/>
    <path class="st1" d="M116.62,26.18c1.33,2.33.41,5.6-.3,8.06-4.45,15.44-11.36,32.46-25.47,41.03.42-.06.67.06.76.35-.04,0-.18.16-.39.17-1.81.11-1.87-.53-2.29-2.13-.16-.61-.89-3.94-.66-4.25.05-.07.57-.25.74-.32l.5-.57c9.78-4.75,15.4-15.75,18.58-25.65,1.87-5.82,1.02-8.45-5.71-5.76-6.27,2.51-12.17,7.03-16.9,11.83l-.7.24c-.38.38-.73.81-.97,1.31.32.35.13.55-.32.49-.69.1-1.03,2.36-1.14,2.45-.41.34-.58-.42-.74-.64-.62-.9-2.95-3.99-3-4.84-.02-.37,1.46-2.63,1.79-3.08.54-.74,1.22-1.55,1.78-2.21,6.57-7.66,18.47-13.3,28.07-15.94,1.73-.48,4.77-1.35,6.37-.54Z"/>
    <path class="st8" d="M133.52,103.21c.62-.94,2.27-4.93,2.25-5.96s-1.13-2.99-1.42-4.09c-.49-1.83-.52-3.89-.67-5.77-.39-.09-.26.07-.36.21-.95,1.4-2.64,3.91-4.44,4.18-4.75.7-3.61-5.78-2.5-8.47-1.64.67-3.41,1.46-5.2.9-2.79-.87-1.61-3.89-1.13-5.87.08-.31.36-.47-.17-.42,1.29-.79,5.11-4.67,5.82-5.98,1.38-2.53,1.63-6.08,2.67-8.74.63-1.62,2.66-.42,3.53.28,10.33,8.32,9.84,28.67,2.5,38.74-.24.33-.58.72-.88.99Z"/>
    <path class="st10" d="M65.12,2.68c.91.69,1.07,1.32,1.22,2.42s.13,2.3.1,3.44c-.14,4.96-1.01,10.83-1.86,15.76-1.01,5.87-2.45,11.69-4.17,17.21-.6.12-1.24.15-1.89.31-.53.13-2.85.97-3.07.95-.82-.1.43-1.8.08-2.39l-.18-.51c1.17-3.83,2.16-7.76,2.94-11.71.68-3.45,1.28-6.94,1.32-10.45.09-8.3-7.59,2.06-8.96,4.05-4.55,6.6-6.04,12.3-7.65,19.98-.07.34-.27.64-.46.92-.34,2.42-.46,3.53-.17,5.96.05.44.24,1.93.14,2.24-.18.58-1.28,1.14-1.52,1.74-.91.79-.87-1.97-1.46-2.44-.92-4.9-.17-10.15.73-15.01,1.94-10.5,12.33-24.44,20.72-30.84,1.05-.8,2.81-2.16,4.14-1.64Z"/>
    <path class="st28" d="M30.36,82.48c.49-.06.28.1.27.41-.04.63-.27,1.63-.27,2.12v3.59c0,.06-.15.27-.17.48-.05.72-.15,1.69,0,2.37l-.08.22c-.93-.03-2.92.54-.72.77,5.21-.3,10.68,2.9,11.93,8.24.46,1.98.03,4.12-1.49,1.5-1.52-1.55-4.94-1.63-.98.18,2.21,1.73,2.22,4.66-.66,5.53-.83-.79-1.64-1.6-2.44-2.44-.34-.41-1.73-.6-1.35.09,2.01,1.07,4.27,3.53.34,3.79-1.98.13-3.86-.83-5.43-1.91-.03.39-.17.61-.42.67-1.06-1.46-1.04-.91-2.42-1.73-4.62-2.75-5.1-8.51-3.83-13.28.99-3.7,3.23-7.05,6.09-9.55.43-.38,1.39-.82,1.63-1.06Z"/>
    <path class="st23" d="M116.62,26.18c.96.49,1.74,1.49,1.91,2.57.58,3.67-.18,10.35-.82,14.11-1.81,10.59-6.21,21.26-14.74,28.03-3.35,2.66-7.09,4.29-11.37,4.73h-1.14c0-.18-.03-.33.08-.49.23-.35,2.73-1.78,3.32-2.21,11.21-8.37,18.23-24.68,21.9-37.89.7-2.53,1.76-5.86.85-8.39-.05-.14-.17-.18-.3-.23l.3-.22Z"/>
    <path class="st0" d="M71.62,39.56c-.06.31-.3.68-.16,1.14-1.55-.04-3.07-.24-4.63-.16-2.18.11-4.33.55-6.42.98-.22-.27-.12-.49-.06-.78.47-2.41,1.5-5.06,2.1-7.53,1.33-5.55,2.33-11.56,2.98-17.24.34-3.01,1.24-9.51.3-12.17-.14-.4-.55-.66-.6-1.11,2.88,1.14,3.31,4.76,3.98,7.5,1.95,7.95,3.99,21.43,2.52,29.38Z"/>
    <path class="st22" d="M95.83,130.13c.09-.08.13-.34.32-.33-.04,1.02,1.12,2.25,2.11,2.28,4.19,3.89,1.94,14.24-2.6,17.3-1.47-1.36-2.15-2.49-1.98-4.57-.07-.43-.46-.08-.57.21-.44,1.14.46,3.82,1.58,4.46l.15.39c-1.99.88-3.16.85-5.2.16.02-.7-.16-1.45-.55-2.25-.31-4.93-1.05-.22-.56,1.41l-.36.19c-2.1-1.34-2.78-3.04-2.6-5.55-2.46.2-4.67-.57-6.82-1.63l.65-.43c7.02-.84,13.96-4.84,16.41-11.64Z"/>
    <path class="st20" d="M72.76,139.92c-.64,9.2-12.93,9.53-14.3.5-3.5.05-6.97-1.25-9.73-3.37-2.23-1.71-3.58-3.92-5.21-6.11-.05-.47.09-.4.41-.16,8.14,6.08,18.69,9.3,28.84,9.14Z"/>
    <path class="st13" d="M30.19,91.46c4.17.05,7.7,1.73,10.24,5.06,1.19.47,1.83,2.55,2.08,3.81.75,3.77-1.09,7.57-4.51,9.29-.81.41-2.14,1.07-2.93.6-1.24.2-2.72-.01-3.9-.49-.71-.29-1.82-1.01-2.27-1.63-.05-1.92,1.04-.57,1.84-.14,1.65.88,3.91,1.54,5.69.6.66-.35-.55-1.61-.95-1.93-.44-.35-2.07-.92-1.31-1.64.54-.51,1.21-.17,1.77.19s2.16,2.37,2.32,2.4c.58.11,2.02-1.63,1.99-2.35-.02-.41-.88-2.03-1.21-2.35-.61-.57-2.22-.9-2.32-1.6-.2-1.35,2.37-.12,2.88.22.69.45.94,1.34,1.16,1.53.3.25.46-.37.46-.56-.02-4.74-4.48-8.9-8.99-9.55-.82-.12-3.52-.04-3.98-.41-.37-.3,0-.83.33-.97.39-.18,1.16-.09,1.62-.09Z"/>
    <path class="st31" d="M95.83,130.13c.32.17.12.53.04.77-1.44,4.13-6.16,8.08-10.11,9.59-2.19.84-4.66,1.37-6.98,1.72-1.3-.64-2.67-1.26-3.57-2.45,8.83-.72,14.23-3.96,20.63-9.63Z"/>
    <path class="st30" d="M94.85,149.88c-1.65-.28-2.91-4.82-1.63-5.47,1.21-.61.7,1.63.89,2.38s.99,1.54,1.51,2.07c.25.25.29.15.04.54-.29.19-.48.34-.81.49Z"/>
    <path class="st2" d="M89.66,150.04c-.69-.23-.81-.24-1.46-.65.25-.81-.95-4.51.87-3.9.41.14.26,1.58.34,2.11.11.75.53,1.38.67,1.94.1.41-.07.47-.42.5Z"/>
    <path class="st25" d="M57.81,100.27l-.23.52c-10.92,7.43-.01,20.42,10.1,13.52.74-.28,2.43.88,3.09,1.4l.04.39c.69.58,1.18,2.46,1.29,3.36.43,3.66.4,8.14-1.8,11.22-4.38,6.11-13.89,3.57-19.61.99-7.41-3.35-13.74-10.22-15.58-18.3-.11-.48-.4-2.15-.38-2.58.02-.33.04-.41.34-.56,6.73-1.08,9.44-8.35,5.36-13.71.9-.67,2.69-1.06,3.82-1.14,3.57-.26,10.36,1.95,13.22,4.17.22.17.62.38.34.72Z"/>
    <path class="st3" d="M84.78,49.19c2.15-2.13,3.9-3.93,6.35-5.78,3.46-2.62,11.7-8.05,16-7.61,4,.41,1.37,6.87.56,9.23-3.11,9.08-9.43,20.36-18.69,24.07l-.89-.33c-.84-3.98-2.25-7.85-3.96-11.53-.6-1.3-1.87-2.56-1.58-4.14.1-.56.6-1.61.9-2.11.11-.19.2-.31.32-.49.25-.48.57-.94.97-1.31Z"/>
    <path class="st28" d="M78.12,97c.27-.06,1.07-.71,1.63-.89,1.35-.44,2.47-.52,3.82-.09,4.22,1.35,4.18,6.02,3.65,9.63-.38.26-.14-.2-.14-.17-.24,3.52-3.72,7.35-6.9,8.62-3.57,1.43-8.15.18-11.36-1.64-2.51,2.47-5.76,3.59-9.24,2.88s-1.73-2.87.11-4.46c.12-.07.47-.56.41-.59-1.15-.65-2.97,2.07-3.37,2.99-.78.89-1.69-.34-2.2-1.03-1.54-2.09.26-4.29,2.18-5.26.54-1-.62-.48-1.11-.07-2.99,2.64-2.07-.95-.96-2.7,3.76-5.92,14.54-5.38,20.15-2.73,3.18,2.43,4.19,1.65.71-.4-.42-.35-.23-.73.09-1.07l1.76-1.87c.19-.52.45-.9.76-1.14Z"/>
    <path class="st25" d="M55.54,40.38c-.26.81-.54,2.25-1.21,2.78-.82.65-2.92,1.3-3.99,1.86-2.63,1.38-5.11,3.22-7.22,5.31-1.2-2.37-.5-5.12-.57-7.67,1.26-9.08,4.48-17.62,10.56-24.55,2-2.27,6.56-7.27,6.83-.83.23,5.57-2.61,17.61-4.39,23.1Z"/>
    <path class="st5" d="M78.12,97c-.09,1.62-1.8,2.41-2.6,3.67,0,.19,2.34,1.15,2.44,2.13.17,1.66-2.76-.75-3.14-.94-5.8-2.91-18.27-3.33-20.69,4.25-.05.14-.51,1.72.03,1.5.33-.14,2.58-2.37,2.98-1.2.31.9-.81,1.08-1.35,1.53-.87.72-1.87,2.21-1.42,3.38.18.48,1.41,2.24,1.99,1.93.12-.06,1.04-1.84,1.48-2.28.57-.58,1.7-1.44,2.51-.93.48.67-1.2,1.6-1.62,2.15-.25.33-.91,1.52-.9,1.87,0,.57,1.6.92,2.07,1.01,3.45.69,6.34-.68,8.9-2.9,3.4,1.74,8.03,3.15,11.67,1.46,3.28-1.53,5.72-4.79,6.52-8.3l.25.33c-1.26,8.59-7.63,14.69-16.41,10.44-.47-.23-2.52-1.63-2.68-1.63-.19,0-2.55,1.43-3.39,1.65-11.02,2.95-16.85-10.17-6.93-15.85,3.24-1.86,7.64-2,11.25-1.42,1.7.27,3.39.8,5.06,1.23.26-.05,2.53-2.44,3.04-2.81.73-.54.7-.2.96-.26Z"/>
    <path class="st18" d="M60.57,75.63c2.81-5.13,8.85-3.13,11.11,1.32,3.21,6.3-2.45,12.86-8.51,8.31-.36-.37-.69-.85,0-.65.41-.15.91-.13,1.49.07,7.42-.7,2.45-12.92-3.23-7.28-.21.56-.5.95-.86,1.17-.15.06-.32.13-.46.06-.55-.29.25-2.5.46-3Z"/>
    <path class="st26" d="M42.01,63.43c5.32-.8,8.01,8.35,5.92,12.31-2.38,4.48-7.15.97-8.56-2.4-1.16-2.8-1.23-9.33,2.64-9.91Z"/>
    <path class="st29" d="M68.66,87.59c2-.23,5.16.61,6.54,2.15,1.76,1.95-.09,3.55-2.2,3.53-1.71-.02-6.24-1.2-6.57-3.2-.28-1.71.7-2.3,2.23-2.47Z"/>
    <path class="st6" d="M44.93,84.88c.13-.09.09-.42.45-.46.96-.1,1.29,1.51,1.78,2.14.83,1.06,2.43,1.89,3.75,1.31,1-.43,1.78-2.77,2.77-1.99s-.79,2.49-1.51,2.92c-2.8,1.65-5.41.05-6.97-2.4-2.51,1.51-5.14-.24-6.04-2.74-.32-.88-1.11-3.49.66-2.95.68.21.35,1.01.46,1.5.33,1.52,1.54,3.48,3.33,3.21.29-.18,1.14-.42,1.33-.55Z"/>
    <path class="st7" d="M34.7,74.19c2.13-.48,5.37.91,6.23,2.98,1.42,3.46-3.31,2.68-4.96,1.56-1.09-.74-3.63-4-1.26-4.54Z"/>
    <path class="st4" d="M65.73,67.34c1.92-.55,5.5,1.38,6.55,2.98.91,1.4-.21,2.31-1.67,2-.9-.19-1.94-1.46-2.82-1.89-.73-.36-2.17-.5-2.53-1.37-.24-.58-.22-1.52.48-1.72Z"/>
    <path class="st11" d="M48.61,80.95c.3.27.66.32.75.8.38,1.98-3.14,3.01-4.55,1.79-1.12-.97-2.9-4.55-.1-4.32,1.07.09,3.11,1.01,3.9,1.72Z"/>
    <path class="st17" d="M47.53,61.22c-.52.65-1.7.21-2.31.2-1.29-.01-3.92.38-4.64-.88-.32-.56-.1-1.39.43-1.71.06-.04,1.25-.45,1.33-.46,1.4-.24,4.09.02,5.07,1.18.35.42.45,1.26.12,1.67Z"/>
    <path class="st27" d="M60.57,78.56l.26.35c-.32,2.01.39,4.22,2.21,5.26l.13.43c-.28.09-.13.47,0,.65-2.98-2.24-4.53-6.1-2.6-9.63-.07.89-1.06,2.36,0,2.94Z"/>
    <path class="st14" d="M84.78,49.19c-.07.52-.7.91-.97,1.31.06-.34.34-.92.58-1.14.16-.15.38-.15.4-.17Z"/>
    <path class="st15" d="M52.59,123.14c.5.88-2.05,1.67-2.1,2.18-.07.77,2.72,2.64,1.47,3.26-1.08.54-2.45-2.16-2.71-2.22-.78-.16-1.18,1.16-2.38.79-1.59-.48,1.09-1.99,1.16-2.36.09-.47-1.88-2.85-.79-3.41s1.55,2.02,2.06,2.19c.67.23,1.64-.77,2.43-.79.18,0,.8.27.85.35Z"/>
    <path class="st21" d="M60.57,78.56c.69-2.99,4.34-3.94,6.56-1.78,3.57,3.48.7,9.92-3.96,7.82-2.22-1-3.12-3.77-2.6-6.04Z"/>
    <path class="st12" d="M43.31,67.35c4.16-.7,6.1,6.7,2.64,8.85-2.56,1.59-4.9-1.43-5.18-3.76-.21-1.8.43-4.73,2.54-5.08Z"/>
    <path class="st24" d="M66.54,77.61c1.89-.37,1.77,3.28-.18,2.24-1.03-.55-.84-2.04.18-2.24Z"/>
    <path class="st9" d="M43.47,68.5c.93.75.17,2.57-1.09,1.99-1.36-.63-.31-3.12,1.09-1.99Z"/>
  </g>
</svg>