<?xml version="1.0" encoding="UTF-8"?>
<svg id="Layer_1" xmlns="http://www.w3.org/2000/svg" version="1.1" viewBox="0 0 160 174.77">
  <!-- Generator: Adobe Illustrator 29.8.3, SVG Export Plug-In . SVG Version: 2.1.1 Build 3)  -->
  <defs>
    <style>
      .st0 {
        fill: #fde6df;
      }

      .st1 {
        fill: #f6acb8;
      }

      .st2 {
        fill: #b92531;
      }

      .st3 {
        fill: #f1949f;
      }

      .st4 {
        fill: #ee99a6;
      }

      .st5 {
        fill: #fff;
      }

      .st6 {
        fill: #dd8d96;
      }

      .st7 {
        fill: #f396a0;
      }

      .st8 {
        fill: #f495a1;
      }

      .st9 {
        fill: #ed8087;
      }

      .st10 {
        fill: #fbf3e7;
      }

      .st11 {
        fill: #db7a86;
      }

      .st12 {
        fill: #d0838f;
      }

      .st13 {
        fill: #de7380;
      }

      .st14 {
        fill: #f39492;
      }

      .st15 {
        fill: #dcd4d2;
      }

      .st16 {
        fill: #f38c97;
      }

      .st17 {
        fill: #f395a0;
      }

      .st18 {
        fill: #fae1da;
      }

      .st19 {
        fill: #f09293;
      }

      .st20 {
        fill: #dc8b94;
      }

      .st21 {
        fill: #b92530;
      }

      .st22 {
        fill: #ed99a5;
      }

      .st23 {
        fill: #faf4e6;
      }

      .st24 {
        fill: #ef8492;
      }

      .st25 {
        fill: #fbf1e7;
      }

      .st26 {
        fill: #db7d87;
      }
    </style>
  </defs>
  <path class="st1" d="M41.02,117.35c-1.44-11.32-1.37-24.67,1.29-35.8,2.16-9.03,6.4-17.2,12.52-24.15-5.01-7.09-9.92-14.45-12.91-22.67-3.2-8.81-5.7-24.17,6.32-27.32,13.98-3.66,20.53,14.8,22.92,25.23,1.11,4.82,1.7,9.73,2.02,14.67,2.95-.32,6.37-.59,9.34-.35.62-.31,1.37-.31,2.25-.02l2.73.61.38.45c.15-.05.3-.1.46-.12,1.13-.16,8.26,2.64,8.98,3.53.1.12.18.26.25.4,1.36.1,3.16,1.22,3.8,2.42.14,0,.29,0,.43.04,1.17.26,4.74,4.37,5.7,5.55,1.04,1.27,4.93,6.41,4.98,7.65,0,.14-.01.28-.04.42.17.13.33.27.48.42s.29.3.37.48c3.85,7.9,6.59,17.7,6.24,26.25-.02.46,0,.92,0,1.38l.17,2.59c.03,12.55-.46,31.66-8.82,41.68-.01.15-.03.3-.07.44-.34,1.16-3.93,3.77-5.13,4.55-4.26,2.78-9.76,4.73-14.77,5.6-.12.02-.25-.01-.39-.05s-.27-.1-.4-.16c-5.16.9-10.53,1.04-15.74.52-.13.07-.27.14-.41.19s-.27.08-.4.07c-6.29-.58-13.54-2.49-18.86-5.95-9.77-6.34-12.39-16.91-13.94-27.73-.02-.12.02-.26.06-.4s.11-.28.18-.41Z"/>
  <path class="st8" d="M109.33,32.27c7.92,3.16,19.66,10.91,22.78,19.15,4.54,11.96-4,28.47-10.16,38.61-.42.21-.53.03-.64-.36-.38-8.19-3.55-15.59-7.82-22.47l.16-.86-.08-.72c2.81-6.92,1.02-10.4-5.03-13.94l-4.08-2.1-.31-.54c-.23-.1-.41-.12-.57.11-5.94-2.68-16.61-7.94-11.59-16,3.48-5.59,12.16-3.3,17.16-1.32l.19.45Z"/>
  <path class="st4" d="M109.5,30.88c-.1.29-.22.51-.53.4l-3.5-1.34-.29-.44-.3-.41c.54-5.11-1.5-11.54-7.67-11.2s-8.04,10.76-8.54,15.51c-.49,4.67-.5,8.71-.5,13.37,0,.43-.14.84-.28,1.24-1.65-.4-3.68-.9-5.36-1.04.56,0,.48.2.44-.35-.35-4.9-.95-9.61-.61-14.61.66-9.58,3.53-29.62,17.4-26.23,11.32,2.77,11.04,15.92,9.74,25.1Z"/>
  <path class="st17" d="M38.6,118.04l.61-.11c-.32,5.58.58,11.32,2.93,16.46,1.9,3.49,3.71,7.58.96,11.15-1.21,1.58-3.74,3.16-5.71,2.24-.29-.23-.64-.5-.86-.78-.31-.4-.84-1.68-1.16-1.79-.43-.14-1.73.33-2.39.34-3.84.05-6.54-4.12-6.14-7.71.12-1.06,1.55-3.31,1.52-3.6-.04-.4-.82-1.14-1.04-1.55-1.21-2.26-.83-5.63.73-7.64,1.75-2.24,3.9-2.35,6.57-2.42.68-2.11,1.93-3.69,3.97-4.59Z"/>
  <path class="st8" d="M72.84,155.05c-2.54,5.65-5.74,12.94-12.58,14.14-3.01.53-8.1.03-9.7-3.01-2.25-4.31.32-14.75,1.18-19.6l.6-.05c5.82,4.65,13.05,7.41,20.3,8.15l.2.38Z"/>
  <path class="st3" d="M111.92,143.46c1.59,4.36,5.17,14.2,3.89,18.5s-7.92,5.21-11.5,4.42c-5.73-1.26-9.79-7.87-12.62-12.54l.79-.44c7.36-.89,14.53-4.27,19.02-9.98l.43.05Z"/>
  <path class="st8" d="M41.02,117.35c1.19,9.36,3.43,19.32,10.72,25.86,6.02,5.39,14.77,7.6,22.66,8.38-.4,1.21-1.05,2.33-1.56,3.46l-4.01-.57c-4.66-1.01-9.24-2.67-13.27-5.24-1.31-.84-2.47-1.93-3.82-2.67.07-.37.44-2.32.34-2.42-1.1.39-2.5-.02-3.54.17-.61.11-.9,1.69-1.32,2.31-2.18,3.2-6.89,3.47-9.83,1.15,3.48.31,6.56-2.48,6.75-5.96.17-3.17-1.42-5.18-2.56-7.83-1.98-4.59-3.1-10.41-2.68-15.4.03-.33.25-.64-.3-.55.77-.34,1.57-.59,2.42-.69Z"/>
  <path class="st8" d="M111.92,143.46l-3.28,3.55c-4.75,3.96-10.83,6.17-16.95,6.83-.54-.89-1.32-1.71-1.56-2.77,7.46-1.3,15.8-4.44,20.75-10.38.29.94.7,1.85,1.04,2.77Z"/>
  <path class="st13" d="M105.18,29.5c1.16.31,2.45.95,3.6,1.35.25.09.47.24.73.04-.06.45-.27.89-.17,1.38-5.1-2.03-14.35-4.65-17.47,1.81-3.83,7.91,7.02,12.39,12.29,14.97l-1.09,1.92-.47.16-.4.11c-.82-.48-1.7-.84-2.64-1.08l-.08-.41-.52.14c-4-1.91-8.68-5.09-9.28-9.84-.93-7.26,4.15-11.51,11.06-11.48.79,0,3.55.16,4.07.49.18.11.31.26.39.45Z"/>
  <path class="st11" d="M121.95,90.03c-1.09,1.8-2.33,2.87-2.42,5.02l-.54-5.94c-1.13-7.46-3.04-14.52-6.55-21.21.31-.47.61-.95.81-1.48l.41-.07c-.09.41.07.57.25.87,4.49,7.72,7,12.87,7.7,22.04.02.31.06.6.35.77Z"/>
  <path class="st11" d="M119.71,99.02c-.32-.71-.17-1.77-.17-2.59.32.71.17,1.77.17,2.59Z"/>
  <path class="st23" d="M67.13,127.55c.13-.17.26-.33.43-.22,9.81,6.69,27.34,5.85,32.42-6.35l-.28-.32c.15-.6.36-1.18.62-1.75l-.34-.45c0-5.86-5.26-6.48-9.86-6.9-3.58.09-7.01-.4-10.31-1.47l-.24-.33c-.31-.38-.03-.37.23-.55,15.33-10.74,40.93-3.24,34.62,19.23-6.54,23.28-50.4,26.43-47.3-.86Z"/>
  <path class="st7" d="M79.59,109.74c1.27.48,2.57.8,3.92,1.01,6,.92,17.15-1.02,16.83,8.16-1.22,3.11-5.08,5.09-8.13,6.13-12.46,4.22-26.97-1.85-34.85-11.87-1.55-1.97-3.01-4.14-3.19-6.71.26-3.63,4.54-7.19,8.2-6.56,5.05.87,11.79,7.8,17.22,9.85Z"/>
  <path class="st16" d="M60.81,21.99c4.45,4.96,7.3,17.41,7.71,24.03.04.7.16,3.35-.3,3.72-1.77.78-6.14,4.26-7.91,4.14-.63-.04-1.4-1.14-1.82-1.64-4.86-5.86-11.76-19.8-10.3-27.41,1.32-6.88,8.25-7.71,12.62-2.83Z"/>
  <path class="st24" d="M87.89,48c-.34-5.9-.16-11.86.92-17.67.79-4.26,2.86-12.34,8.15-12.77,6.72-.55,8.94,6.43,8.22,11.94-7.74-2.05-16.11,1.08-15.2,10.27.48,4.84,5.45,8.12,9.49,9.96.2.52-.97,2.01-1.44,2.18l-.46-.1c-2.98-1.63-6.38-3-9.68-3.8Z"/>
  <path class="st26" d="M54.16,106.46c1.06,4.2,4.43,7.98,7.61,10.81,6.98,6.22,15.87,9.6,25.31,8.54,4.99-.56,10.34-2.65,13.25-6.9-.03.84-.15,1.29-.35,2.08-2.8,7.73-13.15,8.63-20.22,7.52-2.19-.34-10.36-2.44-11.42-4.04-.08-.11-.13-.24-.18-.37-.15.02-.29.02-.43,0-1.45-.15-6.2-4.66-7.44-5.95-2.26-2.35-4.51-4.98-5.61-8.07-.3-1.35-.62-2.15-.52-3.63Z"/>
  <path class="st23" d="M67.13,127.55c0-.06,0-.12,0-.17-.58-.43.2-3.38.6-3.45l.44.16c6.34,3.74,15.64,5.62,22.83,3.72,3.68-.97,7.5-3.2,8.99-6.83-.65,2.59-1.89,4.29-3.9,6.05-7.02,6.13-19.17,6.06-27.06,1.65-.66-.37-1.16-.95-1.9-1.13Z"/>
  <path class="st2" d="M82.18,77.23c.73.23.59,1.59.48,2.27-.96,6.27-10.88,6.77-11.23-.98-.04-.81.08-2.74,1.07-2.67.07-.08.37-.28.47-.3.63-.16,4.35.37,5.3.5.71.09,2.98.31,3.45.53.18.08.42.49.46.66Z"/>
  <path class="st10" d="M82.18,77.23c.06-.25-.22-.74.25-.68,1.12.13,2.24.35,3.37.35,1.03,3.83-1.38,8-5.13,9.1-5.4,1.58-10.62-2.66-10.05-8.32.04-.37.49-2.2.7-2.33.19-.12,1.5-.25,1.18.49-1.43,1.67-.57,5.31.95,6.74,3.79,3.58,10.16-.37,8.73-5.36Z"/>
  <path class="st21" d="M108.81,75.15c1.02.14,1.25,2.12,1.22,3.06-.16,5.73-7.63,7.29-9.22,1.24-.16-.63-.42-1.84.04-2.23.02-.13.3-.59.46-.66,2.49-.51,4.99-.96,7.49-1.41Z"/>
  <path class="st9" d="M96.71,87.61l-.17.4c-.7-.02-1.34.08-1.9.3-.16-.22-.13-.41-.39-.57-.83-.55-1.87-.91-2.71-1.6-1.46-1.21-2.49-3.26-.22-4.17,1.57-.63,5.52-.82,7.13-.33,1.44.44,1.15,2.32.6,3.39-.27.54-1.85,2.39-2.34,2.58Z"/>
  <path class="st19" d="M70.9,86.79c1.74-.22,6.72.35,6.63,2.8-.1,2.77-5.72,2.89-7.66,2.46-4.99-1.1-3.14-4.73,1.03-5.26Z"/>
  <path class="st1" d="M54.68,110.09c.86,1.42,1.68,2.81,2.7,4.14,2.86,3.75,6.73,7.47,10.79,9.87-.43-.09-.38.19-.47.48-.28.87-.46,1.91-.57,2.81-2.82-1.65-5.42-4.26-7.41-6.86-2.53-3.31-4.15-6.38-5.04-10.43Z"/>
  <path class="st25" d="M108.81,75.15c.54-.1,2.55-.73,2.92-.5,1.44,3.39.43,9.26-3.6,10.27-4.61,1.16-8.29-3.96-7.62-8.22l.34.52c-.43,2.23,1.04,5.04,3.32,5.59,4.39,1.06,6.97-4.28,4.64-7.66Z"/>
  <path class="st12" d="M94.63,88.3c0-.13-.03-.5,0-.52.08-.07,1.65,0,2.08-.17-.15,1.51.01,2.04,1.38,2.69,2.7,1.29,4.29-.18,5.88-2.17-.49,2.94-2.51,4.55-5.53,3.98-.32.56-1.99-.07-1.9-.69l-.38.17c-.33-.38-.66-.49-1.01-.34-.35,1.04-2.64,2.07-3.63,1.56-2,.33-3.68.17-5.48-.83-.46-.26-2.91-2.19-3.17-2.53-.73-.98.21-2.43,1.22-1.91.42.22.27.81.51,1.22.94,1.62,4.3,2.84,6.13,2.65,1.98-.2,3.8-.88,3.91-3.09Z"/>
  <path class="st14" d="M113.27,85.41c1.18-.03,4.05.7,4.2,2.11.38,3.43-6.61,3.28-8.23,1.65-2.19-2.19,2.33-3.72,4.03-3.76Z"/>
  <path class="st5" d="M95.15,91.24c.28-.32.56-.26.71.15-.13,2.53-.04,2.57.29.12l.39-.09c.71.36,1.1.54,1.9.69.95.54-.49,2.76-1.04,3.19-1.11.87-3.36.83-4.48,0-.5-.37-1.59-1.79-1.39-2.5,1.4-.23,2.48-.75,3.63-1.56Z"/>
  <path class="st6" d="M83.19,70.46c-.04.06-.78.34-.93.36-1.25.17-6.13-.99-6.43-2.37-.5-2.25,4.39-1,5.54-.52.8.34,2.46,1.49,1.83,2.52Z"/>
  <path class="st20" d="M106.18,66.55c.49-.04,1.59.05,1.74.6.38,1.35-3.23,3.07-4.29,3.26-1.19.21-2.85.41-2.32-1.28.42-1.35,3.58-2.49,4.87-2.58Z"/>
  <path class="st22" d="M102.59,51.12c-.48.93-1.08,2.09-1.21,3.11-1.18-.9-2.5-1.71-3.8-2.42.92-.26,1.16-1.48,1.9-2.08.91.42,2.33.59,3.11,1.38Z"/>
  <path class="st0" d="M74.16,76.42c1.55-.09,1.91,2.48.14,2.56-1.9.08-1.74-2.47-.14-2.56Z"/>
  <path class="st18" d="M102.36,76.75c1.91-.56,2.13,1.94.62,2.18-1.17.19-1.85-1.82-.62-2.18Z"/>
  <path class="st15" d="M96.53,91.41c-.39,1.07-.1,2.63-1.04,3.46-.03-1.01.04-2.03,0-3.03-.01-.33.18-.69-.35-.6.11-.08.21-.43.43-.5.07,0,.77.57.95.67Z"/>
</svg>