<?xml version="1.0" encoding="UTF-8"?>
<svg id="Layer_1" xmlns="http://www.w3.org/2000/svg" version="1.1" viewBox="0 0 160 174.77">
  <!-- Generator: Adobe Illustrator 29.8.3, SVG Export Plug-In . SVG Version: 2.1.1 Build 3)  -->
  <defs>
    <style>
      .st0 {
        fill: #ae2931;
      }

      .st1 {
        fill: #d4858e;
      }

      .st2 {
        fill: #f49b9a;
      }

      .st3 {
        fill: #fff4e6;
      }

      .st4 {
        fill: #f8e4e0;
      }

      .st5 {
        fill: #e19199;
      }

      .st6 {
        fill: #fff3ea;
      }

      .st7 {
        fill: #f0bea9;
      }

      .st8 {
        fill: #f29b9b;
      }

      .st9 {
        fill: #f498a5;
      }

      .st10 {
        fill: #f9dccf;
      }

      .st11 {
        fill: #e1929a;
      }

      .st12 {
        fill: #f4909d;
      }

      .st13 {
        fill: #f7d5b2;
      }

      .st14 {
        fill: #fcfcfb;
      }

      .st15 {
        fill: #f498a6;
      }

      .st16 {
        fill: #fdf4e9;
      }

      .st17 {
        fill: #f39284;
      }

      .st18 {
        fill: #eb818e;
      }

      .st19 {
        fill: #b35655;
      }

      .st20 {
        fill: #f498a3;
      }

      .st21 {
        fill: #b02933;
      }

      .st22 {
        fill: #f5b1be;
      }

      .st23 {
        fill: #f497a6;
      }

      .st24 {
        fill: #f9e2d8;
      }

      .st25 {
        fill: #fad5a8;
      }
    </style>
  </defs>
  <path class="st22" d="M116.82,70.76c.2.14.4.29.57.47,1.44,1.43,3.47,8.02,4.15,10.33s2.67,9.47,2.21,11.48c-.05.23-.14.46-.24.68,2,16.32,3.62,40.43-12.19,51.14-.22.46-.48.79-.88,1.11-2.28,1.8-7.65,3.49-10.59,4.3-2.35.65-12.68,2.87-14.36,2.14-.17-.07-.32-.17-.47-.28-1.98.09-4-.09-5.98,0-.79-.18-1.36-.09-1.72.3-7.66-.49-15.49-1.85-22.26-5.94-.15-.09-.26-.24-.37-.41s-.2-.35-.28-.54c-.68-.44-1.81-1.11-2.39-1.59-2.18-.68-3.95-3.25-5.22-5.13-4.08-6.02-6.2-14.39-6.87-21.47-.01-.14.04-.29.11-.45s.16-.31.27-.46c-.56-5.13-.79-10.3-.72-15.46l.66-.07c2.89,2.29,6.75,4.51,10.4,2.36,6.97-4.11,3.04-11.36-.57-16.33-2.61-3.16-5-6.43-7.16-9.81l.25-.47c1.57-6.59,4.86-12.67,9.07-18.05-9.1-6.53-18.02-14.56-23.7-24.08-4.1-6.86-6.76-16.11.65-21.97,7.72-6.11,16.57-2.03,22.59,3.96,8.28,8.24,13.79,19.85,17.45,30.58,3.31-1.16,6.79-1.47,10.28-1.82-3.69-8.81-7.91-17.93-9.29-27.42-1.1-7.53-.31-16.89,9.89-17.13,11.98-.28,17.77,11.47,20.08,20.91,2.39,9.77,2.5,19.99.62,29.85,7.52,4.95,12.24,11.45,15.99,19.25Z"/>
  <path class="st9" d="M39.6,100.99c-7.24-5.77-20.3-22.43-19.33-31.68.57-5.45,6.45-9.26,11.66-6.14,4.3,2.57,8.42,9.62,11.26,13.5.49.67,1.02,1.83,1.62,2.66,4.09,5.63,15.46,16.95,7.35,23.48-4.46,3.59-8.78,1.18-12.56-1.82Z"/>
  <path class="st23" d="M123.51,93.72c-1.03-8.41-3-15.29-6.69-22.96.6.1.81-.82,1-1.21,2.9-6.04,8.45-24.73,18.82-17.07,7.4,5.47-.14,22.13-3.68,28.51-2.56,4.6-5.64,8.98-9.45,12.72Z"/>
  <path class="st20" d="M40.32,116.45c1.06,9.64,3.7,20.85,11.71,27.5-.84.73-3.17.18-3.83.57-.33.19-.95,1.88-1.33,2.38-2.2,2.93-7.04,3.43-10.08,1.43-.91-.6-2.65-2.92-2.86-2.98-.29-.09-2.6.28-3.52.18-4.22-.49-6.39-4.49-5.86-8.25.12-.88,1.4-2.99,1.38-3.16-.03-.2-.98-1.33-1.2-1.82-2.15-4.65.4-9.88,5.94-10.3.57-.04,1.43.4,2,.04.13-.08.85-1.99,1.33-2.6,1.5-1.92,3.74-3.2,6.31-2.97Z"/>
  <path class="st15" d="M79.05,152.13c-.46.02-1.26-.15-1.56.22-.13.16-.88,3.06-1.13,3.7-1.81,4.66-7.26,15.98-12.38,17.55-5.47,1.68-12.44-1.96-13.12-7.52-.8-6.63,2.8-13.97,3.56-20.55,5.07,3.29,10.84,4.99,16.89,5.88l7.74.71Z"/>
  <path class="st9" d="M85.02,152.13c8.32-.38,19.43-2.63,26.3-7.27-1.36,6.05-3.67,12.31-6.81,17.73s-6.12,9.53-13.4,7.05c-8.35-2.85-7.11-10.69-6.09-17.51Z"/>
  <path class="st16" d="M90,103.33c15.78-1.33,30.75,8.59,26.51,24.98-4.76,18.41-44.72,26.32-52.8,7.61-6.68-15.48,11.03-31.3,26.29-32.59Z"/>
  <path class="st12" d="M41.22,20.59c6.3-.86,12.09,6.64,14.98,11.1,3.49,5.39,6.24,11.3,8.24,17.33l-7.33,4.89c-.28.11-.45-.07-.67-.17-1.17-.53-4-2.85-5.13-3.77-5.42-4.39-14.97-13.9-15.95-20.75-.57-3.94,1.41-8.02,5.86-8.63Z"/>
  <path class="st12" d="M96.02,48.72c-3.37-1.06-6.65-2.37-10.18-2.93l-.53-.4c-2.42-7.15-6.09-14.48-6.97-22.01-.41-3.5-.61-8.97,3.52-10.51,5.51-2.07,9.84,3.43,11.72,7.62,3.82,8.48,3.96,19.26,2.45,28.25Z"/>
  <path class="st1" d="M92.91,83.03c.1-.65,1.61-.72,1.67,0,.11.04.8,1.44,1.31,1.82,2.62,1.98,5.37-.38,6.73-2.49,1.67.55.23,1.89-.04,2.93-1.06,4.09-.91,8.33-4.91,11.24-7.36,5.35-15.87-2-16.89-9.13-.51-3.57,1.02-1.95,2.76-1.26,3.64,1.44,8.5,1.25,9.37-3.12Z"/>
  <path class="st0" d="M78.33,81.9c-1.62-.24-4.47.03-5.74-.45-2.66.15-3.32-3.36-2.92-5.36,1.38-6.94,11.17-6.88,12.12.24.29,2.14-.97,5.57-3.46,5.58Z"/>
  <path class="st6" d="M78.33,81.9c5.58-3.01,3.06-11.5-3.65-10.4-5.04.82-6.37,8.31-2.09,9.95-1.07.51-4.53,1.06-5.4.47-1.34-.92-1.14-5.02-.82-6.38l-.38-.43c.06-.96,2.14-4.56,3.49-4.34.45-.34,2.09-1.2,2.63-1.27.63-.09,1.09.22,1.52.15.17-.03.14-.43.31-.47.37-.08,3.75.87,4.27,1.13,3.02,1.53,4.98,6.92,4.06,10.01-.53,1.78-1.05,2.34-3.1,2.03-.54-.08-.8-.43-.85-.44Z"/>
  <path class="st21" d="M107.74,77.35c-1.24.22-3.56,1.27-4.78,1.82-1.51.68-3.58-.99-3.59-2.5-.92-1.83-.98-3.89,0-5.68-.2-1.77,2.33-2.82,4.02-2.85,3.71-.08,6.14,3.22,5.76,6.58-.1.89-.4,2.52-1.41,2.64Z"/>
  <path class="st3" d="M107.74,66.9c.74-.47,2.23.66,2.25,1.41.76.3,1.64,1.28,1.1,2,.66,1.26,1.1,2.84,1.21,4.19.25,3.33-1.53,2.56-4.26,3.02-.37.06-.28-.17-.3-.17,1.12-2,1.36-3.98.28-6.06-1.73-3.34-6.76-3.74-8.65-.3-.63-.23-.42-.39-.3-.83.33-1.16,1.7-3.18,2.94-3.59.68-.23,1.2-.01,1.74-.13.17-.04.15-.4.33-.45,1.24-.29,2.61.36,3.66.9Z"/>
  <path class="st2" d="M67.76,85.15c1.77-.17,6.24.22,6.28,2.54.07,3.51-10.55,4.17-11.44,1.32-.81-2.59,3.1-3.67,5.16-3.86Z"/>
  <path class="st18" d="M92.91,83.03c-.82-.19-3.26-1.3-3.94-1.82-1.91-1.45-1.85-3.06.64-3.71,1.52-.4,6.11-1.1,7.36-.26s.56,2.14-.04,3.14l-2.35,2.65c-.3-.12-1.25.1-1.67,0Z"/>
  <path class="st8" d="M113.19,80.37c1.76-.12,6.7.48,5.42,3.11s-8.74,3.18-10.17.81c-1.49-2.48,2.81-3.8,4.75-3.93Z"/>
  <path class="st5" d="M76.54,62.12c.58.17.54,1.67-.12,2.16-.93.68-3.1.52-4.3.91-1.35.44-2.46,1.89-3.96,1.94-3.29.12.62-3.37,1.77-4.02.41-.23,2.44-.99,2.78-.99.82,0,3.28-.16,3.82,0Z"/>
  <path class="st11" d="M100.51,59.23c2.15-.3,4.14.09,5.87,1.34.77.56,2.31,1.85.65,2.36-1.34.41-2.75-.78-4.01-.98s-4.14.46-4.56-.9c-.39-1.28,1.02-1.68,2.05-1.82Z"/>
  <path class="st4" d="M102.95,79.17c-.34.15-1.11,1.08-1.92.79-.53-.19-2.43-2.58-1.66-3.29.67,1.33,2.09,2.24,3.59,2.5Z"/>
  <path class="st19" d="M97.46,87.81c.08-.23.23-.85.26-.88.08-.07,1.76-.23,2.18-.31s1.19-.82,1.14-.06c-.17,2.51-1.81,6.97-3.85,8.63-.2.16-.63.08-.69.13l-.69-.02c-2.71-2.33-6.69-2.96-10.18-2.17l-.61-.31c-1.25-1.68-2.59-3.52-2.63-5.68,1.76.92,4.72,1.46,6.69,1.14l.59.15c1.43,3.48,6.7,3.53,7.23-.48l.54-.12Z"/>
  <path class="st17" d="M96.5,95.31s-.01.44-.38.65c-4.47,2.63-8.49.35-11.1-3.15,3.66-1.11,8.84-.27,11.47,2.5Z"/>
  <path class="st14" d="M89.09,88.26c.25-.04,2.34-.86,2.62-1.03.81-.49,1.65-1.66,2.28-2.37.36.4.53.76.99,1.1,1,.74,2.8.49,2.48,1.85-.49,1.49-.44,2.52-2.22,3.23-2.85,1.13-5.02-.26-6.14-2.77Z"/>
  <path class="st10" d="M73.01,73.08c2.6-.54,3.3,2.66,1.27,3.27-2.47.74-3.32-2.84-1.27-3.27Z"/>
  <path class="st25" d="M80.24,77.81c.41.4-.86.63-1.17,1.05s-.44,1.17-.51,1.68c-.54-.34-.52-1.13-1.07-1.6-.29-.25-.69-.42-1.08-.45.82-.81,1.57-1.23,1.68-2.5.47.31.42,1.05.97,1.46.43.32,1.14.31,1.18.36Z"/>
  <path class="st7" d="M74.51,78.72c.04.05-.67,1.09-.72,1.13-.44.35-.67-.82-1.18-.7l.71-1.35c.35,0,.31.42.59.69.19.19.59.19.61.22Z"/>
  <path class="st24" d="M101.22,70.12c2.73-.54,2.74,3.93-.25,3.09-1.31-.37-1.23-2.8.25-3.09Z"/>
  <path class="st13" d="M106.06,73.26c.26.21.61,1.5,1.68,1.36-.3.45-.8.49-1.16,1.05-.2.3-.27.64-.27.99-.77-.75-.82-1.48-2.15-1.59.08-.42.72-.3,1.07-.68.28-.31.32-1.55.84-1.13Z"/>
</svg>