<?xml version="1.0" encoding="UTF-8"?>
<svg id="Layer_1" xmlns="http://www.w3.org/2000/svg" version="1.1" viewBox="0 0 160 174.77">
  <!-- Generator: Adobe Illustrator 29.8.3, SVG Export Plug-In . SVG Version: 2.1.1 Build 3)  -->
  <defs>
    <style>
      .st0 {
        fill: #e9818c;
      }

      .st1 {
        fill: #ef939e;
      }

      .st2 {
        fill: #f9e7d9;
      }

      .st3 {
        fill: #e19098;
      }

      .st4 {
        fill: #eb94a2;
      }

      .st5 {
        fill: #ef959e;
      }

      .st6 {
        fill: #ce8790;
      }

      .st7 {
        fill: #f0939d;
      }

      .st8 {
        fill: #e08b94;
      }

      .st9 {
        fill: #f8d6cd;
      }

      .st10 {
        fill: #f0929d;
      }

      .st11 {
        fill: #c56862;
      }

      .st12 {
        fill: #5e2927;
      }

      .st13 {
        fill: #f09892;
      }

      .st14 {
        fill: #b7262e;
      }

      .st15 {
        fill: #fbf5e4;
      }

      .st16 {
        fill: #f9f5e4;
      }

      .st17 {
        fill: #f1e4c4;
      }

      .st18 {
        fill: #f2e4c2;
      }

      .st19 {
        fill: #b6252e;
      }

      .st20 {
        fill: #fbf6e4;
      }

      .st21 {
        fill: #f9f6f4;
      }

      .st22 {
        fill: #e18d95;
      }

      .st23 {
        fill: #f08f98;
      }

      .st24 {
        fill: #e0939c;
      }

      .st25 {
        fill: #f7b0bb;
      }

      .st26 {
        fill: #fceadd;
      }

      .st27 {
        fill: #ef949e;
      }

      .st28 {
        fill: #f1e3c1;
      }
    </style>
  </defs>
  <path class="st25" d="M56.42,32.41c.19.06.37.12.55.22s.34.18.46.32c3.91,4.14,6.95,8.99,9.68,13.77,8.27-4.33,18.11-5.02,27.09-2.45,1.98.57,4.5,1.36,6.29,2.41.32.19.56.52.78.84,4.49,2.35,8.57,6.77,11.89,10.82-.06.28-.17.5-.41.44-2.4-.98-6.69-.69-2.37,2.22,1.41.66,3.38,1.53,4.72.3l.41.1c5.99,8.69,10.31,19.96,11.17,31.03l.44,1.19c-.02,8.27-.14,16.49-.36,24.68l-.26.47c-.42,9.24-4.48,24.94-11.71,30.22-.08.18-.16.35-.26.5-.86,1.31-5.45,3.29-7.06,3.94-5.12,2.09-10.66,3.21-16.05,3.88-1.26.45-2.47.53-3.64.24-.26.41-.49.65-.79.25-4.25.12-8.32.19-12.54-.53-7.72-1.31-14.51-3.87-21.49-7.7l-.12-.39c-.24-.14-1.97-2.06-2.34-2.45-.15-.02-.3-.05-.45-.1s-.27-.11-.36-.21c-6.19-6.72-8.93-19-9.9-28.4-.01-.14.03-.29.07-.44s.12-.31.19-.46c-1.03-9.28-.76-20.47.77-29.65.57-3.38,3.59-11.49,4.38-14.8-5.24-6.74-17.3-5.53-23.61-14.07-5.92-8.02-10.28-18.77-13.11-28.73-1.85-6.51-.52-17.4,5.92-18.72,15.11-3.08,31.04,9.5,42.04,21.23Z"/>
  <path class="st4" d="M101.26,47.51c-9.75-5.11-21.6-5.79-31.73-1.57-.61.25-1.99,1.35-2.55,1.14-.42-.16-2.38-4.02-2.83-4.73-2.27-3.54-4.93-6.96-7.74-9.95.34-.18.09-.66,0-.93-2.15-7.18-3.28-19.37-1.58-26.68,1.97-8.44,10.14-3.68,14.83-1.21,11.96,6.29,23.71,16.37,28.91,30.52,1.61,4.38,2.22,8.72,2.67,13.41Z"/>
  <path class="st7" d="M87.75,157.57c.7-.08,1.15.19,1.36.82,1-.92,3.9-2.13,3.88.13.78.68,1.74,1.05,2.9,1.1.5.56-.11,2.08-.77,2.24-1.2-.17-1.9.24-2.09,1.23,1.76-.47,4-.23,1.81,1.87-.97,2,3.2,1.14,2.83.09-3.29-1.97,2.81-3.96,2.58-.51,1.26,1.57,2.52-.08,3.32-1.45.64-.66,1.8-1.01,2.3-.01.72-.42,1.26-.54,2-.11.26-1.54.56-2.52,1.94-1.09.45-.53,1.36-1.37,1.96-.64.81.99-1.21,7.53-2.84,7.69-.08,2.02-3.76,5.04-5.28,4.63-.72-.2-1.23-1.27-1.46-2-.86.22-1.33-.26-1.42-1.44-.14-.15-.87-.15-.95-.02-.01.77-.38,1.2-1.03,1.38,1.88,2.99-1.39,3.69-2.75,1.67-.35.4-.76.32-.97-.19-1.4.58-2.2-.72-2.22-2.19-1.93-.72-.43-4.34.53-1.76.43.25.37-.77.25-1.06-.06-.16-1.12-1.53-1.2-1.56-1.08.41-1.54.08-1.74-1.18-.69.83-1.29,1.03-1.24-.38-1.11-1.1-1.81-2.27-.52-3.65l-1.04-1.19c-.15-1.33-.32-1.52-.51-.6-.35-.12-.11-1.43-.18-1.43h-6.84c-.84,4.35-.98,10.61-4.24,13.68-3.75,3.52-12.21,3.84-16.29.91-2.92-2.1-4.43-8.36-5.25-12.01s-1.51-7.55-1.78-11.36c.16.1.73.12,1.08.31,6,3.25,11.66,5.86,18.31,7.01,4.38.76,11.27,1.68,15.55,1.05Z"/>
  <path class="st10" d="M126.47,118.77c.14-3.01-.08-6.22,0-9.3.14-5.66.62-11.39.19-17.04l.43.59c6.28-3.87,17.24-15.84,23.7-6.41,4.82,7.04-2.95,15.17-7.47,19.49-5.1,4.87-10.91,9.21-16.83,12.66Z"/>
  <path class="st5" d="M40.03,117.14c1.14,10.27,3.6,22.46,10.45,29.61-1.37.38-2.7.48-4.12.44-1.63,6.14-8.44,7.45-11.91,2.32-.22-.33-.51-1.26-.57-1.3-.12-.08-2.18.2-2.74.15-5.22-.5-7.89-7.92-4.46-12.49-4.14-5.66-.5-14.27,6.15-12.88.91-3.56,3.82-6.26,7.2-5.84Z"/>
  <path class="st27" d="M114.77,148.99c-1.13,5.74-1.59,12.04-3.57,17.49-2.78,7.66-9.77,9.72-16.46,7.36-5.46-1.93-7.31-8.48-7.34-14.44,0-.41,0-.82,0-1.23.86.18.55.99.82,1.62.16.38,1.1,1.07,1.12,1.33.02.32-.55.74-.64,1.07-.53,2.01,1.74,1.64,1.04,3.53,1.74-2.29,1.22,0,1.61.32s.97-.2,1.27-.03c.09.05,1.31,1.64,1.35,1.75.13.34.05.94.1,1.01.07.08.74-.07.89.32-.46.03-1.25.46-1.69.29-.39-.16-.24-1.13-.83-1,.09.36-.32,1.42-.16,1.61.04.05.35.02.5.14.7.53.34.73.55,1.41.61,1.99,1.74.75,1.97.94.08.07.14.58.3.59.03,0,.23-.29.4-.36.64-.27.27.36.59.67.46.44,2.05.69,2.45.11.28-.4-.71-1.83-.64-2.14.06-.3.72-.32.92-.6.34-.5-.17-1.13.98-1.15,1.36-.03.77,1.24,1.16,1.56.18.15.71-.24,1.04.13.19.21.22.75.4,1.02,1.05,1.59,1.98.92,3.16-.06.42-.35.9-.75,1.34-1.13,1.25-1.09.89-1.9,1.32-2.49.1-.14.65-.29.96-.65.54-.65,1.74-3.59,1.87-4.41.11-.64-.05-1.46,0-2.14-.79-.41-1.3.83-1.71.83-.39,0-.59-.83-1.25-.61-.52.18.25,1.29-.64,1.73-.2.1-.56-.33-.98-.31-.38.01-.92.49-1.25.42-.2-.04-.07-.99-1.35-.5-1.1.43-1.35,2.59-2.82,2.54-2.33-.08-1.33-1.51-1.93-2.21-.43-.5-2.58-.12-2.62.46-.04.62.93.72,1.03,1.05.11.36-.16,1.11-.42,1.32-.17.14-2.26.44-2.52.4-.75-.13-.77-1.14-.52-1.79.07-.2,1.25-1.08.78-1.38-.3-.19-2.23.04-2.53.2-.36.2-.42,1.23-.8,1.29-.64.09-.61-1.27-.2-1.61.26-.22.63-.11.79-.23.14-.11.23-.9.77-1.27.61-.41,1.85-.26,1.94-.35.05-.05.44-1.17.56-1.4-.1-.16-2.63-.18-3.15-1.23-.39-.8.34-1.38-1.22-1.17-1.21.17-1.65.76-2.57,1.38-.39-.86-.24-1.12-1.17-1.43,9.04-1.34,19.21-2.87,27.01-8.58Z"/>
  <path class="st18" d="M129.66,47.99c1.08.88.05,2.55-.66,3.31-1.14,1.23-5.23,4.49-6.67,4.9-.31.09-.59.15-.9.1-.46-.51,1.1-2.7,1.45-3.16.77-1.04,4.36-5.14,5.35-5.38.37-.09,1.14-.01,1.43.23Z"/>
  <path class="st24" d="M113.15,58.34c.97,1.18,1.45,1.77,2.34,3.06-1.23,1.75-4.14.63-5.65-.23-1.02-.58-1.91-1.18-1.47-2.64.53-1.77,3.65.13,4.78-.19Z"/>
  <path class="st17" d="M130.92,60.03c.58.81,0,1.89-.8,2.14-1.08.34-5.34.18-6.35-.26-1.4-.6.36-1.01.87-1.47,1.25-.45,5.42-1.61,6.28-.41Z"/>
  <path class="st28" d="M118.13,44.49c1.5-.52,1.79.43,1.66,1.88-.08.83-1.64,5.39-2.14,5.74-1.59,1.09-.97-2.24-.87-3.03.11-.85.65-4.34,1.35-4.59Z"/>
  <path class="st16" d="M99.64,102.44c.33-.66,2.42.14,2.52.82,10.69,3.1,18.39,11.64,17.11,25.01-.68,7.08-4.91,13.25-10.14,16.89-11.59,8.06-40.21,13.62-46.5-4.74-1.27-3.71-1.53-7.59-1.18-11.53l.72.1.69.02c6.62,4.7,14.38.87,20.73-2.5,4.71-2.5,12.36-7.55,9.61-14.67-2.28-5.89-7.5-4.98-12.06-3.66l-5.75,2.09-.42-.28-.36-.31c6.88-5.74,16.54-8.6,25.04-7.25Z"/>
  <path class="st23" d="M56.55,43.57c.89,1.03,3.17,3.58,3.68,4.7.22.49.32.98.11,1.5s-2.5,2.28-3.06,2.86c-2.92,3-5.76,7.32-7.83,11.13-.25.46-1,2.49-1.25,2.66-.73.51-4.92-1.25-5.89-1.7-9.5-4.42-16.98-13.41-21.7-23.59-1.15-2.49-3.26-7.58-3.56-10.26-.86-7.6,8.43-5.77,12.41-4.68,9.51,2.59,20.27,9.45,27.09,17.37Z"/>
  <path class="st1" d="M62.18,128.98c-5.54-4.31-13.51-17.34-7-23.97,5.26-5.35,9.61.87,13.3,4.47.43.42,1.6,1.64,2.04,1.78.63.21,3.67-1,4.45-1.28,5.2-1.84,14.56-6.57,18.16.75,3.93,8-4.35,13.49-9.69,16.3-6.69,3.52-14.49,7.2-21.25,1.94Z"/>
  <path class="st20" d="M81.77,67.98c9.56-1.46,13.46,12.33,5.75,17.55-5.04,3.41-11.93-.62-12.37-7.29-.29-4.33,2.67-9.65,6.62-10.26Z"/>
  <path class="st15" d="M117.65,71.61c3.57,7.83-2.49,19.06-9.37,10.41-2.2-3.99-2.07-9.64,1.17-12.87,2.85-2.84,7.01-1.45,8.2,2.45Z"/>
  <path class="st13" d="M76.01,86.98c1.12-.14,2.22-.07,3.32.2,1.92.47,4.75,2.25,2.99,4.71s-7.61,2.39-9.86.83c-3.79-2.62,1.08-5.45,3.55-5.74Z"/>
  <path class="st12" d="M109.36,91c-.14,2.92-1.15,8.35-3.06,10.41l-.5-.24c-1.62-4.16-5.24-6.13-8.92-4.15-.46-.31-.65-3.77-.48-4.59.12-.83.17-1.48.54-2.25.54-.55,2.62,0,2.34,1.02l.42.02c.6,4.22,5.79,4.36,6.54.29l.42-.11c.09-.44.06-.83-.08-1.19l1.66-1.25c.1-.27,1.01-1.92,1.12-1.4.23,1.01.1,2.4,0,3.44Z"/>
  <path class="st11" d="M96.4,92.43c-.14,1.46.31,2.84.36,4.29.7-.28,1.29-.72,2.07-.82,3.77-.47,5.98,1.9,7.48,5.51-.98,1.05-2.77,1.96-4.14,1.84-.77-.22-1.85-.71-2.52-.82-2.41-1.44-3.23-5.23-3.4-8.09-.05-.89.05-1.17.16-1.91Z"/>
  <path class="st13" d="M118.51,85.55c1.87-.26,5.62-.04,5.79,2.73s-3.29,3.29-5.12,3.13c-4.98-.44-5.51-5.19-.67-5.86Z"/>
  <path class="st0" d="M104.5,87.94c-.39,0-.48-.21-.49-.6h-1.66s-.19-.42-.19-.42c-1.14-1.21-3.98-2.44-3.15-4.69.37-.99,2.54-1.37,3.41-1.44,2.32-.2,6.45.13,4.14,3.87-.66,1.08-2.24,1.81-2.06,3.28Z"/>
  <path class="st6" d="M109.36,91c.05-1.06.04-2.21-.09-3.27-.35.45-.34.96-.71,1.44-.35.45-1.64,1.15-1.69,1.25-.06.1-.07.59-.21.99-.35.03-.41-.13-.4-.47-1.08.08-2.04-.13-2.85-.99-1.3,1.3-2.84,1.28-4.13,1.25-.45-.9-1.91-.67-2.34-1.02-.03-.02,0-.3-.11-.39-.75-.64-2.05-1.79-1.87-2.97.08-.52.44-.87.9-.63.35.18,1.51,1.69,2.11,2.11.5.36,1.2.81,1.8.84.33.02,1.74-.2,1.97-.38.44-.35.48-1.29.44-1.85.33.07,2.09-.09,2.16,0,.03.04.03.59.18,1.02.25.7.68.81,1.36.82,2.09.05,1.77-3.56,3.14-2.77.6.34.73,4.19.36,5.01Z"/>
  <path class="st22" d="M81.58,57.77c2.04-.4,3.3,1.21,1.77,3.02-.78.92-5.82,3.28-6.6,2.15-.48-.69-.13-2.06.4-2.65.61-.68,3.6-2.36,4.44-2.52Z"/>
  <path class="st9" d="M117.65,71.61c2.37,3.94,1.55,12.16-3.02,13.62-2.81.9-4.91-.6-6.34-3.21,2.04,2.1,4.19,3.6,6.97,2.08,3.66-2,3.53-8.77,2.4-12.49Z"/>
  <path class="st3" d="M72.62,75.69c.05.07-.02,1.16.02,1.51.13.93.36,2.31.6,3.19.4,1.5,1.32,2.61,1.53,4.08-3.05-.91-4.18-5.6-2.54-8.48.05-.09.09-.73.37-.3Z"/>
  <path class="st8" d="M118.91,83.24c-.12-.63.44-.96.56-1.31.67-1.94.79-4.01,1.14-6.04,1.98,2.1.96,6.67-1.71,7.35Z"/>
  <path class="st27" d="M104.86,167.77c-.65.19-.41-1.16-.09-1.43l.09,1.43Z"/>
  <path class="st27" d="M95.14,167.37c.13.15-.07.91-.45.81-.67-.17.1-1.21.45-.81Z"/>
  <path class="st27" d="M95.5,170.63c.19.27-.57,1.17-.72.51-.16-.7.54-.76.72-.51Z"/>
  <path class="st14" d="M83.93,71.25c6.58-.9,8.37,10.13,2.17,12.26-7.46,2.56-9.86-11.21-2.17-12.26Z"/>
  <path class="st19" d="M109.61,71.89c1.48-1.35,2.92-1.52,4.44-.19,2.7,2.36,2.85,7.72-.02,10-4.66,3.69-8.6-6-4.42-9.81Z"/>
  <path class="st21" d="M99.28,91.21c-.1-.62.28-.39.62-.41.76-.04,1.2.06,1.95-.25.47-.19,1.39-1.14,1.48-1.14.08,0,.78.68,1.05.82.78.39,1.37.37,2.19.16l.09,1.02c-.56,1.6-.7,2.69-2.33,3.17-1.39.42-2.83.46-3.91-.79-.56-.65-.78-1.87-1.14-2.59Z"/>
  <path class="st2" d="M82.66,73.71c.97.89.27,3.59-1.46,2.56s-.04-3.94,1.46-2.56Z"/>
  <path class="st26" d="M109.05,73.29c.34-.38,1.42-.32,1.67.15.18.35.18,1.64-.09,1.95-1.14,1.31-2.46-1.11-1.58-2.1Z"/>
</svg>