<?xml version="1.0" encoding="UTF-8"?>
<svg id="Layer_1" xmlns="http://www.w3.org/2000/svg" version="1.1" viewBox="0 0 160 174.77">
  <!-- Generator: Adobe Illustrator 29.8.3, SVG Export Plug-In . SVG Version: 2.1.1 Build 3)  -->
  <defs>
    <style>
      .st0 {
        fill: #564e4e;
      }

      .st1 {
        fill: #eaab41;
      }

      .st2 {
        fill: #3b6b84;
      }

      .st3 {
        fill: #534b4b;
      }

      .st4 {
        fill: #11181e;
      }

      .st5 {
        fill: #d0903c;
      }

      .st6 {
        fill: #d08e3a;
      }

      .st7 {
        fill: #2f698b;
      }

      .st8 {
        fill: #574f4f;
      }

      .st9 {
        fill: #296d94;
      }

      .st10 {
        fill: #d6ab6d;
      }

      .st11 {
        fill: #13364f;
      }

      .st12 {
        fill: #ecad44;
      }

      .st13 {
        fill: #286d96;
      }

      .st14 {
        fill: #726f7c;
      }

      .st15 {
        fill: #f5dfae;
      }

      .st16 {
        fill: #373636;
      }

      .st17 {
        fill: #564d4d;
      }

      .st18 {
        fill: #574e4e;
      }

      .st19 {
        fill: #565251;
      }

      .st20 {
        fill: #f3e0b7;
      }

      .st21 {
        fill: #62605e;
      }

      .st22 {
        fill: #f6c167;
      }

      .st23 {
        fill: #101924;
      }

      .st24 {
        fill: #d08f3a;
      }

      .st25 {
        fill: #787580;
      }

      .st26 {
        fill: #133851;
      }

      .st27 {
        fill: #ebac43;
      }

      .st28 {
        fill: #ecae44;
      }

      .st29 {
        fill: #655c5b;
      }

      .st30 {
        fill: #534d4e;
      }

      .st31 {
        fill: #d3913d;
      }

      .st32 {
        fill: #2f7199;
      }

      .st33 {
        fill: #ea9869;
      }

      .st34 {
        fill: #f6bf66;
      }

      .st35 {
        fill: #d49b47;
      }

      .st36 {
        fill: #ebad43;
      }

      .st37 {
        fill: #a8794d;
      }

      .st38 {
        fill: #76737f;
      }

      .st39 {
        fill: #564e4d;
      }

      .st40 {
        fill: #78757f;
      }

      .st41 {
        fill: #777480;
      }

      .st42 {
        fill: #74707c;
      }

      .st43 {
        fill: #bf7935;
      }

      .st44 {
        fill: #1e1e1f;
      }
    </style>
  </defs>
  <path class="st34" d="M83.64,38.59c.34-.37.42-.31.37.19.48-.36.83-.22.93.37.27-.45.57-.34.56.19.42-.34.66-.14.56.37.3-.43.72-.38.74.19.27-.24.36-.14.19.19.5.2,1.04.32,1.59.33l.09.41c.19,0,.38,0,.56.02s.36.06.5.14c14.72,8.36,25.24,25.28,27.45,41.94.02.16-.02.33-.06.51s-.11.35-.19.53c.31.15.34.29,0,.37.58.33.77,1.67.19,2.05.14.04.13.1,0,.19.45.44.59,1.18.09,1.59l-.09.64c.51.88.52,2.96-.19,3.72.24.96.15,2-.29,3.1-.37,1.4-2.12,6.3-3.04,7.11-.16.14-.37.19-.57.2.01.15.02.29,0,.44-.19,1.44-4.94,5.44-6.32,6.49-1.45,1.1-7.86,5.34-9.25,5.25-.14,0-.28-.04-.42-.08-.12.72-.87.77-1.49.56-.11.71-1.24.91-1.86.74l-.18-.56c2.2-5.83-3.4-9.32-8.66-8.43l-.46-.3-.31-.43c.33-1.88.06-3.66-.81-5.33l.09-.53c3.52-2.81,6.7-6.49,7.65-11.01l.26-.18.19-1.3c-.33-.07-.26-.38,0-.56-.4-.71-.75-1.49-1.04-2.34-2.11-3.92-6.03-3.61-9.33-1.39l-.42-.17c-2.37,2.77-4.61,5.37-8.53,5.43-.82.01-4.85-.5-5.26-.94-.35-.39.83-3,1.51-2.44l.43.04c1.41,2.56,8.85-.8,7.52-3.18-.94-1.67-5.07-.02-6.29.77l-.35-.22.04-1.02c3.14-7.05,2.68-14.58,1.82-22.04l-.45-.34c-1.1-8.07-8.25-11.65-14.79-6.3l-.56-.06c-9.38,7.74-13,18.86-12.11,30.83l-.12.58c-1.7.19-3.05.41-4.59,1.21-.86.85-1.33.95-1.41.3-2.22-3.11-3.81-6.84-4.56-10.6-.27-1.35-.56-2.91-.65-4.28-.1-.13-.2-.25-.27-.4s-.14-.27-.14-.4c-.29-6.82,2.09-14.01,5.96-19.59,1.14-1.63,2.23-3.08,3.93-4.16,10.62-10.65,27.93-13.26,41.84-8.37Z"/>
  <path class="st20" d="M137.2,136.4c.37.34.31.42-.19.37.43.39.2.95-.37.93.4.42.03,1.17-.56,1.12.09.06.09.12,0,.19-2.63,5.1-8.19,10.87-13.95,12.18-1.16.26-3.96.86-4.25-.79-.15-.87.91-4,1.07-5.18.23-1.78.08-3.01-.35-4.72-.2-.03-.26-.22-.19-.56-.65-.19-1.07-1.48-.74-2.05-.68-.06-1.39-1.45-.74-1.86-.48-.92.11-2.79.67-3.59,1.71-2.47,5.1-.41,6.27,1.58,1.64-7.45,7.49-7.36,8.4.3,1.49-2.16,3.39-3.28,5.68-4.31.4-.95.69-1.93.89-2.94l.41-.15c.08.15.15.3.2.46.31,1.04-1.14,7.89-1.86,8.69-.11.12-.24.23-.38.33Z"/>
  <path class="st12" d="M48.49,112.04c.19-.28.38-.42.62-.17,3.04,4.94,8.1,7.95,13.5,9.79l.58.6.34.43c.12,1.35.13,2.69.03,4.03.43.04.36.6,0,.74.34,1.11.4,2.29.19,3.53l.28.46c-.04.97-1.36,3.96-2.51,3.82-.23.61-.47.8-.74.56-3.73,2.03-8.3.83-10.51-2.78-3.27-5.35-4.78-15.37-1.76-21.02Z"/>
  <path class="st24" d="M55.74,53.47c.46-.22.56.02.34.47-9.21,8.58-11.74,18.63-11.26,30.81.1,2.58.7,11.07,4.16,11.3,4.69.32,12.33-6.73,15.12-10.35,5.73-7.46,8.02-15.54,6.85-24.8,0-.58.19-.83.59-.74,1.69,7.89,1.52,15.62-1.86,23.06.4.58-.6,2.57-1.3,2.6-.03.05-.25.13-.34.3-.14.26-1.06,1.83-.96,1.93,2.63.49,5.34,1.35,7.94.22,2.23-.97,3.68-3.2,5.64-4.5.52.63-.69,1.94-1.2,2.47-4.36,4.6-8.18,4.7-13.78,2.97l-1.23-.16c-2.82,4.02-6.8,7.09-11.61,8.52,1.66,4.5,9.15,5.65,13.37,6.05,10.34.97,20.42-4.58,24.2-14.26.3-2.38.65-2.94,1.03-1.69.02.18,0,.37,0,.56l-.19,1.3c-.22,4.27-4.67,9.27-8,11.71-.05.15-.1.3-.17.43-.4.72-2.64,1.76-3.53,2.17-7.49,3.41-18.46,2.38-25.48-1.75-.71-.72-1.4-1.07-2.07-1.04l-.23.61c-.42.6-3.43,1.8-4.05,1.07-.18.02-.38-.02-.56,0-.13-.43.11-.78.74-1.06,2.48-.95,3.42-2.18,2.83-3.7-4.92,1.02-6.7-3.77-7.21-7.74l-.53-3.98c-2.4-.46-4.73,1.08-6.34,2.75l-.46-.04c.17-.79.79-1.39,1.19-2.07.11-.19.09-.51.11-.53.01-.02.23.16.37.07.32-.2.5-.51.92-.73,1.39-.71,2.89-1.19,4.47-1.02-.12-5-.1-9.69,1.17-14.54,1.7-6.5,5.78-12.86,11.29-16.7Z"/>
  <path class="st36" d="M36.21,88.98c1.54-1.83,4.73-3.83,7.17-2.99.59,4.61.85,13.17,7.7,11.54.63,1.65.42,2.21-.92,3.26-.9.71-2.17,1.06-2.98,1.95-4.19.4-7.14-.15-9.85-3.63-1.8-2.3-3.12-7.76-1.12-10.13Z"/>
  <path class="st5" d="M32.31,71.5c-.24.13-.39.35-.56.56-1.29,1.18-2.55,2.41-3.8,3.7-.18.18-.41.25-.67.21l-.47-.33c-.98-9.7,3.38-19.84,9.93-27.08l.95-.48.16-.4c1.3-.03,2.55-.27,3.75-.71h.19c-6.24,6.26-10.07,15.61-9.48,24.54Z"/>
  <path class="st22" d="M73.78,116.31l.23.39c-.42.97-.84,1.95-1.12,2.98l-.42.16c-.55.55-1.9.6-2.42,0-.16.3-.27.34-.37,0-.18.56-1.59.39-1.67-.19-.57.41-1.03.35-1.49-.19-.05.15-.11.15-.19,0-.63.28-1.84.47-2.23-.37-.12.07-.25.13-.38.16-1.94.54-8.69-3.67-10.34-5.12-1.26-1.1-3.04-2.72-3.22-4.34-1.3-2.11-2.01-4.63-2.42-7.07,1.76-.23,2.86-.55,4.28-1.67l.34.65c-.33,11.39,11.05,15.13,20.7,14.23l.71.37Z"/>
  <path class="st10" d="M41.61,46.96c-.75,1.06-2.65.89-3.91,1.12l-1.04.57c-10.78,1.94-19.51,7.69-25.89,16.5-3.4,4.7-6.64,10.75-8.68,16.17-2.3,6.1-.85,7.73,5.04,5.85,6.69-2.14,13.68-6.12,19.12-10.75l1.04-.44c1.46-1.36,2.98-2.66,4.18-4.28l.28.37c-6.15,7.56-14.86,13.11-24.22,16.04-6.8,2.14-8.98.27-6.61-6.61,6.32-18.28,20.3-33.79,40.68-34.54Z"/>
  <path class="st6" d="M64.11,119.1l.26.41-.78,2.51-.41.24c-5.92-2.05-10.53-4.52-14.14-9.77-.16-.23-.14-.55-.55-.46.41-.77,1-1.68,1.67-2.23,2.98,4.83,8.49,8.04,13.95,9.3Z"/>
  <path class="st28" d="M71.55,60.16c-.51.86-.02,2,0,2.87.37,9.97-2.23,17.78-9.02,25.02-2.79,2.97-9.47,8.93-13.75,8.35-3-.41-3.7-5.71-3.99-8.09-1.68-13.71.86-24.48,10.67-34.28.09-.09.65-.48.28-.56,3.06-2.13,5.98-3.82,9.85-2.32s5.15,5.27,5.95,9.02Z"/>
  <path class="st13" d="M85.5,39.33c-.09-.41-.03-.8.17-1.17,1.61-4.18,3.28-8.28,5.02-12.4,1.57-3.73,4.99-4.73,8.85-5.84,14.03-4.04,30.56-.27,40.58,10.52,3.17,3.41,6.68,8.21,5.03,13.02-1.54,5.27-3.42,10.61-5.24,15.75l-.5-.16c-6.37-16.21-21.41-27.48-39.33-25.06-4.71.64-10.26,2.27-13.61,5.63l-.39.08c-.24-.11-.45-.33-.56-.37Z"/>
  <path class="st1" d="M93.68,116.31c.16.06.16.12,0,.19.45.36-.03,1.13-.56.93.32.22.21.39-.19.37l.15.45c-1.76,1.92-2.55,4.29-2.59,6.9.17,6.26.3,13.27-6.7,15.8-5.09,1.84-9.19-.25-10.67-5.43-1.38-4.83-1.62-10.4-1.08-15.36l.44-.31c.2-1.01.87-2.56,1.3-3.53l-.1-.68c1.4-2.92,3.45-5.63,6.25-7.32,1.21-.73,3.13-1.78,4.44-1.3,6.04-1.09,11.98,2.69,9.3,9.3Z"/>
  <path class="st28" d="M91.45,87.68l-.37-.56c.03,4.08-2.93,7.69-5.76,10.32-7.04,6.55-14.65,7.86-23.99,5.76-3.23-.72-8.44-2.25-8.93-6.04,3.35-.6,6.79-2.87,9.21-5.2.56-.54,2.5-3.17,2.69-3.26.52-.26,5.04,1.13,6.23,1.21,4.12.29,6.98-1.82,9.47-4.84l.66-1.29c1.04-.69,2.85-1.59,4.08-1.78,3.58-.55,6.4,2.2,6.7,5.68Z"/>
  <path class="st15" d="M83.27,101.25c.43-.01.5.24.65.56.78,1.57.76,3.53.46,5.21-5.09.91-8.59,4.77-10.6,9.3-3.45.01-6.7.19-10.08-.62-7.32-1.74-12.16-6.8-11.68-14.63.16-.13.26-.61.62-.54,2.76,2.5,6.82,3.84,10.47,4.42,7.2,1.15,14.12.74,20.15-3.69Z"/>
  <path class="st40" d="M147.24,36.92c.81,2.42.67,4.96-.41,7.62-1.86,5.91-3.8,11.79-5.82,17.65-2.53,9.76-5.34,19.36-8.45,28.79l-.57.79c-.78.65-1.5,1.43-2.32,2.05-.14.11-.31.38-.46.09,3.75-11.53,7.26-23.14,10.97-34.68l-.07-.45c1.94-5.46,3.73-10.96,5.36-16.5,1.15-4.96-4.4-11.33-7.96-14.31-9.87-8.26-23.2-11.58-35.76-8.62-2.85.67-8.99,2.28-10.34,5.06-2.22,4.57-4.07,9.24-5.83,14.01-.1.34-.31.59-.63.74-.31-.12-.63-.26-.93-.37,2.3-5.54,4.36-11.21,6.89-16.63,18.43-10.41,46.11-4.36,56.34,14.77Z"/>
  <path class="st9" d="M126.6,96.6l-.65.03c-1.58-.99-3.25-1.86-5.06-2.34l-.43-.48c-.16-.05-.16-.11,0-.19l-.5-.31c-.57-1.7-1.34-3.22-2.48-4.62l-.37.09c-.01-.74.02-1.49,0-2.23,1.43.79,12.19,3.54,12.57,4.08.22.31-.73,3.6-.99,4.05-.39.67-1.66,1.2-2.09,1.91Z"/>
  <path class="st43" d="M116.93,92.51c.97.38,2.02.59,3.15.64l.38.48c.02.06-.02.13,0,.19l.38.23c.41,4.65-2.09,10.19-5.4,13.35-.05.16-.11.16-.19,0l-.4-.28c-.21-1.4-1-2.63-1.9-3.7l.07-.48c1.82-2.7,3.46-7.19,3.91-10.41Z"/>
  <path class="st26" d="M115.25,107.39c.5,1.29-.17,2.37-1.49,2.05-.41,0-.74-.36-1.01-1.09-1.96,1.56-4.04,2.91-6.24,4.06l-.37.53c-1.28.63-7.94,3.42-9.01,2.86-.4-.21-.49-.51-.11-.79,5.77-2.51,12.43-6.79,15.99-12.09,1.07,1.18,2.14,2.84,2.23,4.46Z"/>
  <path class="st33" d="M68.39,85.82c.39-.72.97-1.86,1.3-2.6,1.61-.95,5.46-2.65,6.88-.84,1.31,1.67-1.56,3.59-2.93,4.14-1.57.63-4.46,1.28-5.26-.7Z"/>
  <path class="st25" d="M115.25,109.43c.45-.18.34.86.12,1.18-.24.35-3.75,1.97-4.29,2.21-3.28,1.45-6.62,2.93-10.03,4.03-1.87.6-2.98.92-4.94.62-.71-.11-2.14-.39-2.42-.98.02-.05-.02-.13,0-.19.59-.33,1.24-.5,1.86-.74,1.66.26,2.76.4,4.41-.21,4.79-1.76,9.58-3.76,14.28-5.82.33-.17.67-.2,1.02-.1Z"/>
  <path class="st41" d="M117.11,86.38c-.03-.76-.11-1.32-.19-2.05l13.55,4.74c-.2.35-.28,1.21-.77,1.18l-12.59-3.88Z"/>
  <path class="st35" d="M41.19,80.66c2.29-.61,1.65,2.4-.5,3.41-1.42.66-4.34.37-2.91-1.42.12-.15,3.21-1.93,3.41-1.99Z"/>
  <path class="st4" d="M115.62,109.25c-.07.36-.19.43-.37.19-4.69,1.86-9.88,4.46-14.55,6-1.48.49-3.89,1.25-5.17.13.48-.19,1.01-.35,1.49-.56.12.95,1.39.45,2.05.28,2.39-.6,5.12-2.03,7.44-2.88,1.97-1.04,4.11-2.18,6.22-2.9.33-.11.69-.11,1.04-.08,1.28-.62,1.59-.27,1.49-2.05h.19c.51.2.76,1.64.19,1.86Z"/>
  <path class="st11" d="M120.46,93.63c-.98-.3-2.2-.24-3.14-.5-.48-.13-.45-.07-.4-.62.18-1.29.06-2.52.19-3.72,0-.05.22-.97.37-.93.37,1,1.23,1.72,1.71,2.66.35.69,1.04,2.38,1.27,3.1Z"/>
  <path class="st28" d="M91.26,89.54c.02-.41-.15-1.04.19-1.3,0,.4.13,1.05-.19,1.3Z"/>
  <path class="st31" d="M126.6,96.6c.11.07.26.11.37.19,1.35.17,3.1,1.69,3.53,2.98.08.08.3.11.37.19.49-.25.85.32.56.74.06.06.13.12.19.19.68-.14,1.19.66,1.12,1.3.38.48.77.99,1.12,1.49.16.06.31.13.45.22,1.06.69,2.76,4.81,3.29,6.22s1.95,5.67,1.65,6.85c-.04.16-.11.31-.18.47.27.42.64,1.36.19,1.67.76,2.37.72,4.89.45,7.35l-.45.46c-.11.62-.68,2.95-1.03,3.34-.29.33-2.48,1.17-3.16,1.68-1.12.86-2.17,2.33-3.16,3.35-.41-8.34-6.31-8.69-7.72-.56-.72-.37-1.03-1.17-1.57-1.68-1.49-1.4-3.9-2.22-4.97.07-.26.56-.68,2.32-.71,2.91-.59.31-.59-.22-.56-.74-.25.15-.31-.04-.19-.56-.13-.05-.26-.11-.37-.19-.79-.56-2.79-6.91-2.44-7.81.05-.13.12-.25.2-.36-.31-.23-.38-.41,0-.56-.45-.4-.82-1.14-.19-1.49-.49-.35-.41-1.34.19-1.49-.37-.04-.36-.23,0-.37-.08-.13-.16-.27-.21-.41-.31-.85,1.24-7.83,1.6-9.31l.47-.69c-.23-.12-.17-.31.19-.56l-.35-.37c.09-.68.21-1.3.35-1.86-.01-.65-.23-1.25-.19-1.86.06-.88,1.08-1.54,1.57-2.25,1.72-2.48,4.27-8.39,3.46-11.33,2.18.46,4.28,1.59,6.14,2.79Z"/>
  <path class="st41" d="M68.02,119.66l.32.23-6.46,21.73c-.31,1.18-.08,2.4.37,3.51h.25c.13.53.4.94.87,1.22,13.61,6.95,27.48,13.54,41.62,19.78,1.12.14,1.72-1.33,2.05-2.2,3.03-9.52,6.06-19.05,9.09-28.59l.24-.06c.11.22.39.54.56.74-.04.64.51,1.27.74,1.86-2.51,9.52-5.33,20.26-9.73,29.04-.51,1.03-1.01,1.88-2.32,1.39-14.99-6.8-30.05-13.78-45.17-20.94-.88-.43-2.11-1.11-1.93-2.23.51-3.39,2.26-6.51,2.98-9.86,1.25-1.08,1.89-2.68,2.23-4.28.12-1.04.13-2.08.01-3.12l.17-.22c-.07-.04-.16-.1-.17-.18-.07-.5,2.2-7.7,2.54-7.94.06-.04.14-.05.23-.06.49.07.99.14,1.49.19Z"/>
  <path class="st18" d="M117.67,137.88c.29.72.52,1.29.74,2.05-2.77,8.43-5.52,16.88-8.23,25.33-1.13,3.53-.77,6.74-5.84,4.82-15.07-7.4-30.21-14.74-45.17-22.34-.41-.44-.84-1.57-.84-2.16,0-.27.19-.4.19-.45.47,1.24,1.99,1.84,3.09,2.39,12.6,6.26,25.53,11.82,38.32,17.66,1.55.71,3,1.65,4.58,2.3,2.14.88,2.26,1.04,3.32-1.21,1.74-3.68,3.53-8.82,4.94-12.72,1.8-4.98,3.13-9.96,4.46-15.08.08-.32-.11-.7.42-.59Z"/>
  <path class="st17" d="M151.89,143.46c.19.8.77,1.61-.3,2.21-1.93,1.09-6.91-1.93-8.75-2.92-2.29-1.24-4.48-2.67-6.76-3.94.18-.36.4-.75.56-1.12l.44-.04c3.34,1.92,6.79,3.48,10.34,4.69l.17-.19c1.41.87,1.82.65,1.21-.65-3.37-7.93-6.62-15.95-9.75-24.07-.68-4.84-2.42-9.74-5.21-13.76.36-.17.08-.59,0-.84-.2-.66-1.31-3.58-1.3-3.91.01-.37.94-.79,1.3-1.01,1.28,2.26,2.33,4.67,3.15,7.22l7.42,20.63c2.03,6.28,4.52,12.18,7.47,17.7Z"/>
  <path class="st14" d="M147.43,142.35c-.24.35-.84.03-1.15-.06-3.46-.97-6.52-2.87-9.63-4.59.13-.29.26-.63.37-.93l10.41,5.58Z"/>
  <path class="st21" d="M66.34,119.48c-.88,2.12-1.71,4.76-2.43,7.13l-.36.12c-.16-1.43-.52-3.03-.37-4.46.1-.99.64-2.2.93-3.16.68.16,1.53.26,2.23.37Z"/>
  <path class="st21" d="M63.92,127.66c.02,1.18.06,2.22-.19,3.35.16-1.18-.15-2.42-.19-3.53l.37.19Z"/>
  <path class="st39" d="M131.99,91.77c.83-3.7,2.35-7.18,3.44-10.79,1.83-6.07,3.25-12.29,5.06-18.37,2.01-6.74,5.13-14.14,6.66-20.86.37-1.63.38-3.19.09-4.84.56,1.04,1.55,2.62,1.49,3.8-5.08,16.49-10.17,32.99-14.98,49.56-.22.83-1.27,1.08-1.77,1.49Z"/>
  <path class="st25" d="M133.85,97.91c.23-.14,1.35-.87,1.49-.74,1.43,4.59,3.02,9.14,4.65,13.67,3.51,9.79,7.64,19.59,10.98,29.37.37,1.08.67,2.15.93,3.26-1.38-1.56-2.33-3.43-3.12-5.35-4.15-10.14-7.82-21.05-11.57-31.38-1.07-2.96-2.29-5.87-3.35-8.83Z"/>
  <path class="st25" d="M126.97,96.79c2.64-2.18,5.23-4.86,8.24-6.54,1.28-.71,6.31-3.16,5.85.08-.41,2.91-7.58,7.34-10.07,8.92-.24.15-.6.06-.49.52-1.09-1.07-2.27-2.12-3.53-2.98Z"/>
  <path class="st42" d="M142.4,94.19c.12,1.15-1.26,2.4-2.13,3.15-.98.84-2.11,1.5-3.23,2.12-.18.1-.4.03-.59-.07-.16-.34-.49-.97-.29-1.3.34-.55,3.72-1.97,4.11-2.61.37-.6-.8-1.09-1.22-1.12-.17-.23,1.06-1.47,1.39-1.48.5-.01,1.66.87,1.96,1.3Z"/>
  <path class="st30" d="M136.45,99.39c2.35-1.12,4.68-2.93,5.95-5.21,1.82,2.59-3.86,4.41-5.38,5.69-.52.24-.45-.22-.57-.48Z"/>
  <path class="st7" d="M139.99,95.12c.15.2-3.5,2.42-3.82,2.42-1.91-.02,1.83-2.83,2.28-2.95s1.04.54,1.54.53Z"/>
  <path class="st2" d="M130.87,99.95c.36-.12,1.09-1.06,1.4-.56.56.9-.55.71-.84,1.31-.25-.27-.5-.68-.56-.74Z"/>
  <path class="st29" d="M131.62,100.88l1.11-.37c.05.57.39,1.13,0,1.67-.29-.37-.79-.93-1.12-1.3Z"/>
  <path class="st23" d="M108.74,38.78l-.56-.19c.34.04.53.18.56.19Z"/>
  <path class="st23" d="M108.93,38.4c-.32-.05-.53-.18-.56-.19l.56.19Z"/>
  <path class="st27" d="M37.7,48.07c-5.25,5.54-8.88,12.27-10.17,19.86-.42,2.46-.92,5.67-.24,8.03-4.74,4.4-10.02,7.43-16,9.95-4.33,1.82-12.66,5.56-10.13-3.06.75-2.55,2.44-6.02,3.64-8.44,7.18-14.4,16.59-23.47,32.89-26.34Z"/>
  <path class="st0" d="M69.69,119.85c-1.67,5.05-3.42,10.11-4.97,15.21-.7,2.32-2.74,7.98-2.47,10.08-1.09-.82-1-2.7-.65-3.91l6.42-21.57c.53.05,1.2.16,1.67.19Z"/>
  <path class="st8" d="M115.62,109.25c.01.71.06,1.54,0,2.23-.23.24-.47.45-.75.58-3.36,1.53-6.76,3-10.17,4.4-1.41.58-2.85,1.12-4.33,1.63-1.21.84-2.53.81-3.85.63-1.06-.14-2.69-.62-3.4-1.28.18-.32.4-.58.56-.93,1.81.33,2.89,1.02,4.84.66,3.08-.56,11.17-4.03,14.2-5.52.58-.29,2.16-1.11,2.6-1.45.22-.17.2-.64-.07-.76.1-.04.21-.2.37-.19Z"/>
  <path class="st37" d="M66.3,107.8c.7-.18,1.33.22,1.13.94-.13.47-1.55,1.16-1.83,1.71.52.73,2.27.93,2.42,1.87.35,2.25-3.23-.48-3.44-.47-.25,0-.89,2.05-1.78,1.41-.72-.7.42-2.05.35-2.4-.1-.52-1.83-1.63-1.19-2.55.57-.82,1.81.98,2.24,1.31.14,0,1.45-1.65,2.09-1.82Z"/>
  <path class="st32" d="M113.76,109.43c-2.33,1.14-4.83,2.06-7.25,2.98l6.42-4.65.84,1.67Z"/>
  <path class="st3" d="M113.39,124.31c0,.27.15,1.05.19,1.49l-13.2-7.17-.19-.27c.69-.23,1.34-.55,2.05-.75l.83.07c3.39,2.03,6.83,4.1,10.22,6.13l.1.5Z"/>
  <path class="st38" d="M113.58,122.82c-.03.52-.19,1.06-.19,1.49l-11.16-6.69c.35-.1.71-.2,1.05-.32,3.23,1.49,6.21,3.58,9.37,5.24.3.16.53.34.92.29Z"/>
  <path class="st44" d="M136.27,92.51c.14,1.79-2.83,3.46-4.27,4.19-.63.32-3.06,1.64-2.32.09.41-.87,4.42-3.68,5.41-4.08.41-.16.73-.27,1.19-.2Z"/>
  <path class="st16" d="M139.94,90.14c1.02,1.01-1.02,2.57-1.83,1.55s.95-2.43,1.83-1.55Z"/>
  <path class="st19" d="M135.89,92.89c.7.7-4.9,4.27-5.76,4.09.27-.8,5.44-4.42,5.76-4.09Z"/>
</svg>