<?xml version="1.0" encoding="UTF-8"?>
<svg id="Layer_1" xmlns="http://www.w3.org/2000/svg" version="1.1" viewBox="0 0 222.65 160">
  <!-- Generator: Adobe Illustrator 29.8.3, SVG Export Plug-In . SVG Version: 2.1.1 Build 3)  -->
  <defs>
    <style>
      .st0 {
        fill: #eab14b;
      }

      .st1 {
        fill: #f2c26c;
      }

      .st2 {
        fill: #cb9c59;
      }

      .st3 {
        fill: #e8af43;
      }

      .st4 {
        fill: #d39442;
      }

      .st5 {
        fill: #f1dfb4;
      }

      .st6 {
        fill: #f0c370;
      }

      .st7 {
        fill: #d6973d;
      }

      .st8 {
        fill: #c07f36;
      }

      .st9 {
        fill: #c3803a;
      }

      .st10 {
        fill: #dd9d46;
      }

      .st11 {
        fill: #f1dfaf;
      }

      .st12 {
        fill: #d4ac69;
      }

      .st13 {
        fill: #d89742;
      }

      .st14 {
        fill: #cc903f;
      }

      .st15 {
        fill: #c28234;
      }

      .st16 {
        fill: #e6aa47;
      }

      .st17 {
        fill: #c17f34;
      }

      .st18 {
        fill: #bd7b36;
      }

      .st19 {
        fill: #d79a43;
      }

      .st20 {
        fill: #ebb24b;
      }

      .st21 {
        fill: #f7c66b;
      }

      .st22 {
        fill: #e6ae4a;
      }

      .st23 {
        fill: #bd7e35;
      }
    </style>
  </defs>
  <ellipse class="st21" cx="107.01" cy="95.48" rx="39.46" ry="29.64"/>
  <g>
    <path class="st18" d="M161.64,103.31c-.82-9.1-5.94-14.66-28.56-20.7,16.5,1.03,32.36,3.96,45.25,7.29,4.15,1.07,17.21,4.77,18.69,6.18.65.62.81,1.42.13,2.05-2.67,2.48-27.54,4.84-35.52,5.18Z"/>
    <path class="st0" d="M161.64,103.5c.04.24-.18.5.08.74,1.25.15,2.57.25,3.78.44,16.59,2.65,39.56,8.41,48.88,13.52,11.09,6.09,3.11,7.88-14.47,10.12-22.55,2.87-52.67,3.92-75.91,1.34-2.71-.3-11.36-1.87-12.78-1.81.79-.35-.07-.7.44-1.09,1.89-1.44,16.36-4.64,20.62-6.07,6.55-2.2,13.75-6.25,17.08-9.08,1.91-1.62,4.38-5.86,8.02-6.86,1.8-.5,3.59-.07,4.28-1.24Z"/>
    <path class="st21" d="M107,60.96c.3-.05.3.08,0,.38l.19.35c-1.76,2.94-2.92,6.19-3.81,9.5l-.52,1.16c-3.14,1.93-5.29,4.38-5.56,8.3-3.42,1.23-10.21,5.99-3.2,7.73.95-.13,1.51.07,1.68.62-2.19,5.21,3.71,5.5,6.73,3.08.42-.11.72-.12.78.33-1.47,8.67,7.39,2.74,8.82-1.62.79-2.32,1.52-2.81,2.19-1.49,5,3.65,7.5-.05,4.53-4.87-.47-.9-.58-1.78-.32-2.65l3.22-2.76c3.05-2.02,5.94-4.25,8.65-6.68l.78-.27.77.05c4.5,2.69,8.33,6.4,11.43,10.5l2.57,6.12c-.29-2.63-1.1-5.17-2.45-7.6-.88-1.84-.7-2.5.53-1.98,2.79.2,8.01,3.55,10.16,5.37,2.39,1.14,4.36,3.61,5.77,5.83,2.7,4.23,3.44,9.16,3.6,14.11l-.36.76c0,.06,0,.13,0,.19.17.8-.19,1.31-1.1,1.53l-.59.91c-2.01,7.43-5.12,14.37-11.74,18.82-1.29.83-1.96,1.82-2.01,2.97l-.46.11c-.33.04-1.38.73-1.87.91-2.27.88-5.49,2.04-7.91,1.96-.35.13-.88.25-1-.13l.04.32c-.73,9.46-11.32,15.41-19.75,16.87l-.05-.56c3.02-5.22.85-12.24-4.65-14.81l-.09-.53c.09-.27.23-.5.44-.69,3.15-1.62,6.03-3.46,8.82-5.64,1.06-.83,2.56-2.53.3-1.26-2.62,1.97-5.29,3.9-8,5.79l-.6-.12c-7.06-9.39-21.71-6.56-31.04-2.15-1.92.91-4.32,2.18-5.29,4.09l-.48.16c-.3-.09-.76-.08-1.15-.19l.06-.58c1.52-1.51,2.73-3.37,3.3-5.45-1.05,2.03-2.42,3.85-3.91,5.56l-.6.09c-2.89,3.09-7.68,5.42-11.69,6.61-1.64.49-4.1.7-5.48,1.23-1.04.4-2.85,2.19-4.05,2.85-3.09,1.72-6.8,2.11-10.22,1.38-.37-.11-.37-.28,0-.38.03-.58.15-1.04.36-1.39,7.87.53,14.73-9.12,16.13-16.1,1.9-9.5-4.66-13.56-12.49-8.46l-.54-.13-.08-.48c4.86-3.85,13.59-6.54,17.8-.41-1.17-2.94-4.26-4.16-7.21-4.53-.5-.14-.68-.22-.58-.73.14-.65,1.42-2.36,1.9-2.99,1.41-1.86,3.01-3.47,5.2-4.34-4.04,1.05-6.57,4.88-8.51,8.28-.47.43-3.02,1.08-3.55.61l-.55-.5c-3.45-8.34-3.25-18.37-.29-26.86.39-1.11,1.72-4.77,2.44-5.28.94-.66,1.94,3.02,2.01,3.62,1.65,4.2,7.9,10.87,12.95,9.46,8.21.78,14.89.61,13.97-10.03-.08-5.56-3.08-10.66-7.03-14.4-.03.27-.21.3-.5.29l-.35-.35c-.28-1.75-.77-3.49-1.47-5.22-.26-.95-.1-1.46.48-1.52.17.37.61.08.87,0,.9-.28,1.74-.71,2.63-1.02,8.11-2.78,18.55-3.41,27.06-2.42,1.32.15,2.64.52,3.95.74Z"/>
    <path class="st20" d="M73.84,70.73c.16-.42.22-.71.29-1.15,2.89,2.84,5.64,6.46,6.86,10.4.92,2.99,1.07,7.32.28,10.35-1.76,6.76-8.56,4.88-13.85,4.94-.77,0-1.45.24-2.3.21-3.63-.13-9.52-6.2-10.86-9.46-.55-1.35-.53-3.14-1.69-3.96-1.08,2.2-2.13,4.69-2.82,7.05-1.67,5.68-2.1,12.86-.95,18.67.46,2.34,1.42,4.41,2.05,6.67l-.56.61c-3.78,1.42-6.85,4.07-9.24,7.28l-.74.35c-1.57.26-3.16,1.09-4.71,1.52-3.36.94-6.82,1.51-10.3,1.77-.4.12-1.26,1.86-1.67,2.36-1.53,1.85-4.37,3.15-6.71,3.55-.54,0-.69-.52-.38-.96l-.26-.63c3.6-3.03,4.38-7.15,4.7-11.64.42-5.9.45-17.65-4.06-21.93-1.34-1.27-3.16-1.02-4.47.14l-.51-.06c-.46-.27.58-1.31.96-1.63,1.06-.89,2.5-1.16,3.86-1.32,10.47-.59,20.94-2.54,29.88-8.74,1.02-.76,5.46-4.01,5.84-4.8.15-.31.04-.57.1-.76-.23-3.17,1.03-4.46,3.77-5.59l1.94-2c.35-.39.84-.68,1.26-.23,1.37,5.66,6.11,4.06,7.24-.65.18-.31.5-.35.82-.19,1.67,1.66,4.43,2.44,5.77-.04l.47-.12Z"/>
    <path class="st10" d="M11.91,96.81c1.74-1.61,3.76-1.86,5.49-.12,4.76,4.77,4.56,19.58,3.47,25.86-.58,3.36-1.61,5.33-4.01,7.69-.22.22-.5.14-.35.7-.63.13-1.52-1.49-1.65-2.07-.25-1.18-.09-2.35.11-3.52-.8,2.15-.85,4.54.94,6.22l.02.52c-2.31.18-3.14-.15-4.98-1.34l-.51-.56c-.36-1.8-.34-3.64-.02-5.44-.55.93-.66,2.04-.64,3.12l-.37.39c-1.59-2.15-2-5.16-2.24-7.85-.61-6.8.62-17.83,4.33-23.55.1-.16.22-.17.4-.04Z"/>
    <path class="st5" d="M72.49,63.64c-.03.21-.21.29-.18.83.12,2.17,1.85,4.05,1.52,6.27-.77,2.05-2.94,2.56-4.84,1.67-.77-.36-1.11-1.05-1.87-1.29-.56,3.38-4.49,6.81-7.06,2.94-.41-.62-.53-1.26-.78-1.91-.05-.13.03-.41-.3-.26-.43.18-1.8,1.91-2.42,2.38-1.45,1.1-2.47.6-3.25,2.5-.36.88-.48,1.87-.76,2.78-.3-.94-.26-2.35-.19-3.35.63-8.79,9.3-17.66,17.97-18.84,1.12-.15,3.81-.49,3.68,1.17-.1,1.32-1.28,3.44-1.53,5.1Z"/>
    <path class="st11" d="M112.94,131.89c.21.57-1.84,1.52-2.25,1.52l-1.94-.54c-2.35.19-4.18-.09-6.12-1.47-2.46-1.53-4.83.72-4.12,3.27.59.7.35,1.05-.7,1.06-1.42,0-2.92.33-4.31.39-5.7.24-11.93-.56-17.36-2.12.56-1.5,1.52-2.19,2.82-3.03,6.67-4.34,19.05-7.29,26.7-4.73,2.38.8,5.79,2.79,7.19,4.9.17.26.34.45.1.75Z"/>
    <path class="st13" d="M125.46,71.45c2.61-5.55,5.61-14.02,1-17.46l-.1-.51c-.23-.67,1.38-2.2,2.11-2.11,5.23,2.24,7.95,5.26,10.58,10.22,2.8,5.3,4.11,11.28,4.17,17.27l.78.3c-.2-.01-.66-.08-.76.09.57,2.32,1.97,4.3,2.59,6.62.1.39.9,3.66.19,3.64-.53-.02-2.52-6.02-3.16-7-.84-1.28-4.67-5.15-5.94-6.33-1.72-1.6-3.82-2.81-5.75-4.12l-.32-.21"/>
    <path class="st14" d="M112.94,131.89c2.6-1.32,3.67-2.53,5.85-4.21.6-.46,3.73-2.89,4.31-2.31.19.94-.46,1.35-1.06,1.91-2.84,2.65-6.74,4.65-10.06,6.52-1.56.88-1.56,0-2.8-.18-1.01-.15-2.16.1-3.2-.06-1.44-.22-4.29-2.23-5.37-2.03-.62.11-1.53,1.24-1.64,1.84-.12.66.22,1.24.31,1.87.03.21-.17.51-.16.67-.42-.26-.88-.19-1.34-.19l.77-.29c-1.42-1.45-.12-4.47,1.67-4.84,2.14-.45,3.51,1.39,5.38,1.82,1.09.25,2.09-.05,3.18.08.58.07,1.56.56,1.94.54.16,0,1.84-.95,2.2-1.14Z"/>
    <path class="st9" d="M128.47,51.37l-2.11,2.11-.61.11c-4.3-2.02-9.5-.85-13.16,1.99h-.61c-.54.35-.8.29-.77-.18,4.9-5.77,10.16-7.06,17.25-4.03Z"/>
    <path class="st12" d="M46.61,85.11c-5.72,4.27-13.19,6.89-20.27,8-3.27.51-10.94.32-13.26,2.08-.29.22-1.03,1.21-1.16,1.62-2.76,2.55-4.28,12.42-4.6,16.2s-.06,9.89,1.2,13.36c.28.79.74,1.01.9,1.88.36.11.36.28,0,.38-1.77-2.35-2.33-6.2-2.5-9.1-.35-5.92.98-18.71,4.8-23.39,2.22-2.71,4.31-2.29,7.37-2.59,5.1-.51,10.1-1.11,15.01-2.63,4.48-1.39,8.43-3.54,12.51-5.8Z"/>
    <path class="st19" d="M136.52,132.85c-.2-.04-.84-.45-.92-.71-.2-.64.06-2.63-.06-3.58-.32-2.64-1.59-4.76-2.85-7.02,1.08-.35,2.32-.99,3.25-1.64.52-.37,1.88-1.85,2.22-2,.08-.04.31-.05.28.09-1.07,1.74-2.33,2.91-4.02,4.05,1.83,2.52,3.17,6.04,2.88,9.19-.06.66-.17.91-.58,1.43.25.01.51,0,.77,0-.12.26-.71.24-.96.19Z"/>
    <path class="st1" d="M36.07,138.02c.53.33.13,1.73-.58,1.53-2.13-6.41,1.18-11.93,4.79-16.87.99-.34,1.64-1.01,2.37-1.78l.5.06c.39-.35.58.02.35.49-4.1,4.09-8.05,9.72-7.27,15.76l-.17.82Z"/>
    <path class="st22" d="M74.99,133.8c-.37-.1-.74-.36-1.15-.38.87-.93,2.11-2.53,2.84-3.58.84-1.21,1.37-2.58,2.33-3.7-.19,2.89-1.93,5.74-4.02,7.67Z"/>
    <path class="st17" d="M15.94,132.08c-1.36-1.07-1.99-2.77-1.89-4.48.02-.33.84-4.36,1.51-3.57-.15,1.49-.61,2.97-.37,4.49.14.91.93,1.65,1.33,2.41.16.31.34.6.38.96-.31.05-.7.17-.96.19Z"/>
    <path class="st8" d="M36.07,138.02c-.46-1.46,3.72-5.05,4.55-3.7.2.32,0,.68-.24.92-1.65,1.42-3.06,2.69-3.29,4.95l-.44.13c.3.47.17.74-.38.58-.32-.52-.48-.47-.77-1.34.4-.39.37-1.09.58-1.53Z"/>
    <path class="st23" d="M9.42,128.25c-.05-.94,0-1.97.29-2.87.08-.25,1.06-2.34,1.44-1.92-.7,2.5-.78,4.75-.19,7.28-.06-.04-.37.02-.57-.1-.48-.29-.9-1.45-.97-2.01-.02-.12,0-.26,0-.38Z"/>
    <path class="st15" d="M41.25,143.97c-.72-.83.22-2.57.78-3.44.51-.8,2.98-3.67,3.07-1.48-.64.84-1.23,1.7-1.77,2.6-.38,1.21-.69,2.37-.93,3.47,0,.13,0,.26,0,.38-.63-.13-.75-.16-1.34-.38-.22-.61-.16-.99.19-1.15Z"/>
    <path class="st6" d="M36.64,140.32l.41-.11c.95,1.63,2.25,2.71,3.91,3.27l.28.48c-.04.61.51,1.3-.19,1.15-2.36-.88-3.51-2.14-4.79-4.22.09-.19.32-.39.38-.58Z"/>
    <path class="st2" d="M111.98,55.59l-.08.59c-1.44,1.31-2.34,3.04-3.21,4.75l-.55.22c-.29.28-.81.51-1.15.19.03-.11-.04-.32,0-.38.02-.03.33-.2.46-.39,1.31-1.83,2.25-3.4,3.75-5.17l.77.19Z"/>
    <path class="st16" d="M45.85,119.04c3.63-2.15,7.5-3.97,11.31-.87,3.83,3.12,2.49,9.66.8,13.65-1.9,4.48-7.12,11.02-12.06,12.09-.68.15-3.19.12-3.31.24-.08.08.16.84-.19.96,0-1.63.04-2.61.8-4.09.42-.82,2.88-3.21.74-2.13-1.48,1.32-2.56,3.05-2.69,5.07-1-.27-1.95-.7-2.78-1.35l-1.83-2.3c.3-.91.26-1.58.8-2.55.66-1.18,1.63-1.76,2.52-2.66s.04-.81-.69-.49c-1.25.54-2.64,2.18-3.21,3.4-.53-2.25-.42-3.99.25-6.17,1.18-3.87,3.73-7.48,6.56-10.31.09-.09.67-.49.29-.58-.09-.83,1.93-2.27,2.68-1.92Z"/>
    <path class="st4" d="M50.83,114.44c.78-.27,2.86-.46,3.36-.95.34-.33.5-1.09.78-1.52,2.02-3.06,5.11-6.92,9.08-6.93.1.48-.11.34-.36.5-.75.47-1.58.72-2.39,1.26-2.22,1.48-4,4.1-5.31,6.38,3.66.38,7.34,1.9,8.24,5.85-.44.41-1.77-1.72-2.2-2.11-3.86-3.5-9.58-1.85-13.69.32-.85.45-1.9,1.07-2.52,1.8-1.23.73-1.57.95-2.68,1.92-.5.43-1.42,1.48-1.85,1.71-.46.25-.71-.03-1.02.02,2.82-3.85,5.92-6.63,10.54-8.24Z"/>
    <path class="st7" d="M108.92,84.15c-.42.43-1.32-1.05-1.45-1.33-.65-1.5-.76-3.49.59-4.61.15.91-.35,1.62-.27,2.56.06.7,1.29,3.22,1.13,3.38Z"/>
  </g>
  <ellipse class="st21" cx="110.47" cy="140.35" rx="18.12" ry="10.53"/>
  <path class="st3" d="M104.12,65.45c2.34-3.53,8.33-11.7,13.56-14.16,6.19-2.91,15.82-1.77,17.05,2.39,1.63,5.53-8.2,18.47-13.93,23.65-3.44,3.11-7.51,6.16-15.09,5.16-2.76-.36-5.43-1.46-6.49-2.84-2.33-3.04,2.69-10.85,4.91-14.2Z"/>
</svg>