<?xml version="1.0" encoding="UTF-8"?>
<svg id="Layer_1" xmlns="http://www.w3.org/2000/svg" version="1.1" viewBox="0 0 160 160">
  <!-- Generator: Adobe Illustrator 29.8.3, SVG Export Plug-In . SVG Version: 2.1.1 Build 3)  -->
  <defs>
    <style>
      .st0 {
        fill: #eaa0ad;
      }

      .st1 {
        fill: #f5adba;
      }

      .st2 {
        fill: #f3dadd;
      }

      .st3 {
        fill: #ee96a2;
      }

      .st4 {
        fill: #df818f;
      }
    </style>
  </defs>
  <polygon class="st2" points="-1.15 169.1 -1.32 169.1 -1.32 168.93 -1.15 169.1"/>
  <polygon class="st2" points="162.66 168.93 162.66 169.1 162.49 169.1 162.66 168.93"/>
  <path class="st1" d="M43.4,33.41c-.37-1.63-.95-3.2-1.39-4.79-2.3-8.12-2.37-17.98,6.61-21.59.21-.08.18-.36.32-.39,5.92-1.24,10.07,3.61,12.82,8.15,4.24,7,6.99,16.38,8.71,24.32.19.9-.05,2.67.79,3.28.49.35,3.24.1,4.08.15,3.46.2,7.36,1.13,10.75,1.87,4.05.89,10.41,6.02,13.13,9.15.31.35,1.69,1.9,1.78,2.03.08.12.51,1.72.85,2.3,1.93,3.32,4.01,6.24,5.5,9.91,1.12,2.76,1.61,5.72,2.45,8.56.1.33.02.6.52.58,0,.11,0,.23,0,.34.15,2.73.71,4.89,1.01,7.54.36,3.1.14,6.62.5,9.67.04.31.53.25.35.75-.57.1-.86.9-1.43.85-.49-.04-.91-.71-1.3-.92-2.37-1.31-4.44-1.56-6.91-.33-2.84,1.41-3.75,3.55-3.24,6.67-5.44-1.11-10.54,4.2-6.26,9.07-.4.6-.98.82-1.4,1.49-2.4,3.82-.4,9.14,4.1,9.94-.98,4.24,2.78,7.2,6.82,6.56.6-.09,1.75-.87,2.05-.82.12.02.76,1.3,1.63,1.71-.38.38-.5,1.4-.68,1.69-3.12,5.38-10.02,11.35-16.26,12.54-.77.15-1.05-.02-1.6,0-.06,0-.99.3-1.11.33-.13-4.95-1.4-11.9-6.35-14.23-1.1-.52-2.15-.79-3.38-.65-.28.03-2.77.55-2.13,1.17.84.05,1.71-.06,2.54,0,.1.45-.23.32-.49.43-2.21.9-3.51,2.33-4.5,4.49-1.28,2.79-2.57,8.41-1.78,11.35-1.27-.03-2.27-1.09-3.35-1.48-.2-.07-.46,0-.55-.04-.75-1.16-.98-.68-1.73-1.35-.12-.11-.93-.96-.98-1.02-1.04-1.45-2.14-4.7-2.37-6.52-.07-.61.24-3.25-1.19-2.54-.71.35-.58,3.12-.51,3.9.08.86,1.05,3.81,1.52,4.49-.71.54-1.48-.31-2.08-.55-2.73-1.1-5.25-2.51-7.92-3.69-.05-.02-.12.02-.17,0-.25-.95-1.51-1.29-2.19-1.79-1.03-.77-2.54-1.96-3.41-2.87-.54-.56-.67-.56-1.12-.99-1.57-1.48-4.3-7-5.17-9.14-.8-1.97-1.4-4.07-2.03-6.11-.07-.29-.38-.21-.48-.28-.06-.04-.11-.14-.17-.17.13-.27-.15-.56-.17-.68-1.22-8.8-1.88-17.2-.85-26.09.62-5.35.96-10.84,2.25-16.13,2.31-9.43,6.87-17.05,13.71-23.63.12-.12.43-.08.64-.29.59-.57.23-1.19-.11-1.77-1.17-1.97-2.93-3.97-4.17-5.99-1.61-2.61-2.65-5.16-4.05-7.81-.13-.24-.07-.54-.48-.45-.01-.05.01-.12,0-.17Z"/>
  <path class="st0" d="M43.4,33.41c-.45.1-.32-.23-.43-.49-3.26-8.11-5.04-19.86,3.42-25.39,8.24-5.38,14.75,4.6,17.82,10.92,3.64,7.51,5.46,15.49,7.22,23.61.35.35,4.39.1,5.26.16,2.86.18,5.5,1.32,8.14,1.69,1.31.18.81-.22,1.18-1.17,3.41-8.75,10.23-22.17,18.25-27.32,9.44-6.05,16.52,3.48,15.52,12.64-1.06,9.7-9.47,19.87-16.32,26.37-.64.61-1.48.98-1.93,1.8,3.15,5.02,5.95,10.13,7.64,15.85.33,1.13,1.14,3.82,1.14,4.87-.5.02-.42-.25-.52-.58-.85-2.83-1.33-5.8-2.45-8.56-1.49-3.67-3.56-6.59-5.5-9.91-.33-.57-.77-2.18-.85-2.3l3.17-2.59c1.52-1.67,3.03-3.46,4.54-5.2.76-.88.76-.32,1.1-1.58.06-.2.49,0,.34-.45-1.23.55-2.45,1.22-3.76,1.58-2.26.61-4.19.68-6.41-.14-3.14-1.17-7.34-5.1-8.84-8.1-.26-.52-1.02-3.06-1.16-3.16-.22-.16-.37.15-.47.29-1.04,1.65-1.66,3.76-2.41,5.55-.35.83-1,1.62-1.02,2.62-3.39-.74-7.29-1.67-10.75-1.87-.84-.05-3.6.2-4.08-.15-.84-.6-.6-2.38-.79-3.28-1.72-7.95-4.47-17.33-8.71-24.32-2.75-4.54-6.9-9.39-12.82-8.15-.14.03-.12.3-.32.39-8.98,3.61-8.91,13.47-6.61,21.59.45,1.58,1.02,3.16,1.39,4.79Z"/>
  <path class="st0" d="M110.32,77.28c1.47,5.62,1.66,11.51,2.03,17.28.58.19,1.05-.22,1.48-.3,5.17-.94,9.46,2.58,9.02,7.92,6.27-1.67,9.31,5.76,6.1,10.41,2.72,1.87,3.08,6.42,1.46,9.1-1.33,2.2-3.51,3.18-6.05,3.27-.62,5.46-6.72,7.39-10.89,4.18-1.31,1.32-3.21,1.9-5.06,1.63-.89-.13-2.56-1.44-2.26.22.67,3.68,4.15,7.43,4.34,10.91.31,5.8-5.09,15.52-11.74,14.62-2.5-.34-4.95-2.56-5.21-5.12-.08-.81.19-2.52-.09-3.13-.18-.41-1.52-1.27-1.96-1.6-.55-.41-3.41-2.47-3.79-2.48-.7-.02-1.36.72-2.11.7.02,5.31-2.11,11.62-8.57,10.99-2.62-.25-4.47-2.18-5.51-4.48-.41-.9-.95-3.73-1.27-4.15-.28-.37-2.79-1.26-3.37-1.72-.3-.24-.19-.37-.27-.49-1.68-.67-3.4-1.44-5.08-2.12-3.2-1.29-6.09-2.55-9.09-4.29-.39-.23-.85-.46-1.07-.88,2.67,1.18,5.19,2.59,7.92,3.69.6.24,1.37,1.09,2.08.55.27.39,2.15,1.61,2.54.68.04.06.85.91.98,1.02.75.67.99.19,1.73,1.35.09.04.34-.03.55.04,1.08.39,2.08,1.45,3.35,1.48.95,3.54,2.26,8.23,6.51,8.82,6.14.84,8.2-6.21,8.22-11.02.52.13.89-.2,1.36-.34.12-.04,1.05-.33,1.11-.33.55-.03.83.14,1.6,0,.09,1.03,1.27,1.74,2.04,2.28.28.19,1.13.84,1.28.92.3.17.75.13.88.22.25.18.11,1.27.71,1.15-.44,1.59-.33,3.98.68,5.34,2.16,2.91,5.54,3.17,8.52,1.24,3.84-2.49,7.18-8.97,6.54-13.59-.1-.7-1.01-3.06-1.5-3.54-.05-.05-1.12-.78-1.19-.8-.06-1.79-.64-3.39-1.27-5.09-.1-.26-.11-.56-.43-.67.17-.3.3-1.31.68-1.69,2.01.95,4.07,1.21,6.09.07.28-.16.42-.49.7-.65,1.03-.57,1,.02,1.63.38,2.48,1.43,5.94,1.22,7.92-1,1.01-1.14.79-2.02,1.19-3.21.34-1.03,1.52-.55,2.43-.79.32-.08,2.3-1.05,2.48-1.25.15-.16.72-.82.86-1,1.61-2.04,1.89-6.3.02-8.25-.55-.57-1.22-.32-.91-1.45.65-2.36,1.84-3.51.7-6.21-.15-.36-.81-1.48-1.25-1.54-.16-.84-1.19-1.74-2-1.98-1.39-.41-2.42.07-3.76-.05v-2.63c0-2.82-3.88-5.12-6.44-5.17-1.38-.02-2.5.3-3.73.51.18-.5-.32-.44-.35-.75-.36-3.05-.14-6.57-.5-9.67-.3-2.65-.86-4.81-1.01-7.54Z"/>
  <path class="st0" d="M43.4,33.58c.41-.09.35.21.48.45,1.41,2.65,2.44,5.2,4.05,7.81,1.25,2.02,3,4.02,4.17,5.99.34.58.7,1.2.11,1.77-.22.21-.52.18-.64.29-6.85,6.58-11.41,14.2-13.71,23.63-1.29,5.29-1.63,10.78-2.25,16.13-.69.24-1.47,1.03-1.97,1.58-4.78,5.23-8.56,14.65-3.42,20.84,1.18,1.42,3.16,2.71,4.78,3.35.41.16,1.01.23,1.46.31.02.11.3.41.17.68-1.24-.55-2.47-.67-3.75-1.42-8.04-4.66-6.14-15.26-1.6-21.73,1.21-1.73,2.95-3.04,4.23-4.67.46-13.18,4.23-28.12,14.08-37.42.56-.53,2.55-1.68,2.6-2.31.04-.43-2.32-3.22-2.72-3.83-1.78-2.67-5.45-8.52-6.06-11.48Z"/>
  <path class="st0" d="M36.8,116.58c.1.06.41,0,.48.28.63,2.04,1.22,4.14,2.03,6.11.87,2.14,3.6,7.66,5.17,9.14.45.43.59.43,1.12.99.87.91,2.38,2.1,3.41,2.87.68.51,1.94.84,2.19,1.79-5.63-2.23-10.07-9.41-12.28-14.74-.85-2.05-1.75-4.25-2.12-6.43Z"/>
  <path class="st3" d="M85.25,144.36c-.02,4.81-2.09,11.86-8.22,11.02-4.25-.58-5.57-5.28-6.51-8.82-.79-2.94.5-8.56,1.78-11.35.99-2.15,2.29-3.58,4.5-4.49.26-.11.59.02.49-.43,5.54.43,7.98,9.48,7.96,14.06ZM76.71,135.65c-.19.19-.42.24-.59.51-.58.94-.9,3.27-.88,4.39.07,2.74,2.28,7.21,5.58,5.39,2.95-1.63,2.47-8.04.52-10.31-.23-.27-.81-.81-1.14-.89-1.5-.4-2.42-.12-3.5.91ZM74.45,147.46c-.71.65-1.18,4.3,1.02,3.64,1.04-.31,1.21-2.6.94-3.41-.19-.58-1.63-.54-1.96-.24ZM81.73,147.45c-.63.45-.18,4.17,1.66,3.27.73-.36.3-3.39-.6-3.47-.12-.01-.99.16-1.06.2ZM78.76,148.97c-.99.3-1.17,3.3-.12,3.77.43.19,1.47.15,1.66-.37.44-1.2.35-3.96-1.54-3.4Z"/>
  <path class="st3" d="M35.61,89.65c-1.03,8.89-.37,17.29.85,26.09-.45-.08-1.05-.15-1.46-.31-1.62-.64-3.6-1.93-4.78-3.35-5.14-6.2-1.36-15.62,3.42-20.84.5-.55,1.29-1.34,1.97-1.58Z"/>
  <path class="st4" d="M86.09,44.42c.02-1,.67-1.79,1.02-2.62.75-1.8,1.37-3.91,2.41-5.55.09-.15.25-.45.47-.29.14.1.9,2.65,1.16,3.16,1.5,3,5.7,6.93,8.84,8.1,2.21.82,4.15.75,6.41.14,1.31-.36,2.53-1.03,3.76-1.58.15.46-.28.25-.34.45-.35,1.26-.34.7-1.1,1.58-1.51,1.74-3.02,3.53-4.54,5.2l-3.17,2.59c-.09-.13-1.47-1.68-1.78-2.03-2.72-3.12-9.08-8.26-13.13-9.15Z"/>
  <path class="st4" d="M107.27,136.91c-.26-.07-1.11-.02-1.44,0-3.85.27-6.18,4.3-8.47,6.95-1.25,1.44-2.56,2.32-3.14,4.4-.6.12-.46-.98-.71-1.15-.13-.09-.58-.05-.88-.22-.15-.08-1-.73-1.28-.92-.77-.54-1.96-1.25-2.04-2.28,6.24-1.18,13.14-7.15,16.26-12.54.32.11.33.41.43.67.62,1.7,1.21,3.29,1.27,5.09Z"/>
  <path class="st4" d="M86.6,144.03c-.46.14-.84.47-1.36.34.02-4.58-2.43-13.63-7.96-14.06-.83-.06-1.7.05-2.54,0-.64-.62,1.85-1.14,2.13-1.17,1.23-.13,2.28.14,3.38.65,4.95,2.33,6.22,9.29,6.35,14.23Z"/>
  <path class="st4" d="M63.9,142.67c-.39.93-2.27-.29-2.54-.68-.47-.68-1.44-3.63-1.52-4.49-.08-.78-.2-3.55.51-3.9,1.43-.71,1.11,1.94,1.19,2.54.22,1.82,1.33,5.07,2.37,6.52Z"/>
  <path class="st3" d="M107.27,136.91c.07.02,1.14.75,1.19.8.49.48,1.4,2.83,1.5,3.54.64,4.63-2.7,11.11-6.54,13.59-2.99,1.93-6.36,1.67-8.52-1.24-1.01-1.35-1.12-3.75-.68-5.34.58-2.08,1.89-2.96,3.14-4.4,2.29-2.64,4.62-6.67,8.47-6.95.33-.02,1.18-.07,1.44,0ZM103.26,140.7c-1.11.77-2.74,3.77-2.93,5.11-.16,1.14.24,3.7,1.6,3.97,3.68.72,7.38-5.52,5.63-8.68-.88-1.6-3.02-1.29-4.3-.4ZM96.27,150.62c.05.05,1.3.36,1.41.35.51-.05,1.47-.78,1.59-1.31.5-2.18-2.28-1.84-2.88-.34-.1.26-.23,1.19-.12,1.3ZM102.89,153.83c1.34.83,3.34-2.55,1.84-3.28-1.3-.63-2.68,2.76-1.84,3.28ZM100.27,154.13c.62-.6,1.34-2.74-.03-2.84-1.04-.08-1.64.55-1.88,1.53-.17.7-.28,1.81.69,1.86.28.01,1.01-.35,1.22-.55Z"/>
  <path class="st3" d="M129.57,113.76c-.55-.57-1.22-.32-.91-1.45.65-2.36,1.84-3.51.7-6.21-.15-.36-.81-1.48-1.25-1.54-.16-.84-1.19-1.74-2-1.98-1.39-.41-2.42.07-3.76-.05v-2.63c0-2.82-3.88-5.12-6.44-5.17-1.38-.02-2.5.3-3.73.51-.57.1-.86.9-1.43.85-.49-.04-.91-.71-1.3-.92-2.37-1.31-4.44-1.56-6.91-.33-2.84,1.41-3.75,3.55-3.24,6.67-5.44-1.11-10.54,4.2-6.26,9.07-.4.6-.98.82-1.4,1.49-2.4,3.82-.4,9.14,4.1,9.94-.98,4.24,2.78,7.2,6.82,6.56.6-.09,1.75-.87,2.05-.82.12.02.76,1.3,1.63,1.71,2.01.95,4.07,1.21,6.09.07.28-.16.42-.49.7-.65,1.03-.57,1,.02,1.63.38,2.48,1.43,5.94,1.22,7.92-1,1.01-1.14.79-2.02,1.19-3.21.34-1.03,1.52-.55,2.43-.79.32-.08,2.3-1.05,2.48-1.25.15-.16.72-.82.86-1,1.61-2.04,1.89-6.3.02-8.25ZM120.31,114.3c.04-.2.41-.03.51-.09v.51c-.21-.03-.62-.19-.51-.42ZM125.9,118.19c-1.18,1.59-2.93,1.46-4.74,1.44,1.35-1.32.91-4.56-.68-1.86-1.06.17-.76-1.53-.26-1.87.52-.37,1.15.04.94-1.18.74-.06,2.03-.92,2.44-1.54.36-.54,0-1.11.9-.7,2.11.95,2.74,3.89,1.39,5.71Z"/>
  <path class="st3" d="M121.16,114.72c.74-.06,2.03-.92,2.44-1.54.36-.54,0-1.11.9-.7,2.11.95,2.74,3.89,1.39,5.71-1.18,1.59-2.93,1.46-4.74,1.44,1.35-1.32.91-4.56-.68-1.86-1.06.17-.76-1.53-.26-1.87.52-.37,1.15.04.94-1.18Z"/>
  <path class="st3" d="M120.82,114.21v.51c-.21-.03-.62-.19-.51-.42.04-.2.41-.03.51-.09Z"/>
  <path class="st4" d="M76.71,135.65c1.08-1.03,2-1.3,3.5-.91.33.09.9.62,1.14.89,1.95,2.27,2.42,8.68-.52,10.31-3.29,1.82-5.51-2.66-5.58-5.39-.03-1.12.29-3.45.88-4.39.17-.27.39-.33.59-.51Z"/>
  <path class="st4" d="M74.45,147.46c.33-.3,1.77-.34,1.96.24.27.81.1,3.1-.94,3.41-2.2.66-1.73-2.99-1.02-3.64Z"/>
  <path class="st4" d="M78.76,148.97c1.89-.56,1.98,2.2,1.54,3.4-.19.52-1.23.56-1.66.37-1.05-.48-.88-3.48.12-3.77Z"/>
  <path class="st4" d="M81.73,147.45c.07-.05.94-.22,1.06-.2.89.08,1.33,3.11.6,3.47-1.84.91-2.29-2.82-1.66-3.27Z"/>
  <path class="st4" d="M103.26,140.7c1.29-.89,3.42-1.2,4.3.4,1.74,3.16-1.95,9.4-5.63,8.68-1.37-.27-1.76-2.83-1.6-3.97.19-1.35,1.82-4.34,2.93-5.11Z"/>
  <path class="st4" d="M100.27,154.13c-.21.2-.94.57-1.22.55-.97-.05-.86-1.16-.69-1.86.24-.98.84-1.6,1.88-1.53,1.37.1.64,2.24.03,2.84Z"/>
  <path class="st4" d="M96.27,150.62c-.12-.12.01-1.05.12-1.3.6-1.5,3.38-1.84,2.88.34-.12.53-1.08,1.26-1.59,1.31-.11.01-1.36-.3-1.41-.35Z"/>
  <path class="st4" d="M102.89,153.83c-.84-.53.54-3.92,1.84-3.28,1.5.73-.5,4.12-1.84,3.28Z"/>
</svg>