<?xml version="1.0" encoding="UTF-8"?>
<svg id="Layer_1" xmlns="http://www.w3.org/2000/svg" version="1.1" viewBox="0 0 160 160">
  <!-- Generator: Adobe Illustrator 29.8.3, SVG Export Plug-In . SVG Version: 2.1.1 Build 3)  -->
  <defs>
    <style>
      .st0 {
        fill: #a2754a;
      }

      .st1 {
        fill: #f3d07d;
      }

      .st2 {
        fill: #ed9768;
      }

      .st3 {
        fill: #773f32;
      }

      .st4 {
        fill: #efddae;
      }

      .st5 {
        fill: #e7a836;
      }

      .st6 {
        fill: #9f6537;
      }

      .st7 {
        fill: #e6a837;
      }

      .st8 {
        fill: #f4d08c;
      }

      .st9 {
        fill: #d5a24f;
      }

      .st10 {
        fill: #efdaa5;
      }

      .st11 {
        fill: #f9e1ba;
      }

      .st12 {
        fill: #794033;
      }

      .st13 {
        fill: #806845;
      }

      .st14 {
        fill: #e6bd8a;
      }

      .st15 {
        fill: #f1917a;
      }

      .st16 {
        fill: #ed9467;
      }

      .st17 {
        fill: #f3d6ba;
      }

      .st18 {
        fill: #e7a93b;
      }

      .st19 {
        fill: #eaae41;
      }

      .st20 {
        fill: #f9f2de;
      }

      .st21 {
        fill: #804931;
      }

      .st22 {
        fill: #f3ba58;
      }

      .st23 {
        fill: #cea462;
      }

      .st24 {
        fill: #f7d8a1;
      }

      .st25 {
        fill: #f9eacb;
      }

      .st26 {
        fill: #ebdba5;
      }

      .st27 {
        fill: #f8f0d9;
      }

      .st28 {
        fill: #f4cf88;
      }

      .st29 {
        fill: #e5a435;
      }

      .st30 {
        fill: #a45043;
      }

      .st31 {
        fill: #d28c35;
      }

      .st32 {
        fill: #e7a93a;
      }

      .st33 {
        fill: #f6d6bb;
      }

      .st34 {
        fill: #d29e4c;
      }
    </style>
  </defs>
  <path class="st22" d="M108.31,45.43c.26-.49.46-.33.55.18,8.17,3.9,15.73,12.77,19.56,20.85.15.1.3.21.43.33,1.08,1.05,2.65,6.51,3.13,8.29,1.11,4.16,1.69,8.63,2.17,12.78-.15.14-.41.17-.38.46.11,3.01.33,6.03.2,9.05-.46,10.86-2.17,26.23-11.07,33.58-.44.37-2.59,1.59-2.72,1.8-.16.24-.14.91-.23,1.24-.37.78-.78.27-.65-.44-6.95,4-15.6,5.45-23.53,5.81l-.27.27c-.22,1.59-.25,3.21-.1,4.84l-.36.4c-.65-1.87-.5-3.8-.37-5.72l-8.01-.2-1.03,2.41c-1.05.37-.29-1.15.04-1.69l.13-.48c-7.71-.67-15.33-2.51-22.07-6.38-.1-.06-.18-.17-.25-.29s-.13-.26-.18-.4c-3.65-2.21-6.61-5.59-8.49-9.41-.85-.95-1.22-1.87-1.11-2.77-.13-.08-.25-.16-.36-.25-.76-.7-3.27-9.98-2.96-10.97.04-.14.11-.27.19-.4-.4-2.64-.64-5.99-.74-8.67-.14-3.3-.18-6.6-.14-9.9.12-.27.29-.17.5.31l.44-.03c3.24,3.6,8.03,7.45,12.71,3.7s1.81-10.64-1.05-14.86c-2.33-3.26-4.54-6.59-6.63-9.99-.9-1.43-1.08-2.24-.06-3.54-.07-.25-.09-.5-.05-.75.13-.3.45-.58.95-.82,2.67-4.91,6.04-9.88,10.75-13.1.33-.46.67-.8,1.04-1.03,1.33-1.14,6.26-4.71,7.68-4.68.15,0,.3.03.44.07.12-.16.24-.31.38-.44,1-.93,4.79-1.86,6.33-2.23,5.95-1.41,12.15-1.31,18.08.16,2.4.59,5.29,1.31,7.14,2.88Z"/>
  <path class="st19" d="M49.81,99.68c-.31-.19-.18-.7-.19-1.01-.04-3.04.11-6.09-.09-9.13-5.68-6.72-12.41-16-13.88-24.87-.11-.65.09-1.55-.14-2.07-.19-.41-3.81-3.57-4.52-4.34-6.47-6.99-12.55-17.88-15.8-26.83-2.35-6.47-2.38-10.19,5.24-11.79,14.71-3.08,34.04,2.99,45.17,12.87.35.31.13.8.64.37.38.05.7.32.96.82,3.51,3.23,6.72,7.27,9.19,11.36-2.48,1.11-5,2.69-7.25,4.24-.18.12-.21.41-.32.48-.22.14-.53-.12-.55-.1l-.92-.6c-6.87-8.73-17.27-14.88-27.83-17.87-5.14-1.46-14.84-3.29-12.07,5.07,2.27,6.87,6.56,13.46,11.59,18.49,2.96-1.47,5.24-1.38,7.96.57.65.46,3.86,3.46,3.52,4.08-.04.08-.1.15-.17.22-.3.37-1.32-.18-1.62-.44-2.53-3.49-4.55-5.12-9-3.48-2.66.98-5.03,4.67-3.23,7.29,1.12,9.94,7.4,18.09,13.42,25.7.54.6.62,1.06.25,1.39-.5-.33-.35-.18-.37.27-.12,2.96-.11,6.36,0,9.32Z"/>
  <path class="st31" d="M50.54,108.35c.57,3.7,1.78,8.14,3.14,11.63-.79,2.98-1.17,5.86-.74,9.04.08.5.44,1.34.34,1.71-.05.18-1.3,1.74-1.53,1.99-5.82,6.09-15.48,7.25-23.44,7.93-.35.03-.96.13-1.2-.18l.14-.34c-1.73-.08-2.97-.74-3.71-1.98-.98-2.23-2.25-3.98-4.13-5.61-1.52-1.64.31-1.58,1.6-1.48,7.03-.82,5.35-5.53-.2-7.36-.46-.24-.48-.56-.12-.93,3.61-1.96,5.14-5.67.25-7.18l-.1-.41c3.54-2.67,7.86-4.88,12.08-6.28,4.58-1.51,9-2.24,13.8-1.43,1.29.22,2.53.7,3.83.88Z"/>
  <path class="st5" d="M134.14,87.87c-.42-.19-.45-.67-.5-1.06-.9-7.55-1.93-13.41-5.22-20.34,1.36-2.73,2.4-5.62,3.72-8.37,2.68-5.58,6.8-14.13,14.27-9.16,4.91,3.27,2.82,11.42,1.34,16.09-2.5,7.87-7.63,17.2-13.6,22.84Z"/>
  <path class="st4" d="M20.83,115.18c.3.02,2.6,1.19,2.85,1.49,2.14,2.55-.78,5.42-3.03,6.54.89.51,1.88.75,2.75,1.31,4.61,2.94,2.72,6.37-2.11,6.9-.54.06-1.12-.04-1.66,0-.27.02-.53-.14-.46.27.84,1.11,2.23,2.18,3.03,3.24.69.92,1.67,3.49,2.41,4.05.64.49,3.53.87,3.79,1.1.52.48-1.1.37-1.29.37-3.79-.1-9.35-2.47-12.53-4.54-6.76-4.38-11.68-12.35-10.72-20.65.22-1.9,1.02-1.76,2.62-1.33,2.01.54,5.02,2.47,7.07,2.54s5.53-1.44,7.28-1.3Z"/>
  <path class="st18" d="M85.61,141.39c-.37,1.83-4.31,8.4-5.63,9.97-4.27,5.07-10.7,3.84-14.85-.65-4.59-4.98-2.42-12.55-1.85-18.54,4.06,2.45,9.69,4.52,14.32,5.52,2.76.6,5.6.79,8.38,1.22.56.4-.44,1.62-.53,2.08s.16.39.16.42Z"/>
  <path class="st32" d="M95.02,144.89c-.04-1.43-.18-3.39,0-4.89.19-1.62,1.76-.89,3.05-1.01,5.74-.56,12.83-1.93,18.16-4.17,1.02-.43,2.34-1.39,3.25-1.73.73-.27-.38,1.55.46.92-1.34,4.74-5.94,16.01-9.98,18.71-5.34,3.57-14.75-1.69-14.93-7.83Z"/>
  <path class="st23" d="M108.86,45.61c-.2-.09-.4-.12-.55-.18l-.45-.5c-1.27-18.21-17.27-30.75-32.97-37.13-4.13-1.68-8.64-3.27-9.61,2.56-1.13,6.83-.7,14,1.34,20.58.46,1.51.33,2.15-.39,1.95-2.41-5.53-3.23-18.05-1.8-23.85,1.66-6.78,10.38-2.44,14.35-.59,14.98,6.98,29.46,19.42,30.08,37.18Z"/>
  <path class="st13" d="M54.79,122.75c-.47-.04-.86-1.24-.93-1.29-.59-.42-.55,1.17-.59,1.34-.08.32-.29.53-.33.96-.18,1.64.14,3.59,0,5.27-.52-3.12-.31-5.01.27-8.13.06-.33.1-.78.47-.91.33.84.72,1.99,1.11,2.77Z"/>
  <path class="st10" d="M100.89,92.17c10.19-.58,24.36,5.24,25.33,16.82,1.59,19.04-17.27,24.9-32.76,25.93-12.57.84-24-5.19-22.76-19.26,1.16-13.19,18.23-22.82,30.2-23.5Z"/>
  <path class="st29" d="M108.31,45.43c-10.21-4.63-21.61-5-31.93-.37-.47.03-.47-.3-.65-.55-2.44-3.41-4.39-6.07-7.28-9.14-.92-.98-1.66-1.21-2.22-2.49.12-.1.24-.2.29-.35-.12-1.56-.82-3.16-1.17-4.77-1.11-5.2-1.53-12.62-.37-17.8.66-2.94,1.86-4.26,5.03-4.03,2.51.19,7.12,2.45,9.5,3.6,13.34,6.44,25.8,17.02,28.36,32.35.2,1.18.22,2.37.42,3.55Z"/>
  <path class="st26" d="M68.26,49.67s0,.42-.27.75c-.76.98-2.16,1.64-3.06,2.48-2.06,1.93-4.55,5.16-6.13,7.53-.58.86-1.66,3.23-2.16,3.74-.24.25-.78.43-1.12.45-1.08,1.05-2.54-.68-3.24-1.62-.34-.45-1.83-2.58-2.01-2.95l.08-.41c-.44-.96-1.51-2.15-2.28-2.89-2.03-1.94-4.22-3.21-7.14-2.38-.58.17-1.58.94-2.02.75-.47-.2-3.43-3.7-3.95-4.36-2.74-3.47-5.57-8.27-7.16-12.4-1.15-3.01-2.69-7.02,1.48-8.37,5.26-1.7,15.48,2.39,20.4,4.76,7.16,3.46,13.86,8.5,18.57,14.92Z"/>
  <path class="st7" d="M50.18,90.09c-.06-.08-.08-.41-.21-.62-1.64-2.81-4.18-5.22-5.97-7.88-2.99-4.42-6.11-9.94-7.31-15.21-.25-1.1-.3-2.44-.58-3.47-.13-.5-.66-1.05-.67-1.51-.05-1.71,1.2-4.12,2.56-5.18,1.5-1.17,5.19-2.03,6.94-1.21.63.29,2.85,2.27,3.4,2.87.26.29.34.78.64,1.02s.93.38,1.39.73c1.74,1.34,2.31,5.15,5.17,4.98,1.23.94-.59,1.55-.29,2.59,2.74,6.6,11.9,14.68,10.95,22.19-.5,3.99-4.32,6.81-8.3,6.19-2.27-.36-6.38-3.62-7.7-5.49Z"/>
  <path class="st3" d="M96.31,66.1c1.38.3,2.8,2.09,2.77,3.51.18.91.11,1.85,0,2.77.63.7-.82,2.65-1.45,3.26-.41.55-.79.69-1.13.43-.25.5-.43.56-.55.18-1.14.32-2.13-.18-3.25-.35-1.25-.18-1.49.33-2.65-.58-1.21.12-2.09-1.94-2.3-3.03-.7-3.58,2.14-6.99,5.75-7.16.83-.04,2.57.13,2.82.96Z"/>
  <path class="st20" d="M97.23,65.91c.45.88-.38.58-.92.18-.59-.14-1.22-.46-1.77-.54-5.65-.76-8.87,6.38-4.51,9.76-.04.31.45.51-.09.55-1.56.13-3.18.22-4.71.28-1.89-2.91-1.3-7.15.92-9.69,1.92-2.78,6.32-4.08,9.34-2.46.62.33,2.08,1.24,1.73,1.9Z"/>
  <path class="st12" d="M121.96,74.03c.12.16,0,.28-.37.37-.56.05-2.56.82-3.14,1.11-.75.36-1.43-.23-1.97-.73-1.26-1.15-1.7-2.65-1.8-4.3-.07-1.14-.02-3.75,1.19-4.01-.21-.9,1.74-1.6,2.48-1.62,3.47-.11,5.18,4.26,4.75,7.21-.1.67-.36,2.11-1.14,1.98Z"/>
  <path class="st16" d="M85.57,79.25c1.33-.05,2.75.12,3.9.79,3.58,2.08.92,4.2-1.95,4.68-1.87.31-6.82.12-7.38-2.19-.58-2.39,3.77-3.21,5.42-3.27Z"/>
  <path class="st6" d="M100.31,79.59c.29-.07,3.68,1.24,4.44,1.4,2.65.56,5.5.58,8.13-.09.69-.17,3.86-1.77,4.08-.87.05.23-.38,2.2-.5,2.6-2.84,9.74-13.19,9.85-16.14.2-.21-.68-.96-3.02,0-3.25Z"/>
  <path class="st27" d="M122.15,64.07c.64.39.93.88,1.48,1.48,1.58.88,2.97,7.89,1.84,8.63-.29.19-3.16.22-3.44.07-.05-.03-.06-.11-.06-.21,1.97-2.67.34-8.85-3.6-8.82-.65,0-2.12.7-2.49,1.26-1,.37-.37-1.01-.03-1.55,1.38-2.23,4.45-2.74,6.3-.85Z"/>
  <path class="st2" d="M122.56,79.61c.04-.07,1.17-.89,1.33-.97,1.81-.96,7.5-1.06,7.29,1.92-.09,1.28-2.12,2.17-3.24,2.31-1.41.19-4.96-.35-5.38-1.97-.07-.28-.13-1.08,0-1.3Z"/>
  <path class="st21" d="M105.4,74.64c1.15-.95,6.38-1.26,7.34.03.61.82-1.43,3.27-2.28,3.65-1.05.48-1.71.27-2.66-.19s-3.83-2.3-2.4-3.49Z"/>
  <path class="st34" d="M95.52,56.55c.56.69.27,1.66-.58,1.99-1.11.43-2.76.03-4.16.45-1.54.46-2.66,2.07-4.3,1.71-2.56-.57,1.65-3.55,2.6-3.96,1.29-.56,5.5-1.35,6.44-.19Z"/>
  <path class="st9" d="M122.11,59.96c-1.02.59-2.89-1.19-4.16-1.39-1.02-.16-3.69.31-3.15-1.57.39-1.38,3.45-1.08,4.53-.72.92.31,3.23,1.85,3.18,2.9,0,.13-.32.74-.39.78Z"/>
  <path class="st11" d="M122.15,64.07c-1.33-.8-2.72-1.33-4.29-.69-.2.08-1.56,1.23-1.7,1.43-.26.36-.81,1.32-.28,1.65-1.9,2.85-.97,7.94,2.58,9.04-.88.43-1.28,1.64-2.29.36-3.07-3.89-2.35-14.25,4.19-13.05.49.09,1.78.63,1.8,1.25Z"/>
  <path class="st24" d="M86.16,66.46c1.07-2.35,4.5-3.49,6.92-3.32,5.35.38,8.42,7.58,6.63,12.16-.9,2.31-1.97,2.01-4.04,1.31l.28-.37c.12-.03.48-.14.55-.18.83.44,1.6.69,2.13-.27.95-1.72,1.15-3.31.84-5.22-.27-1.67-.93-3.08-2.27-4.19l.04-.47c-.15-.18-.21-.51-.45-.75-3.01-3.06-8.07-1.62-10.62,1.3Z"/>
  <path class="st8" d="M121.59,74.4c.04-.2.3-.28.37-.37.47.33,3.41.3,3.51-.13.33-1.38-.02-4.22-.47-5.59-.32-1-1.02-1.8-1.38-2.77.41.45.98.72,1.31,1.37.58,1.16,1.7,6.44.82,7.31-.35.35-1.8.14-2.4.18s-1.5-.03-1.76,0Z"/>
  <path class="st0" d="M90.55,123.89c1.15-.14,2.41,1.41,3.27,1.46,1.13.06,2.31-2.41,3.71-1.33,1.17.91-1.68,2.13-1.59,3.05.08.83,2.57,1.9,1.87,2.97-.97,1.48-2.33-.81-3.16-1.11-1.56-.57-2.42,2.27-4.12,2.11-2.59-.24,1.56-3.27,1.56-3.78,0-.68-4.17-3.06-1.52-3.38Z"/>
  <path class="st25" d="M97.23,65.91c.78.93,1.72,1.97,2.12,3.14.16.47.67,3.9.64,4.32-.01.15-.93,2.39-1.06,2.63-.66,1.16-1.23.76-2.34.61-.58-.08-.24-.26-.09-.55,1.15-.62,2.27-2.43,2.58-3.69.11-.92.18-1.85,0-2.77-.23-.56-.68-1.53-1.03-2.01-.52-.71-1.16-.91-1.74-1.49.48.11.67.38.92-.18Z"/>
  <path class="st17" d="M91.27,67.06c2.35-.54,2.99,2.99.81,3.37s-2.87-2.89-.81-3.37Z"/>
  <path class="st1" d="M98.16,72.37c-.33.54-.96.37-1.38.92-.34.45-.45,2.09-.85,1.21-.56-1.24-.42-1.38-1.83-2.05,1.05-.2,1.78-1.07,1.85-2.12.57.29.37,1.05.82,1.49.31.3.97.44,1.39.55Z"/>
  <path class="st14" d="M91.51,72c.09.1.05.95.92,1.01-.42.33-.8.49-1.01,1.01l-1.02-1.1c.64.2.74-1.31,1.1-.93Z"/>
  <path class="st24" d="M99.08,72.37v-2.77c.35.88.23,1.85,0,2.77Z"/>
  <path class="st33" d="M117.11,66.5c2.5-.75,2.47,3.88-.09,2.78-1.12-.49-1.04-2.44.09-2.78Z"/>
  <path class="st28" d="M122.15,71.08c-.66.63-1.33.96-1.29,2.03-.57-.66-.53-1.56-1.66-1.66-.1-.6.67-.36,1-.93.16-.28.19-.77.29-1.1.63.59.53,1.6,1.66,1.66Z"/>
  <path class="st30" d="M112.55,87.32l-.58-.11c-2.31-2.56-5.98-3.16-9.26-2.73l-.49-.3s-.36-.17-.45-.37c-.41-.86-.65-1.8-.65-2.77.07-.07,1.29.17,1.52.24,4.02,1.11,6.66,1.7,10.84.41.99-.31,2.6-1.66,2.18.7-.07.36-1.47,3.44-1.72,3.82-.41.62-.95.77-1.38,1.12Z"/>
  <path class="st15" d="M112.55,87.32s.05.25-.13.37c-2.47,1.76-5.58,1.76-7.98-.11-1.45-1.13-1.51-1.96-2.23-3.4,3.71-.59,7.9.07,10.33,3.14Z"/>
</svg>