<?xml version="1.0" encoding="UTF-8"?>
<svg id="Layer_1" xmlns="http://www.w3.org/2000/svg" version="1.1" viewBox="0 0 160 160">
  <!-- Generator: Adobe Illustrator 29.8.3, SVG Export Plug-In . SVG Version: 2.1.1 Build 3)  -->
  <defs>
    <style>
      .st0 {
        fill: #f9f0e2;
      }

      .st1 {
        fill: #edb753;
      }

      .st2 {
        fill: #d2923f;
      }

      .st3 {
        fill: #773d30;
      }

      .st4 {
        fill: #e7b250;
      }

      .st5 {
        fill: #c68936;
      }

      .st6 {
        fill: #773e30;
      }

      .st7 {
        fill: #f4c265;
      }

      .st8 {
        fill: #edb854;
      }

      .st9 {
        fill: #8a5239;
      }

      .st10 {
        fill: #f5eadd;
      }

      .st11 {
        fill: #e7b04b;
      }

      .st12 {
        fill: #d5a147;
      }

      .st13 {
        fill: #b08551;
      }

      .st14 {
        fill: #935f35;
      }

      .st15 {
        fill: #ef9f71;
      }

      .st16 {
        fill: #fbf7e8;
      }

      .st17 {
        fill: #cb913e;
      }

      .st18 {
        fill: #f3e2b7;
      }

      .st19 {
        fill: #d39440;
      }

      .st20 {
        fill: #d69b48;
      }

      .st21 {
        fill: #e7b04f;
      }

      .st22 {
        fill: #d08e3b;
      }

      .st23 {
        fill: #eab45b;
      }

      .st24 {
        fill: #f3e1b4;
      }

      .st25 {
        fill: #fbf7e9;
      }

      .st26 {
        fill: #d5a248;
      }

      .st27 {
        fill: #dc9e48;
      }

      .st28 {
        fill: #f0be65;
      }

      .st29 {
        fill: #e6b04c;
      }

      .st30 {
        fill: #cb8e38;
      }

      .st31 {
        fill: #f2e2b4;
      }

      .st32 {
        fill: #cb8d39;
      }

      .st33 {
        fill: #efa075;
      }
    </style>
  </defs>
  <path class="st21" d="M105.62,127"/>
  <path class="st19" d="M104.46,94.59c-12.45,2.74-1.81,13.02-5.17,23.4,4.6,7.21,14.25,9.76,23.36,10.06,6.39.78,5.64-5.24,9.55-8.5.26-.65.29-1.16-.41-1.36-15.22-1.79,3.12-6.9-2.46-9.3-2.99-2.79-2.61-4.81,1.45-6.29-6.25-4.79-17.3-10.68-26.31-8.01Z"/>
  <path class="st18" d="M130.14,102.28c-1.37.72-2.59.65-3.21,2.37-.9,2.52,1.62,4.8,3.66,5.79-7.95,2.5-6.75,8.94,1.39,8.3-1.03,1.61-2.64,2.67-3.52,4.44-.48.98-1.49,3.09-1.95,3.45-.84.66-2.76.86-3.85,1.41,6.76,0,14.7-4.38,18.73-9.87,2.17-2.96,3.98-6.77,4.52-10.42.22-1.48.73-6.31-.57-7.09-.91-.54-6.23,2.88-8.58,2.85"/>
  <g>
    <path class="st21" d="M108.27,125.79c.65-.34.96-1.04,1.24-1.67,2.55-5.78.49-13.89-1.44-19.63-1.27-3.78-4.72-12.04-7.94-14.47-1.89-1.42-3.65-1.63-5.73-.51-3.88,2.1-3.66,7.42-3.62,11.26,0,.34-.13.89.2,1.1,1.8,5.5,3.09,11.25,3.88,16.96.57,2.74,1.33,6.07,3.35,7.96.02.02.38-.02.58.12,1.15.78,1.99,1.35,3.44,1.49"/>
    <path class="st7" d="M37.57,78.92c.3-.73.36-1.19.17-1.36.95-1.87,1-4.74,1.46-6.88,1.21-5.6,3.4-10.99,6.53-15.78.27-.41,1.35-1.57,1.42-1.81.19-.63-1.06-3.04-1.37-3.88.08-.08.15-.15.25-.2.61-.31,1.55,2.14,1.74,2.68.55-.59,1.06-1.23,1.52-1.91l.51.03.07-.62c2.74-2.55,5.99-4.33,9.25-5.96.05-.78.22-1.27.53-1.46.34.16.59.46.75.91l3.64-1.12c.25.18.53.25.83.21.11-.13.23-.25.37-.35.88-.66,9.27-1.4,10.26-.92.15.07.29.17.42.27.09,0,.19.37.35.39,2.6.36,5.11.79,7.61,1.62l.24-.03c.17-.48.53-.8.84-1.18.84.21.19,1.25-.29,1.72-1.1.74-1.59,1.66-2.19,2.8-.27.5-1.77,3.41-1.77,3.61,0,.31,3.66,3.95,4.26,4.32.35.3.63.75.84,1.37,2.86,3.41,5.2,7.46,6.76,11.67.19.38.4.72.64,1.03.01.78,1.54,5.27,1.99,5.48.17.08.75.15,1.02.15l.45-.49c3.3-.75,6.25-2.59,8.73-4.85l.67-.08c.18,1.7.81,3.31,1.15,4.98,1.78,8.89,1.79,18.24,1.06,27.27-.11,1.31-.62,2.61-.2,3.92l-.5-.21c-1.16-3.21-2.48-6.41-4.18-9.39-1.88-3.27-4.8-7.45-8.97-4.93-3.24,1.96-3.26,6.31-3.25,9.67-.5.38-.33,1.59-.18,2.24.12.13.23.27.28.43.27.8.92,7.19.74,7.74-.05.16-.13.32-.22.47l.45.4c.19,2.43.46,4.86.8,7.28.5,3.15,1.5,7.24,4.8,8.37l.18.42c-1.16,1.03-3.11,2.26-4.02,3.22-.12.13-.33.44-.4.6-4.28,2.25-8.79,3.66-13.67,3.97-1.29.08-8.7.09-9.66-.27-.05.04-.1.08-.18.13-.05-.14-.23-.55-.35-.6-.77-.19-1.72-.22-2.47-.4-.13.07-.27.14-.41.18-.89.24-5.87-1.66-7.11-2.15-2.81-1.11-5.53-2.39-8.02-4.1-.94-.65-2.4-1.77-2.75-2.77.02-.9.67-2.74,1.81-1.81l.58-.05c9.44,7.5,27.92,10.75,25.32-7.17l.43-.21c-.61-.79-1-1.76-1.17-2.91-3-15.34-35.55-31.94-33.81-5.94.28.92.28,1.73,0,2.42-.97-.57-1.5.47-1.79,1.41l-.42.2c-.33-.2-.34-.55-.43-.88-.37-1.31-.93-3.07-1.18-4.35-.25-.32-.51-.66-.6-1.06-1.53-7.07-1.11-18.28-.17-25.52Z"/>
    <path class="st1" d="M84.96,41.59c.17,1.31-1.19,1.76-1.78,2.54-1.12,1.47-1.93,3.95-2.84,5.6.98,1.83,2.88,2.9,4.02,4.62l.61-.3.43-.29c1.88-6.26,7.83-11.46,12.84-15.45,1.46-1.16,8.45-5.84,8.82-1.73.51,5.77-1.88,14.23-4.41,19.44-2.14,4.4-5.07,9.38-9.49,11.64l.05.46c-.22.18-.37.5-.33.81.05.33,1.67,4.62,1.83,4.82.45.54,1.14.06,1.51,0,2.99-2.86,5.66-5.82,7.88-9.42,6.27-10.17,8.25-22.04,9.56-33.68.24-2.11.68-6.18-1.96-6.74-3.14.06-12.26,5.35-15.13,7.27-4.35,2.9-8.27,6.39-11.59,10.41Z"/>
    <path class="st8" d="M45.77,49.22c.9.15,1.58,2.84,1.81,3.01.2.15.36-.09.49-.21.53-.53,1.32-1.81,1.72-2.2l-.03-1.08c-4.11-9.7-4.33-19.45-1.77-29.53,1.71-6.74,6.78,6.15,7.26,7.63,1.56,4.76,2.92,9.5,4.01,14.38l.39.57c.08.38.14.71.2,1.11.05.29-.14.33.3.31,1.55-.5,3.13-1.06,4.72-1.41l-1.7-9.09c-.05-.49-.32-.87-.71-1.16-.56-4.34-2.27-8.46-3.99-12.49-1.93-4.51-4.15-9.14-6.92-13.05-.65-1.02-1.33-1.55-2.56-1.6-1.65.27-3.08,4.91-3.56,6.39-4.04,12.61-4.27,25.97.34,38.43Z"/>
    <path class="st20" d="M111.69,23.9c2.06,1.24,1.72,3.76,1.61,5.93-.18,3.48-.87,7.73-1.47,11.19-2.02,11.73-6.68,25.04-16.32,32.52l.71.2c3.55-.59,7.29-2.93,9.85-5.43,9.76-9.52,11.32-26.18,9.19-39.03-.38-2.28-.66-5.43-3.56-5.38Z"/>
    <path class="st27" d="M54.91,7.23c3.5,2.88,7.24,6.89,10.03,10.47,2.09,2.68,4.04,5.57,5.55,8.62.89.87,2.64,5.03,3.17,6.38,1.01,2.57,1.93,5.34,2.26,8.09-3.5-.04-7.58.23-11.05,1-.46.1-.47-.21-.55-.55-.72-3.23-.94-6.34-1.86-9.7-2.07-7.53-5.72-16.25-9.68-22.97-.57-.96-2.01-3.16-2.87-3.76-.29-.2-.67-.14-.91-.39,2.4-.39,4.21,1.4,5.92,2.82Z"/>
    <path class="st4" d="M37.73,77.56c-3.24,6.35-6.8,11.65-7.43,19.2-.45,5.41,2.23,9.56,8.04,8.74-1.65-8.57-1.17-18.96-.25-27.69.06-.54.16-.56-.35-.25Z"/>
    <path class="st22" d="M47.98,124.39c.19.51.15.91.2,1.41.2.24.34.7.4,1,1.65,2.63,4.87,4.5,7.62,5.96,1.77.94,7.89,3.79,9.53,3.61.18-.02.36-.07.54-.12.47-.82.79-1.67,1-2.61-4.66-1.13-10.62-3.35-14.65-5.94-1.33-.86-2.37-2-3.63-2.9.29-.53-1.23-1.24-1-.4Z"/>
    <path class="st19" d="M90.99,101.88c.05,2.78.5,5.84.8,8.64.39,3.68.67,9.95,2.41,13.17.7,1.3,2.25,3.28,3.82,3.31.07-.06.14-.13.2-.2-.02-.02.03-.4-.11-.58-2.98-4.07-2.97-9.47-4-14.3-.79-3.7-1.96-7.32-2.87-11l-.05-1.25c-.35-.05-.19.46-.2.7-.02.5,0,1.01,0,1.51Z"/>
    <path class="st28" d="M39.94,110.72c-.01,2.08,3.32,7.73,4.66,9.51.86,1.14,2.96,3.04,3.38,4.16l.1-.2c.19.41.69.45.91.6.92-.59.54-2.08,1.81-1.81l-.23-.72c-3.85-3.4-6.88-7.9-7.9-12.94l-.51-.21c-.05-.12-.25-.6-.32-.62-.92-.22-1.89,1.38-1.9,2.22Z"/>
    <path class="st24" d="M42.16,109.11c.41.98.56,2.28.97,3.35,1.47,3.91,4.46,7.88,7.67,10.51,7.68,6.3,25.59,11.84,26.52-3.32.08-1.32-.37-3.06-.2-4.12-.68-3.11-1.63-5.96-3.25-8.7-4-6.76-12.2-12.69-20.02-13.94-10.6-1.7-13.65,7.45-11.69,16.21Z"/>
    <path class="st31" d="M84.96,54.05c-.09,1.47,1.48,2.62,2.29,3.84,1.29,1.93,2.73,4.4,3.77,6.48.49.97.81,2.25,1.36,3.27.23.43.26.56.82.49.59-.47,1.69-.9,2.41-1.5,4.46-3.77,8.41-11.58,9.99-17.14.94-3.32,2.24-9.47,1.87-12.8-.5-4.35-6.14-.97-8.1.34-4.24,2.82-14.08,11.83-14.4,17.05Z"/>
    <path class="st24" d="M49.79,49.83c1.42-1.37,3.61-2.94,5.32-4.02.74-.47,4.11-2.06,4.33-2.3.38-.43.15-1.16.2-1.71-1.24-6.22-2.67-12.17-5.19-18.02-1.18-2.74-4.96-11.19-7.02-4.13-2.33,8.01-1.96,17.06.41,25.01.53,1.77,1.19,3.5,1.95,5.18Z"/>
    <path class="st25" d="M71.13,71.18c-3.81-.27-5.85,3.21-5.44,6.66.62,5.31,7.42,9.33,11,4.21,2.77-3.98-.83-10.53-5.55-10.87Z"/>
    <path class="st16" d="M49.63,62.54c-4.56-.5-4.61,6.47-3.23,9.47,1.59,3.48,5.83,6.15,7.96,1.58,1.62-3.48-.55-10.6-4.72-11.05Z"/>
    <path class="st33" d="M75.36,85.25c-4.18-.41-4.92,2.7-1.19,4.4,1.48.67,6.08,1.61,6.53-.59s-3.71-3.65-5.35-3.81Z"/>
    <path class="st14" d="M46.49,78.77c-1.5-.48-.69,2.16-.43,2.84.88,2.24,3.44,4.01,5.68,2.36,1.29,2.39,4.04,4.01,6.6,2.37.62-.4,1.98-1.84,1.45-2.59-.7-1-1.61,1.15-2.13,1.51-1.75,1.22-3.5,0-4.5-1.51-.28-.43-.35-1.22-.86-1.37-.83-.24-1.36.83-2.22.94-1.49.19-2.57-1.55-2.97-2.77-.16-.48-.01-1.6-.62-1.79Z"/>
    <path class="st15" d="M43.21,72.59c-3.78-.46-2.25,3-.08,4.3.99.59,4.34,1.57,4.65-.03.44-2.27-2.62-4.03-4.57-4.27Z"/>
    <path class="st9" d="M51.12,77.37c-2.72-.24-.33,4.22,1.11,4.54,1.63.36,4.75-1.33,2.77-2.98-.49-.41-3.25-1.51-3.88-1.57Z"/>
    <path class="st12" d="M72.76,66.15c-1.18-.2-2.21-.2-2.08,1.26.1,1.14,1.6,1.17,2.44,1.6,1.01.52,3.16,2.91,4.23,1.43,1.19-1.65-3.27-4.06-4.58-4.29Z"/>
    <path class="st26" d="M50.84,57.73c-1.11-.1-4.28.1-3.51,1.89.55,1.27,2.96.83,4.17.86.76.02,2.13.66,2.48-.55.44-1.53-2.08-2.11-3.14-2.21Z"/>
    <path class="st23" d="M77.12,110.52c-.32.29.99,1.23,1.4,1,.31-.28-1.15-1.24-1.4-1Z"/>
    <path class="st11" d="M70.69,137.45c.17.69,1.04,3.75,1.01,4.12-.05.48-1.89,2.23-2.3,2.93-.88,1.52-1.14,3.52-.11,5.01l.38-.31c-.58-1.35,3.5-5.22,1.11-2.18-.44.97-1.04,2.56-.49,3.49,1.3,1.02,2.01,1.17,3.62,1.41q.2-.33,0,0c4.66.69,12.89-.98,14.88-5.92,1.7-4.23,2.92-9.37,4.42-13.77l-.85.18c-5.88,4.55-13.62,5.63-20.85,4.75l-.81.3Z"/>
    <path class="st29" d="M47.18,138.85l.33-.26c-.28-.59,1.54-4.3,1.85-3.12-.97,1.05-2,2.82-1.38,4.19.96.73,2.42,1.36,3.62,1.61l.32-.35c-1.15-1.85,3.56-6.49.66-2.35-.08.92-.21,1.82-.38,2.69,4.35.62,11.67-.87,14.07-5.02-6.56-1.83-12.76-4.66-17.68-9.45.16.75,1.06,3.77,1.01,4.11s-1.61,1.89-1.98,2.46c-1.08,1.66-1.64,3.76-.44,5.49Z"/>
    <path class="st2" d="M93.6,130.82c.05-.65-.11-.41-.51-.21-8.44,4.23-13.43,4.12-22.65,3.57-.63-.04-.35-.32-.35.46.26.78.38,1.93.6,2.81,7.68,1.13,16.47-.06,22.51-5.23.14-.42.28-1.13.4-1.41Z"/>
    <path class="st30" d="M51.6,141.27c.17.04.41-.03.6,0,.7.02.56.13.6-.49.05-.74-.1-1.29.15-2.07.28-.84,1.66-1.41.75-2.27-1.8.66-2.64,3.08-2.11,4.82Z"/>
    <path class="st32" d="M69.29,149.51c.33.48.56.66,1,1,.27-1.14.26-2.2.83-3.29.24-.47,1.14-.82.68-1.54s-1.53.82-1.72,1.11c-.54.83-.91,1.7-.8,2.72Z"/>
    <path class="st5" d="M47.18,138.85c.29.41.42.51.8.8.28-1.02.29-1.92.83-2.89.24-.42,1.32-1.14.89-1.74-.97-1.34-3.02,2.91-2.52,3.83Z"/>
    <path class="st13" d="M54.39,120.54c-.09.16-2.21,1.23-1.19,1.95.73.52,1.84-.88,2.12-.88.42,0,2.24,3.52,3.03,1.97.33-.65-1.86-2.05-1.74-2.89.02-.15,2.82-1.42,1.83-2.03s-2.2.84-2.69.7c-.7-.21-.9-2.55-2.02-2.18s.95,2.86.65,3.37Z"/>
    <path class="st3" d="M70.54,73.19c-4.85-.83-5.64,5.64-2.25,8.08,3.78,2.72,7.45-.84,5.77-4.97-.53-1.29-2.11-2.87-3.52-3.11Z"/>
    <path class="st6" d="M50.64,65.14c-4.42-.52-3.32,9.6,1.24,9.39,4.14-.19,2.75-8.93-1.24-9.39Z"/>
    <path class="st17" d="M73.91,151.92c.18.08.74-.05,1.01,0,.03-.74-.1-1.49.09-2.22s2.23-2.22.77-2.59-2.72,4.43-1.87,4.8Z"/>
    <path class="st0" d="M72.96,75.59c-1.59-.46-1.66,1.79-.35,1.98,1.41.21,1.41-1.67.35-1.98Z"/>
    <path class="st10" d="M49.94,66.36c-1.42-1.3-1.6,1.96-.25,1.96.83,0,.76-1.49.25-1.96Z"/>
  </g>
</svg>