<?xml version="1.0" encoding="UTF-8"?>
<svg id="Layer_1" xmlns="http://www.w3.org/2000/svg" version="1.1" viewBox="0 0 160 174.77">
  <!-- Generator: Adobe Illustrator 29.8.3, SVG Export Plug-In . SVG Version: 2.1.1 Build 3)  -->
  <defs>
    <style>
      .st0 {
        fill: #ee92a1;
      }

      .st1 {
        fill: #df8c94;
      }

      .st2 {
        fill: #fbe2db;
      }

      .st3 {
        fill: #fff;
      }

      .st4 {
        fill: #ee7a88;
      }

      .st5 {
        fill: #f38996;
      }

      .st6 {
        fill: #f495a1;
      }

      .st7 {
        fill: #ed9aa8;
      }

      .st8 {
        fill: #fff4ec;
      }

      .st9 {
        fill: #de8c94;
      }

      .st10 {
        fill: #ef9da8;
      }

      .st11 {
        fill: #d28894;
      }

      .st12 {
        fill: #f49495;
      }

      .st13 {
        fill: #fbeae6;
      }

      .st14 {
        fill: #f5acb9;
      }

      .st15 {
        fill: #f4aab8;
      }

      .st16 {
        fill: #f492a0;
      }

      .st17 {
        fill: #ed7987;
      }

      .st18 {
        fill: #ef858d;
      }

      .st19 {
        fill: #f48e99;
      }

      .st20 {
        fill: #bc2531;
      }

      .st21 {
        fill: #f494a1;
      }

      .st22 {
        fill: #f59696;
      }

      .st23 {
        fill: #ee7987;
      }

      .st24 {
        fill: #fcf3ea;
      }

      .st25 {
        fill: #fbe4de;
      }
    </style>
  </defs>
  <path class="st15" d="M78.05,31.29c1.87-.36,4.32.07,5.94,1.08.13-.06.27-.11.41-.14,1.12-.23,10.26,3.49,10.91,4.44.08.12.14.25.2.38,1.32.07,3.21,1.32,3.78,2.52,14.58,11.36,20.85,32.53,21.23,50.39l.26,1.05c.3,6.73.07,13.54-.65,20.23l-.33,1.03c-.99,11.71-4.34,26.24-14.58,33.3-.15.3-.33.61-.6.83-1.79,1.46-5.26,2.9-7.48,3.76-5.97,2.32-13.18,3.77-19.57,4-.16,0-.32-.04-.48-.09s-.33-.13-.48-.22c-1.69.07-3.71.08-5.4,0-.14.09-.27.16-.42.22s-.28.1-.42.1c-9.59-.48-19.97-3.11-27.87-8.7l-.44-.8c-1.96-.73-3.64-2.89-4.94-4.59-5.54-7.26-7.88-17.3-8.99-26.23-.02-.13.02-.27.07-.42s.11-.29.19-.43c-.03-.23.03-.49,0-.72,0-.32-.06-.62-.18-.9-1.16-10.73-1.17-23.23.6-33.87,2.11-12.7,7.19-24.91,16.12-34.28.05-.31-3.02-2.98-3.51-3.48-.19-.2-.22-.51-.26-.54-.08-.12-.2-.31-.13-.39.47-.61,3.92-4.65,4.22-4.75.18-.06.49,0,.65.13l3.62,3.53c1.41,1.16,1.7,1.18,3.39.44s6.04-3.1,6.56-4.85c.17-.57,0-1.87-.12-2.45-.92-4.53-2.48-8.62-4.23-12.88l.09-.73c-.11-.19-.13-.57-.08-.8.49-.91,2.33-7.66,1.6-7.99l-3.08,5.36h-.42s-.21.85-.21.85c-2.84,5.33-6.04,10.56-9.72,15.36l-.68.54-.1.75c-.52.85-3.27,4.68-3.83,4.91-.12.05-.26.08-.39.1-4.57,5.56-14.78,15.68-22.66,11.42-9.2-4.98-3.39-20.64.44-27.62,6.18-11.28,13.89-15.57,26.66-16.89,9.04-.94,13.02.51,17.08,8.61,3.08,6.15,4.91,12.94,6.02,19.72,4.13-.78,8.09-.79,12.24-.28Z"/>
  <path class="st14" d="M106.12,31.83l-.66-.2c-.92-.81-2.32-2.28-2.58-3.4-.21-.11-.43-.23-.62-.37s-.38-.28-.53-.45c-2.64-3.26-5.16-6.62-7.54-10.07-.13-.19-.21-.41-.29-.64s-.14-.46-.19-.7c-1.23-.8-2.25-2.51-2.52-3.96-1.32-.97-2.55-2.71-2.88-4.32-.79-.21-1.46-1.55-1.26-2.34,5.14-6.25,17.55-3.22,24.29-1.17,9,2.74,14.86,9.16,19.29,17.25,3.24,5.91,9.22,21.19-.31,24.23-8.73,2.78-19.05-8.01-24.19-13.85Z"/>
  <path class="st21" d="M42.06,144.68c-1.68.54-3.33.24-5.04.45-.73.89-.82,1.98-1.54,2.95-2.87,3.86-9.7,3.53-12.49-.25-.34-.46-.74-1.74-1.21-1.86-.49-.13-2.18.55-3.01.52-4.28-.14-7.46-5.04-6.92-9.08.16-1.18,1.79-3.7,1.78-4.16,0-.27-1.22-1.9-1.46-2.49-1.69-4.1.59-10.32,5.36-10.9,1.09-.13,2.23.13,3.31-.11.59-.88.76-1.84,1.4-2.74s1.99-2.12,2.98-2.6,2.46-.51,3.18-1.41c1.41,11.28,4.39,24.22,13.68,31.68Z"/>
  <path class="st6" d="M71.21,153.86c-1.3,7.59-.77,17.02-10.25,18.81-7.43,1.4-12.18-.28-14.9-7.43-2.44-6.43-3.22-13.77-4-20.56,7.5,6.02,19.69,8.74,29.15,9.18Z"/>
  <path class="st16" d="M119.79,112.28c.62-7.34.88-14.94.72-22.32,4.08,1.51,8.2,2.88,12.18,4.65,6.4,2.84,16.69,7.68,13.15,16.46-3.06,7.57-14.5,4.54-20.43,2.7-1.38-.43-3.68-1.61-4.9-1.78-.36-.05-.47.1-.72.29Z"/>
  <path class="st6" d="M76.61,153.86c9.54-.41,20.67-2.81,28.61-8.28-1.45,6.6-1.57,15.9-5.5,21.58-3.4,4.91-11.24,5.03-16.26,2.8-6.01-2.67-6.01-10.48-6.84-16.1Z"/>
  <path class="st5" d="M91.18,12.04l.12.38c-.81.94-1.37,1.79-.63,2.97l1.08,2.37-.21.4.8.9c2.1,4.4,4.73,8.58,7.87,12.29l2.13-3.06.54-.05c.97,1.16,2.21,2.43,3.24,3.6l-3.06,3.42-.22.16c-.95-.8-1.85-1.73-2.71-2.8-1.23,1.68-2.59,3.21-4.09,4.57l-.55-.13c-3.4-1.91-7.74-3.72-11.52-4.68-.08-.14-.16-.29-.21-.45-.38-1.16.78-5.35,1.19-6.78,1.1-3.84,2.75-7.51,4.43-11.12-.57-1.82-1.1-3.65-1.62-5.48-.09-.49-.08-1.09.52-.83.9,1.46,1.94,2.88,2.88,4.32Z"/>
  <path class="st19" d="M41.16,39.21c-.94-.97-2.06-1.79-2.88-2.88,1.43-1.74,2.98-3.92,4.32-5.76l.2-.14c.9,1.04,1.84,2.04,2.84,3,3.49-4.95,6.77-10.34,8.99-16l.39-.18c.05-.16.11-.15.18,0,1.72,4.52,4.26,10.02,4.65,14.87.15,1.82-.36,2.17-1.69,3.3-1.23,1.05-5.49,3.65-7.02,3.62-1.63-.03-5.25-4.82-5.75-4.7l-4.23,4.86Z"/>
  <path class="st7" d="M88.3,7.72c-.31.18-.19.66-.14.94.31,1.8,1.32,3.59,1.57,5.43-2.62,5.73-5.34,11.93-5.76,18.28-1.95-.5-3.93-.83-5.94-1.08.59-6.19,2.21-12.42,4.65-18.12,1.09-2.55,2.6-5.67,4.35-7.8.42.76.81,1.61,1.26,2.34Z"/>
  <path class="st10" d="M103.06,35.25c-1.01,1.61-2.55,2.87-3.78,4.32-1.16-.9-2.5-1.8-3.78-2.52,1.23-.18,4.05-4.75,4.61-4.85.49-.08,2.26,2.78,2.94,3.05Z"/>
  <path class="st21" d="M28.38,112.28c-.02-.16-.14-.53-.18-.9.29.15.17.61.18.9Z"/>
  <path class="st24" d="M60.41,121.46h.74c9.17,5.09,25.3,7.52,33.58-.2,1.62-1.51,2.79-3.61,3.01-5.81.88-8.77-10.8-9.09-16.92-9.15-1.49-.14-6.39-.64-7.23-1.58-.09-.1-.17-.22-.24-.35,13.77-10.33,41.34-7.97,42.29,13.22.89,19.9-18.8,31.58-36.8,30.51-13.2-.79-21.82-10.67-19.65-23.97.13-.79.28-2.51,1.21-2.66Z"/>
  <path class="st16" d="M73.37,104.37c5.89,2.35,11.25,1.24,17.13,2.4,9,1.78,10.1,10.85,3.09,15.93-8.79,6.37-24.3,4.04-33.17-1.23-5.42-3.22-15.93-12.86-16.53-19.37-.47-5.1,4.86-9.89,9.88-8.99,5.51.99,13.6,8.86,19.6,11.26Z"/>
  <path class="st20" d="M78.59,72.87c-.52.38-1.89-.15-2.6-.19-1.79-.08-4.11-.09-5.85.19-1.12-.14-1.77-1.96-2.03-2.99-.96-3.79,1.24-7.74,5.25-8.29,5.65-.78,8.49,4.43,6.78,9.39-.19.54-.96,2.19-1.55,1.9Z"/>
  <path class="st20" d="M110.62,63.33c1.28.8,1.39,3.51,1.24,5-.14,1.35-.69,3.75-2.13,4-1.84-.32-4.45-.55-6.3-.36-.93-.04-1.47-1.54-1.75-2.38-.76-2.3-.58-5.26,1.12-7.1.58-.63,1.58-1.54,2.43-1.13,1.77.54,3.61,1.55,5.4,1.98Z"/>
  <path class="st23" d="M55.02,17.26c.05.88-2.93,6.52-3.57,7.68-.85,1.55-1.88,3.23-2.84,4.72-.38.6-2.47,3.88-2.77,4.07-.09.06-.15.09-.27.09-.7,0-2.34-2.76-2.97-3.25,3.94-5.41,7.29-10.94,10.62-16.74.07-.05.15-.09.23-.11.32-.06,2.26,2.94,1.57,3.53Z"/>
  <path class="st8" d="M78.59,72.87c.33-.24,1.2-1.89,1.34-2.35,1.37-4.32-1.07-8.91-5.94-8.64-5.71.32-7.49,7.15-3.86,10.99-1.43.23-2.89.81-4.28,1.23-.58.06-1.48-1.42-1.76-1.95-.83-1.57-1.14-3.37-.99-5.14.06-.73.45-2.5,1.13-2.83s2.64-.6,3.59-.91c2.72-.89,4.89-2.26,7.22-3.87,5,1.71,7.54,7.54,5.43,12.38-.35.8-.92,2.17-1.89,1.08Z"/>
  <path class="st18" d="M91.36,78.99c-1.2-.34-3.81-2.06-4.59-3.06-.73-.94-1.38-2.64-.25-3.5,1.52-1.16,7.77-1.51,9.47-.68,2.43,1.19.21,4.61-1.03,5.89-.42.43-1.18.6-1.26,1.17-.13.68-2.25,1-2.34.18Z"/>
  <path class="st11" d="M93.7,78.81c-.06.44-.08,2.64.17,2.8.12.08,2.29.38,2.85.57,1.3.44,5.53,2.78,5.44,4.27-.04.69-.81,1.28-1.48,1.16-.42-.08-1.92-1.6-2.52-1.99-.53-.35-.86-.44-1.39-.68l-.65.11c-2.91-1.26-6.07-1.02-8.95.19l-.65-.12c-.79.34-1.68.81-2.4,1.29-.99.67-2.59,2.91-3.83,1.96s.95-2.89,1.74-3.51c2.43-1.91,6.09-3.05,9.14-3.37.35-.78.17-1.66.21-2.49.92.26,1.44-.04,2.34-.18Z"/>
  <path class="st12" d="M64.87,77.6c1.44-.01,4.19.5,5.35,1.39s1.38,2.21.45,3.33c-1.98,2.39-11,2.52-11.8-.8-.69-2.87,3.92-3.91,6-3.92Z"/>
  <path class="st8" d="M105.22,61.35c-4.4,1.4-4.51,7.58-1.8,10.62-.86.09-2.99,1.05-3.61.46-.2-.19-.79-1.44-.92-1.78-1.24-3.11-.84-6.38.96-9.18.4-.62,1.89-2.49,2.66-2.19.69.26,2.01,1.61,2.71,2.07Z"/>
  <path class="st22" d="M112.01,76.15c1.85-.25,6.32.35,6.16,2.9-.2,3.15-7.01,3.1-9.05,1.89-3.49-2.06.59-4.47,2.9-4.79Z"/>
  <path class="st3" d="M96.76,84.93c-.49,2.77-2.01,3.94-4.76,4.15-3.48.26-4.31-.89-5.49-3.97,3.55-1.53,6.71-1.81,10.26-.18Z"/>
  <path class="st9" d="M72.42,52.76c1.75-.47,2.23,1.24,1.35,2.61-1.27,1.98-4.46,3.41-6.78,3.09-1.09-.15-1.74-1.18-.93-1.97.39-.38,3-.98,4.05-1.71.68-.48,1.73-1.86,2.31-2.01Z"/>
  <path class="st1" d="M101.93,52.56c1.11-.22,1.42.7,2.12,1.22.59.44,1.29.98,1.94,1.3,1.12.55,3.95.71,3.09,2.49-.8,1.66-5.8-.34-6.91-1.37-.92-.86-2.14-3.25-.25-3.64Z"/>
  <path class="st0" d="M55.2,17.26h-.18c-.04-.7-1.25-2.84-1.8-3.42.44-.76,3.11-5.71,3.42-5.85.21-.09.26.06.34.2.88,1.51-1.1,7.34-1.78,9.07Z"/>
  <path class="st13" d="M109.72,72.33c2.31-2.29,2.35-6.25.9-9,.16.04.53-.54.99.54.95,2.26.78,6.3-.66,8.34-.63.89-.74.2-1.23.12Z"/>
  <path class="st4" d="M102.88,28.23c-1,1.01-1.58,2.42-2.51,3.49-.16.18-.18.21-.38.03-3.35-4.21-6.28-8.66-8.45-13.59.26-.25.42-.17.64.05-.19-.99.31-1.73,1.52-2.21,2.83,4.15,5.99,8.41,9.18,12.24Z"/>
  <path class="st17" d="M93.7,16c-.18.91-.4.58-.81.89-.84.65-.08,1.16-.45,1.99l-.9-.72c-.34-.76-1.58-3.26-1.62-3.88-.04-.56.79-1.87,1.26-2.24.85,1.3,1.65,2.69,2.52,3.96Z"/>
  <path class="st25" d="M70.8,64.26c2.35-.52,2.39,3.3,0,2.81-1.41-.29-1.45-2.5,0-2.81Z"/>
  <path class="st2" d="M107.78,65.98c-1.42-1.33.97-4.05,2.19-1.92.94,1.65-1.25,2.8-2.19,1.92Z"/>
  <path class="st17" d="M94.06,17.44s.03.32.18.45c.19.18.47.28.62.47,1.15,1.39-.06,1-.23,1.27-.73,1.2,1.65.57,2.03.86.19.15.07.51.2.73.15.24.71.33.79.67.1.4-.46.61-.27.96.23.44,1.26.42,1.35.55.07.1-.43,2.17-.52,2.24-.05.04-1.12.44-1.19.45-.53.05-1.6-1.27-1.69-1.72-.19-.97.31-1.25.53-2.06-.95.3-.95-.44-1.09-.54-.2-.14-.51.37-.71.28-.38-.16-1.74-2.69-1.62-2.8.51.27,1.38,0,1.44-.63,0-.1-.44-1.7.17-1.17Z"/>
</svg>