<?xml version="1.0" encoding="UTF-8"?>
<svg id="Layer_1" xmlns="http://www.w3.org/2000/svg" version="1.1" viewBox="0 0 160 160">
  <!-- Generator: Adobe Illustrator 29.8.3, SVG Export Plug-In . SVG Version: 2.1.1 Build 3)  -->
  <defs>
    <style>
      .st0 {
        fill: #d28791;
      }

      .st1 {
        fill: #faf6e7;
      }

      .st2 {
        fill: #f1949f;
      }

      .st3 {
        fill: #e98088;
      }

      .st4 {
        fill: #e87372;
      }

      .st5 {
        fill: #f48e97;
      }

      .st6 {
        fill: #fbf2e7;
      }

      .st7 {
        fill: #d2858c;
      }

      .st8 {
        fill: #db8c93;
      }

      .st9 {
        fill: #f6afba;
      }

      .st10 {
        fill: #f6e6de;
      }

      .st11 {
        fill: #da8794;
      }

      .st12 {
        fill: #f5adb8;
      }

      .st13 {
        fill: #b52330;
      }

      .st14 {
        fill: #f094a0;
      }

      .st15 {
        fill: #f49495;
      }

      .st16 {
        fill: #be1e2d;
      }

      .st17 {
        fill: #cf868e;
      }

      .st18 {
        fill: #fcf2e7;
      }

      .st19 {
        fill: #f09fad;
      }

      .st20 {
        fill: #f28a95;
      }

      .st21 {
        fill: #fcf7f4;
      }

      .st22 {
        fill: #cd858c;
      }
    </style>
  </defs>
  <g>
    <path class="st9" d="M117.62,121.56l.92,1.22c-.07,3.43-.27,6.91-1.14,10.25-.74,2.84-2.02,7.55-4.87,8.42-6.32,8.62-19.85,13.99-30.31,14.79-3.56.28-9.83-.99-9.94-5.54-.22-.13-.41-.28-.45-.46-.34-1.38-.94-5.18-1.07-6.67-.89-9.92,6.14-14.88,13.61-7.2.26,0,4.72-2.06,2.72-2.33-.72-.98-.96-5.19.46-5.55.57-.8,1.49-1.11,2.75-.95-9.87.4-21.62-7.18-20.77-17.99l-.95.43c-1.07.07-1.69-.24-1.85-.93l-.83-.83c-.59,8.62-9.82,15.13-18.08,14.89-1.53-.04-4.03-.38-5.14-1.11-5-4.13-6.83-6.94-4.86-13.88,1.19-4.18,5.41-7.43,6.05-10.14.84-3.58.66-8.69,1.26-12.62,2.02-13.32,6.36-26.11,18.6-33.18-.27-1.39-.46-2.79-.69-4.19l.4-1.22c-1.14-2.18-1.15-3.59-.03-4.23-2.25-6.14,3.16-3.61,2.91,1.37l.89,1.76c.91.41,1.39,1.62,1.45,3.63,3.22-1.18,6.52-1.91,9.91-2.19l.66.87c.8-1.47,4.3-1.51,5.09,0,2.38.1,4.63.3,6.94.93,2.68-10.98,9.57-25.42,18.5-32.62,10.56-8.51,25.04-2.12,22.55,11.91-2.09,11.83-14.69,23.63-23.42,31.18,5.97,8.4,8.22,18.85,7.83,29.1-.1,2.56-.83,5.75-.94,8.31-.38,8.63,1.82,16.23,1.85,24.74Z"/>
    <path class="st19" d="M84.31,48.01c-1.59-.07-3.52-.11-5.09,0l-.64-.94c1.81-5.32,3.39-10.85,3.88-16.49.45-5.11.21-14.03-7.09-12.6-9.37,1.83-8.29,19.75-7.35,26.92l-.83.81c-2.88-1.05-1.28-5.47-3.7-6.01-.51,1.07.98,2.43.89,2.95-.16.92-1.75,1.13-1.81,1.22-.47.71,3.11,2.92.46,4.15-1.95-11.92-3.55-31.51,6.47-40.48,6.37-5.7,16.51-5.34,19.79,3.35,4.21,11.16-1.15,26.43-4.98,37.13Z"/>
    <path class="st14" d="M58.87,147.47c-3.52.9-7.26,1.5-10.88,1.85-4.27.41-10.7,1.36-14.43-.82-6.5-3.81-10.49-23.93,1.92-21.81,2.24.38,3.98,3.28,5.52,3.21,3.25-.14,3.01-1.3,3.06-3.7l1.15.97c1.52,7.96,5.19,15.47,12.9,18.95l.75,1.36Z"/>
    <path class="st2" d="M117.62,121.56c1.09,1.49,2.96,1.05,4.6,2.1,9.92,6.38,1.78,23.42-9.69,17.79,4.33-5.9,5.11-12.8,5.09-19.89Z"/>
    <path class="st12" d="M48.23,123.87l.84,1.12c-.32,6.58,2.04,11.8,7.22,15.81,1.79,1.39,12.21,5.35,12.76,4.05.05-.12.16-.21.28-.29.2-.14.42-.24.64-.34,1.54.23,2.39,5,1.39,6.01-4.14-.8-8.4-1.02-12.49-2.78-9.7-4.18-12.87-11.67-14.8-21.28-1.36-4.39,1.91-4.2,4.16-2.31Z"/>
    <path class="st17" d="M66.74,109.07c1.89,1.86-.9,6.11-2.39,7.95-1.78,2.19-4.12,3.97-6.6,5.28-2.34,1.24-7.61,3.55-9.51,1.57-1.44-.01-2.72-.59-4.16-.46-.02.92.02,1.85,0,2.78-.36-1.78-.13-3.12-1.39-4.16,2.26-.43,4.61.53,6.7.5,6.97-.12,17.16-8.56,15.5-16.23l-3.69,2.77c-.38-2.44,3.86-3.03,2.34-5.34-2.07-3.13-5.15,3.05-6.04,2.1-.11-.73.34-1.27.73-1.81.82-1.12,2.12-1.08,2.04-2.35-3.99-1.89-11.88,7.81-14.34,6.26-1.91-1.21,1.63-1.57,2.57-2.08,1.7-.92,3.07-2.68,4.99-3.8,6.6-3.83,13.79-1.2,13.26,7.02Z"/>
    <path class="st22" d="M87.09,134.05c1.8-.74,3.78-1.87,5.77-1.87.73,0,1.22.41.7.93-.93.95-7.72,2.6-9.11,4.57-3.02-2.63-6.99-6.75-10.79-2.49s-1.6,9.21-.96,13.96c.1.74-.43,1.34-.42,1.55-.72.29-.87-.45-.93-.46l-1.39-6.01c-1.97-.57-1.05-4.75-.54-6.45,2.35-7.82,9.64-9.24,15.24-3.47.98-.82,1.79-.9,2.42-.25Z"/>
    <path class="st1" d="M66.74,109.07c1.16.06,2.14-.46,1.85.93l.84.86c.12,9.08,9.22,15.34,17.5,16.65l.62,1c-.13,1.83.4,3.87-.46,5.55-.64.26-2.18,1.28-2.55,1.26s-2.56-2.17-3.31-2.57c-7.76-4.11-12.59,4.58-11.26,11.49-.19.67.63,1.85-.7,1.87-2.59.03-8.76-1.98-11.19-3.17-7.25-3.54-10.66-11.17-9.86-19.06,7.87.08,17.97-6.43,18.5-14.8Z"/>
    <path class="st5" d="M95.47,51.64c1.5-7.79,9.27-24.94,17.32-27.19,6.48-1.81,9.72,2.72,8.87,8.87s-11.01,18.09-16.06,21.87c-4.46,3.33-6.27-2.1-10.13-3.55Z"/>
    <path class="st20" d="M79.23,48.01c-1.38.1-3.39.34-4.75.57-1.05.18-5.68,1.8-6.09,1.72-1.06-.23-1.06-3.66-1.19-4.6-.98-7.38-1.98-22.73,5.12-27.49,2.56-1.72,6.85-1.9,8.97.68,5.01,6.09.48,22.23-2.06,29.13Z"/>
    <path class="st0" d="M68.59,110c.6-4.7,5.74-7.99,10.3-7.29,6.58,1.01,10.03,12.06,16.53,4.98.53,2.42-2.86,4.35-4.81,4.16-4.15-.41-8.88-8.87-14.62-7.39.24.85,3.71,3.22,2.77,4.16-1.34,1.34-3.02-4.78-6.27-2.8-3.61,2.2,3.72,5.53,2.57,6.5-1.49,1.26-3.38-2.93-4.62-3.24-1.55,12.66,15.86,21.5,26.23,15.82,1.7-.93,3.69-3.49,4.76-4.04.63-.32,1.29-.03,1.39.48.12.58-2.22,2.78-2.77,3.24-3.33,2.76-8.15,4.28-12.5,3.93-8.52-.69-20.18-9.03-18.97-18.5Z"/>
    <path class="st18" d="M86.17,73.46c5.35-1.64,11.08,1.63,10.65,7.62-.42,5.84-3.54,3.16-7.66,3.46-2.94.22-6.34,2.72-7.39-1.36-.42-1.63-.39-3.79.2-5.39"/>
    <path class="st13" d="M67.2,90.57l.93.55c.08,2.31,4,3.19,4.58.64l.96-.26c-.55-.96,3.68-.94,3.95-.86l.68.86c.08,2.19-.53,4.08-1.39,6.01l-.91.52c-3.19-1.34-6.76-.04-9.11,2.35l-1.08-.56c-.67-1.09-1.25-2.9-1.39-4.16-.18-2.13-.33-4.26-.45-6.39.09-.34,4.06-.04,3.23,1.3Z"/>
    <path class="st6" d="M54.25,72.53l.4.54c-.81,1.07-.49,2.51.07,3.62l1.19.26c3.4,5.12,10.23-2.87,4.24-5.29l-.34-.99c-.26-1.31.69-1.07,1.52-.83,4.46,1.28,6.51,7.52,3.56,11.23-2.31,2.92-4.21.45-7.4-.45-1.1-.31-5.1-.79-5.35-1.13-.7-.98-.34-7.36,2.11-6.97Z"/>
    <path class="st4" d="M76.91,97.51c-2.05,4.64-8.17,7.1-11.1,2.31,1.34-.31,1.64-1.51,3.13-2.19,2.34-1.07,5.76-1.68,7.97-.12Z"/>
    <path class="st3" d="M69.51,86.87c-4.08-4.31-3.76-6.96,2.88-5.89,2.39.38,4.41,1.55,2.4,4.01-.96,1.17-2.95.88-2.98,2.34-.59.6-1.36.44-2.31-.46Z"/>
    <path class="st7" d="M64.42,95.66c-1.08-1.62-.14-3.97-.48-5.76-.25-1.33-2-2.53-1.37-4.41,1.5-.27.79,1.43,1.62,2.31.77.81,2.88,1.17,3.92.7.71-.32,1.03-1.35,1.4-1.62.31-.23.66-.46,1.07-.38.19.04,1.09.66,1.24.84s.09.87.66,1.4c1.33,1.23,3.1,1.62,4.81,1.07.81-.26,2.74-2.13,3.31-1.54.73.75-2.02,3.14-2.31,3.24-.38.13-4.06.1-4.63,0-.81.76-2.04.33-3.69-1.27-1.14.52-2.06.64-2.79.35-.15-.29-2.24-.54-2.77-.92.14,1.94-.21,4.12,0,6.01Z"/>
    <path class="st8" d="M90.63,66.09c1.43-.43,6.07,2.18,5.72,3.88-.47,2.24-9.26-2.81-5.72-3.88Z"/>
    <path class="st11" d="M62.57,63.28c1.1,2.48-6.07,3.63-6.47,3.23.15-3.37,3.81-3.46,6.47-3.23Z"/>
    <path class="st21" d="M73.67,91.49c-.31,3.69-5.06,3.39-6.38.58-.24-.5,0-1.3-.1-1.5,3.69-3.21,4.2.51,6.48.93Z"/>
  </g>
  <path class="st15" d="M52.4,82.69c1.96-.19,7.24.13,6.97,2.92s-5.04,2.76-7.05,2.59c-5.66-.48-5.93-4.94.07-5.52Z"/>
  <path class="st15" d="M91.62,86.51c1.96-.19,7.24.13,6.97,2.92s-5.04,2.76-7.05,2.59c-5.66-.48-5.93-4.94.07-5.52Z"/>
  <circle class="st16" cx="58.06" cy="74.3" r="4.37"/>
  <circle class="st10" cx="60.42" cy="72.51" r=".96"/>
  <circle class="st16" cx="87.6" cy="78.68" r="5.3"/>
  <circle class="st10" cx="90.46" cy="76.5" r="1.17"/>
</svg>