<?xml version="1.0" encoding="UTF-8"?>
<svg id="Layer_1" xmlns="http://www.w3.org/2000/svg" version="1.1" viewBox="0 0 160 160">
  <!-- Generator: Adobe Illustrator 29.8.3, SVG Export Plug-In . SVG Version: 2.1.1 Build 3)  -->
  <defs>
    <style>
      .st0 {
        fill: #d9a348;
      }

      .st1 {
        fill: #daa44a;
      }

      .st2 {
        fill: #dba54b;
      }

      .st3 {
        fill: #dba44a;
      }

      .st4 {
        fill: #f5e3b6;
      }

      .st5 {
        fill: #f5e2b3;
      }

      .st6 {
        fill: #fee276;
      }

      .st7 {
        fill: #f4a270;
      }

      .st8 {
        fill: #eeb44e;
      }

      .st9 {
        fill: #d9a34c;
      }

      .st10 {
        fill: #f7e4c0;
      }

      .st11 {
        fill: #f8e3d7;
      }

      .st12 {
        fill: #fff8e7;
      }

      .st13 {
        fill: #f9e0ab;
      }

      .st14 {
        fill: #daa54b;
      }

      .st15 {
        fill: #d9a349;
      }

      .st16 {
        fill: #824836;
      }

      .st17 {
        fill: #fef7e5;
      }

      .st18 {
        fill: #dba44b;
      }

      .st19 {
        fill: #dba54e;
      }

      .st20 {
        fill: #f1b84f;
      }

      .st21 {
        fill: #a16a49;
      }

      .st22 {
        fill: #7d3e2f;
      }

      .st23 {
        fill: #efc77e;
      }

      .st24 {
        fill: #fac86c;
      }

      .st25 {
        fill: #f7e2b5;
      }

      .st26 {
        fill: #7b3d30;
      }

      .st27 {
        fill: #b2804f;
      }

      .st28 {
        fill: #dca64c;
      }

      .st29 {
        fill: #fde179;
      }

      .st30 {
        fill: #f5a059;
      }

      .st31 {
        fill: #fbe8db;
      }

      .st32 {
        fill: #f3a574;
      }

      .st33 {
        fill: #dda74d;
      }

      .st34 {
        fill: #fbc86c;
      }

      .st35 {
        fill: #d8a34c;
      }

      .st36 {
        fill: #f69f58;
      }
    </style>
  </defs>
  <path class="st24" d="M71.95,41.26l.41-.33c2.4.1,4.81.32,7.18.77l.31.42.51-.23c4.61,1.3,8.99,3.5,12.92,6.22l.15.54.45-.08c.89.71,1.78,1.44,2.64,2.2v.46c.79.73,1.98,2.37,2.75,3.26l-.27.32c-1.26.04-5.9,3.09-3.08,3.8l.26.34.12.5c-1.15,2.45-.93,5.67.48,7.9.75-.08,1.07.1.95.54l-.06.23c-1.34.08-2.72.15-4.13.23-4.55.32-.42,3.6,1.72,3.96l.24.39c.77.56.25,2.35-.37,2.99-2.82,2.92-8.99,1.15-11.31-1.8-1.78-.48.16,1.73.74,2.18,3.71,2.87,7.46,2.93,11.51.62l.6.08c1.64,1.05,3.78,1.17,5.01-.54,1.61-2.25.21-3.83-1-.79-.48,1.54-3.52.89-3.9-.11-.14-.35.04-2.39.43-2.63l.1-.4c.91-.55,1.64-1.4,2.08-2.36l.39-.15c1.31-.02,2.31-.76,3.01-2.21l.26-.02c0-.47.1-.94.29-1.4.66-2.32-.07-4.41-.98-6.5h-.27c-.77-1.22-1.79-1.9-3.05-2.05l-.29-.36c-.16-.51.75-1.66,1.2-1.89,4.25,5.16,7.06,10.21,8.98,16.7.39,1.32,1.2,3.82,1.16,5.11l.2.69c-.33.54-.46,1.01-.36,1.65,1.07,5.54.96,11.38.57,16.94.44.51.41,1.19.28,1.85.27,5.87-1.8,14.95-4.44,20.21-.24.48-1.34,2.01-1.4,2.29l-.49.1c-5.49,7.16-13.61,10.62-22.53,11.64-.13.02-.28-.02-.42-.06s-.3-.11-.44-.18c-.11.01-.23-.01-.34,0l-.69.17c-4.13.42-8.39.41-12.54.25-1.53,2.08-2.99,4.22-4.57,6.26-1.72,2.2-4.28,5.91-6.85,6.89-4.13,1.58-15.19,2.44-19.29,1.08-4.46-1.48-1-5.65,1.62-7.07.55-.3,3.4-1.3,3.47-1.51-.33-4.44-.12-8.91,1.04-13.21-1.42-1.91-3.61-3.31-4.63-5.57l.28-.43c8.24-2.72,5.65-11.77,1.57-17.12l-.21-.64c3.85-2.2,5.87-4.46,7.08-8.69.18-.62.67-3.52-.55-2.65-.16,4.68-2.89,9.1-7.58,10.4-1.89-1.55-3.97-2.97-6.43-3.39-.63-.11-1.86.1-.74.61,5.16,1.13,8.91,5.3,10.67,10.22,1.94,5.42.23,10.24-6.03,10.77-3.31.28-6.71-2.36-3.42-5.16-.63-.04-.97-.24-1-.61-5.17-1.9-10.12-5.75-12.4-10.87-1.68-3.76-.08-4.51,1.44-7.38.54-1.02.82-2.4,1.31-3.5,1.23-2.76,3.24-5.08,5.87-6.58.28-.21.43-.1.5.23-.4,1.31.18,2.38.71.61,1.04-5.65,4.26-8.38,9.89-9.4.28.09,3.84-.25,2.84-.66-2.16-.9-6.54.75-8.45,1.73-.59.13-.53-.08-.33-.57.21-.73.26-1.86.49-2.68,1.02-3.71,2.33-7.48,4.15-10.88l-.13-.48c1.04-1.87,2.18-3.69,3.42-5.44l.49-.09c0-.15.02-.3.05-.45.35-1.46,5.26-5.87,6.69-7.03s6.74-5.07,8.27-5.1c.15,0,.3.02.45.05l.35-.53c2.03-.86,4.12-1.59,6.27-2.1l.59.22c2.43-.5,5.08-.74,7.56-.69Z"/>
  <path class="st34" d="M111.46,97.08l-.26-.24c.43-6.22.89-12.76-.98-18.85l.21-.32c3.28-3.48,9-4.49,13.06-1.72.36-.2.58-.13.65.2.16,1.88.76,3.81,2.03,5.2.47.51,1.58,1.42,1.26.18-1.36-1.55-2.06-3.28-2.34-5.34-.22-1.57.36-6.36,1.39-7.54,1.02-.26,4.03-3.54,1.93-3.49-2.76,5.98-12.02,1.32-9.55-4.66,3.92-6.21,10.54-2.78,14.25,1.64,4.21,5.01,7.86,12.62,8.08,19.23.06,1.9-.23,6.53-1.17,8.11-1.05,1.77-2.23,1.56-3.76,2.25-1.07.48-2.14,1.29-3.2,1.78-5.58,2.6-11.17,3.95-17.39,3.93l-4.2-.35Z"/>
  <path class="st20" d="M64.39,41.95c-2.29.47-5.08,1.45-7.21,2.4l-.38-.31c-.33-2.78-1.88-5.4-3.36-7.77-3.19-5.11-7.46-11.21-12.17-14.97-5.48-4.37-6.81-.46-7.03,4.84-.43,10.5.93,20.95,7.21,29.77l.28.97c-1.18,1.59-2.84,4.25-3.78,6.01-1.37-1.34-2.55-3.33-3.47-5.04-6.96-12.97-8.09-33.68-5.07-47.9.84-3.96,1.55-6.18,5.91-3.77,5.3,2.93,13.9,11.04,18.01,15.66,4.99,5.61,9.96,12.51,11.08,20.1Z"/>
  <path class="st20" d="M96.52,51.22c-.61-.57-2.45-2.09-3.09-2.58l.07-1.02c3.1-7.88,3.75-18.35,1.66-26.55-1.42-5.55-4.56-1.71-6.37,1.1-3.64,5.65-7.3,12.08-8.73,18.66.21.7.14,1.13-.2,1.3-2.14-.48-5.63-.81-7.9-.86.64-9.19,5.43-17.79,10.68-25.13,1.67-2.34,7.29-9.95,9.62-10.82,1.23-.46,1.78-.23,2.63.74,1.89,2.13,4.05,11.64,4.52,14.72,1.55,10.01,1.33,21.14-2.89,30.46Z"/>
  <path class="st8" d="M104.94,120.78c-.16.73.29,2.04.34,2.84.33,5.08-1.81,10.24-4.64,14.34,3.05.42,7.56,1.02,8.79,4.35s-2.67,3.71-5.09,3.9c-4.3.35-10.48.19-14.76-.37-1.65-.22-5.03-.64-5.92-2.15s-.87-5.52-1.28-7.48c-.28-1.35-.68-2.7-1.32-3.92,8.75-1.06,15.66-3.38,21.73-9.96.54-.59,1.36-2.45,2.14-1.55Z"/>
  <path class="st1" d="M38.28,119.58c-1.69.4-4.16.45-5.72-.37-2.51-1.33-3.09-4.65-.63-6.32.27.1,1.6.36,1.72.52-1.56,1.26-2.72,2.43-.69,4.04,1.59,1.26,3.46.99,5.29.47,9.32-2.68,2.5-16.2-3.68-18.91-.71-.31-3.26-.97-3.51-1.3-.29-.38-.13-.79.31-.92,1.95-.58,6.21,1.86,7.55,3.37,4.01-1.43,6.29-4.38,7.06-8.52.13-.68-.22-2.12.82-2.12,1.54,0,.46,3.76.17,4.65-1.13,3.39-3.63,5.76-6.78,7.32,2.48,3.76,5.19,8.22,3.83,12.92-.78,2.67-3.05,4.56-5.72,5.19Z"/>
  <path class="st14" d="M118.85,60.5c0,1.45-.16,2.89.48,4.24,1.2,2.54,5.61,3.83,7.77,1.87.76-.69.67-2.23,1.94-1.78,1.03.36-.14,2.29-.58,2.8-.55.64-1.76,1.08-2.02,1.59-.35.67-1.01,4.26-1.06,5.12-.12,2.04.33,3.94,1.34,5.7.34.6,1.54,1.53,1.05,2.18-.93,1.24-2.82-1.85-3.16-2.65-.43-1.01-.72-2.2-.78-3.3-.04-.15-.21-.22-.34-.3.52.1.33-.26.34-.59.08-2.15.39-4.01.86-6.1-4.75.06-8.75-3.7-6.15-8.48.09-.16.28-.22.31-.28Z"/>
  <path class="st2" d="M28.15,84.54c0-.4,1.58-3.99,1.92-4.52.67-1.05,3.04-2.9,3.23-3.55-.04.57.1.27.4.14,1.16-.52,2.34-1.08,3.59-1.39,1.03-.26,4.66-.98,5.21.05.6,1.13-2.56.94-3.25,1.05-4.05.65-7.31,2.5-8.83,6.46-.27.71-.8,3.39-1.14,3.67s-.86.21-1.05-.19c-.18-.37.07-.87.11-1.29.02-.22-.19-.4-.19-.42Z"/>
  <path class="st18" d="M110.43,77.67c1.16,1.83,1.57,9.85,1.55,12.29-.28.88-.18,6.86-.52,7.12-.05.04-.42-.07-.49.01-.17.19.19,1.01-.2,1.19-.07-1.48-.21-.89-.6-1.72-.27-.59.23-3.64.26-4.54.08-2.48.02-5.28-.18-7.73-.11-1.35-.9-4.76-.65-5.81.12-.5.45-.52.48-1.32.13.16.23.34.34.52Z"/>
  <path class="st28" d="M99.27,54.49c.28.32.45.57.69.86-.13.76-.7,1.35-1.2,1.89l.13.36c-.45.56-2.11,2.04-2.7,1.35-.7.06-1.57-.33-1.56-1.12,0-1.15,3.36-3.64,4.66-3.35Z"/>
  <path class="st8" d="M80.71,132.29c-.06,0-.37.14-.69.17l.69-.17Z"/>
  <path class="st25" d="M107.34,95.71l.23.38c-3.04,11.01-17.2,10.52-25.35,5.76.21-.81.97-9.25.08-9.25-.16,0-.23.36-.21.5.16,2.01.37,7.64-1.09,9.06-.62.61-3.07,1.52-3.9,1.75-8.58,2.42-22.66,2.89-25.67-7.7l.24-.34c-.7-1.86-.67-5.46-.26-7.39,1.25-5.92,8.38-4.65,12.84-3.89,3.19.55,7.18,1.37,10.27,2.26,2.71.79,5.34,2,7.61,3.67,3.89-3.13,8.88-4.37,13.69-5.39,3.69-.78,10.41-2.46,11.77,2.49.51,1.86.34,6.21-.26,8.08Z"/>
  <path class="st25" d="M99.95,105.15c.56-.08.53,1.33.52,1.63-.33,10.27-7.39,20.15-17.81,21.88-9.13,1.52-18.8-1.12-22.47-10.29-1.58-3.94-2.27-9.27-1.29-13.39l.82-.1c6.64,1.9,13.83,1.07,20.18-1.47l.82.03c.73-.42,1,.5.43.75l.09.8c.62.59.55,2.12.5,3.02-.02.37-.34,2.93-.44,3.05-1.89,2.22-9,2.52-11.74,1.72-4.56-1.42-1.26.49,1.01.69,3.46.31,6.45.34,9.66-1.14.45-.17.74-.03.84.44-.81,2.78-.81,3.67-.01,2.68l.65-2.94.35-.38c3.06,1.27,5.66,1.54,8.91,1.04,2.34-.36,3.73-2.24.11-.54-2.38.71-6.85.38-8.86-1.12-.16-.12-.22-.42-.23-.62.24-2.14.43-4.18-.02-6.34l.3-.41c-.52-.09-.49-.92,0-1.03l.79-.03c5.07,2.17,10.67,3.22,16.11,1.94l.79.15Z"/>
  <path class="st4" d="M57.18,44.35c-5.91,2.64-11.62,7.37-15.46,12.54-6.24-8.32-8.34-19.01-7.91-29.29.08-1.82.27-5.43,1.11-6.96.91-1.65,2.14-1.8,3.82-1.23,5.48,1.89,15.35,16.15,17.61,21.56.5,1.2.7,2.07.83,3.38Z"/>
  <path class="st5" d="M93.43,48.65c-3.26-2.48-9.56-5.63-13.57-6.53,0-.51-.19-.88-.14-1.41.44-4.48,6.47-15.65,9.27-19.43,1.26-1.7,4.25-5.57,5.89-2.01,1.87,4.05,1.98,14.15,1.46,18.63-.43,3.71-1.4,7.33-2.92,10.74Z"/>
  <path class="st9" d="M107.34,95.71c1.6-.26.47,2.04.15,2.81-1.37,3.28-4.09,5.71-7.53,6.64-6.08,1.64-12.1.43-17.69-2.06-.06.06-.12.11-.2.14-.36.17-.98.4-1.35.2-6.57,2.86-14.92,3.85-21.82,1.55-3.39-1.13-6.49-3.36-7.61-6.91-.2-.63-.79-2.3.39-2.19.41,1.09,1.3,3.12,1.99,4.11,4.49,6.47,18.5,5.67,24.98,3.01.46-.19,1.98-.89,2.24-1.19.52-.6.99-4.05,1.03-4.98s-.34-3.69-.09-4.22c.18-.38.65-.54.91-.05.17.33.36,2.05.39,2.53.12,2.24-.38,4.41-.62,6.62,5.41,3.31,16.49,4.47,21.4-.08,1.37-1.27,2.87-4.16,3.43-5.93Z"/>
  <path class="st12" d="M79.68,57.24c.03-.13.12-.32.21-.3.58.1,2.84,1.08,3.34,1.42l.06.43c3.45,2.24,3.6,8.01.77,10.82-5.93,5.88-15.97-1.53-11.15-9.09,1.27-1.99,4.41-3.63,6.77-3.28Z"/>
  <path class="st21" d="M97.2,72.69c.17.48-.23,2.36-.1,2.58.15.24,1.48.75,1.81.78,1.93.18,1.75-2.9,3.14-2.65s.41,2.33-.14,3.05c-.99,1.31-2.42,1.65-3.99,1.27-.54-.13-1.33-.79-1.8-.72-.3.05-.58.4-.87.52-3.37,1.44-6.48,1.68-9.72-.3-.78-.48-3.32-2.46-2.68-3.51.69-1.13,2.2.9,2.78,1.35,2.2,1.69,5.1,2.24,7.73,1.26,1.92-.71,2.23-1.64,2.11-3.64.17-.5,1.49-.45,1.72,0Z"/>
  <path class="st7" d="M70.2,71.71c1.69-.2,4.49-.08,6,.78,1.39.79,1.58,2.26.17,3.16-1.88,1.2-6.98,1.31-8.79-.03-2.67-1.98.6-3.66,2.62-3.9Z"/>
  <path class="st17" d="M102.36,59.64c.25.62.24.76-.34.34l-.43.07c-5.06-2.86-4.91,9.71.11,7.74.32-.39.66-.59,1.01-.59.48-.54.51-.24.34.34-.5,1.19-1.3,2.36-2.68,2.56-.32.05-.68.17-.58-.33l-.31-.26c.16-1.11-.66-1.25-1.58-1.27l-.17-.35c-.33-.37-.89.01-1.29-.34-.13-.12-.52-1.04-.61-1.28-.82-2.26-.9-5.19.35-7.31.87-.07,1.99-1.09,2.58-1.72,1.94.04,2.67.91,3.61,2.4Z"/>
  <path class="st16" d="M97.72,67.88c1.32.06,2.32.18,2.06,1.89-.14.91-1.72,2.72-2.58,2.92-.29.07-1.37.04-1.72,0-1.49-.16-4.92-1.96-4.27-3.84.39-1.12,5.41-1.02,6.5-.97Z"/>
  <path class="st33" d="M83.29,58.78c-.47-.31-3.12-1.47-3.61-1.55-1.85-.8-3.56-3.34-.13-2.87,1.14.16,4.41,1.56,5.2,2.36,1.33,1.34.17,2.42-1.46,2.06Z"/>
  <path class="st32" d="M104.38,69.99c1.13-.19,3.51,0,3.92,1.32,1.04,3.33-6.73,3.03-5.86.18.2-.65,1.29-1.39,1.95-1.5Z"/>
  <path class="st0" d="M51.51,105.5c.23,1.27,1.21,2.6,2.24,3.34.5.35,1.61.52,1.55,1.21s-.92.43-1.34.3c-1.24-.39-2.89-2.36-3.26-3.61-.17-.57-.13-1.34-.31-1.75-.13-.3-1.56-1.3-1.97-1.81-.52-.66-1.49-2.08-.78-2.83.57-.18,1.14,1.48,1.49,1.94,1.11,1.5,4.73,2.75,4.87,3.03.93,1.8-2.38.06-2.49.18Z"/>
  <path class="st15" d="M36.7,87.16c.25-.03.49-.11.73.04.99.68-2.03,1.6-2.46,1.84-1.47.82-2.7,2.17-3.3,3.75-.23.61-.42,2.81-1.2,2.57-1-.3.51-3.94.91-4.58,1.01-1.64,3.39-3.38,5.32-3.62Z"/>
  <path class="st19" d="M108.2,101.55c.44.43-.58,2.33-.89,2.8-.92,1.4-.63,1.12-1.09,2.69-.28.95-2.3,3.93-3.36,3.18-.66-.46,1.15-1.42,1.55-1.9s.96-1.45,1.03-2.06-.55,0-.81.05c-.68.13-1.23.14-.83-.65.09-.17,1.41-.79,1.81-1.11.43-.35,1-.99,1.28-1.47.22-.39.38-1.19.52-1.36.16-.19.7-.24.77-.17Z"/>
  <path class="st10" d="M103.05,67.54c.04-.36.02-.38-.34-.34l-.17-.39c.87-2,.7-4.62-.59-6.4l.08-.42c.37.04.38.02.34-.34,1.57,2.48,1.83,5.17.69,7.9Z"/>
  <path class="st3" d="M125.33,85.26c1.52-.46.75,1.21.14,1.86-2.46,2.63-7.76,3.04-10.91,1.62-.59-.26-1.28-.55-1.01-1.35.24-.73,2.6.37,3.24.5,2.84.57,5.17.09,7.48-1.64.32-.24.76-.9,1.07-1Z"/>
  <path class="st13" d="M120.36,79.01c-.36.64-4.36.83-3.13-1.33.28-.48,2.05-.46,2.53-.32.51.15.83,1.24.6,1.65Z"/>
  <path class="st35" d="M82.26,104.12c.16,1.52.41,2.59.34,4.21-.02.56-.47,2.66-.18,2.92,2.76,1.29,5.45,1.82,8.46,1.06.6-.15,2.48-1.2,2.7-.53.32.99-2.02,1.6-2.7,1.74-2.97.59-6.1.2-8.8-1.16-.24.67-.51,3.38-1.03,3.7-.35.21-1.02.15-1.03-.33,0-.41.81-3.07.68-3.19-1.13.28-2.15.83-3.29,1.09-2.49.55-5.06.53-7.56.07-.7-.13-3.18-.62-2.87-1.56.23-.69,2.17.22,2.73.33,3.94.76,7.88.55,11.32-1.58-.04-1.01.32-2.08.37-3.07s-.14-1.87-.17-2.83c-.45-1.1.41-1.7,1.03-.86Z"/>
  <path class="st27" d="M82.72,118.58c.78-.23.83.47.73,1.08-.12.78-1.37,1.75-1.34,2.04.05.53,1.93,1.94,1.27,2.87-.6.87-2.31-1.37-2.76-1.72-.53.55-2.61,2.08-3.27,1.56-1.05-.84,1.74-2.06,2.16-2.68,0-.16-1.85-1.69-2.07-2.05-.13-.2-.28-.38-.09-.62,1.36-.68,2.38.8,3.45,1.39.34,0,1.37-1.71,1.92-1.87Z"/>
  <path class="st23" d="M82.26,103.09c.02.34-.04.7,0,1.03h-1.03c0,.28,0,.57,0,.86-.49-.41.23-1.69-.52-1.55.39-.17.77-.41,1.12-.64.19-.02.32.25.42.3Z"/>
  <path class="st26" d="M79.3,59.68c7.81-1.14,7.8,10.91.17,9.87-5.67-.77-5.44-9.1-.17-9.87Z"/>
  <path class="st22" d="M102.01,59.98c1.56,1.55,1.83,5.38.69,7.21-1.26,2.03-3.5,1.29-4.5-.57-.94-1.75-1.01-4.9.29-6.48,1.04-1.25,2.37-1.31,3.53-.17Z"/>
  <path class="st36" d="M82.43,64.1l.94-.51c1.2,1.84.73,4.5-1.55,5.14-3.1.88-5.53-2.14-3.42-4.8.38-.18.38,1.19,1.11.86-.63-2.21,1.7-2.48,1.38-4.46,1.51.73,1.67,2.25,1.55,3.78Z"/>
  <path class="st31" d="M77.23,61.56c1.96-.41,1.59,2.94-.26,2.07-.85-.4-.71-1.87.26-2.07Z"/>
  <path class="st30" d="M102.02,63.59l.68-.34c.75,1.9-.25,5.66-2.81,4.1-1.36-.83-1.07-3.94-.54-3.92.18,0,.33.82.77.68-.51-1.58,1.27-2.39.69-3.78.58-.51,1.53,2.82,1.2,3.26Z"/>
  <path class="st11" d="M99.24,61.38c.18.11.47,1.47-.24,1.53-1.24.1-.88-2.21.24-1.53Z"/>
  <path class="st6" d="M81.75,65.99c.2.23.64-.81.95.16.83,2.61-3.77,2.82-3.72.61.03-1.29.29-.77.79-.84s1.11-1.48.94-1.99c.33-.4,1.32,1.67,1.03,2.06Z"/>
  <path class="st29" d="M100.45,65.13c.09-.06.5-1.29.54-1.54.61.2.39,1.01.6,1.39.1.19.52-.15.61.41.38,2.42-3.07,2.14-2.38-.15.13-.44.54-.05.64-.12Z"/>
</svg>