<?xml version="1.0" encoding="UTF-8"?>
<svg id="Layer_1" xmlns="http://www.w3.org/2000/svg" version="1.1" viewBox="0 0 160 160">
  <!-- Generator: Adobe Illustrator 29.8.3, SVG Export Plug-In . SVG Version: 2.1.1 Build 3)  -->
  <defs>
    <style>
      .st0 {
        fill: #f4ebe4;
      }

      .st1 {
        fill: #f1ece5;
      }

      .st2 {
        fill: #e58b93;
      }

      .st3 {
        fill: #fcd8d6;
      }

      .st4 {
        fill: #bd2130;
      }

      .st5 {
        fill: #fdc04c;
      }

      .st6 {
        fill: #fcdbd8;
      }

      .st7 {
        fill: #f49aa4;
      }

      .st8 {
        fill: #d9c9be;
      }

      .st9 {
        fill: #ca8b59;
      }

      .st10 {
        fill: #fef8e8;
      }

      .st11 {
        fill: #fff8ea;
      }

      .st12 {
        fill: #f59097;
      }

      .st13 {
        fill: #f59096;
      }

      .st14 {
        fill: #f9b1bd;
      }

      .st15 {
        fill: #da8690;
      }

      .st16 {
        fill: #815b47;
      }

      .st17 {
        fill: #f59395;
      }

      .st18 {
        fill: #fff8eb;
      }

      .st19 {
        fill: #fbfbfe;
      }

      .st20 {
        fill: #f7f6f3;
      }

      .st21 {
        fill: #d2808c;
      }

      .st22 {
        fill: #fffbfa;
      }

      .st23 {
        fill: #f37e89;
      }

      .st24 {
        fill: #b4a096;
      }

      .st25 {
        fill: #f499a3;
      }

      .st26 {
        fill: #fbfbfd;
      }

      .st27 {
        fill: #d9d7d8;
      }

      .st28 {
        fill: #e38992;
      }

      .st29 {
        fill: #dd888f;
      }

      .st30 {
        fill: #dfa372;
      }

      .st31 {
        fill: #fefefe;
      }

      .st32 {
        fill: #bf814f;
      }

      .st33 {
        fill: #f59495;
      }

      .st34 {
        fill: #fdc451;
      }

      .st35 {
        fill: #f7c58d;
      }

      .st36 {
        fill: #bd212f;
      }
    </style>
  </defs>
  <line class="st8" x1="207.91" y1="206.84" x2="207.71" y2="206.84"/>
  <line class="st8" y1="-15.99" y2="-16.2"/>
  <path class="st14" d="M155.16,132.07l-.21.42c-2.48-.18-4.94-.17-7.39.05-1.83,1.43-3.72,2.77-5.69,4.01.74-.06,1.18.14,1.34.58l-.29.42c-1.12-.09-2.22-.07-3.32.07-6.27,2.65-13.21,4.67-20,3.22-.7.07-1.28-.04-1.74-.33-.52-.06-1.39-.24-1.44-.84l-.39-.93c-6.97-4.85-1.49-12.24,4.61-14.3,6.78-2.09,12.13-5.2,15.99-11.26.32-.5,1.16-2.14.04-1.64-3.46,6.38-8.9,9.62-15.72,11.63l-2.59,1.18-.72-.09-.85.03c-11.79-4.79-29.36-3.84-37.38,7.39l-.72.39c-.04.17-.11.41-.24.42-.72.07-6.42.12-6.73,0l-.44-.42c-.5-.04-.77-.46-.82-1.27l-.38-.52c.09-2.78-.98-5.5-2.86-7.49l-.06-.65c-.49-.73-.95-1.46-1.28-2.29l.25-.46c.66-.83,2.32.63,2.97,1.23,1.21,1.12,2.01,2.43,2.32,4.06-.18-2.65-2.67-4.81-4.99-5.87l-.09-.47-.27-.08c.03-4.21.18-8.45.45-12.7l.44-.53c.2-15.17.96-32.56,9.93-45.27,1-1.42,2.18-2.65,3.23-4.02-8.02-11.73-16-26.53-17.46-41.04-1.01-10.08,1.84-21,12.5-23.89,14.27-3.87,21.55,10.09,24.71,21.86,2.64,9.84,3.53,20.48,3.35,30.67l9.27-.21c-.21-7.8.35-15.58,1.75-23.24,2.5-13.7,8.77-35.17,26.69-29.88,19.85,5.86,11.14,34.63,4.92,48.13-2.55,5.54-5.78,10.73-9.14,15.78l-.12.51c1.43,1.78,3.04,3.37,4.42,5.21,6.17,8.23,10.49,20.38,11.45,30.71.54,5.78-.04,11.73.42,17.53.23,2.83.89,5.66,1.2,8.48.57,5.21,1.13,10.44,1.06,15.71Z"/>
  <path class="st30" d="M50.48,132.07l.59.24c1.78,3.04,5.15,4.84,8.5,5.3.47.35.48.47-.02.8l.11.43-21.13,14.23c14.78.16,29.66.4,44.65.73l25.43-18.25c2.15-.79,1.96-.93-.57-.42-10.68-.08-21.25-.36-31.7-.85-1.42-.11-2.76,0-4.02.32-.8-.38-1.32-1.68-1.03-2.53h7.42c10.99-.42,21.98-.42,32.97,0l.39.39c-.14,2.43,1.16,7.12,4.03,6.84l.32.37c.28.03,1.72.46,1.44.84l.11.43c-4.33,2.91-8.65,5.83-12.99,8.74l-.93.12.24.25c1.36.08,1.94.16.73,1.36.65.01.94.25.88.71.04.55-.3.83-1.03.84l-.09.23c2.03-.06,2.22.31.68,1.53,9.23.2,18.5.37,27.79.51l18.25-12.86c-.6-.3-.83-.64-.67-1.03.12-.45.12-.81,0-1.06-.31-.24-.21-.56.3-.97-.6-.34-.91-.73-.92-1.15-.13-.26-.12-.49.14-.6-2.45.13-4.84-.02-7.14-.46l-2.68-.32c.96-.66,2.01-1.16,2.99-1.79.71-.46,3.64-2.82,3.95-2.92,1.25-.37,6-.04,7.68-.05.07,0,.14,0,.21,0l20.1.16.03.58-33.47,26.05-.45-.18-3.86.25c-41.93.35-83.52.36-124.77.05l.05-.51,36.15-26.21,1.36-.19Z"/>
  <path class="st9" d="M141.56,158.68l.24.49c-.06.59-.03,3.87.35,4.07.56-.07.84.1.85.51.33.6-.94,1.54-1.44,1.06-10.56.65-21.17.62-31.73,0l-1.54.21c-7.73-.02-15.46-.09-23.18-.21-2.72.13-5.47.17-8.22.1l-.15.31h-2.55s-.92-.42-.92-.42l-60.16.03c-.17-.05-.29-.79-.31-.99-.1-.98-.23-2.6-.25-3.57,0-.53.1-1.38.43-1.8.21.35.78.21,1.13.21,42.47.54,84.98-.41,127.45,0Z"/>
  <path class="st7" d="M60.58,118.76l-.24.4c-5.29.08-2.61,1.09.37,1.1,7.31,1.22,11.95,10.88,5.2,15.98-1.19.3-2.01.88-2.45,1.75-.46.32-1.1.45-1.9.37-.78.23-1.45.24-2.01.05.12-.64-.3-.37-.68-.45-3.35-.69-6.85-2.69-8.38-5.88-1.24-2.59-1.42-5.27-1-8.1.79-5.34,4.23-9.15,8.01-12.6,1.17,1.15,1.98,3.23,2.58,4.85.52.87.69,1.72.51,2.54Z"/>
  <path class="st32" d="M155.37,132.07c6.8-.04,13.6.03,20.4,0-.1,2.4.49,4.77.1,7.18l-12.67,9.4c-.59.72.17,2.05-.41,2.85-.34-.37-.51-.92-.51-1.65l-18.83,14.09-.45-.19c-.52-.16-1.2.14-1.4-.57-.12-.41-.23-2.5-.26-3.12-.02-.47-.02-.97.22-1.38l33.79-26.3-19.99-.32Z"/>
  <path class="st34" d="M57.49,111.37c-.82-2-1.45-4.1-2.45-6.02.02-.25,3.88-1.86,4.5-2,.5,1.4,1.05,2.79,1.62,4.16.13.3.39.54.45.69,1.96,3.01,3.36,6.61,4.12,10.14.65.11.8.51.41,1.06.37.88.94,1.76,1.03,2.75l-.49.12c-1.73-1.4-3.74-2.51-5.89-3.03l-.21-.46c-.82-2.55-2.08-4.92-3.09-7.39Z"/>
  <path class="st25" d="M66.35,118.34c-.09.62-.33.48-.62,0-1.4-3.36-2.72-6.79-4.12-10.14l5.36-3.17-.62,13.31Z"/>
  <path class="st13" d="M132.24,5.18c4.98-.69,9.07,2,10.46,6.91,2.58,9.11-4.76,26.82-9.7,34.62-.49.78-1.55,2.78-2.45,2.78l-11.02-4.78c-1.18-.73-.88-2.5-.84-3.8.28-8.81,2.28-25.17,7.94-31.99,1.37-1.66,3.45-3.44,5.62-3.74Z"/>
  <path class="st12" d="M97.03,44.82c-4.03,1.1-7.47,3.56-10.91,5.85-2.96-2.88-5.23-6.93-7.1-10.68-3.8-7.58-11.37-28.08-1.34-33.28,7.94-4.12,12.92,3.81,15.31,10.3,3.2,8.71,3.59,18.59,4.04,27.81Z"/>
  <path class="st19" d="M143.21,137.14c2.74-.05,5.5.04,8.24,0-.23.52-.82.74-1.24,1.05-.53.82-1.2,1.51-2.02,2.02l-15.53,10.78c-9.09-.04-18.12-.19-27.08-.44l-.1-.38c-.67.05-1.14-.08-1.42-.37l13.81-9.29c1.1-.47,4.21.41,5.66.43,3.15.05,7.2-.69,10.25-1.55,1.81-.51,4.36-1.9,5.87-2.22.97-.2,2.5-.03,3.56-.05Z"/>
  <path class="st10" d="M117.66,124.25l-.15.57c-2.51,1.52-4.82,3.86-5.37,6.89l-.46.36h-32.97c3.3-5.8,9.64-8.75,15.86-10.04,3.96-.82,7.4-1.06,11.44-.73s8.12,1.03,11.64,2.95Z"/>
  <path class="st18" d="M84.45,76.15c12.02-.46,12.42,18.59.14,18.55-11.23-.03-11.81-18.1-.14-18.55Z"/>
  <path class="st11" d="M119.93,92.99l.51-.22c4.23,1.92,8.82-1.91,8.01-6.55-1.35-7.71-12.25-5.68-11.46,1.83l-.36.5-.21.53c-3.19-8.07,5.36-16.22,12.84-11.68,9.54,5.8,2.47,20.92-8.38,16.4-.12-.05-1.37-.53-.96-.81Z"/>
  <path class="st36" d="M119.93,92.99c-1.4-.72-3.07-2.84-3.3-4.44-1.19-8.34,10.02-10.54,12.05-3.17,1.51,5.47-3.86,10.14-8.76,7.6Z"/>
  <path class="st22" d="M110.86,105.03c1.47.87-.5,4.82-1.33,5.71-1.65,1.77-7.71,1.99-9.39.09-.96-1.08-2.75-4.51-1.65-5.81l.45-.46c2.37-.17,4.01-1.61,5.61-3.24,1.4,1.21,2.89,2.18,4.49,2.92.79.07,1.4.33,1.81.77Z"/>
  <path class="st21" d="M103.44,98.27c.17-.63,2.25-.6,2.47,0,1.4,4.73,6.56,6.15,10.2,2.74.51-.48,2.8-3.89,3.72-2.55.25,4.56-5.19,6.85-8.98,6.56-2.8-.22-4.32-1.51-6.26-3.37-1.48,2.09-3.59,3.24-6.1,3.37-2.94.15-6.58-1.13-8.08-3.87-.46-.84-1.43-2.74-.07-2.9,1.74-.22,1.71,1.15,2.59,2.23,3.15,3.88,9.39,2.9,10.5-2.21Z"/>
  <path class="st23" d="M105.91,98.27c-.13.05-2.34.04-2.47,0-.36-.12-3.53-2.45-3.92-2.84-1.25-1.26-2.41-3.79-.48-4.94s9.51-1.34,11.1.18c1.43,1.36.32,3.55-.73,4.75-.29.34-3.29,2.78-3.5,2.86Z"/>
  <path class="st15" d="M116.42,139.67c-.35-.04-.61.46-1.52-.03-2.45-1.31-3.46-4.92-3.22-7.58.3-3.35,3.21-6.3,5.98-7.81,5.61-3.07,10.73-3.03,15.56-8.45.81-.9,2.8-4.33,3.28-4.66.62-.43,1.19.04,1.15.73-.09,1.64-4.81,6.71-6.2,7.82-3.81,3.03-7.33,3.67-11.52,5.51-4.49,1.98-9.23,6.91-5.24,11.91.79.98,2.46,1.22,1.73,2.55Z"/>
  <path class="st33" d="M133.27,96.22c2.23-.26,8.43-.02,8.5,3.23.08,3.32-5.88,3.67-8.16,3.48-6.53-.53-7.02-5.93-.35-6.71Z"/>
  <path class="st17" d="M73.11,96.23c2.15-.2,8,.22,8.1,3.21.11,3.47-5.99,3.68-8.34,3.46-6.66-.63-6.57-6.02.24-6.67Z"/>
  <path class="st29" d="M60.58,118.76c1.94.27,5.15,2.01,6.59,3.38,2.27,2.16,3.59,5.44,3.3,8.66.71,1.8-.84,4.06-1.91,5.49h-.57c-.09.52-.23.66-.41.42.18.78-2.08,1.86-2.74,1.96-.69.28-1.96.18-1.38-.69-.71-1.36,1.66-1.64,2.58-2.32,2.35-1.76,3.07-4.82,2.52-7.65-.65-3.39-4.15-6.46-7.36-7.24-.73-.18-3.91-.32-4.04-.51-1.2-1.75,2.54-1.61,3.41-1.49Z"/>
  <path class="st2" d="M83.82,70.46c1-.1,2.75-.37,3.23.79.55,1.34-.59,1.99-1.7,2.27-1.24.3-4.71.87-5.93.9s-1.71-.75-1.29-1.98c.34-1.01,4.65-1.88,5.69-1.98Z"/>
  <path class="st28" d="M123.16,70.44c1.04-.24,5.53.52,6.56,1s2.08,2.01.77,2.71-3.88-.32-5.34-.56-3.32.52-2.97-2.04c.08-.62.37-.96.98-1.11Z"/>
  <path class="st5" d="M71.3,132.07c.36.81.72,1.71,1.03,2.53.53-.17.58,0,.21.42.07.35.12.77-.07,1.1-.1.18-3.57,1.61-3.77,1.57-.58-.11-1.11-.9-.68-1.41,1.31-1.35,2.3-3.59,2.47-5.49.45.25.62.82.82,1.27Z"/>
  <path class="st31" d="M72.33,134.6c-.03-.74-.13-.58.51-.63,4.64-.37,10.87.34,15.66.43,7.26.14,14.51,0,21.75.42-8.82,6.67-17.98,12.9-26.94,19.38-10.3-.03-20.59-.41-30.85-.59-5.05-.09-10.12.19-15.15-.2l22.25-14.99c.72-.44,3.24-.66,3.92-.42.02,0,.11.32.35.39.81.23,3.09-1.08,3.77-1.66,1.04.89,2.13,1.82,3.28,2.8l.02.58c.73-.13,1.43.81,1.65,1.48.13-.63.31-1.84-.18-2.17-.04-1.52.02-2.98.18-4.38-.05-.15-.15-.28-.21-.42Z"/>
  <path class="st27" d="M150.83,140.31c-.05.31-.26.48-.63.49l-17.31,12.1-26.73-.33-.25-.43c-.51-.41-1.24-.15-1.85-.21l1.44-1.69h-1.65s.21-.42.21-.42c.71.22,1.83.4,2.57.43,8.6.41,17.3-.06,25.92.36,5.8-4.25,11.94-8.07,17.67-12.41l1.64.95-1.03,1.16Z"/>
  <path class="st27" d="M150.83,141.36c.17.42,1.79.65,1.23,1.15l-18.68,13.17c-5.75.16-11.54-.26-17.26-.39-3.82-.08-7.65.21-11.44-.2.43-.57.94-1.29,1.65-1.48-.27-.49-1.37-.08-1.85-.21-.16-.64.3-.34.41-.42.97-.33,2.04-.33,3.2,0,8.32.01,16.65.15,24.96.4,4.95-3.62,9.96-7.16,15.02-10.61.42-.29.88-.53,1.34-.77s.94-.45,1.42-.65Z"/>
  <path class="st26" d="M150.83,140.31c.4-.04.83.02,1.24,0-.29.42-.82.77-1.24,1.05-5.89,4.13-11.84,8.17-17.66,12.42-8.38-.09-16.72-.46-25.1-.37l-3.19-.43c.31-.25.59-.68,1.03-.84l26.84.37,17.14-12.01c.3-.25.62-.16.94-.19Z"/>
  <path class="st4" d="M82.79,81.43c8.53-1.28,9.8,11.45,2.37,12.56-8.89,1.33-9.8-11.45-2.37-12.56Z"/>
  <path class="st3" d="M125.64,83.32c1.82-.42,2.4,1.98,1.25,2.55-2.23,1.1-3.04-2.13-1.25-2.55Z"/>
  <path class="st35" d="M72.53,141.57c-.35-.35-.51-.84-.48-1.48-.44.28-.83.28-1.17,0-1.19-1.08-2.51-1.91-3.3-3.38.09-.08.29-.3.41-.42-.04.33-.06,1.08.48,1.03.22-.02,3.2-1.24,3.56-1.43.44-.24.57-.28.5-.86.42,1.21.22,3.95.21,5.39,0,.36.13.94-.21,1.16Z"/>
  <path class="st16" d="M70.88,140.1l1.65-.63v2.11c-.74-.26-1.16-1.04-1.65-1.48Z"/>
  <path class="st24" d="M58.93,146.01h-.2c-.1-.88.3-.88.2,0Z"/>
  <path class="st6" d="M86.19,86.18c-.9-.97.1-3.07,1.59-2.37,2.09.98-.1,3.99-1.59,2.37Z"/>
  <path class="st20" d="M81.19,143.69c-.32-.38.35-1.35.92-1.27.79.11-.72,1.51-.92,1.27Z"/>
  <path class="st1" d="M77.89,142c.06.34-.18.56-.4.75-1.32,1.1-.94-.98.4-.75Z"/>
  <path class="st0" d="M63.88,145.8c.32.3-.96,1.14-1.03,1.05-.14-.44.65-1.41,1.03-1.05Z"/>
</svg>