<?xml version="1.0" encoding="UTF-8"?>
<svg id="Layer_1" xmlns="http://www.w3.org/2000/svg" version="1.1" viewBox="0 0 160 160">
  <!-- Generator: Adobe Illustrator 29.8.3, SVG Export Plug-In . SVG Version: 2.1.1 Build 3)  -->
  <defs>
    <style>
      .st0 {
        fill: #d5a146;
      }

      .st1 {
        fill: #d8a448;
      }

      .st2 {
        fill: #91563a;
      }

      .st3 {
        fill: #7e3d24;
      }

      .st4 {
        fill: #874e34;
      }

      .st5 {
        fill: #efb74f;
      }

      .st6 {
        fill: #fdfbf5;
      }

      .st7 {
        fill: #f4c265;
      }

      .st8 {
        fill: #e6ad47;
      }

      .st9 {
        fill: #f0b74e;
      }

      .st10 {
        fill: #b48453;
      }

      .st11 {
        fill: #e0f3fc;
      }

      .st12 {
        fill: #e7af4a;
      }

      .st13 {
        fill: #f1deac;
      }

      .st14 {
        fill: #f1ddaa;
      }

      .st15 {
        fill: #763a2e;
      }

      .st16 {
        fill: #ea9a69;
      }

      .st17 {
        fill: #e99772;
      }

      .st18 {
        fill: #ea9b6b;
      }

      .st19 {
        fill: #f9fcff;
      }

      .st20 {
        fill: #e6ae4b;
      }

      .st21 {
        fill: #e6ae4a;
      }

      .st22 {
        fill: #f7e7de;
      }
    </style>
  </defs>
  <path class="st9" d="M61,130.01c.38-2.72,5.36,2.93,7.3,3.4,5.02,3.82,14,2.7,17.55,5.29-.43,3.56-1.23,11.22-3.34,13.7-3.53,4.13-12.59,4.56-16.05.35-3.01-3.66-4.55-15.7-5.44-20.94-.1-.59.06-1.33-.03-1.79Z"/>
  <path class="st5" d="M94.46,133.07c4.49-6.72,19.07-4.27,25.97-14.17,1.07.22.25,3.21.45,4.3-.21,6.16-2.31,21.78-5.43,26.16-3.62,5.08-13.24,5.19-17.01.42-2.18-2.76-3.91-12.57-3.97-16.72Z"/>
  <g>
    <path class="st7" d="M89.71,137.5c-39.01,13.64-55.62-37.08-48.23-67,2.95-5.8,6.73-12.82,10.98-18.07.66.05,4.22-2.88,5.44-3.98,1.37-1.24,3.64-2.01,2.98-1.74,5.13-2.04,6.93-2.9,12.42-2.47.45-2.84,9.2-7.81,6.3-7.59,2.06-.16,10.22-.04,25.89,19.42,1.6-4.03,1.18.45.85,1.59,2.76,3.92,3.93,4.94,7.22.52-3.77,6.51.94,7.9,3.55,15.28,11.62,30.24,10.02,56.03-26.1,63.94"/>
    <path class="st20" d="M106.9,54.54c-1.37,4.96-4.21-1.01-6.35-2.42,1.67-10.06,2.09-23.87-4.04-32.75-8.11-8-13.39,20.71-14.46,25.59-11.02,4.12-8.72-3.95-6.91-12.51,19.32-59.24,36.62-11.81,31.76,22.08Z"/>
    <path class="st12" d="M17.66,25.5c8.84-.84,53.21,18.08,35.84,27.82-4.78-2.95-9.24-8.29-14.6-11.32-27.15-16.44-7.02,21.66,3.27,28.27-1.5,26.25-34.74-38.51-24.5-44.77Z"/>
    <path class="st21" d="M133.82,52.12c5.39,11.45-2.5,34.08-12.74,36.2-1.62-9.07-6.32-19-10.72-26.52,8.07-6.82,14.12-30.29,23.46-9.68Z"/>
    <path class="st8" d="M40.04,93.86c2.19,7.43,6.44,25.06,11.5,32.06-5.48,4.7-23.86,11.04-24.2-.75,3.19-9.68,11.2-20.75,12.7-31.31Z"/>
    <path class="st19" d="M17.66,40.93c-.41.75-.93-1.81-.3-2.12.14.67.16,1.51.3,2.12Z"/>
    <path class="st11" d="M20.69,25.5c-.77-.07-2.3-.11-3.02,0,.61-.5,2.36-.52,3.02,0Z"/>
    <path class="st13" d="M105.49,126.04c-11.03,7.92-34.33,13.25-41.61-2.32-14.04-42.22,80.58-37.06,41.61,2.32Z"/>
    <path class="st14" d="M52.45,52.42c.8,1.82-.22,1.75-.9,2.56-4.42,4.05-6.38,10.99-9.38,15.28-26.28-21.25-22.44-51.36,10.28-17.85Z"/>
    <path class="st14" d="M100.54,52.12c-14.87-10.08-27.2,2.02-14.36-25.7,12.51-27,20.17,14.98,14.36,25.7Z"/>
    <path class="st2" d="M75.74,90.84c-2.51-1.66-2.66-3.56-5.31-3.61-4.37-1.23-3.46-4.62.64-1.85,2.88.74,6.44-1.17,8.21-2.95,2.73-.81,4.45.92,7.66-1.72,4.74-7,4.23-1.13.96,1.87-.46,1.58.05,2.88-.97,4.93-4.25-.18-7.82.6-11.19,3.33Z"/>
    <path class="st6" d="M59.34,69.73c14.18-.04,6.61,22.92-4.48,13.1-4.51-4.41-1.78-12.44,4.48-13.1Z"/>
    <path class="st3" d="M94.47,62.73c.27,2.61-5.6,3.07-5.72,5.72,1.45-1.4,9.39-1.9,9.38.45,0,1.78-3.58.36-4.97.48-2.72-.41-5.97,3.97-8.09,2.56-.36-4.05,5.09-10.05,9.39-9.21Z"/>
    <path class="st16" d="M102.59,71.25c10.92-.41-1.81,9.71-5.69,5.23-1.78-2.45,3.86-4.99,5.69-5.23Z"/>
    <path class="st18" d="M57.83,86.07c10.32.51-3.39,9.44-6.31,5.24-1.84-2.82,4.3-5.06,6.31-5.24Z"/>
    <path class="st4" d="M79.91,73.95c7.05,2.98-7.78,9.33-7.15,3.19.33-1.21,5.79-3.76,7.15-3.19Z"/>
    <path class="st17" d="M86.93,87.51c-1.95,3.9-7.41,5.26-11.19,3.33,2.62-3.65,6.96-4.7,11.19-3.33Z"/>
    <path class="st0" d="M57.5,62.46c4.24,1.3-3.81,6.49-5.39,4.95-1.29-1.61,4.01-4.93,5.39-4.95Z"/>
    <path class="st1" d="M86.18,55.75h5.75c4.21,3.91-11.44,4.15-5.75,0Z"/>
    <path class="st10" d="M94.23,124.08c4.21,1.45,2.03,3.31-1.34,1.89-3.1,4.8-4.35,3.17-2.33-1.25-5.36-1.68-1.35-2.88,1.46-1.86,2.26-4.23,3.66-2.97,2.2,1.21Z"/>
    <path class="st15" d="M59.62,72.15c8.67-1.95,8.8,11.23.57,10.19-5.46-.68-5.42-9.1-.57-10.19Z"/>
    <path class="st22" d="M58.72,76.85c-.91.94-2.69-.35-1.77-1.61,1.18-1.6,3.04.3,1.77,1.61Z"/>
  </g>
</svg>