<?xml version="1.0" encoding="UTF-8"?>
<svg id="Layer_1" xmlns="http://www.w3.org/2000/svg" version="1.1" viewBox="0 0 160 160">
  <!-- Generator: Adobe Illustrator 29.8.3, SVG Export Plug-In . SVG Version: 2.1.1 Build 3)  -->
  <defs>
    <style>
      .st0 {
        fill: #d5a146;
      }

      .st1 {
        fill: #d8a448;
      }

      .st2 {
        fill: #91563a;
      }

      .st3 {
        fill: #7e3d24;
      }

      .st4 {
        fill: #874e34;
      }

      .st5 {
        fill: #fdfbf5;
      }

      .st6 {
        fill: #f4c265;
      }

      .st7 {
        fill: #763a2e;
      }

      .st8 {
        fill: #ea9a69;
      }

      .st9 {
        fill: #e99772;
      }

      .st10 {
        fill: #ea9b6b;
      }

      .st11 {
        fill: #f7e7de;
      }
    </style>
  </defs>
  <rect class="st6" width="160" height="160"/>
  <g>
    <path class="st2" d="M76.77,129.35c-7.38-4.91-7.82-10.5-15.59-10.64-12.83-3.62-10.14-13.61,1.88-5.45,8.44,2.19,18.92-3.45,24.11-8.69,8.01-2.38,13.07,2.71,22.48-5.06,13.92-20.62,12.42-3.34,2.82,5.51-1.35,4.66.16,8.49-2.84,14.53-12.47-.52-22.97,1.77-32.85,9.8Z"/>
    <path class="st5" d="M28.62,67.16c41.62-.11,19.42,67.54-13.16,38.6-13.24-12.99-5.23-36.64,13.16-38.6Z"/>
    <path class="st3" d="M131.74,46.53c.78,7.7-16.43,9.05-16.78,16.85,4.26-4.14,27.56-5.6,27.54,1.33-.01,5.23-10.49,1.07-14.58,1.42-7.98-1.21-17.53,11.69-23.74,7.54-1.05-11.94,14.94-29.61,27.55-27.15Z"/>
    <path class="st8" d="M142.62,75.95c32.05-1.2-5.32,28.62-16.72,15.42-5.22-7.22,11.34-14.7,16.72-15.42Z"/>
    <path class="st10" d="M24.2,115.31c30.3,1.5-9.96,27.83-18.53,15.43-5.39-8.31,12.62-14.92,18.53-15.43Z"/>
    <path class="st4" d="M89.01,79.58c20.69,8.78-22.84,27.49-20.99,9.4.96-3.56,17.01-11.09,20.99-9.4Z"/>
    <path class="st9" d="M109.62,119.54c-5.71,11.5-21.76,15.51-32.85,9.8,7.69-10.76,20.44-13.85,32.85-9.8Z"/>
    <path class="st0" d="M23.22,45.73c12.44,3.83-11.19,19.12-15.81,14.58-3.79-4.74,11.78-14.52,15.81-14.58Z"/>
    <path class="st1" d="M107.4,25.95h16.87c12.35,11.52-33.58,12.23-16.87,0Z"/>
    <path class="st7" d="M29.45,74.27c25.44-5.76,25.85,33.08,1.67,30.04-16.02-2.02-15.92-26.81-1.67-30.04Z"/>
    <path class="st11" d="M26.82,88.13c-2.68,2.76-7.9-1.04-5.19-4.73,3.46-4.72,8.93.87,5.19,4.73Z"/>
  </g>
</svg>