<?xml version="1.0" encoding="UTF-8"?>
<svg id="Layer_1" xmlns="http://www.w3.org/2000/svg" version="1.1" viewBox="0 0 801.39 3111.65">
  <!-- Generator: Adobe Illustrator 29.8.3, SVG Export Plug-In . SVG Version: 2.1.1 Build 3)  -->
  <defs>
    <style>
      .st0 {
        fill: #a7ca67;
      }

      .st1 {
        fill: #80b18e;
      }

      .st2 {
        fill: #949c48;
      }

      .st3 {
        fill: #7d5a2d;
      }

      .st4 {
        fill: #88ab7f;
      }

      .st5 {
        fill: #a7b362;
      }

      .st6 {
        fill: #7c5930;
      }

      .st7 {
        fill: #9eb172;
      }

      .st8 {
        fill: #979f45;
      }

      .st9 {
        fill: #a7b263;
      }

      .st10 {
        fill: #73cfe9;
      }

      .st11 {
        fill: #5ca554;
      }

      .st12 {
        fill: #865434;
      }

      .st13 {
        fill: #a6c965;
      }

      .st14 {
        fill: #84ae89;
      }

      .st15 {
        fill: #855534;
      }

      .st16 {
        fill: #808b39;
      }

      .st17 {
        fill: #98a046;
      }

      .st18 {
        fill: #97a045;
      }

      .st19 {
        fill: #949f47;
      }

      .st20 {
        fill: #7fb18f;
      }

      .st21 {
        fill: #a9b258;
      }

      .st22 {
        fill: #815931;
      }

      .st23 {
        fill: #80b18d;
      }

      .st24 {
        fill: #abb358;
      }

      .st25 {
        fill: #a0b173;
      }

      .st26 {
        fill: #80af8d;
      }

      .st27 {
        fill: #979f46;
      }

      .st28 {
        fill: #7ead88;
      }
    </style>
  </defs>
  <rect class="st10" x="-264" y="-19.83" width="1396.96" height="453.13"/>
  <rect class="st13" x="-14.03" y="449.6" width="869.42" height="2662.05"/>
  <ellipse class="st13" cx="418.7" cy="688.75" rx="497.74" ry="483.65"/>
  <g>
    <path class="st8" d="M639.79,409.6l-2.04,24.42c-.69,2.6-3.31,3.37-5.3,1.58l-23.27-21.35c8.59,11.5,16.67,23.34,24.25,35.51,1.4,4.05-.09,19.14-3.64,21.83-17.79,4.08-47.5-2.78-54-22-16-30.96.16-64.55,23.95-85.45l.61-7.7c-1.6-22.86-1.93-45.56,17.72-61.79,5.4-4.46,14.98-11.05,21.71-9.07v124Z"/>
    <path class="st18" d="M94.79,195.6c1.84-5.03,11.34-5.13,16.28-4.71,19.5,1.68,33.02,21.04,33.67,39.68,12.62-.86,24.46,4.06,29.72,16.08,1.69,3.86,4.17,9.54,1.32,12.94.88,3.02-.35,6.35-3.7,9.99,4.29,4.06,7.69,8.71,10.21,13.95l-1.5,2.06c1.8,10.03-1.09,15.85-8.67,21.83-10.08,7.95-24.28,13.49-36.88,9.22-2.42-.82-6.95-4.15-8.45-4.05l-.25,2.07-9.01,3.96c-3.05,1.06-5.97,2.05-8.74,2.97-3.17-3.37-7.08-6.26-12.16-4.96l-1.84-1.04v-120Z"/>
    <path class="st17" d="M620.79,143.6c5,9.8,2.7,15.49,5.44,24.06.53,1.65,4.93,6.41,6.56,8.94,3.67,2.81,5.71,5.33,7,10v24c-1.4,8.92-11.24,16.58-19.48,19.31-3.74,1.25-10.17,3.32-12.52-.31-4.21-1.86-3.74-11.4-1.6-15.37l5.89-8.11c-3.12,3.58-5.94,4.43-8.44,2.55l-1.91-16.14-2.86,40.01-2.08,1.05c-1.87-2.21-4.56-3.6-8.05-4.15l-10.32-5.49c-4.33-1.57-8.88-.14-13.65,4.29-3.47,2.56-6.13,2.67-7.98.35-2.7-4.57-3.93-10.06-3.68-16.47-.03,2.66-.33,4.96-3.51,4.49,2.71,4.5,3.93,14.59.19,17.98-.32-.05-.68.05-1,0-1.12-.84-2-1.64-1.78-2.97-26.82-.9-27.16-32.66-8.82-45.06l.6-10.97c.3-1.5.56-1.83,1-3,3.94-9.55,15.36-15.25,23-6,.83,1.43,1.82,1.55,2,4,1.55.42,2.36.97,1.9,2.45l11.34-9.51c.3-7.5,2.56-13.48,6.76-17.94-1.72-4.32,7.81-9.22,11.52-10.54,10.67-3.79,17.55.5,24.48,8.54Z"/>
    <path class="st11" d="M132.79,354.6c2.71-.14,5.39-.13,8.07.44,3.35.71,10.87,5.59,12.46,5.55,1.96-.05,3.36-2.81,5.14-3.83,9.79-5.58,18.57-5.3,28.25.42,2.04,1.2,5.6,4.86,6.78,5.22,4.11,1.22,8.34-.96,13.22,1.78,7.72,4.35,4.23,14.58,5.08,15.42.98.97,21.15-2.45,25.51,7.02,3.06,6.65-13.71,9.05-18.69,10.3-40.63,10.18-82.77,11.74-123.82,19.68v-37c.23-1.43.75-2.56,1.58-3.39l10.97-3.56c.66-2.61,1.81-3.96,3.45-4.05-1.73-4.27,4.92-9.56,8.5-11.81s10.55-5.79,13.5-2.19Z"/>
    <path class="st15" d="M629.79,471.6c.62-7,2.67-14.18,1.75-21.26-6.46-13.32-20.33-26.58-26.59-39.41-.7-1.44-1.49-2.58-1.16-4.33l30.51,27.99c2.36.44,1.21-1.06,1.51-2.45,1.61-7.44,2.09-15.17,3.98-22.54v132c-8.84,1.36-6.69-13.93-15.99-7,1.66-21.03,4.12-41.99,5.99-63Z"/>
    <path class="st24" d="M639.79,278.6v7c-22.48,6.76-36.16,22.81-37.99,46.51-.64,8.32,1.7,26.33-.22,32.78-.64,2.16-10.03,9.97-12.31,12.69-17.4,20.79-22.27,46.03-13.49,72.01-16.54-21.82-11.42-49.76,3.37-71.13,3.21-4.64,16.34-17.16,17.19-19.82,1.41-4.42-1.65-16.17-1.6-21.5.03-2.43.78-8.26,1.15-10.93,3.23-23.35,18.6-45.95,43.88-47.62Z"/>
    <path class="st21" d="M144.79,204.6l2.56,1.31c.6,7.03,2.91,12.54,6.93,16.54,15.41,2.66,26.62,9.29,27.45,26.38.2,4.14-1.04,15.6-5.94,10.76-2.24-19.35-13.5-28.43-33-26.99.06-25.37-22.38-48-48-37.01v-4c16.77-10.78,42.08-6.55,50,13Z"/>
    <path class="st26" d="M639.79,258.6c-10.07-2.91-19.96-7.05-30-10-4.22-3.49-5-14.51-2-19,14.39.85,24.66-7.6,32-19v48Z"/>
    <path class="st0" d="M108.79,321.6l1.78,2.2c-1,14.1-2.17,28.06-3.52,41.87,2.9-.19,4.14.79,3.75,2.93-.77,1.26-.31,4.07-2.02,5.48-2.01,1.67-11.14,2.57-13.98,5.52v-51c.94-4,10.5-8.76,14-7Z"/>
    <path class="st14" d="M108.79,321.6c-.39.68-12.23,5.7-14,7v-13c3.18-3.73,16.75,1.29,14,6Z"/>
    <path class="st4" d="M639.79,178.6v8c-3.82-1.92-4.86-6.66-7-10,2.01,1.85,4.29,2.36,7,2Z"/>
    <path class="st20" d="M538.79,175.6c-.53,3.99.77,9.61-.02,13.29-.19.86-6.53,5.63-7.28,6.98-7.08,12.68-5.48,28.98,10.25,33.28,5.19,1.42,8.14-2.17,7.06,5.44-54.8-9.06-115.28-10.28-170-4,50.79-21.28,104.38-35.75,158.89-44.11-.35-3.96.4-7.29,1.11-10.89Z"/>
    <path class="st23" d="M195.79,210.6c3.22,2.55,2.37,9.61.67,13.26-11.42,14.07-8.44,33.95,12.14,34.72.64,2.12,1.04,4.46,1.19,7.02,3.02.98,1.25,6.45-1,8-.64.25-1.85,1.63-3.27,2.19-8.26,3.25-16.51,6.48-24.73,9.81-.91-5.08-8.29-12.78-11.98-16.5,4.07-2.49,5-6.4,6.98-9.5.06-.09,1.52.27,2.04-.66,4.09-7.22,1.3-20.63-4.55-26.34-6.28-6.13-12.51-6.02-19.71-8.29-6.37-2.01-6.31-13.61-8.78-19.72l51,6Z"/>
    <path class="st1" d="M304.79,243.6c-27.8,6.54-60.11,17.11-87,27-4.08-.02-4.19-7.35-1-9l.66-2.74c9.29-4.79,16-8.93,17.1-20.08l2.23-1.18c.75-7.64-.41-14.22-7.67-18.13l1.67-1.87c12.09,3.53,24.37,5.88,36.52,9.98,12.66,4.28,25.85,9.56,37.48,16.02Z"/>
    <path class="st12" d="M132.79,354.6c-9.84.51-16.98,5.81-22,14-1.32-.98-3.95-.69-5.02-1.48-2.77-2.03,1.53-21.67,2.02-26.03.67-6.03.24-13.58,1.01-19.49.03-.2,1.71-2.4,1.07-3.92,4.99,1.62,13.98-4.89,16.93-5.08l6,42Z"/>
    <path class="st28" d="M556.79,228.6c6.37.73,13.37-8.25,18.25-7.81,6.04.53,14.17,9.49,21.75,7.82.1,1.66-.07,3.34,0,5,3.11,2.36,2.93,8.52,0,11-12.67-3.35-27.04-6.57-40-9-2.99-1.08-2.81-5.81,0-7Z"/>
    <path class="st2" d="M188.79,458.6c.55,10.1-4.35,19.41-7.11,28.87-3.94-.93-21.92-.06-23.68-1.09-.74-.43-5.58-10.28-5.78-11.74-.55-4.07,2-8.17,6.15-5.12,2.16,1.58,2.16,5.91,4.41,7.07-.28-5.77-.18-11.98,4.51-15.98,4.74,5.67,5.26,13.37,7.99,19.98,3.84-7.02,4.46-19.71,13.5-21.99Z"/>
    <path class="st22" d="M596.79,233.6l4.01-55.99c1.2-1.57,1.82-.02,2,1.47.49,4.13,1.65,28.15,3,29.52l14.98-12c1.13,1.22-12.71,17.23-13.55,19.94-1.52,4.91.26,8.75.56,13.06.43,6.35.52,12.78,2,19-4.16-1.22-9.06-2.96-13-4-.12-3.65.17-7.36,0-11Z"/>
    <path class="st19" d="M524.8,479.6c5.28-5.98,6.87-17.34,16.99-16.99,1.03,1-8.41,20.06-10.66,20.83-1.66.57-19.35.4-20.38-.29-1.22-.82-7.28-14.2-.61-12.41,3.29.89,2.74,6.48,5.64,7.87-1.14-22.71,11.96-22.34,9.02,1Z"/>
    <path class="st6" d="M216.79,261.6c.36,2.89-.79,6.23,1,9-2.98,1.1-6.41,2-9,3-.68-2.79.82-5.58,1-8-1.05-4-1.75-8.22-2.1-12.66l-8.4-10.49c-5.73-9.82,11.05-2.13,11.49,4.15-2.27-2.17-2.82-13.74-2-16.57l2-1.43c.65-.76,1.88-1.49,2.39-.94,2.45,2.61,4.81,25.06,5.18,30.38l-1.57,3.56Z"/>
    <path class="st3" d="M556.79,228.6c.18,2.31-.12,4.69,0,7-1.53-.29-4.7-.61-7-1-.41-4.41.8-9.82-.46-14.04-1.38-4.62-8.4-9.82-9.53-14.96l10.98,10,2.02-22,1.98,11.5c-.04,7.88,1.4,15.69,2.01,23.49Z"/>
    <path class="st27" d="M197.79,207.6c9.11-15.54,27.17-7.37,28.35,8.88,7.53,5.98,12.31,10.32,10.65,21.12-1.05,6.33-2.26,10.54-6.3,15.7l-13.7,8.3c-1.14-9.19-2.49-20.23-3.99-29.51-.24-1.49-.05-3.09-2.01-3.49v18l-10.99-8c-1.24,1.3,9.17,11.61,9.78,13.71.72,2.51.44,10.27.21,13.29-1.83-.64-.57-4.53-1.02-4.99-.18-.18-3.58-.06-5.02-.47-16.45-4.61-19.14-17.09-12.7-31.79,1.1-2.52,3.97-4.95,4.53-7.47.74-3.33-.41-7.4.21-10.29.04-.18,1.73-2.66,2-3Z"/>
    <path class="st9" d="M620.79,143.6c-5.81-3.43-11.09-8.44-18.47-8.04-5.34.29-14.42,5.71-17.53,10.04-4.26,4.47-6.52,10.53-6.76,18.17-.63,1.18-10.28,9.19-11.24,6.83.65-4.33,7.1-5.91,8.47-9.03,2.49-5.66.74-10.34,5.7-17.3,11.09-15.53,30.08-19.75,39.83-.67Z"/>
    <path class="st25" d="M197.79,207.6c7.06-16.43,23.44-11.25,28.56,3.95,1.56,4.61-1.73,4.25,4.44,6.05-.06,3,3.13,3.05,4.46,5.04,3.26,4.9,2.37,9.95,1.54,14.96-.71-6.58-.38-10.38-5.52-14.97-1.37-1.22-4.59-2.49-5.19-3.31-1.51-2.05-2.11-10.5-3.97-12.79-1.38-1.7-9.48-5.94-11.8-5.97-4.03-.04-10.08,4.02-12.52,7.04Z"/>
    <path class="st5" d="M584.79,145.6c-1.13,1.57-3.19,5.9-3.72,7.78-.74,2.64-1,10.15-1.49,11.02-.27.48-6.71,4.32-8.82,6.67-5.51,6.17-7.94,14.33-7.99,22.52-1.75.23-.93-2.27-.99-3.48-.11-2.42-.3-5.74-.03-8.04.49-4.05,3.36-6.88,3.03-11.47.66-.06,1.35.08,2,0,1.51-.19,8.49-5.65,9.48-7.02,3.2-4.39.3-16.33,8.52-17.98Z"/>
    <path class="st7" d="M562.79,166.6c-9.05-6.8-17-1.77-23,6,.26-.68,0-1.8.56-2.9,4.98-9.83,16.27-13.76,22.44-3.1Z"/>
    <path class="st16" d="M104.79,239.6c.77,16.43,12.56,17.69,26.28,15.15l8.73,6.83c-3.64,1.21-8.37-3.45-10.7-3.81-1-.15-5.39,3.42-8.77,3.83-6.25.76-12.79-1.21-16.97-6.08-3.94-4.58-6.13-13.92,1.44-15.94Z"/>
  </g>
  <path class="st8" d="M639.79,409.6l2.04,24.42c.69,2.6,3.31,3.37,5.3,1.58l23.27-21.35c-8.59,11.5-16.67,23.34-24.25,35.51-1.4,4.05.09,19.14,3.64,21.83,17.79,4.08,47.5-2.78,54-22,16-30.96-.16-64.55-23.95-85.45l-.61-7.7c1.6-22.86,1.93-45.56-17.72-61.79-5.4-4.46-14.98-11.05-21.71-9.07v124Z"/>
  <path class="st15" d="M639.79,409.6v132"/>
  <path class="st15" d="M649.79,471.6c-.62-7-2.67-14.18-1.75-21.26,6.46-13.32,20.33-26.58,26.59-39.41.7-1.44,1.49-2.58,1.16-4.33l-30.51,27.99c-2.36.44-1.21-1.06-1.51-2.45-1.61-7.44-2.09-15.17-3.98-22.54v132c8.84,1.36,6.69-13.93,15.99-7-1.66-21.03-4.12-41.99-5.99-63Z"/>
  <path class="st24" d="M639.79,278.6v7c22.48,6.76,36.16,22.81,37.99,46.51.64,8.32-1.7,26.33.22,32.78.64,2.16,10.03,9.97,12.31,12.69,17.4,20.79,22.27,46.03,13.49,72.01,16.54-21.82,11.42-49.76-3.37-71.13-3.21-4.64-16.34-17.16-17.19-19.82-1.41-4.42,1.65-16.17,1.6-21.5-.03-2.43-.78-8.26-1.15-10.93-3.23-23.35-18.6-45.95-43.88-47.62Z"/>
  <path class="st11" d="M120.88,359.77c-2.54.95-4.99,2.04-7.22,3.62-2.79,1.98-7.73,9.46-9.21,10.06-1.81.74-4.2-1.24-6.24-1.46-11.21-1.21-19.15,2.56-25.74,11.66-1.39,1.92-3.2,6.7-4.14,7.49-3.28,2.76-8.03,2.44-11.41,6.91-5.34,7.07,1.94,15.06,1.5,16.17-.51,1.28-20.37,6.19-20.59,16.62-.15,7.32,16.19,2.82,21.24,1.98,41.32-6.88,80.58-22.27,121.38-31.37l-14.77-33.93c-.78-1.22-1.71-2.04-2.8-2.48l-11.48,1.12c-1.65-2.13-3.24-2.91-4.78-2.34-.12-4.61-8.32-6.81-12.5-7.44s-11.98-1.1-13.26,3.38Z"/>
  <path class="st18" d="M99.75,195.6c-1.84-5.03-11.34-5.13-16.28-4.71-19.5,1.68-33.02,21.04-33.67,39.68-12.62-.86-24.46,4.06-29.72,16.08-1.69,3.86-4.17,9.54-1.32,12.94-.88,3.02.35,6.35,3.7,9.99-4.29,4.06-7.69,8.71-10.21,13.95l1.5,2.06c-1.8,10.03,1.09,15.85,8.67,21.83,10.08,7.95,24.28,13.49,36.88,9.22,2.42-.82,6.95-4.15,8.45-4.05l.25,2.07,9.01,3.96c3.05,1.06,5.97,2.05,8.74,2.97,3.17-3.37,7.08-6.26,12.16-4.96l1.84-1.04v-120Z"/>
  <path class="st2" d="M705.61,1600.71c.55,10.1-4.35,19.41-7.11,28.87-3.94-.93-21.92-.06-23.68-1.09-.74-.43-5.58-10.28-5.78-11.74-.55-4.07,2-8.17,6.15-5.12,2.16,1.58,2.16,5.91,4.41,7.07-.28-5.77-.18-11.98,4.51-15.98,4.74,5.67,5.26,13.37,7.99,19.98,3.84-7.02,4.46-19.71,13.5-21.99Z"/>
  <path class="st2" d="M118.66,2928.58c.55,10.1-4.35,19.41-7.11,28.87-3.94-.93-21.92-.06-23.68-1.09-.74-.43-5.58-10.28-5.78-11.74-.55-4.07,2-8.17,6.15-5.12,2.16,1.58,2.16,5.91,4.41,7.07-.28-5.77-.18-11.98,4.51-15.98,4.74,5.67,5.26,13.37,7.99,19.98,3.84-7.02,4.46-19.71,13.5-21.99Z"/>
  <path class="st2" d="M189.88,2193.14c.55,10.1-4.35,19.41-7.11,28.87-3.94-.93-21.92-.06-23.68-1.09-.74-.43-5.58-10.28-5.78-11.74-.55-4.07,2-8.17,6.15-5.12,2.16,1.58,2.16,5.91,4.41,7.07-.28-5.77-.18-11.98,4.51-15.98,4.74,5.67,5.26,13.37,7.99,19.98,3.84-7.02,4.46-19.71,13.5-21.99Z"/>
  <path class="st2" d="M118.66,2365.31c.55,10.1-4.35,19.41-7.11,28.87-3.94-.93-21.92-.06-23.68-1.09-.74-.43-5.58-10.28-5.78-11.74-.55-4.07,2-8.17,6.15-5.12,2.16,1.58,2.16,5.91,4.41,7.07-.28-5.77-.18-11.98,4.51-15.98,4.74,5.67,5.26,13.37,7.99,19.98,3.84-7.02,4.46-19.71,13.5-21.99Z"/>
  <path class="st2" d="M171.53,2590.71c.55,10.1-4.35,19.41-7.11,28.87-3.94-.93-21.92-.06-23.68-1.09-.74-.43-5.58-10.28-5.78-11.74-.55-4.07,2-8.17,6.15-5.12,2.16,1.58,2.16,5.91,4.41,7.07-.28-5.77-.18-11.98,4.51-15.98,4.74,5.67,5.26,13.37,7.99,19.98,3.84-7.02,4.46-19.71,13.5-21.99Z"/>
  <path class="st2" d="M633.57,2358.27c.55,10.1-4.35,19.41-7.11,28.87-3.94-.93-21.92-.06-23.68-1.09-.74-.43-5.58-10.28-5.78-11.74-.55-4.07,2-8.17,6.15-5.12,2.16,1.58,2.16,5.91,4.41,7.07-.28-5.77-.18-11.98,4.51-15.98,4.74,5.67,5.26,13.37,7.99,19.98,3.84-7.02,4.46-19.71,13.5-21.99Z"/>
  <path class="st2" d="M112.4,1816.71c.55,10.1-4.35,19.41-7.11,28.87-3.94-.93-21.92-.06-23.68-1.09-.74-.43-5.58-10.28-5.78-11.74-.55-4.07,2-8.17,6.15-5.12,2.16,1.58,2.16,5.91,4.41,7.07-.28-5.77-.18-11.98,4.51-15.98,4.74,5.67,5.26,13.37,7.99,19.98,3.84-7.02,4.46-19.71,13.5-21.99Z"/>
  <path class="st2" d="M419,1730.62c.55,10.1-4.35,19.41-7.11,28.87-3.94-.93-21.92-.06-23.68-1.09-.74-.43-5.58-10.28-5.78-11.74-.55-4.07,2-8.17,6.15-5.12,2.16,1.58,2.16,5.91,4.41,7.07-.28-5.77-.18-11.98,4.51-15.98,4.74,5.67,5.26,13.37,7.99,19.98,3.84-7.02,4.46-19.71,13.5-21.99Z"/>
  <path class="st2" d="M589.6,1848.79c.55,10.1-4.35,19.41-7.11,28.87-3.94-.93-21.92-.06-23.68-1.09-.74-.43-5.58-10.28-5.78-11.74-.55-4.07,2-8.17,6.15-5.12,2.16,1.58,2.16,5.91,4.41,7.07-.28-5.77-.18-11.98,4.51-15.98,4.74,5.67,5.26,13.37,7.99,19.98,3.84-7.02,4.46-19.71,13.5-21.99Z"/>
  <path class="st2" d="M196.92,1321.31c.55,10.1-4.35,19.41-7.11,28.87-3.94-.93-21.92-.06-23.68-1.09-.74-.43-5.58-10.28-5.78-11.74-.55-4.07,2-8.17,6.15-5.12,2.16,1.58,2.16,5.91,4.41,7.07-.28-5.77-.18-11.98,4.51-15.98,4.74,5.67,5.26,13.37,7.99,19.98,3.84-7.02,4.46-19.71,13.5-21.99Z"/>
  <path class="st2" d="M72.48,1438.71c.55,10.1-4.35,19.41-7.11,28.87-3.94-.93-21.92-.06-23.68-1.09-.74-.43-5.58-10.28-5.78-11.74-.55-4.07,2-8.17,6.15-5.12,2.16,1.58,2.16,5.91,4.41,7.07-.28-5.77-.18-11.98,4.51-15.98,4.74,5.67,5.26,13.37,7.99,19.98,3.84-7.02,4.46-19.71,13.5-21.99Z"/>
  <path class="st2" d="M169.53,760.97c.55,10.1-4.35,19.41-7.11,28.87-3.94-.93-21.92-.06-23.68-1.09-.74-.43-5.58-10.28-5.78-11.74-.55-4.07,2-8.17,6.15-5.12,2.16,1.58,2.16,5.91,4.41,7.07-.28-5.77-.18-11.98,4.51-15.98,4.74,5.67,5.26,13.37,7.99,19.98,3.84-7.02,4.46-19.71,13.5-21.99Z"/>
  <path class="st2" d="M729.88,1200.01c.55,10.1-4.35,19.41-7.11,28.87-3.94-.93-21.92-.06-23.68-1.09-.74-.43-5.58-10.28-5.78-11.74-.55-4.07,2-8.17,6.15-5.12,2.16,1.58,2.16,5.91,4.41,7.07-.28-5.77-.18-11.98,4.51-15.98,4.74,5.67,5.26,13.37,7.99,19.98,3.84-7.02,4.46-19.71,13.5-21.99Z"/>
  <path class="st2" d="M693.19,828.19c.55,17.27-4.35,33.19-7.11,49.37-3.94-1.59-21.92-.11-23.68-1.86-.74-.74-5.58-17.58-5.78-20.08-.55-6.96,2-13.97,6.15-8.75,2.16,2.71,2.16,10.1,4.41,12.08-.28-9.87-.18-20.49,4.51-27.32,4.74,9.69,5.26,22.87,7.99,34.16,3.84-12.01,4.46-33.7,13.5-37.61Z"/>
  <g>
    <path class="st8" d="M54.18,731.34l-2.04,24.42c-.69,2.6-3.31,3.37-5.3,1.58l-23.27-21.35c8.59,11.5,16.67,23.34,24.25,35.51,1.4,4.05-.09,19.14-3.64,21.83-17.79,4.08-47.5-2.78-54-22-16-30.96.16-64.55,23.95-85.45l.61-7.7c-1.6-22.86-1.93-45.56,17.72-61.79,5.4-4.46,14.98-11.05,21.71-9.07v124Z"/>
    <path class="st15" d="M44.18,793.34c.62-7,2.67-14.18,1.75-21.26-6.46-13.32-20.33-26.58-26.59-39.41-.7-1.44-1.49-2.58-1.16-4.33l30.51,27.99c2.36.44,1.21-1.06,1.51-2.45,1.61-7.44,2.09-15.17,3.98-22.54v132c-8.84,1.36-6.69-13.93-15.99-7,1.66-21.03,4.12-41.99,5.99-63Z"/>
    <path class="st24" d="M54.18,600.34v7c-22.48,6.76-36.16,22.81-37.99,46.51-.64,8.32,1.7,26.33-.22,32.78-.64,2.16-10.03,9.97-12.31,12.69-17.4,20.79-22.27,46.03-13.49,72.01-16.54-21.82-11.42-49.76,3.37-71.13,3.21-4.64,16.34-17.16,17.19-19.82,1.41-4.42-1.65-16.17-1.6-21.5.03-2.43.78-8.26,1.15-10.93,3.23-23.35,18.6-45.95,43.88-47.62Z"/>
    <path class="st8" d="M54.18,731.34l2.04,24.42c.69,2.6,3.31,3.37,5.3,1.58l23.27-21.35c-8.59,11.5-16.67,23.34-24.25,35.51-1.4,4.05.09,19.14,3.64,21.83,17.79,4.08,47.5-2.78,54-22,16-30.96-.16-64.55-23.95-85.45l-.61-7.7c1.6-22.86,1.93-45.56-17.72-61.79-5.4-4.46-14.98-11.05-21.71-9.07v124Z"/>
    <path class="st15" d="M64.18,793.34c-.62-7-2.67-14.18-1.75-21.26,6.46-13.32,20.33-26.58,26.59-39.41.7-1.44,1.49-2.58,1.16-4.33l-30.51,27.99c-2.36.44-1.21-1.06-1.51-2.45-1.61-7.44-2.09-15.17-3.98-22.54v132c8.84,1.36,6.69-13.93,15.99-7-1.66-21.03-4.12-41.99-5.99-63Z"/>
    <path class="st24" d="M54.18,600.34v7c22.48,6.76,36.16,22.81,37.99,46.51.64,8.32-1.7,26.33.22,32.78.64,2.16,10.03,9.97,12.31,12.69,17.4,20.79,22.27,46.03,13.49,72.01,16.54-21.82,11.42-49.76-3.37-71.13-3.21-4.64-16.34-17.16-17.19-19.82-1.41-4.42,1.65-16.17,1.6-21.5-.03-2.43-.78-8.26-1.15-10.93-3.23-23.35-18.6-45.95-43.88-47.62Z"/>
  </g>
  <g>
    <path class="st8" d="M640.33,1387.49l-2.04,24.42c-.69,2.6-3.31,3.37-5.3,1.58l-23.27-21.35c8.59,11.5,16.67,23.34,24.25,35.51,1.4,4.05-.09,19.14-3.64,21.83-17.79,4.08-47.5-2.78-54-22-16-30.96.16-64.55,23.95-85.45l.61-7.7c-1.6-22.86-1.93-45.56,17.72-61.79,5.4-4.46,14.98-11.05,21.71-9.07v124Z"/>
    <path class="st15" d="M630.33,1449.49c.62-7,2.67-14.18,1.75-21.26-6.46-13.32-20.33-26.58-26.59-39.41-.7-1.44-1.49-2.58-1.16-4.33l30.51,27.99c2.36.44,1.21-1.06,1.51-2.45,1.61-7.44,2.09-15.17,3.98-22.54v132c-8.84,1.36-6.69-13.93-15.99-7,1.66-21.03,4.12-41.99,5.99-63Z"/>
    <path class="st24" d="M640.33,1256.49v7c-22.48,6.76-36.16,22.81-37.99,46.51-.64,8.32,1.7,26.33-.22,32.78-.64,2.16-10.03,9.97-12.31,12.69-17.4,20.79-22.27,46.03-13.49,72.01-16.54-21.82-11.42-49.76,3.37-71.13,3.21-4.64,16.34-17.16,17.19-19.82,1.41-4.42-1.65-16.17-1.6-21.5.03-2.43.78-8.26,1.15-10.93,3.23-23.35,18.6-45.95,43.88-47.62Z"/>
    <path class="st8" d="M640.33,1387.49l2.04,24.42c.69,2.6,3.31,3.37,5.3,1.58l23.27-21.35c-8.59,11.5-16.67,23.34-24.25,35.51-1.4,4.05.09,19.14,3.64,21.83,17.79,4.08,47.5-2.78,54-22,16-30.96-.16-64.55-23.95-85.45l-.61-7.7c1.6-22.86,1.93-45.56-17.72-61.79-5.4-4.46-14.98-11.05-21.71-9.07v124Z"/>
    <path class="st15" d="M650.33,1449.49c-.62-7-2.67-14.18-1.75-21.26,6.46-13.32,20.33-26.58,26.59-39.41.7-1.44,1.49-2.58,1.16-4.33l-30.51,27.99c-2.36.44-1.21-1.06-1.51-2.45-1.61-7.44-2.09-15.17-3.98-22.54v132c8.84,1.36,6.69-13.93,15.99-7-1.66-21.03-4.12-41.99-5.99-63Z"/>
    <path class="st24" d="M640.33,1256.49v7c22.48,6.76,36.16,22.81,37.99,46.51.64,8.32-1.7,26.33.22,32.78.64,2.16,10.03,9.97,12.31,12.69,17.4,20.79,22.27,46.03,13.49,72.01,16.54-21.82,11.42-49.76-3.37-71.13-3.21-4.64-16.34-17.16-17.19-19.82-1.41-4.42,1.65-16.17,1.6-21.5-.03-2.43-.78-8.26-1.15-10.93-3.23-23.35-18.6-45.95-43.88-47.62Z"/>
  </g>
  <g>
    <path class="st8" d="M603.19,1451.49l-2.04,24.42c-.69,2.6-3.31,3.37-5.3,1.58l-23.27-21.35c8.59,11.5,16.67,23.34,24.25,35.51,1.4,4.05-.09,19.14-3.64,21.83-17.79,4.08-47.5-2.78-54-22-16-30.96.16-64.55,23.95-85.45l.61-7.7c-1.6-22.86-1.93-45.56,17.72-61.79,5.4-4.46,14.98-11.05,21.71-9.07v124Z"/>
    <path class="st15" d="M593.19,1513.49c.62-7,2.67-14.18,1.75-21.26-6.46-13.32-20.33-26.58-26.59-39.41-.7-1.44-1.49-2.58-1.16-4.33l30.51,27.99c2.36.44,1.21-1.06,1.51-2.45,1.61-7.44,2.09-15.17,3.98-22.54v132c-8.84,1.36-6.69-13.93-15.99-7,1.66-21.03,4.12-41.99,5.99-63Z"/>
    <path class="st24" d="M603.19,1320.49v7c-22.48,6.76-36.16,22.81-37.99,46.51-.64,8.32,1.7,26.33-.22,32.78-.64,2.16-10.03,9.97-12.31,12.69-17.4,20.79-22.27,46.03-13.49,72.01-16.54-21.82-11.42-49.76,3.37-71.13,3.21-4.64,16.34-17.16,17.19-19.82,1.41-4.42-1.65-16.17-1.6-21.5.03-2.43.78-8.26,1.15-10.93,3.23-23.35,18.6-45.95,43.88-47.62Z"/>
    <path class="st8" d="M603.19,1451.49l2.04,24.42c.69,2.6,3.31,3.37,5.3,1.58l23.27-21.35c-8.59,11.5-16.67,23.34-24.25,35.51-1.4,4.05.09,19.14,3.64,21.83,17.79,4.08,47.5-2.78,54-22,16-30.96-.16-64.55-23.95-85.45l-.61-7.7c1.6-22.86,1.93-45.56-17.72-61.79-5.4-4.46-14.98-11.05-21.71-9.07v124Z"/>
    <path class="st15" d="M613.19,1513.49c-.62-7-2.67-14.18-1.75-21.26,6.46-13.32,20.33-26.58,26.59-39.41.7-1.44,1.49-2.58,1.16-4.33l-30.51,27.99c-2.36.44-1.21-1.06-1.51-2.45-1.61-7.44-2.09-15.17-3.98-22.54v132c8.84,1.36,6.69-13.93,15.99-7-1.66-21.03-4.12-41.99-5.99-63Z"/>
    <path class="st24" d="M603.19,1320.49v7c22.48,6.76,36.16,22.81,37.99,46.51.64,8.32-1.7,26.33.22,32.78.64,2.16,10.03,9.97,12.31,12.69,17.4,20.79,22.27,46.03,13.49,72.01,16.54-21.82,11.42-49.76-3.37-71.13-3.21-4.64-16.34-17.16-17.19-19.82-1.41-4.42,1.65-16.17,1.6-21.5-.03-2.43-.78-8.26-1.15-10.93-3.23-23.35-18.6-45.95-43.88-47.62Z"/>
  </g>
  <g>
    <path class="st8" d="M152.14,1699.05l-2.04,24.42c-.69,2.6-3.31,3.37-5.3,1.58l-23.27-21.35c8.59,11.5,16.67,23.34,24.25,35.51,1.4,4.05-.09,19.14-3.64,21.83-17.79,4.08-47.5-2.78-54-22-16-30.96.16-64.55,23.95-85.45l.61-7.7c-1.6-22.86-1.93-45.56,17.72-61.79,5.4-4.46,14.98-11.05,21.71-9.07v124Z"/>
    <path class="st15" d="M142.14,1761.05c.62-7,2.67-14.18,1.75-21.26-6.46-13.32-20.33-26.58-26.59-39.41-.7-1.44-1.49-2.58-1.16-4.33l30.51,27.99c2.36.44,1.21-1.06,1.51-2.45,1.61-7.44,2.09-15.17,3.98-22.54v132c-8.84,1.36-6.69-13.93-15.99-7,1.66-21.03,4.12-41.99,5.99-63Z"/>
    <path class="st24" d="M152.14,1568.05v7c-22.48,6.76-36.16,22.81-37.99,46.51-.64,8.32,1.7,26.33-.22,32.78-.64,2.16-10.03,9.97-12.31,12.69-17.4,20.79-22.27,46.03-13.49,72.01-16.54-21.82-11.42-49.76,3.37-71.13,3.21-4.64,16.34-17.16,17.19-19.82,1.41-4.42-1.65-16.17-1.6-21.5.03-2.43.78-8.26,1.15-10.93,3.23-23.35,18.6-45.95,43.88-47.62Z"/>
    <path class="st8" d="M152.14,1699.05l2.04,24.42c.69,2.6,3.31,3.37,5.3,1.58l23.27-21.35c-8.59,11.5-16.67,23.34-24.25,35.51-1.4,4.05.09,19.14,3.64,21.83,17.79,4.08,47.5-2.78,54-22,16-30.96-.16-64.55-23.95-85.45l-.61-7.7c1.6-22.86,1.93-45.56-17.72-61.79-5.4-4.46-14.98-11.05-21.71-9.07v124Z"/>
    <path class="st15" d="M162.14,1761.05c-.62-7-2.67-14.18-1.75-21.26,6.46-13.32,20.33-26.58,26.59-39.41.7-1.44,1.49-2.58,1.16-4.33l-30.51,27.99c-2.36.44-1.21-1.06-1.51-2.45-1.61-7.44-2.09-15.17-3.98-22.54v132c8.84,1.36,6.69-13.93,15.99-7-1.66-21.03-4.12-41.99-5.99-63Z"/>
    <path class="st24" d="M152.14,1568.05v7c22.48,6.76,36.16,22.81,37.99,46.51.64,8.32-1.7,26.33.22,32.78.64,2.16,10.03,9.97,12.31,12.69,17.4,20.79,22.27,46.03,13.49,72.01,16.54-21.82,11.42-49.76-3.37-71.13-3.21-4.64-16.34-17.16-17.19-19.82-1.41-4.42,1.65-16.17,1.6-21.5-.03-2.43-.78-8.26-1.15-10.93-3.23-23.35-18.6-45.95-43.88-47.62Z"/>
  </g>
  <path class="st11" d="M614.38,1538.99c-2.54.95-4.99,2.04-7.22,3.62-2.79,1.98-7.73,9.46-9.21,10.06-1.81.74-4.2-1.24-6.24-1.46-11.21-1.21-19.15,2.56-25.74,11.66-1.39,1.92-3.2,6.7-4.14,7.49-3.28,2.76-8.03,2.44-11.41,6.91-5.34,7.07,1.94,15.06,1.5,16.17-.51,1.28-20.37,6.19-20.59,16.62-.15,7.32,16.19,2.82,21.24,1.98,41.32-6.88,80.58-22.27,121.38-31.37l-14.77-33.93c-.78-1.22-1.71-2.04-2.8-2.48l-11.48,1.12c-1.65-2.13-3.24-2.91-4.78-2.34-.12-4.61-8.32-6.81-12.5-7.44-4.1-.62-11.98-1.1-13.26,3.38Z"/>
</svg>