<?xml version="1.0" encoding="UTF-8"?>
<svg id="Layer_1" xmlns="http://www.w3.org/2000/svg" version="1.1" viewBox="0 0 160 160">
  <!-- Generator: Adobe Illustrator 29.8.3, SVG Export Plug-In . SVG Version: 2.1.1 Build 3)  -->
  <defs>
    <style>
      .st0 {
        fill: #d3974b;
      }

      .st1 {
        fill: #379a6b;
      }

      .st2 {
        fill: #48ad76;
      }
    </style>
  </defs>
  <path class="st0" d="M201.95,12.65"/>
  <path class="st2" d="M142.49,120.42c-1.7-.59-2.96-.92-3.8-1.01-.43-1.28.25-3.41.1-5.42-1.69-21.68-6.7-25.37-27.89-17.72,8.18-19.85,20.2-81.34-17.17-75.83-26.92,3.97-30.63,45.77-25.59,66.54-19.86-20.26-44.06-2.39-29.71,22.3-.41.77.46,3.29-.02,3.72-.69.62-9.75-6.82-17.76-1.98-5.41,3.27-7.55,12.79-6.38,18.7.12.6,3.92,7.17,4.47,7.6,25.95,3.67,53.57.96,80.15,1.62,13.75.34,35.62,6.93,48.03-.12,4.06-2.3,6.19-8.87,6.71-9.1-.85-5.67-5.34-9.79-11.15-9.29ZM83.03,98.12c1.18-2.06,2.43-5.85,3.37-9.94.03,2.13.13,3.79.35,4.37-1.91,1.5-3.27,8.74-3.71,14.73-.23-2.38-.24-5.41,0-9.15ZM86.99,113.45c1.98-1.46,4.33-3.48,6.02-5.09-2.45,3.02-4.46,4.71-6.02,5.09ZM94.24,107.14c.42-.45.74-.81.87-1.04l.93,1.32-1.8-.28Z"/>
  <path class="st1" d="M83.03,98.12c.44-5.62,2.36-16.98,1.84-21.2-.91-7.41-14.82-17.81-3.72-25.25-.01,6.36-1.36,14.99,5.57,18.58,3.09-8.66,1.9-21.61,9.29-27.87l-7.39,39.02c2.48-.91,4.84-3.59,6.36-5.69,2.55-3.54,3.13-9.27,6.61-11.02-.49,13.29-11.55,15.81-14.85,27.86-1.97,7.21-2.47,12.81-1.84,20.44,7.11-1.25,11.28-14.97,13.02-16.72,6.53-6.54,1.18,7.43-1.89,11.14-3.54,4.28-12.22,8.98-12.62,9.66-.88,1.51,1.16,27.01-4.09,20.06.04-13.04,2.7-26.08,3.71-39.01Z"/>
</svg>