<?xml version="1.0" encoding="UTF-8"?>
<svg id="Layer_1" xmlns="http://www.w3.org/2000/svg" version="1.1" viewBox="0 0 1190.55 457.85">
  <!-- Generator: Adobe Illustrator 29.8.3, SVG Export Plug-In . SVG Version: 2.1.1 Build 3)  -->
  <defs>
    <style>
      .st0 {
        fill: #3fb7e9;
      }

      .st1 {
        fill: #3fb5e8;
      }

      .st2 {
        fill: #40b6e9;
      }

      .st3 {
        fill: #e7b04f;
      }

      .st4 {
        fill: #3eb6e9;
      }

      .st5 {
        fill: #3db6e9;
      }
    </style>
  </defs>
  <g>
    <path class="st4" d="M770.48,341.67c6.95,7.4-2.21,21.89-8.99,26.68-25.59,18.06-62.03,2.68-71.38-26.29-11.54-35.75,6.82-59.88,6.4-91.3-.13-9.73-6.2-19.21-15.65-10.63-12.73,11.56-6.86,51.7-9.28,67.4-3.46,22.41-43.31,22.7-46.19-2.56-1.71-14.96,7.4-53.38,1.19-63.33-1.38-2.21-4.45-3.59-7.05-3.42-13.38.88-14.43,31.94-13.96,41.62.5,10.43,6.55,31.15,2.96,40-5.87,14.46-33.77,16.55-43.22,4.23-11.51-15.02-7.88-55.57-8.62-74.68-.58-15.17-10.03-41.9,10.77-47.3,16.56-4.3,22.93-.45,29.9,13.28.45.89.07,2.59,2.23,1.67,1.94-.83,6.73-7.24,9.3-9.22,14.87-11.39,32.5-15.53,48.69-3.79,3.64.73,6.96,12.67,9.44,11.69,1.71-.67,10.58-10.3,13.99-12.46,20.06-12.73,47.66-9.36,56.47,14.75,12.04,32.95-17.48,93.68,14.19,116.71,6.05,4.4,15.85,3.8,18.82,6.96h-.01Z"/>
    <path class="st2" d="M379.48,223.66c17.24-21.61,58.85-39.6,78.57-11.82,23.33,32.86-17.52,104.76,20.11,126.65,5.38,3.13,14.71,1.74,16.96,6.84,6.76,15.37-12.1,29.31-25.41,31.38-49.28,7.66-63.79-36.23-58.34-76.85,1.83-13.64,11.8-40.3,5.42-52.05-2.18-4.02-5.8-4.67-10.06-4.25-15.35,1.5-20.98,27.8-21.96,40.28-.75,9.51,2.03,20.99,1.22,28.92-2.25,22.14-39.01,25.28-48.15,2.1-6.71-17-6.8-70.25-4.66-89.22,3.09-27.43,43.01-30.03,46.29-1.98h0Z"/>
    <path class="st5" d="M962.94,245.76c-3.51-4.21.7-11.13-.68-17.2-2.88-12.71-25.87-10.56-19.98,9.42,5.57,18.89,41.58,41.62,52.68,62.34,31.69,59.14-35.36,111.93-89.12,83.83-16.55-8.65-28.47-32.28-14.09-48.17,11.94-13.19,15.9,2.8,27.41,5.77,28.12,7.28,36.08-15.04,20.14-36.01-19.08-25.1-53.96-45.63-41.9-84.44,16.46-53.01,110.64-42.61,102.09,10.87-2.6,16.27-26.91,25.14-36.54,13.59h-.01Z"/>
    <path class="st2" d="M286.57,198.86c10.45-1.61,23.19,2.38,27.77,12.58,7.34,16.36-2.27,33.36-3.6,49.92-.54,6.69-.6,17.16-.07,23.83.74,9.32,8.22,24,7.69,30.06-.81,9.32-11.55,15.87-20.2,16.83-43.57,4.83-38.87-55.9-36.35-83.95,1.03-11.43,2.9-35.14,11.24-42.97,2.87-2.7,9.65-5.7,13.52-6.3h0Z"/>
    <path class="st0" d="M507.37,198.85c25.35-4.31,32.6,12.65,30.74,34.7-1.91,22.6-9.29,38.27-3.29,62.83,2.4,9.81,9.24,15.23,3.11,25.57-3.01,5.07-10.65,9.2-16.44,10-38.6,5.34-40.11-40.96-38.88-67.96.57-12.53,2.7-35.4,5.57-47.31,2.07-8.61,10.38-16.33,19.19-17.83h0Z"/>
    <path class="st1" d="M510,131.41c22.59-4.58,44.11,13.21,33.65,36.29-11.91,26.27-56.68,18.91-54.43-12.1.73-10.06,10.94-22.2,20.79-24.19h-.01Z"/>
    <path class="st2" d="M401.04,365.37c-1.75-5.96-8.31-18.11-14.62-19.75-12.95-3.35-17.08,9.08-27.22,14.44-35.3,18.69-74.17-2.76-103.11-22.95-5.17-3.61-38.72-28.87-39.92-31.53-.47-1.03-.9-1.97-.67-3.14,13.61-33.38,20.96-69.16,24-105.06,47.88-13.47,102.72-55.22,108.08-108.09,6.51-64.32-57.5-93.86-107.91-58.99-41.41,28.65-48.91,88.29-58.01,133.94-16.39-.78-40.65-5.9-46.42-23.6-5.35-16.42,4.74-30.99,21.65-32.86,3.57-.39,10.09,3.07,11.77-3.01,5.82-21.07-15.65-41.87-34.79-46.06-32.82-7.19-60.71,15.61-67.16,47.2-11.15,54.56,33.36,94.48,84.69,99.23,7.3.68,16.25,0,23.8,0,.85,0,1.9,2.11,2.02,3.29.35,3.31-3.48,21.15-4.39,26.08-.86,4.62-7.03,33.52-8.79,34.87-2.02,1.56-17.13-5.85-20.95-7.01-28.86-8.74-58.88-8.61-82.88,11.57-31.94,26.85-29.68,81.1,4.67,104.99,33.3,23.16,76.65,15.23,106.31-9.87,3.43-2.9,17.86-20.02,19.69-19.7,42.37,43.4,85.39,99.06,153.54,92.44,36.28-3.52,67.42-39.58,56.62-76.43h0ZM273.26,71.83c9.2-5.67,21.52-3.48,22.94,8.34,3.27,27.09-25.16,57.29-48.93,66.8.69-18.65,9.51-64.98,25.99-75.14ZM116.71,335.72c-30.3,5.2-34.76-29.4-8.64-33.74,8.35-1.39,27.09,2.77,34.35,7.32,1.4.88,3.07,1.2,2.88,3.37-.66,7.49-21.03,21.74-28.6,23.04h0Z"/>
    <path class="st4" d="M887.38,288.91c-9.35-12.77-8.92-34.82-8.19-50.1.56-11.65,6.08-23.63-.71-34.88-5.39-8.93-21.6-10.21-30.11-5.19-3.21,1.9-7.27,8.71-8.27,8.95-1.21.28-9.5-4.1-12.15-4.79-63.65-16.66-102.12,86.47-53.6,119.71,24.43,16.74,55.37,6.98,71.82-15.64,5.5,25.24,46.45,26.2,52.33,1.42,3.67-15.49-5.42-11.67-11.13-19.47h.01ZM832.83,258.55c-1.36,11.35-12.7,37.53-27.57,27.85-13.84-9.01-4.55-45.88,11.48-49.21,17.51-3.64,17.76,7.39,16.09,21.36Z"/>
    <path class="st4" d="M1143.54,288.91c-9.35-12.77-8.92-34.82-8.19-50.1.56-11.65,6.08-23.63-.71-34.88-5.39-8.93-21.6-10.21-30.11-5.19-3.21,1.9-7.27,8.71-8.27,8.95-1.21.28-9.5-4.1-12.15-4.79-63.65-16.66-102.12,86.47-53.6,119.71,24.43,16.74,55.37,6.98,71.82-15.64,5.5,25.24,46.45,26.2,52.33,1.42,3.67-15.49-5.42-11.67-11.13-19.47h.01ZM1088.99,258.55c-1.36,11.35-12.7,37.53-27.57,27.85-13.84-9.01-4.55-45.88,11.48-49.21,17.51-3.64,17.76,7.39,16.09,21.36Z"/>
  </g>
  <path class="st3" d="M108.66,767.27"/>
</svg>