<?xml version="1.0" encoding="UTF-8"?>
<svg id="Layer_1" xmlns="http://www.w3.org/2000/svg" version="1.1" viewBox="0 0 84 84">
  <!-- Generator: Adobe Illustrator 29.8.3, SVG Export Plug-In . SVG Version: 2.1.1 Build 3)  -->
  <defs>
    <style>
      .st0 {
        fill: #b67b4c;
      }

      .st1 {
        fill: #b8804f;
      }

      .st2 {
        fill: #b07d4f;
      }

      .st3 {
        fill: #b2784a;
      }

      .st4 {
        fill: #ba7e4f;
      }

      .st5 {
        fill: #b48154;
      }

      .st6 {
        fill: #ba7f4f;
      }

      .st7 {
        fill: #bb7f4e;
      }

      .st8 {
        fill: #cf9b5c;
      }

      .st9 {
        fill: #b37a4a;
      }

      .st10 {
        fill: #7d4e34;
      }

      .st11 {
        fill: #b77c4b;
      }

      .st12 {
        fill: #815033;
      }

      .st13 {
        fill: #835031;
      }

      .st14 {
        fill: #edcb82;
      }

      .st15 {
        fill: #cd9d5c;
      }

      .st16 {
        fill: #835540;
      }

      .st17 {
        fill: #b97d4d;
      }

      .st18 {
        fill: #bb8454;
      }

      .st19 {
        fill: #eecd82;
      }

      .st20 {
        fill: #b67c4e;
      }

      .st21 {
        fill: #af794d;
      }

      .st22 {
        fill: #b68355;
      }

      .st23 {
        fill: #b77b4b;
      }

      .st24 {
        fill: #845334;
      }

      .st25 {
        fill: #bb814e;
      }

      .st26 {
        fill: #d09f5e;
      }

      .st27 {
        fill: #b57a4b;
      }

      .st28 {
        fill: #b97e4f;
      }

      .st29 {
        fill: #ae774c;
      }

      .st30 {
        fill: #b87c4b;
      }

      .st31 {
        fill: #b77e56;
      }

      .st32 {
        fill: #855332;
      }

      .st33 {
        fill: #b3784a;
      }

      .st34 {
        fill: #ba7f4d;
      }

      .st35 {
        fill: #b77e51;
      }

      .st36 {
        fill: #7e4d33;
      }

      .st37 {
        fill: #835134;
      }

      .st38 {
        fill: #7c4d34;
      }

      .st39 {
        fill: #b47a4d;
      }

      .st40 {
        fill: #b47b4d;
      }

      .st41 {
        fill: #b3794b;
      }

      .st42 {
        fill: #804f32;
      }

      .st43 {
        fill: #b87f4f;
      }

      .st44 {
        fill: #b97d4b;
      }

      .st45 {
        fill: #825133;
      }

      .st46 {
        fill: #b37849;
      }

      .st47 {
        fill: #ae794e;
      }

      .st48 {
        fill: #825132;
      }

      .st49 {
        fill: #bb804e;
      }

      .st50 {
        fill: #925b30;
      }

      .st51 {
        fill: #dbb168;
      }

      .st52 {
        fill: #ba8156;
      }

      .st53 {
        fill: #895638;
      }

      .st54 {
        fill: #d09e5e;
      }

      .st55 {
        fill: #b97e4d;
      }

      .st56 {
        fill: #d1a05e;
      }

      .st57 {
        fill: #d09c5c;
      }

      .st58 {
        fill: #ba7e4e;
      }

      .st59 {
        fill: #b87e4c;
      }

      .st60 {
        fill: #b97d4a;
      }

      .st61 {
        fill: #ce9c5a;
      }

      .st62 {
        fill: #b77b49;
      }

      .st63 {
        fill: #cd9b5d;
      }

      .st64 {
        fill: #8b5731;
      }

      .st65 {
        fill: #edcd84;
      }

      .st66 {
        fill: #b78050;
      }

      .st67 {
        fill: #d1a05f;
      }

      .st68 {
        fill: #b67d4c;
      }

      .st69 {
        fill: #966134;
      }

      .st70 {
        fill: #a9764b;
      }

      .st71 {
        fill: #885942;
      }

      .st72 {
        fill: #bb814f;
      }

      .st73 {
        fill: #b67a49;
      }

      .st74 {
        fill: #eece83;
      }

      .st75 {
        fill: #b27b4f;
      }

      .st76 {
        fill: #895430;
      }

      .st77 {
        fill: #eecd83;
      }

      .st78 {
        fill: #966136;
      }

      .st79 {
        fill: #b87c4a;
      }

      .st80 {
        fill: #b87d4e;
      }

      .st81 {
        fill: #7e4f35;
      }

      .st82 {
        fill: #885940;
      }

      .st83 {
        fill: #b97e4e;
      }

      .st84 {
        fill: #ab794d;
      }

      .st85 {
        fill: #b77c4c;
      }

      .st86 {
        fill: #cf9f61;
      }

      .st87 {
        fill: #b3794a;
      }

      .st88 {
        fill: #8a5537;
      }

      .st89 {
        fill: #cd9d60;
      }

      .st90 {
        fill: #edcd81;
      }

      .st91 {
        fill: #b77d4d;
      }

      .st92 {
        fill: #d19f5e;
      }

      .st93 {
        fill: #ba7e4b;
      }

      .st94 {
        fill: #7f4e32;
      }

      .st95 {
        fill: #b8a089;
      }

      .st96 {
        fill: #925b32;
      }

      .st97 {
        fill: #b87c4c;
      }

      .st98 {
        fill: #cc9b5c;
      }

      .st99 {
        fill: #edcc82;
      }

      .st100 {
        fill: #b87d4d;
      }

      .st101 {
        fill: #b87b4c;
      }

      .st102 {
        fill: #b4794b;
      }

      .st103 {
        fill: #b67b4a;
      }

      .st104 {
        fill: #cf9e5d;
      }

      .st105 {
        fill: #7f4f33;
      }

      .st106 {
        fill: #b87e4d;
      }

      .st107 {
        fill: #cd9c5e;
      }

      .st108 {
        fill: #b47d4e;
      }

      .st109 {
        fill: #815134;
      }

      .st110 {
        fill: #b98051;
      }

      .st111 {
        fill: #83553e;
      }

      .st112 {
        fill: #825134;
      }

      .st113 {
        fill: #b37b4d;
      }

      .st114 {
        fill: #edcd83;
      }

      .st115 {
        fill: #b77d4e;
      }

      .st116 {
        fill: #b87d4b;
      }

      .st117 {
        fill: #7f4f32;
      }

      .st118 {
        fill: #bd814f;
      }

      .st119 {
        fill: #d09e59;
      }

      .st120 {
        fill: #cf9e5f;
      }

      .st121 {
        fill: #b07949;
      }

      .st122 {
        fill: #ae774a;
      }

      .st123 {
        fill: #b5794b;
      }

      .st124 {
        fill: #8e5933;
      }

      .st125 {
        fill: #d3a15f;
      }

      .st126 {
        fill: #b67a4b;
      }

      .st127 {
        fill: #b37f52;
      }

      .st128 {
        fill: #cf9c5e;
      }

      .st129 {
        fill: #825238;
      }

      .st130 {
        fill: #84543d;
      }

      .st131 {
        fill: #b87d4c;
      }

      .st132 {
        fill: #825031;
      }

      .st133 {
        fill: #d29f5d;
      }

      .st134 {
        fill: #b87d47;
      }

      .st135 {
        fill: #927e70;
      }

      .st136 {
        fill: #8c562f;
      }

      .st137 {
        fill: #845234;
      }

      .st138 {
        fill: #875431;
      }

      .st139 {
        fill: #b47b4a;
      }

      .st140 {
        fill: #b87e53;
      }

      .st141 {
        fill: #deb165;
      }
    </style>
  </defs>
  <path class="st128" d="M19.63,51.42s.06.05.07.09c.06.14-1.25.98-1.47,1.11h-.18c.09.06.14.15.16.26.33.15.41.3.24.44-.94.25-1.18.75-2.39.62-.25-.03-.65-.22-.84-.23-.07-.02-3.38-2.33-3.31-2.36l.16-.47c.35-.19,3.93,2.12,4.25,1.89.22,0,.44.02.65-.02.58-.11,2.08-.99,2.66-1.32Z"/>
  <g>
    <path class="st114" d="M83.13,39.29l-.11.39c-.62.45-1.11.97-1.47,1.57,0,.25.02.49.08.73.44.57.88.82,1.02,1.58.2.92-.17,1.32-.81,1.92-1.51,1.43-3.81,3-5.91,2.04l.02-.18c-.06-.21.14-.3.32-.24.04-.28-.02-.4-.18-.36l-3.09-1.82c-.2,0-.4.07-.58.21l-.17-.07h-.18c-.08-.71-.51-1-1.1-1.33-1.05-.5-2.02-1.13-2.91-1.88l-.07-.19c-.3-.13-.14-.72-.04-1,.19-.5,2.12-1.54,2.67-1.81l.21.05c-.03-.06-.05-.15,0-.19.54-.47.58-.62-.02-1.13l-1.11-.67c-.51-.29-.72-.66-.6-1.24-.3-.43.79-1.15,1.18-1.02-.05-.23.04-.29.24-.16.07-.41.7-.64,1.1-.63,1.23-.45,2.07.12,3.22.37,1.4.3,2.75.23,4.09.88.87.42,2.9,2,3.61,2.69.61.59.56.68.59,1.5Z"/>
    <path class="st114" d="M12.69,33.94c.3-.11.93.24.95.55.21-.08.36-.1.32.16.4-.12,1.38.72,1.1,1.1.11.62-.13.8-.58,1.15l-1.17.73c-.45.3-.57.8,0,1.06l.03.21.17-.07c.44.21,2.72,1.53,2.69,1.96l-.11.16.08.24c.24.05.21.31,0,.39-.24.5-.66.9-1.27,1.18-.95.48-1.84,1.05-2.67,1.7-.11.32-.27.49-.47.5-.1.1-.25.08-.46-.07-1.11.52-2.18,1.14-3.21,1.88-.3-.15-.28.29-.09.33l-.1.06c.16-.15.46.02.39.24-.42.48-1.45.44-2.07.34-1.37-.22-3.52-1.68-4.36-2.78-.26-.34-.42-.57-.43-1.02.06-.98.44-1.19,1.02-1.89l-.04-.18c.41-.27.17-.87-.13-1.16l-.9-.81c-.42-.33-.44-.83-.35-1.32.11-.37.35-.57.63-.83.96-.88,3-2.49,4.18-2.91s2.31-.39,3.48-.62,2.1-.82,3.37-.29Z"/>
    <path class="st65" d="M51.77,19.84c.38,1.69-.71,2.29-2,2.99-.28.23-.53.31-.76.24-.34.47-1.18.61-1.76.67-1.36.14-2.47-.31-3.67-.88-.8-.35-1.67-.34-2.5-.1l-2.39.88c-1.16.46-2.26.28-3.39-.01l-.08-.16c-.25-.03-.16-.19,0-.32h-.2c-1.06-.62-2.13-1.24-3.22-1.83-.04-.08-.01-.59.04-.77.07-1.23,1.59-2.06,2.54-2.7,3.67-2.44,6.89-3.19,11.23-1.97,1.8.5,6,1.77,6.16,3.96Z"/>
    <path class="st14" d="M49.57,59.77c.23-.17,1.02.29.95.55.2-.13.51.09.39.32.42.35.8.71.95,1.26.1.61.02,1.1-.52,1.48-1.52.99-3.14,1.79-4.88,2.42-2.09,1.29-4.18,2.5-6.56,1.06-1.3-.78-2.64-1.45-4.11-1.89-1.25-.52-2.47-1.16-3.42-2.13l-.12-.37c.02-.33-.05-.44.16-.75.27-.39.78-.56,1.18-.75-.03-.28.19-.25.39-.16.24-.39.74-.52,1.18-.47l.13-.21c1.24-.54,2.48-.55,3.71.04l1.76.91c1.26.75,2.56.34,3.7-.47,1.54-1.22,3.04-2.19,5-1.07l.13.24Z"/>
    <path class="st99" d="M28.84,53.86c.29-.1.94.24.95.55.19-.13.4.02.32.24.22-.15.74.24.95.41.39.31,1.08.97.62,1.4l-.16.22c-.99.6-1.96,1.22-2.89,1.85l-.19-.02c-.16.46-.99.73-1.47.81-1.43.24-4.12-1.75-5.27-2.63l-.11-.38c.07-.91.79-1.19,1.5-1.65-.02-.27.16-.31.39-.24.02-.3.51-.59.79-.47.08-.34.77-.64,1.12-.79.89-.38,1.52-.45,2.42-.07.33.14.96.46,1.03.78Z"/>
    <path class="st99" d="M59.57,53.94c.41,0,.77.17.95.55.34-.1.56.13.71.39.32.2,1.19.63,1.26.99.03.15,0,.35,0,.51l-.1.3c-.96.73-2.04,1.41-3.11,1.95-.8.41-1.61.76-2.53.53-.38-.1-.94-.26-1.04-.65l-.15.04c-.93-.66-1.91-1.28-2.94-1.88l-.14-.21c-.47-.4.12-1.05.5-1.36.2-.16.71-.53.92-.38-.09-.22.11-.34.32-.24.04-.33.71-.64,1.02-.55l.02-.19c1.06-.74,2.03-1.16,3.28-.6.32.14.96.49,1.04.8Z"/>
    <path class="st77" d="M28.77,24.72c.2-.17.84.3.79.55.23-.1.34-.05.32.16.28-.13,1.14.49,1.3.72.18.26.38.7.11.93l.11.22c-.21.08-.4.24-.56.46l-2.19,1.31-.27-.02c-.27.51-1.29.83-1.88.84-.51.01-1.43-.16-1.59-.68-.07-.02-.07-.04,0-.08-1.08-.52-2.18-1.17-3.21-1.82-.22-.14-.28-.37-.17-.7.05-.14.03-.33.16-.47.03-.28.25-.26.67.05l3.21-1.87.13-.22c-.25.11-.39-.07-.16-.24.22,0,.58-.16.83-.16.75,0,1.75.64,2.4,1.02Z"/>
    <path class="st77" d="M58.63,23.86c.15.16.05.28-.16.24.05.13.14.23.25.31l3.04,1.75c.3-.13.55-.16.73-.09.04.14.11.26.16.39.03.22.06.46.02.68-.12.22-2.69,1.73-3.11,1.86-.1.03-.2.05-.3.06-.25.79-1.5.83-2.19.66-.41-.1-1.14-.36-1.28-.74-.08,0-.16,0-.24-.01-.37-.06-2.37-1.32-2.77-1.65-.02-.02-.04-.05-.03-.08.06-.19.11-.39.12-.63-.24-.2.07-.53.24-.71.19-.19.79-.61,1.02-.47-.08-.24.1-.33.32-.24.05-.33.63-.64.95-.55,1.03-.62,1.94-1.4,3.23-.79Z"/>
    <path class="st61" d="M32.23,62.45c.8.97,2.06,1.68,3.2,2.19.74.34,1.54.54,2.29.86,1.74.75,2.9,2.01,4.95,1.83,1.36-.12,2.59-1.16,3.79-1.72s5.01-1.83,5.35-3.16c.05-.18.04-.37.03-.56.12.43.14,1.35.03,1.8-.38,1.45-3.98,2.57-5.25,3.18-1.71.82-2.99,2.01-5.05,1.8-1.05-.11-2.2-1.05-3.14-1.51-1.89-.94-3.94-1.28-5.61-2.74-.75-.66-.64-.99-.59-1.97Z"/>
    <path class="st19" d="M18.29,48.43c.27-.13.95.26.95.55.21-.09.41.01.32.24.27-.16.93.39,1.11.63s.43.75.07.87c-.14.37-.71.76-1.1.71-.69.48-1.44.95-2.19,1.33-.31.13-.94.33-1.12,0-.07-.02-.07-.05,0-.08-1.1-.6-2.2-1.22-3.29-1.87h-.14c-.45.33-.73.35-.83.06-.06-.17-.06-.36,0-.55.03-.09.03-.17.09-.26.16-.25.89-.75,1.17-.92-.08-.24.11-.24.32-.16,0-.34.69-.59,1.02-.55.16-.38.88-.62,1.3-.72.37-.09.72-.09,1.08.01.41.11,1.09.33,1.25.71Z"/>
    <path class="st90" d="M69.5,48.43c.38-.04,1.03.26,1.1.63.19-.13.28-.07.24.16.55.34,1.16.53,1.26,1.26-.04.68-.2.66-.79.34l-.27-.02c-1.03.58-2.03,1.19-3,1.82h-.2c0,.59-1.06.24-1.42.05-.99-.63-1.96-1.28-2.91-1.95-.03.07-.05.07-.08,0-.36-.11-.11-.63.06-.87.16-.21.71-.62.96-.72l.16.09c.04-.25.15-.32.39-.24.01-.31.65-.66.95-.55.14-.38.82-.61,1.21-.72.36-.1.7-.1,1.06,0,.41.11,1.12.35,1.27.73Z"/>
    <path class="st104" d="M74.54,48.27c-.22-.15-.08-.32.42-.53.09-.29.26-.39.53-.3.18-.14.34-.17.47-.11.33.28,1.11.33,1.54.31,1.69-.06,3.86-1.71,4.89-2.99.32-.4.31-.59.28-1.1.11.57.18,1.7-.09,2.23-.3.6-2.45,2.34-3.09,2.66-1.61.82-3.37.63-4.94-.17Z"/>
    <path class="st67" d="M8.28,47.4c.17-.15.47.05.63.16.13-.08.16-.06.08.08.04,0,.07,0,.11.01.05.01.84.59.44.62-1.58.94-3.44.9-5.04.04-.64-.35-1.5-1.07-2.05-1.58-1.06-.98-1.11-1.33-1.02-2.8.37.99,1.38,1.77,2.21,2.39,1.43,1.07,2.83,1.67,4.64,1.07Z"/>
    <path class="st120" d="M54.45,59.22c-.28.06-.28-.24,0-.16l.21-.06c.39.3.88-.13,1.05-.49,1.71,1.18,3.01.27,4.54-.62.78-.45,1.57-.9,2.23-1.51.02.63.12,1.25-.36,1.73-.44.44-3.67,2.22-4.25,2.29-.68.07-1.23,0-1.84-.29-.29-.14-1.41-.9-1.59-.9Z"/>
    <path class="st37" d="M22.46,30.47c.02-.07.05-.07.08,0l.18.16c-.66,1.38-1.51,1-2.5.32-.4.26-.8.47-1.23.63-.38.12-3.39,1.79-3.27,1.94.06.07.57.28.66.27l3.03-1.87.21.06c.33-.06.3.43.15.65-.05.07-.81.59-.94.45.01.19-.18.34-.58.46l.9.63c.12.27-.19.54-.4.33l-.19.05c-.31-.21-.63-.4-.95-.58l-.95.6c-.51.09-.98-.11-1.42-.6l-1.06.73-.22-.04c-.07-.04-.21-.1-.32-.16l-.02-.18.98-.73c-.31-.13-.49-.3-.56-.51.23-.4-.07-.09-.32-.19-.33-.13-.96-.51-.63-.91.29.18.61.28.95.3l2.94-1.85.2.06c.09.1.07.23.16.32l-.04.19c-.98.55-1.93,1.15-2.85,1.79.56.45.84.28,1.4-.13.75-.54,1.53-1.02,2.34-1.43.27.08,1.35-.55,1.4-.67.02-.04-.48-.26-.56-.28l-.04-.19c-.33-.21-1.11-.65-.71-1.1l.23-.04,3.05,1.9c.26-.21.56-.33.89-.36Z"/>
    <path class="st54" d="M28.45,58.51c.16.36.39.53.77.6l.09.19c.14-.06.17-.05.08.08-.63.23-1.36.93-2.04,1.07-1.41.29-2.6-.6-3.76-1.29-.62-.37-1.83-.9-1.98-1.65-.06-.28-.04-.9-.02-1.2.28.4.64.63,1.03.9.82.56,3.07,1.97,3.99,1.98.63,0,1.32-.34,1.84-.68Z"/>
    <path class="st140" d="M24.75,62.45c.09.24-.18.77-.42.81-1.12-.22-2.22-.49-3.32-.82.19.06.28.16.27.32.23.11,1.06.55,1.18.71.12.34-.57.7-.84.66l-3.54-2.19c-.07-.05-.05-.13-.04-.21.1-.1.67-.4.82-.39.2.01.72.48.83.39.05-.04.03-.56.35-.48l4.69,1.19Z"/>
    <path class="st12" d="M68.63,30.87l-.19.28-2.63,1.66c.49.29.7.28,1.18,0l1.92-1.23c.3-.25.6-.36.9-.32.09.17.11.18-.08.36l.08.04-.23.31-2.29,1.48c-.11.1.44.42.63.29l2.92-1.85.16.08c.43.73-.53.68-.71,1.18-.22.15-.46.31-.72.46l.64.35c.35.18.46.35.32.53-.08.05-.16.11-.24.16l-.22.03-1.09-.72-.89.56c-.56.16-1.05-.07-1.49-.7l-1.03.68h-.18c-.16.25-.67-.1-.42-.37l.91-.63c-.26-.1-.45-.27-.57-.5-.48.17-1.58-.8-.87-1.02l.15-.07c.21.18.45.33.7.44l3.04-1.92.21.06c.13.2,0,.22.08.39Z"/>
    <path class="st105" d="M63.35,27.48c.17.2-.04.45.24.39l-.12.22c-.25.12-2.85,1.57-2.77,1.71.06.09.7.4.83.14l2.71-1.64c.14-.08.26-.11.36.04.03.14-.05.26-.16.36l.08.04c-.76.68-1.6,1.27-2.53,1.77l.52.31,3.14-1.91.2.06c.4.46-.38.89-.71,1.1.04.06.04.12,0,.18l-.61.31.89.51c.36.23-.09.71-.37.51-.38-.16-.75-.37-1.1-.62l-.25.11c-.87.72-1.66.75-2.28-.32-.45.02-1-.22-1.16-.66l-.17-.09c-.42.07-1.38-.45-.87-.87.19-.14.43-.08.72.2,1.07-.48,2.1-1.07,3.09-1.77l.29-.09Z"/>
    <path class="st138" d="M72.1,45.2l.18-.07,3.1,1.86c.71-.37,1.01-.33.9.1-.1.17-.19.15-.32.24-.27.18-.48.41-.79.16.07.41-.3.47-.58.63-.08.04-.05.15-.05.16-.03.02-.49,0-.61.1-.03.03-.02.18-.1.25-.06.06-.78.49-.84.5-.29.05-.92-.51-1.16-.51-.13,0-.85.46-.99.6-.08-.05-.16-.11-.24-.16-.14-.08-.15-.16-.03-.27l.69-.45-.71-.37-.02-.17c-.3.07-1.09-.5-1.14-.79-.04-.22.04-.48.28-.39l.18-.07,3.07,1.92c.11.06.75-.25.72-.27l-2.34-1.41c-.19-.12-.53-.33-.52-.57-.15-.17-.08-.35.16-.32l.2-.06,2.85,1.79c.29.15.58-.03.82-.19l-2.62-1.69c-.14-.1-.19-.18-.07-.32-.23-.05-.22-.16,0-.24Z"/>
    <path class="st42" d="M62.01,50.95c1.08.57,2.15,1.19,3.2,1.87l.22-.09c.41-.33.77-.33.59.26.17.21-.19.35-.39.24-.08.04-.3.15-.36.16-.1,0-.33-.11-.35-.08-.01.01.02.23-.07.36-.15.22-.95.6-1.19.27.18.42-.45.82-.79.91-.69.19-1.07-.88-1.81-.28-.06.05.28.12.16.31-.24-.15-.48-.26-.71-.39,0-.17.15-.3.44-.4l-.75-.37v-.18c-.19.09-.79-.33-.88-.48-.13-.22-.16-.58.16-.54.1-.04.2-.04.31-.02.99.68,2.01,1.29,3.04,1.81l.5-.28c-.89-.6-1.8-1.17-2.73-1.72l.06-.18c-.25-.14-.22-.41.08-.39l.16-.08,3.07,1.9c.15.01.65-.2.57-.3l-2.71-1.73v-.18c-.14-.16-.09-.44.16-.39Z"/>
    <path class="st112" d="M53.19,21.97l.03.16-2.93,1.74c.22.08.43.18.61.3,1.13-.57,2.23-1.2,3.31-1.89.12.16.09.28.08.47.14.12.04.21-.09.3l-2.52,1.54.53.34c1.06-.64,2.12-1.27,3.19-1.87l.15.08c.09.17.14.28.04.47-.02.05-.74.58-.83.63l-.05.17c-.74.19-.83.38-.27.58v.19c-.09.06-.19.16-.31.24h-.19c-.18-.22-.4-.38-.67-.2-.76.7-1.69.57-2.13-.38-.44-.02-1.2-.2-1.27-.69-.09.03-.16,0-.23-.08-.36.06-1.16-.48-.71-.79.14-.14.39-.08.76.17,1.13-.63,2.24-1.26,3.34-1.9.13.13.03.29.16.39Z"/>
    <path class="st80" d="M17.34,30.79c.3-.14.4.03.63-.03s.77-.55,1.02-.68c.11.07.92.3.75.55-.03.05-.95.62-1.01.65-.18.07-.37.03-.53.1-1.01.44-2,1.32-3,1.81-.17.15-1.02-.34-1.02-.4.19-.19.41-.33.63-.47.67-.43,1.85-1.24,2.52-1.54Z"/>
    <path class="st100" d="M68.55,30.47l-3.2,2.03c-.14.02-.77-.38-.89-.53-.11-.27.42-.54.63-.39.07-.05.43-.25.39-.31l-1.18-.67c.1-.22.68-.39.87-.51.26.1.97.75,1.16.78.13.02,1.2-.82,1.48-.82.11,0,.67.33.75.44Z"/>
    <path class="st117" d="M13.32,46.3l.04.16-2.72,1.75c.18.15.41.31.65.26l3-1.92.21.06c.07-.01.16-.02.2.03.43.46-.63,1.11-.99,1.23-.23.16-.47.32-.72.49l.66.43-.02.19c-.12.07-.24.11-.32.16-.27-.08-.73-.56-.99-.55s-.78.6-1.16.53c-.09-.02-.77-.41-.83-.48-.07-.08-.07-.25-.11-.28-.08-.06-.6-.04-.7-.09,0,0,.01-.12-.06-.16-.33-.19-.44-.12-.5-.47.17-.22.46-.19.86.08h.21s2.98-1.87,2.98-1.87c.08-.02.14,0,.2.06.28-.08.29.26.08.39Z"/>
    <path class="st38" d="M29.87,22.28c1.09.57,2.16,1.19,3.22,1.87.23.03.46-.05.7-.24l.18.1c.22.03.23.18.08.32-.1.31-.66.57-.99.52-.49.97-1.41,1.08-2.2.38-.3-.19-.57,0-.79.22l-.2-.02c-.1-.06-.22-.1-.32-.16-.01-.19.15-.36.48-.5-.27-.17-.51-.34-.72-.52-.04-.32-.62-.35-.75-.63-.07-.16-.09-.42.04-.55l.23-.05,3.16,1.89.51-.3-2.68-1.58c-.12-.08-.13-.14-.04-.27,0-.19-.05-.32.08-.47Z"/>
    <path class="st132" d="M33.81,57.72c.23-.01.18.17.08.32.05.05.06.1.04.16l-2.79,1.71c.39.43.7.35,1.15.03.88-.59,1.78-1.11,2.71-1.59.31-.1.3.48.19.69-.06.12-.91.77-1.06.57v.18s-.76.34-.76.34l.61.47v.19c-.14.06-.29.1-.4.16-.18-.18-.58-.55-.83-.56-.32,0-.65.41-.89.46-.21.04-1.28-.52-1.04-.93-.45.18-1.22-.07-1.18-.63l.14-.13c.23.17.46.27.69.29l3.18-1.82.16.09Z"/>
    <path class="st31" d="M67.61,61.89c0,.14-.06.26-.17.35-.98.87-1.97,1.73-2.97,2.58-.25.16-.87-.08-1.04-.33.02-.2.25-.37.39-.51.83-.81,1.84-1.47,2.65-2.31.23-.21.98.05,1.13.23Z"/>
    <path class="st13" d="M54.45,59.22c.04.61-.57.89-1.1.71.17.47-.76.93-1.1.83-.47-.13-1.01-.93-1.34-.12-.12-.1-.27-.23-.39-.32l-.04-.16c.29-.12.1-.29-.56-.51l-.03-.2c-.12.23-.9-.43-.96-.55-.12-.23-.05-.64.25-.55l.18-.07,3.13,1.9c.66-.18.67-.39.05-.65l-2.03-1.17c-.14-.08-.24-.15-.16-.33-.25-.14-.24-.51.08-.47,1.05.63,2.12,1.26,3.21,1.9.22-.05.44-.17.65-.36l.15.12Z"/>
    <path class="st52" d="M65.09,60.95c.04.11,0,.21-.14.31-.22.26-2.77,2.56-2.96,2.62-.28.08-.91-.1-1-.4.14-.48,2.71-2.32,3.15-2.88.13-.06.84.23.94.36Z"/>
    <path class="st35" d="M8.91,29.61l-.32.26c-.29.11-4.02,1.41-4.4,1.3-.21-.06-.49-.47-.49-.69l4.63-1.48c.22-.03.49.42.57.62Z"/>
    <path class="st28" d="M5.52,27.79c.07.1,0,.16-.08.22l-3.65,2.04c-.26.04-1.01-.34-.84-.69l3.6-2.03c.28-.08.83.23.97.46Z"/>
    <path class="st134" d="M51.77,19.84c.2.22,0,1.41.08,1.5.2.01.28-.18.49-.14.07.01.64.33.69.38,0,.17-.11.21-.23.29-.9.62-2.01,1.11-2.92,1.73-.42.19-.57-.27-.95-.28-.14-.04-.11-.11.08-.24.47-.22,2.18-1.24,2.44-1.61.34-.48.36-1.05.31-1.62Z"/>
    <path class="st34" d="M33.81,57.72l-3.23,1.85c-.36.2-.67-.26-.95-.28-.09,0-.16.05-.24.08-.01-.03-.04-.07-.08-.08.03-.06.06-.12.1-.18.2-.28,2.29-1.54,2.75-1.76.05-.03.12-.03.18-.04s.14,0,.21,0c.05-.23.12-.29.35-.3s1.12.41.91.7Z"/>
    <path class="st58" d="M30.97,21.97c.07-.01.13-.02.2-.02.3.02,2.56,1.46,2.72,1.73.03.06.06.12.08.18.06.06.06.11,0,.16-.33.09-.57.43-.95.28-.98-.6-1.98-1.17-2.96-1.78-.1-.06-.23-.07-.19-.24.04-.05.72-.45.76-.46.1-.02.24.09.34.14Z"/>
    <path class="st116" d="M16.32,52.68c-.17.29-.64.58-.99.51l-3.24-1.87-.03-.14s0-.11,0-.16c-.03-.05-.04-.1,0-.16.37.24.66-.32,1.03-.2l3.1,1.79c.11.05.11.12.13.23Z"/>
    <path class="st91" d="M20.65,27.87c.25-.07.46.06.67.19l2.72,1.62.08.15c.17.13.12.21-.08.24-.17.15-.31.06-.32-.16-.25.21-.53.36-.83.45-.48-.18-3.26-1.75-3.35-1.99-.01-.03,0-.07,0-.11.07-.12.66-.49.78-.51s.22.07.32.12Z"/>
    <path class="st46" d="M69.81,31.26c-1,.47-1.9,1.23-2.86,1.75-.7.37-.66.13-1.35-.09v-.16c.99-.58,2.02-1.36,3.03-1.89.12-.06.26-.18.41-.14.13.03.69.4.77.54Z"/>
    <path class="st97" d="M55.55,23.15c-.48.15-3.12,1.98-3.34,1.96-.16-.01-.64-.43-.84-.5.87-.59,1.79-1.11,2.69-1.64.11-.06.18-.18.22-.21.12-.07.35-.18.49-.15.15.03.69.39.77.54Z"/>
    <path class="st131" d="M54.21,22.28c.01.19-.12.2-.23.28-.58.4-1.33.84-1.95,1.2-.27.16-.97.62-1.23.57-.05-.01-.05-.12-.12-.15-.2-.08-.56-.05-.57-.4l3.07-1.81c.24-.23.89.12,1.02.32Z"/>
    <path class="st103" d="M31.84,20.55c0,.14-.03.53.02.61.4.29,3.31,1.75,3.37,1.98-.14.34-.61.67-.99.59l-3.18-1.9v-.18c.17-.27.64-.34.7-.4.08-.09-.08-.55.09-.7Z"/>
    <path class="st101" d="M24.67,52.52c.04.07.05.15-.02.2l-3.16,1.89c-.38.08-.82-.2-1-.51v-.08l.06-.2c.92-.56,1.82-1.14,2.72-1.75l.21.06c-.09-.18.11-.27.28-.29.22-.03,1.07.42.9.68Z"/>
    <path class="st103" d="M64.61,28.35c-.21.04-.39.15-.58.25-.43.25-2.5,1.63-2.77,1.63-.08,0-.65-.29-.75-.35-.12-.08-.07-.07,0-.16.1-.13.66-.45.85-.57.67-.43,1.49-1,2.23-1.28.31-.12.98.2,1.02.47Z"/>
    <path class="st3" d="M65.88,28.98l-3.33,2.04-.84-.5c.95-.58,1.89-1.19,2.83-1.77.16-.1.3-.25.51-.24.1,0,.76.39.83.47Z"/>
    <path class="st27" d="M19.47,28.66c.06-.01.13-.02.19-.02.32.01,2.18,1.23,2.6,1.53l.2.3s-.06.11-.13.14c-.26.13-.51.26-.77.4l-3.28-2.04c.05-.06.7-.45.77-.46.23-.04.26.07.41.15Z"/>
    <path class="st102" d="M71,31.97l-3.02,1.91c-.41.2-.73-.25-1.08-.37.97-.6,1.92-1.31,2.91-1.85.41-.22.94-.1,1.18.32Z"/>
    <path class="st40" d="M59.65,23.7c.86.46,2.2,1.53,3.07,1.81v.08c-.17.32-.7.55-1.07.51-.17-.02-2.72-1.52-2.96-1.71-.17-.07-.25-.17-.23-.3.02-.05.13-.21.16-.24.32-.25.67-.35,1.02-.16Z"/>
    <path class="st23" d="M23.41,51.81l-.24.29c-.96.54-1.91,1.11-2.84,1.7-.35.17-.98-.15-1.09-.5v-.08l.11-.22c.78-.46,1.54-.96,2.28-1.48.23-.2.46-.26.69-.19.07-.46,1.35.06,1.1.47Z"/>
    <path class="st41" d="M29.79,22.75s.06.1.13.14c.94.56,1.91,1.07,2.83,1.67.08.11-.64.43-.73.54l-3.41-2.04c.06-.06.76-.45.84-.45.11,0,.25.09.34.14Z"/>
    <path class="st139" d="M62.65,26.46c.07.19.13.62.18.69s.43.22.53.34c.05.2-.11.16-.21.22-.35.22-.7.46-1.06.68-.33.2-1.88,1.18-2.12,1.12-.19-.05-.44-.37-.71-.36-.04-.02-.04-.05,0-.08,1.04-.66,2.12-1.26,3.18-1.9.2-.16.21-.46.21-.7Z"/>
    <path class="st123" d="M17.18,30.47l-3.07,1.93c-.27.09-.95-.08-1.03-.44l3.23-1.94c.17-.05.75.31.87.44Z"/>
    <path class="st139" d="M24.91,29.13c-.22.28-.71.57-1.09.42l-3.09-1.82v-.18c.11-.13.5-.26.59-.4.03-.05.17-.44.2-.55.01.13.03.3.09.42.17.29,2.41,1.42,2.89,1.76.13.09.35.19.4.35Z"/>
    <path class="st20" d="M25.54,23.86c-.04.12.15.2.16.24,0,.08-.05.16-.11.21l-3.07,1.79c-.29.05-.89-.23-.99-.5.02-.08.1-.14.16-.19.61-.5,1.89-1.11,2.63-1.55.07-.04.11-.13.13-.14.63-.36.63.16,1.1.16Z"/>
    <path class="st57" d="M63.51,50.71c.56.13,2.2,1.5,3.02,1.83.35.14.8.3,1.18.22.07-.02.09-.11.14-.16-.12.37,3.88-2.48,4.19-2.39.14.04.22,1.4.24,1.42.03.02-3.35,2.03-3.33,2.07-1.18.44-2.3.26-3.31-.47.05-.03.38-.22.39-.24.08-.24.1-.44-.16-.43l-2.23-1.36c-.14-.13-.31-.34-.13-.49Z"/>
    <path class="st107" d="M2.45,42.05l-1.22-1.18c-.09-.11-.2-.26-.24-.39-.1-.39-.07-1.51.04-1.89-.31,1.4,2.02,1.73,1.72,3.09-.06.24-.2.25-.3.37Z"/>
    <path class="st36" d="M24.67,52.52c.75.36-.37,1-.79,1.1-.22.17-.47.32-.73.45.28.07.39.18.34.34-.13.08-.27.15-.39.24-.14-.11-.4-.33-.57-.31-.23.03-.89.62-1.11.6-.18-.01-1.1-.54-.92-.85.34.04.59.46.95.36l3.23-1.94Z"/>
    <path class="st63" d="M81.63,41.97s-.11-.06-.15-.12c-.56-1.1,1.16-1.77,1.64-2.55.01.34.05,1.05-.04,1.34-.13.39-1.08,1.11-1.45,1.34Z"/>
    <path class="st71" d="M3.71,30.47c.15.2.27.55.57.54.4-.02,1.48-.38,1.93-.52.91-.27,1.79-.63,2.7-.89.06.14.19.26-.05.38l-4.57,1.41c-.2,0-.56-.59-.62-.77-.05-.15-.01-.09.05-.16Z"/>
    <path class="st36" d="M23.41,51.81c.23-.01.18.17.08.32-.9.46-2.14,1.54-2.99,1.89-.02,0-.41.08-.43.08-.26,0-1.02-.44-.83-.79.35.12.62.51,1.03.36,1.05-.62,2.05-1.34,3.15-1.86Z"/>
    <path class="st12" d="M23.72,29.92c.06.03.13.09.14.15.04.27-1.24,1.11-1.33.4-.02,0-.07,0-.08,0-.99-.56-1.99-1.29-2.99-1.81l.06-.05c-.04-.19-.07-.2.02-.35l3.23,1.94c.27.07.65-.33.84-.35.07,0,.09.06.1.06Z"/>
    <path class="st48" d="M22.15,51.03c.11.06.16.16.16.32-1.01.42-2.03,1.46-3.07,1.89-.48.2-.46,0-.79.08-.04-.33-.53-.14-.39-.71.18-.11.41-.05.7.18l.2.03,3.04-1.87.16.08Z"/>
    <path class="st111" d="M.95,29.37c-.03.22.7.56.81.54l3.76-2.12c.09.14.15.19,0,.36l-3.68,2.07c-.37,0-1.3-.39-.89-.85Z"/>
    <path class="st95" d="M27.39,65.13"/>
    <path class="st95" d="M25.54,64.34c.43-.58.84-.55,1.39-.17"/>
    <path class="st88" d="M24.75,62.45c.22.12-.17.91-.44.95l-3.03-.63c-.19-.09-.37-.19-.57-.26-.38-.12-1.15-.08-1.24-.53.22-.19,4.7,1.31,4.96,1.15.11-.06.34-.51.32-.67Z"/>
    <path class="st96" d="M35.23,23.15c.02.08-.02.22,0,.32.04.04.09.1.08.15-.02.22-1.31.88-1.34.24-.95-.65-1.96-1.38-2.99-1.89-.03-.15,0-.2.08-.32l3.23,1.94c.38.1.6-.36.95-.44Z"/>
    <path class="st64" d="M24.91,29.13s0,.05,0,.08c.39.37-.48.84-.79.63-.16.03-.25-.07-.37-.14-1.02-.6-2.04-1.32-3.09-1.83-.02-.15-.02-.2.08-.32l3.15,1.85c.4.17.63-.31,1.03-.28Z"/>
    <path class="st1" d="M13.64,34.49c-.25-.15-.71-.45-.95-.55.26-.1,1.18-.85,1.34-.87.11-.01.7.43.87.51l-1.26.91Z"/>
    <path class="st69" d="M62.72,25.59c.05.22-.05.36-.24.47-.13.08-.65.29-.76.26l-3.09-1.8c-.21-.17-.28-.18-.16-.43l3.23,1.86c.34.08.68-.32,1.02-.36Z"/>
    <path class="st66" d="M70.29,33.15c.41.17.83.73,1.34.71-.37.14-.76.43-1.1.63-.05-.23-.47-.43-.67-.55-.13-.08-.5-.21-.51-.24-.09-.12.65-.67.95-.55Z"/>
    <path class="st78" d="M25.69,24.09c.02.07.03.26-.05.32l-3.26,1.92c-.22.06-.47-.39-.71-.2.04-.13-.15-.22-.16-.24-.01-.04-.01-.27,0-.32.28.01.71.43.95.36l3.23-1.86Z"/>
    <path class="st130" d="M18.05,61.74l3.6,2.27c.14.03.8-.3.81-.54.34.43-.47.71-.79.83l-3.62-2.13c-.12-.13-.13-.3,0-.43Z"/>
    <path class="st82" d="M65.09,60.95c.14.17.1.24-.03.4l-3.06,2.69c-.16.1-.83-.15-.95-.25-.08-.06-.07-.25-.05-.32.31.08.76.39,1.05.23l3.05-2.75Z"/>
    <path class="st50" d="M16.32,52.68s0,.05,0,.08c0,.06.01.13-.01.18-.03.06-.76.49-.83.51s-.12-.03-.18-.06c-.24-.13-.51-.39-.76-.54-.87-.51-1.76-.99-2.62-1.51.05-.01.14.02.16,0,.02-.02,0-.11,0-.16l3.31,1.86c.36.1.6-.32.94-.36Z"/>
    <path class="st16" d="M63.43,64.49c.35.04.66.36,1.02.2,1.03-.95,2.19-1.78,3.15-2.79.14.15.1.26-.04.4l-3.12,2.71c-.31.06-1.05-.13-1.02-.51Z"/>
    <path class="st122" d="M29.55,25.27c-.25-.16-.57-.42-.79-.55.14-.13.4-.39.55-.47.21-.11.78.39,1.02.51l-.79.51Z"/>
    <path class="st121" d="M54.77,24.25l.63.39c-.3.18-.66.37-.95.55l-.71-.43c.2-.18.44-.3.68-.42.12-.07.3-.06.34-.09Z"/>
    <path class="st135" d="M25.54,64.34"/>
    <path class="st50" d="M12.06,50.87c0,.05,0,.11,0,.16-.19-.21-.06-.49,0-.71,0,.18,0,.37,0,.55Z"/>
    <path class="st133" d="M72.26,45.04c.11.18.03.24-.16.16-.02.06.01.17,0,.24-.1.2-.48.17-.47-.08-.74-.42-3.01-1.63-3.43-2.2-.3-.4-.21-1-.2-1.5.44.34.88.68,1.35.98.6.38,2.42,1.21,2.69,1.72.12.23.09.48.22.69Z"/>
    <path class="st25" d="M76.28,47.09l-.12-.31c-.21.17-.56.43-.83.36l-3.23-1.94s.12-.12.16-.16c.17-.14.64-.41.84-.25l3.17,1.87c.15.17.09.27,0,.43Z"/>
    <path class="st26" d="M70.84,38.9c-.39-.45-1.52-.87-1.75-1.44-.13-.32-.09-1.46.02-1.79-.21,1.27,2.34,1.49,2.29,2.56-.02.42-.29.48-.56.67Z"/>
    <path class="st8" d="M12.54,45.36c.06.28-.45.38-.47.08-.17,0-.12-.06,0-.16-.2.06-.39-.11-.32-.32l.36-.62c1.21-1.09,2.92-1.55,4.05-2.76.03.61.12,1.24-.31,1.7-.49.52-2.6,1.73-3.31,2.08Z"/>
    <path class="st72" d="M11.75,44.96c.1.07.27.2.32.32-.02.05-.04.09-.08.12-.26.19-2.94,1.92-3.18,1.92-.14,0-.27-.04-.4-.1-.23-.19-.4-.21-.52-.05l-.07-.42c.76-.49,1.57-1.03,2.38-1.48.19-.11.91-.53,1.05-.54s.39.16.5.24Z"/>
    <path class="st15" d="M15.06,35.75c.12.4.16,1.44-.05,1.8-.25.45-1.06.84-1.49,1.11-.1.06-.23.07-.19.24-.3-.22-.58-.29-.56-.75.04-.94,2.37-1.24,2.29-2.4Z"/>
    <path class="st136" d="M12.06,45.28s0,.11,0,.16c.03.05.07.13.04.16-.61.62-2.05,1.54-2.82,1.88-.12.05-.25.08-.38.08-.18.14-.45-.05-.63-.16-.08-.04-.38-.2-.39-.24-.03-.08.02-.28,0-.39.27.09.68.45.96.38.32-.08,1.5-.95,1.9-1.18s.87-.5,1.31-.7Z"/>
    <path class="st51" d="M7.31,43.72c.56-.1,1.69.09.75.43s-1.69-.26-.75-.43Z"/>
    <path class="st8" d="M16.16,41.18s-.06-.19-.08-.24l.08.24Z"/>
    <path class="st119" d="M49.01,23.07c-.04.07-.08.16-.08.24,0,.61.41.41.71.79l-.12.24c-1.54.9-3.2,1.11-4.86.37-1.32-.64-2.58-1.05-4.02-.44l-2.39.87c-1.43.43-2.9.03-4.18-.62l-.03-.18c-.08-.09-.06-.21-.08-.32,0-.03-.06-.07-.06-.12l.06-.04c.4.28.67.04,1.05-.17.12-.06.19-.22.21-.22.08-.03,1.32.3,1.62.31,2.15.08,3.72-1.52,5.75-1.34,1,.09,1.87.73,2.8.98,1.28.35,2.43.19,3.62-.35Z"/>
    <path class="st127" d="M34.12,59.61c.27.27.63.66,1.02.71-.39.14-.8.31-1.18.47l-.87-.67c0-.12.89-.43,1.02-.51Z"/>
    <path class="st5" d="M50.51,60.32c-.24-.16-.69-.42-.95-.55l.32-.32c.28.18.79.25,1.02.59l-.39.28Z"/>
    <path class="st45" d="M35.15,52.6c.5.37-.36.93-.79.87-.47-.18-.21-.02-.39.19s-.89.56-1.18.36c-.01.11.04.28-.02.38-.02.04-.77.46-.83.47-.47.1-1.01-.55-1.34-.6-.11-.02-.44.25-.5.38-.11-.07-.22-.17-.32-.24-.09-.1-.02-.22.2-.38-.39-.11-.61-.28-.67-.49-.09-.06-.73-.51-.75-.55-.08-.16-.08-.41.04-.55,1.06.56,2.11,1.16,3.14,1.8.16.2.75-.22.72-.26l-2.84-1.75v-.18c.25.04.13-.07.16-.24.11-.14.27-.14.47.02l1.94,1.25c.59.5,1.1.57,1.52.19-.82-.53-1.65-1.04-2.5-1.53-.28-.16-.28-.37-.18-.64l.13-.11,3.08,1.82c.24-.03.47-.13.7-.3l.19.09Z"/>
    <path class="st6" d="M32.55,57.01l-.07.15-3.01,1.86c-.42.11-.91-.09-1.02-.52.05-.03.12-.19.24-.27.98-.62,2.01-1.17,2.99-1.78.28.01.81.26.87.55Z"/>
    <path class="st75" d="M29.79,54.41c-.27-.17-.65-.38-.95-.55l.47-.32c.12.07.95.39.94.51l-.47.35Z"/>
    <path class="st47" d="M23.88,53.63c.12.07.25.25.39.32-.25.14-.54.32-.79.47-.05-.12-.71-.2-.55-.39.03-.03.74-.43.78-.44.08-.02.1.01.16.04Z"/>
    <path class="st18" d="M52.48,56.46c.91.55,1.86,1.05,2.75,1.62.22.14.36.34.48.43-.11.38-.62.61-1,.51l-3.01-1.84-.09-.24c.05-.2.67-.5.87-.47Z"/>
    <path class="st10" d="M54.77,53.63l-.05.17c-.65.22-.81.39-.49.51v.19c-.11.06-.21.16-.33.24-.05-.13-.39-.4-.5-.38-.19.03-.9.62-1.1.6-.08,0-.78-.43-.84-.5-.09-.1-.1-.22-.08-.35l.18-.12c.24.17.47.28.71.33,1.09-.7,2.19-1.32,3.29-1.87.43.49-.33.8-.63.99-.09.06-.14.18-.16.19Z"/>
    <path class="st70" d="M60.2,53.55c.13.06.91.43.95.47.14.19-.52.4-.63.47-.31-.19-.63-.37-.95-.55.25.01.47-.22.63-.39Z"/>
    <path class="st2" d="M54.77,53.63l.47.32c-.32.18-.73.37-1.02.55l-.47-.35c.25-.18.53-.31.8-.47.08-.05.2-.03.23-.05Z"/>
    <path class="st107" d="M28.37,29.05c.16.37.29.48.69.66v.21s-.01.18-.01.18c-1.85,1.46-3,1.55-4.96.18l-.05-.21c.01-.07.03-.2.08-.24.23-.19.79-.11.79-.63,1.28.88,2.25.54,3.47-.16Z"/>
    <path class="st108" d="M31.29,27.09c.07.3.25-.04.55.03.06.01.59.32.63.36l.04.26c-1.02.59-2.02,1.2-3.02,1.84-.33.17-1.03-.18-1.12-.52.33-.19,2.37-1.38,2.5-1.52.07-.08.06-.25.11-.29.1-.07.36.11.3-.17Z"/>
    <path class="st98" d="M59.26,29.05v.08c-.13.61.55.54.87.87l-.05.21c-1.9,1.38-3.09,1.27-4.94-.09l-.05-.19c-.2-.14-.04-.28.13-.38.21-.08.41-.19.58-.33-.12-.17-.12-.25,0-.24.95.52,1.63.87,2.78.53.38-.12.45-.3.69-.45Z"/>
    <path class="st68" d="M52.88,26.61l.02.61c.98.55,1.91,1.21,2.9,1.75,0,.08,0,.16,0,.24-.26.09-.52.21-.77.37-1.15-.51-2.27-1.12-3.34-1.81l-.06-.14c.09-.23.54-.55.78-.59.16-.03.24.15.4.12-.06-.23.03-.38.08-.55Z"/>
    <path class="st141" d="M58.61,26.08c.35-.06,1.55-.04.91.36-.85.54-2-.17-.91-.36Z"/>
    <path class="st32" d="M24.91,46.77c.07.03.07.05,0,.08.29.5-.7.93-1.1.87-.02.08-1.1.81-1.26.39-.01.15.04.34-.04.47-.03.04-.84.53-.89.54-.27.06-.93-.51-1.16-.51-.11,0-.8.46-.91.6-.11-.07-.22-.18-.32-.24v-.18c.23-.13.45-.28.64-.44l-.72-.38v-.18c-.12-.08-.83-.52-.85-.57-.08-.14-.03-.48.06-.61,1.09.53,2.15,1.16,3.17,1.88.11.06.58-.24.69-.34-.81-.44-1.61-.91-2.39-1.4-.18-.11-.51-.32-.44-.54.09-.09.07-.22.16-.32.07-.06.14-.08.2-.06l2.85,1.79c.47.14,1.18-.17.4-.48-.83-.42-1.61-.91-2.35-1.46v-.18c.09-.09.08-.22.16-.32l.36.06,2.11,1.29c.45.51.94.55,1.45.11l.18.12Z"/>
    <path class="st9" d="M22.15,51.03l-3.15,1.94c-.32.09-.64-.3-.95-.36.07-.28,1.39-.83,1.58-1.18.37-.21.73-.49,1.1-.71l.04.16c.25-.51,1.28-.21,1.38.16Z"/>
    <path class="st0" d="M19.23,48.98c-.24-.14-.71-.43-.95-.55l.87-.63c.14.09,1.02.5,1.02.59l-.94.59Z"/>
    <path class="st33" d="M13.72,47.88c.3.12.59.51.95.55-.29.15-.75.39-1.02.55-.08-.1-1.02-.61-.95-.71.35-.04.69-.53,1.02-.39Z"/>
    <path class="st94" d="M63.35,45.12c.16.22-.03.45.24.39l.02.17-2.85,1.76c.42.38.71.26,1.17,0l1.72-1.13c.34-.29.66-.4.96-.32.02.09-.05.26.08.32l.04.16-2.72,1.75c.39.4.71.25,1.15-.04l2.37-1.5c.13-.09.22-.1.34.02.03.11.02.46-.04.55-.33.12-.57.38-.83.55l.04.1c-.24.17-.47.33-.7.48l.65.41v.19c-.12.08-.26.16-.39.24.04-.19-.1-.16-.21-.22-.13-.08-.6-.41-.7-.41-.22,0-.85.62-1.22.52-.26-.07-1.06-.54-.87-.91-.02-.03-.21.16-.34.14-.05,0-.8-.43-.82-.47-.06-.11,0-.32-.02-.46-.14.13-.34.11-.47.16-.44.09-1.16-.44-.71-.79l.19-.1c.23.16.46.27.7.32,1.07-.65,2.14-1.27,3.21-1.87Z"/>
    <path class="st83" d="M63.43,50.71s.05,0,.08,0l.18.33,2.35,1.43c.09.13.14.4,0,.52.03-.07-.02-.29,0-.39-.07-.08-.72.52-.92.34-1-.54-1.91-1.21-2.89-1.77-.11-.06-.25-.02-.21-.22.04-.06.6-.38.68-.39.29-.04.42.18.64.22.05.01.1-.06.1-.06Z"/>
    <path class="st113" d="M70.52,47.8c.15.03.93.45.95.51.06.25-.87.44-.87.75-.33-.2-.76-.45-1.1-.63.4-.08.67-.44,1.02-.63Z"/>
    <path class="st40" d="M65.01,47.8l.95.63c-.28.15-.67.38-.95.55l-.94-.59c0-.14.81-.5.94-.59Z"/>
    <path class="st11" d="M12.54,45.36c0,.28.53.28.71.55l-3.07,1.93c-.45.23-.78-.37-1.19-.2,0-.04-.04-.07-.08-.08.65-.52,1.43-.86,2.12-1.3.17-.11.97-.81,1.03-.82.11-.03.09.11.47-.08Z"/>
    <path class="st34" d="M51.61,57.33c.05-.02.11-.03.16-.04.24-.02,2.18,1.24,2.54,1.5l.14.27-.06.04s.06.09.06.12c-.21,0-.58.54-.89.38-.96-.58-1.98-1.1-2.91-1.74-.11-.08-.23-.11-.23-.29.07-.08.59-.36.69-.38.22-.04.31.06.49.14Z"/>
    <path class="st124" d="M55.71,58.51c.08.38-.16.54-.47.67-.42.18-.42.1-.79-.12-.9-.54-1.9-1.29-2.84-1.73.02-.12-.03-.29,0-.39l3.15,1.94c.37.12.64-.23.95-.36Z"/>
    <path class="st115" d="M22.23,33.46c.05.07.04.14-.02.19l-3.16,1.88c-.26.07-.94-.28-.91-.58.1-.17.45-.35.63-.47.1-.06.24-.08.31-.2-.12-.16-1.15-.65-1.02-.83.03-.04.67-.32.79-.4.26.11.91.71,1.14.71s1.12-.76,1.42-.78c.18-.01.72.31.82.47Z"/>
    <path class="st126" d="M19,31.57c.12.04.57.31.63.39l-3.15,1.93c-.17.15-1.02-.34-1.02-.4.05-.06.1-.11.16-.15.55-.42,2.22-1.41,2.86-1.71.27-.12.23-.17.53-.07Z"/>
    <path class="st76" d="M32.55,57.01c.02.09-.01.22,0,.32-1.08.56-2.16,1.36-3.23,1.97-.42-.1-.97-.23-.87-.79.03-.04.46.51.97.38.93-.55,1.83-1.18,2.76-1.73.12-.07.21-.17.37-.14Z"/>
    <path class="st43" d="M65.32,32.99c.27-.11.08,0,.28.15.19.13.41.21.58.37l-1.18.79s.32.15.39.2c.16.1.52.27.63.39.15.4-.7.74-1.01.58l-2.52-1.49c-.44-.14-.63-.33-.57-.58.09-.11.67-.4.82-.39.36.02,1.14.73,1.42.71.19-.02.85-.59,1.15-.71Z"/>
    <path class="st93" d="M72.1,45.43s.07.14.16.19c.97.55,1.86,1.26,2.83,1.82-.49.3-.85.63-1.39.21l-2.78-1.75c.2-.24.57-.27.71-.55.08.04.39.04.47.08Z"/>
    <path class="st93" d="M70.76,46.22c.2.1.49.37.72.51.78.47,1.57.93,2.36,1.39.01.1.03.1-.05.16-.17.13-.75.46-.95.33l-3.18-1.99c.22-.24.79-.55,1.1-.39Z"/>
    <path class="st62" d="M60.68,52.13s.06.1.13.14c.93.54,1.85,1.08,2.75,1.67.07.07.08.1,0,.16-.04.03-.62.35-.66.36-.16.04-.52-.18-.69-.27-.92-.49-1.76-1.21-2.7-1.67.09-.15.63-.48.78-.51.12-.02.29.06.4.12Z"/>
    <path class="st73" d="M61.86,51.34l2.96,1.89c.09.13-.78.66-.97.41l-3.09-1.91c.13-.21.86-.63,1.1-.39Z"/>
    <path class="st17" d="M14.5,46.62l-3.16,2.01c-.35.12-.71-.24-1.02-.39l2.99-1.93c.21-.31,1.01.15,1.18.32Z"/>
    <path class="st118" d="M34.99,58.35c.04.2-.11.16-.21.22-.61.38-1.23.78-1.85,1.15-.25.15-1.06.7-1.27.66-.1-.02-.87-.35-.73-.54l2.96-1.81c.25-.22.92.13,1.1.32Z"/>
    <path class="st7" d="M50.35,58.04c.37.41,2.73,1.5,2.88,1.81.08.18-.62.43-.74.51l-3.32-2.01c.25-.32.83-.57,1.18-.32Z"/>
    <path class="st82" d="M61.46,63.55c-.15-.14.32-.35.31-.12,0,.08-.26.17-.31.12Z"/>
    <path class="st74" d="M49.17,30.63c.36-.06.89.2,1.02.55.21-.13.35,0,.32.24,3.06,1.66,6.31,3.02,9.22,4.96.32-.07.74.23.79.55.23-.08.32,0,.32.24,1.03.77,2.86,2.36,3.05,3.68.05.36.01.75.02,1.12-.16,1.35-1.27,2.55-2.36,3.31-.58.6-1.47,1.16-2.28,1.34-2.16,1.5-4.46,2.84-6.85,3.94-.07.09-.13.17-.21.24-.42.41-2.38,1.58-2.94,1.74-.1.03-.21.05-.32.06l-.07.22c-1.43.88-2.88,1.72-4.37,2.52-1.85.94-2.86,1.05-4.78.03-1.47-.78-2.91-1.65-4.33-2.53-.05-.03-.09-.08-.13-.14s-.07-.12-.1-.18c-1.23-.42-2.48-1.12-3.47-1.97h-.23c-1.94-1.18-3.92-2.26-5.98-3.18-.29-.1-.48-.28-.56-.52,0-.02,0-.05,0-.08-.81-.4-1.66-.82-2.4-1.36-.24-.21-.36-.51-.36-.92.04-1.28.21-1.3.87-2.28,0-.18.05-.37.16-.58-.09-.65-.41-1.24-.98-1.78-.38-.43-.39-1.05-.29-1.58.16-.66.5-.89,1.02-1.26-.05-.23.11-.39.32-.24.03-.32.64-.63.95-.55,1.72-1.14,3.1-2.26,5.12-2.87,1.81-.55,3.14-.63,4.81-1.69-.06-.23.12-.37.32-.24-.02-.26.54-.73.79-.63,1.03-.86,1.94-1.9,3.08-2.63,4.28-2.76,7.34.34,10.87,2.47Z"/>
    <path class="st24" d="M61.94,33.39c-.05.2.12.15.22.21.99.55,1.93,1.18,2.93,1.73.28.12.51-.08.74-.22.1-.06.25-.02.21-.22.42.47-.77,1.14-1.1.79.09.44-.89,1.04-1.18.71.2.36-.8.97-1,1.01-.19.03-1.02-.66-1.26-.68-.06,0-.58.35-.65.46-.11-.08-.21-.16-.32-.24-.11-.18.04-.3.47-.36l-.78-.4v-.19c-.11-.07-.75-.53-.78-.57-.07-.12-.04-.51.06-.61.77.37,1.52.82,2.25,1.35.43.31,1.19.77,1.66.29-.95-.61-1.91-1.2-2.87-1.78l.07-.17c-.03-.15,0-.2.08-.32.11-.1.2-.11.32-.03l2.39,1.49c.51.34.74.45,1.22.01l-2.76-1.69v-.18c-.01-.17-.03-.26.08-.39Z"/>
    <path class="st30" d="M63.59,45.51c.16-.24.93.22,1.01.33.04.05,0,.1.02.14-1.03.39-2.03,1.4-3.04,1.8-.55.22-.57-.12-1.06-.23l.08-.2,3-1.85Z"/>
    <path class="st131" d="M65.88,46.69c-.61.18-2.98,2.02-3.41,1.96-.07-.01-.78-.38-.77-.42l2.99-1.93c.21-.37,1.14.22,1.18.39Z"/>
    <path class="st106" d="M63.12,44.88s.23.22.24.24c0,.17-.11.21-.23.29-.89.61-2.01,1.12-2.93,1.73-.34.08-.63-.29-.94-.36-.12,0-.12-.06,0-.16.77-.43,1.52-.92,2.28-1.34l.8-.61c.29-.2.58-.02.77.22Z"/>
    <path class="st89" d="M63.12,44.88s-.08.06-.16.03c-.14-.06-.21-.21-.42-.18-.06,0-.85.46-1,.54,1-.97,1.87-1.97,2.36-3.31,0,.22.08.43.08.59-.02.79-.41,1.68-.87,2.32Z"/>
    <path class="st49" d="M22.15,44.49c.15.16.14.39.25.58.27.45,1.95,1.2,2.46,1.54.08.03.04.1.05.16-.38.03-.66.48-1.03.36-.98-.71-2.1-1.23-3.07-1.94.12-.15.51-.43.69-.46.25-.04.41.23.65.22,0-.16,0-.32,0-.47Z"/>
    <path class="st30" d="M19.39,46.22c.13.08.37.31.56.43.82.51,1.67,1.01,2.51,1.46.06.07-.81.71-1.02.51-.95-.61-1.89-1.22-2.87-1.79-.11-.06-.25-.02-.21-.22.15-.22.75-.55,1.02-.39Z"/>
    <path class="st79" d="M20.65,45.51c.31.15.84.61,1.19.82.4.24,1.47.75,1.73,1.03.08.09.1.07,0,.16-.4.32-.79.48-1.23.13l-2.78-1.75c.22-.24.78-.55,1.1-.39Z"/>
    <path class="st129" d="M23.96,36.06l-.11.13c-.34.07-.57.28-.6.58-.1.07-.21.16-.32.24,0-.24-.14-.26-.34-.22-.31.06-.97.62-1.19.6-.05,0-.82-.45-.85-.49-.08-.11-.1-.32-.07-.44l.23-.09c.23.15.46.27.71.35l3.03-1.89c.06-.02.13,0,.2.06.39.66-.58.68-.71,1.18Z"/>
    <path class="st86" d="M23.01,42.21c-.25-.74-1-1.16-1.15-1.97-.09-.52-.07-1.48.04-1.97-.38,1.45,1.69,2.23,1.4,3.49-.04.19-.2.31-.3.45Z"/>
    <path class="st53" d="M22.31,33.78l.04.16-2.82,1.75.58.28c1.05-.62,2.1-1.27,3.14-1.96l.16.07c.12.15.04.29.16.39l.03.17c-.98.56-1.93,1.16-2.86,1.79h-.24c-.25-.04-.28.14-.55.06-.05-.02-.61-.36-.63-.39-.1-.14-.06-.34-.07-.36-.01-.01-.2.09-.35.08-.37-.04-1.01-.44-.76-.87l.66.41.21.02,3.23-1.94c.07.11.11.17.08.32Z"/>
    <path class="st56" d="M48.94,52.6c.04.1.07.23.08.39.22-.1.88.19.79.47-1.97.99-3.87,2.39-5.83,3.35-3.45,1.69-6.58-2.22-9.61-3.35.32-.29.91-.31.79-.87-.07-.02-.07-.05,0-.08,1.57.91,3.36,2.1,4.96,2.88.88.43,1.55.62,2.55.5,1.2-.14,5-2.56,6.27-3.3Z"/>
    <path class="st44" d="M55.55,52.44c.02.18-.31.3-.45.38-.93.54-1.84,1.11-2.78,1.64-.36.1-.6-.32-.94-.36.01-.06.13-.16.16-.24.04-.09.08-.19.16-.25.29-.22,2.36-1.51,2.51-1.51.05,0,.11.01.16.03.06-.03.34-.13.4-.12.09.02.72.36.78.44Z"/>
    <path class="st137" d="M53.11,51.42c-.09.15-.2.28-.33.38l-2.32,1.49c.36.27.6.33.98.05l2.68-1.68.18.07c.09.15.1.22.08.39-.96.54-1.81,1.28-2.84,1.73-.17.07-.42.25-.57.22-.24-.04-.99-.43-.85-.77-.14-.03-.2.1-.31.16-.17-.2-.64-.28-.79-.47-.06-.23-.08-.46.21-.47.43.39.73.36,1.17.03.75-.54,1.54-1.02,2.37-1.45h.34c.26.04.17.17,0,.31Z"/>
    <path class="st125" d="M31.68,50.55c.15.24-.48.54-.71.55.21.52-.13.61-.47.08-1.03-.5-1.96-1.19-2.99-1.7-1.23-.6-2.58-.96-3.71-1.77,0-.02-.11-.14-.08-.16.41.11,1.13-.29,1.18-.71,1.12.75,2.41,1.17,3.6,1.8,1.09.58,2.11,1.3,3.18,1.9Z"/>
    <path class="st60" d="M31.05,51.1c-.02.19-.01.25.13.39.61.59,2.07,1.08,2.71,1.71.07.07.11.07.08.19-.41.09-.48.4-.95.28-.59-.15-2.04-1.26-2.7-1.63-.17-.09-.33-.19-.53-.22.07-.38.63-.27.71-.63.16.08.31.16.47.24.02-.1-.02-.23,0-.31.02-.05.05-.05.08,0Z"/>
    <path class="st62" d="M29.63,52.05l3.07,1.89c.01.09.03.1-.05.16-.03.02-.62.35-.66.36-.17.05-.42-.14-.58-.22-.87-.46-1.74-1.07-2.6-1.57-.11-.06-.25-.02-.21-.22.14-.16.79-.53,1.02-.39Z"/>
    <path class="st110" d="M35.15,52.52v.08c-.32.09-.61.47-.95.36l-3.15-1.86h-.08c.07-.23.55-.37.71-.55,1.13.64,2.33,1.31,3.47,1.97Z"/>
    <path class="st92" d="M59.26,46.77c0,.66.29.43.71.79-1.73.66-4.36,2.51-6.06,3.51-.11.06-.25.07-.32.11.06.24-.3.39-.47.24-.01-.1.02-.22,0-.32-.06.03-.11,0-.17-.02-.16-.07-.67-.35-.54-.53,2.28-1.32,4.56-2.64,6.85-3.94,0,.05,0,.11,0,.16Z"/>
    <path class="st30" d="M54.29,51.73l-2.78,1.75c-.21.1-.38.25-.62.21-.1-.02-.74-.33-.65-.46.97-.59,1.9-1.24,2.88-1.81.11-.06.29-.13.47-.24.16.28.55.29.71.55Z"/>
    <path class="st109" d="M51.61,27.64c1.21.43,2.19,1.41,3.41,1.8.21-.05.62-.6.77-.22-.06.56-.57.28-.71.71-.53-.21-.31,0-.47.19-.21.25-.86.56-1.18.36-.02.13.04.37-.01.46-.03.04-.79.46-.83.47-.5.1-1.02-.53-1.32-.53-.15,0-.75.32-.75.55-.12-.07-.22-.18-.32-.24-.02-.19.11-.39.42-.61l-.65-.31v-.18c-.41-.25-1.14-.57-.79-1.1l.18-.07c1.06.65,2.13,1.29,3.21,1.93.13-.05.62-.35.52-.41-.8-.45-1.58-.93-2.36-1.42-.06-.04-.11-.09-.15-.15s-.09-.13-.13-.2c.01-.1-.02-.22,0-.32.25-.09.51-.04.79.17l2.54,1.53c.14,0,.61-.25.55-.33l-2.86-1.74v-.18c.25.04.13-.07.16-.16Z"/>
    <path class="st81" d="M32.63,27.87l.02.11c-1,.57-1.97,1.19-2.92,1.86h-.18s.21-.11.21-.11c.23.18.46.28.69.32l3.12-1.88.16.09c.08.1.07.23.16.32l.04.16-2.76,1.72s.56.48.71.26l2.91-1.8.21.06c.43.48-.45.88-.79,1.1v.18s-.66.37-.66.37c.32.16.62.35.89.58v.21c-.11.08-.2.17-.32.24-.04-.23-1.01-.78-1.15-.79-.31-.02-.98.69-1.31.62-.05-.01-.86-.49-.89-.54-.08-.13-.03-.33-.04-.47-.18-.02-.21.18-.41.15-.26-.04-.84-.45-.77-.78-.08,0-.4.05-.47.08-.36-.32-.86-.25-.71-.87.4.11.63.55,1.11.36.95-.53,1.84-1.17,2.78-1.71.11-.06.25-.03.21-.22.13.13.03.29.16.39Z"/>
    <path class="st30" d="M50.43,28.66c.97.57,1.91,1.21,2.91,1.73.08.12-.7.61-.76.62-.2.03-2.97-1.84-3.41-2.04.07-.11.75-.5.86-.52.08-.01.3.15.4.2Z"/>
    <path class="st55" d="M51.46,27.79l3.11,1.89c.08.1-.71.63-.88.49-1.11-.55-2.08-1.44-3.26-1.83.05-.29.74-.7,1.02-.55Z"/>
    <path class="st131" d="M33.73,28.27l-3.23,1.94c-.36.11-.6-.34-.94-.36.02-.09.16-.21.24-.27.41-.33,2.35-1.49,2.83-1.7.37-.16.86.08,1.1.39Z"/>
    <path class="st11" d="M34.99,28.98l-2.99,1.85c-.15.09-.31.16-.48.08l-.67-.44,3.03-1.89c.24-.22.93.2,1.1.39Z"/>
    <path class="st29" d="M34.2,30.08l1.02.71c-.28.24-.47.41-.79.63-.31-.31-.77-.57-1.18-.71-.09-.11.85-.57.95-.63Z"/>
    <path class="st21" d="M49.96,30.08c.12.08.91.42.95.47l-.71.63c-.34-.19-.68-.35-1.02-.55l.79-.55Z"/>
    <path class="st4" d="M24.67,34.88l-3.23,2.02c-.36-.05-.55-.36-.95-.44.05-.18,2.7-1.75,3.07-1.97.09-.05.21-.14.32-.12.12.02.71.4.78.51Z"/>
    <path class="st39" d="M23.41,34.09l-3.1,1.99c-.07.05-.15.06-.23.05-.08-.01-.88-.35-.81-.46l3.03-1.89c.23-.31.95.12,1.1.32Z"/>
    <path class="st84" d="M23.96,36.06c.08.03.16.12.24.16-.31.21-.66.36-.95.55l-.2-.32c.32-.12.57-.52.91-.39Z"/>
    <path class="st87" d="M61.86,33.78l2.96,1.81c.07.07.08.1,0,.16-.04.03-.68.37-.72.37-.37.07-2.85-1.78-3.41-1.95.16-.25.91-.7,1.18-.39Z"/>
    <path class="st85" d="M60.6,34.49s.06.1.13.14c.96.57,1.93,1.11,2.87,1.71.07.09.11.06,0,.16-.22.19-.72.4-1,.3-.66-.25-1.94-1.2-2.65-1.61-.14-.08-.47-.19-.45-.38.03-.03.72-.45.76-.46.09-.01.26.09.34.14Z"/>
    <path class="st22" d="M60.2,35.98c.19.12.93.4,1.02.59.08.16-.65.18-.71.35-.25-.18-.53-.38-.79-.55l.47-.39Z"/>
    <path class="st59" d="M52.4,50.55c.22.25.64.19.71.55-.4.22-.82.42-1.21.65-.46.27-1.53,1.08-1.94,1.21-.35.11-.64-.2-.91-.36l-.04.39c-.11-.14-.09-.22-.08-.39,1.14-.67,2.33-1.39,3.47-2.05Z"/>
  </g>
</svg>