<?xml version="1.0" encoding="UTF-8"?>
<svg id="Layer_1" xmlns="http://www.w3.org/2000/svg" version="1.1" viewBox="0 0 1508.87 881.78">
  <!-- Generator: Adobe Illustrator 29.8.3, SVG Export Plug-In . SVG Version: 2.1.1 Build 3)  -->
  <defs>
    <style>
      .st0 {
        fill: #1cad4e;
      }

      .st1 {
        fill: #289a47;
      }

      .st2 {
        fill: #149045;
      }

      .st3 {
        fill: #30ad4a;
      }
    </style>
  </defs>
  <g>
    <path class="st0" d="M185.5,891.79l-146.14-.31c-39.89-25.34-53.34-149.27-22.12-224.02,2.01-4.8,8.41-13.94,8.67-15.13.84-3.89,1.47-33.69,2.3-42.79,15-163.75,84.33-234.7,137.61-141.43,19.74-46.88,48.62-53.03,68.43-3.27,20.01-70.51,56.92-98.84,87.75-61.63,12.34-46.79,33.11-70.05,54.43-55.9,3.51,2.33,14.16,16.89,15.47,16.02.9-.6,11.37-26.33,14.27-31.5,40.41-72.21,92.59-40.96,120.77,60.33,10.42-11.61,22.37-20.22,33.45-10.36-5.7-143.81,50.82-243.77,98.78-167.9,18.33,29,27.98,76.28,30.34,131.73,40.02-49.67,86.08-5.15,106.34,96.63,6.19-5.9,12.76-7.56,19.35-6.32,4.29.81,13.46,10.2,15.08,9.76,1.57-.43,8.61-22.73,10.99-27.64,15.92-32.78,35.75-39.59,54.57-20.92,4.46,4.42,14.76,23.97,16.89,24.49,2.39.59,17.25-14.97,22.23-17.22,36.11-16.25,74.48,26.27,94.29,107.91,10.27,42.3,13.98,83.52,16.1,133.03,9.13-.64,18.05,7.65,25.53,21.36,4.99,9.16,10.23,31.16,12.79,35.05s7.77,5.03,11.44,9.64c24.71,31.03,26.99,120.43,4.86,163.79-11.36,22.26-18.31,15.75-31.46,16.6l-3.13-7.14c-3.01-77.65-19.92-149.5-46.8-184.71l-2.25-10.7c-3.45,2.37-7.29,1.06-11.51-3.93-21.63-15.56-42.3-8.49-62.65,7.55l-2.81,5.58-23.28-5.32c-19.02-16.33-31.11-19.96-49.49,5.43l-4.12-1.52c-14.23-215.37-115.72-285.51-167.97-116.96l-3.65.67-4.77-.32c-39.5-72.67-91.12-39.91-119.01,59.87-11.62-9.7-23.54-15.01-35.75-15.93,2.45-222.4-111.47-262.02-125.54-39.19-.59,4.81-2.08,7.49-3.87,8.89-39.21-49.16-82.94-3.8-103.62,93.88l-19.73-2.96c-16.55,14.41-22.22,3.25-33.27-26.19-19.88-39.3-46.52-25.18-64.8,11.52-21.47-17.18-39.05-29.43-62.36-13.47-38.03,26.04-65.34,115.61-68.39,218.27l-1.69,4.93c45.81-.53,91.49.54,137.04,3.19l.38,8.55Z"/>
    <path class="st1" d="M185.5,891.79c-.24,0-2.14-3.81-4.64-3.88-44.7-1.21-89.59,3.5-134.06-3.34,2.44-152.99,54.76-268.29,112.94-237.79,4.9,2.57,17.6,18.03,20.79,16.35,1.82-.95,3.17-9.04,5.08-11.58,19.92-26.53,39.83-35.6,59.58-1.96,4.6,7.83,13,32.88,16.89,35.38,3.32,2.13,8.89-5.69,13.31-6.72,7.15-1.66,14.84.44,21.84,4.08,18.56-97.72,66.96-146.71,104.57-94.44,2.13-.34,2.63-26.4,3.51-34.06,6.91-60.18,23.87-107.15,47.7-120.31,45.93-25.37,82.42,66.55,79.92,187.03,11.97-1.24,22.7-1.56,33.47,13.97,27.77-107.36,85.08-134.43,124.46-53.77l.29,11.51c-13.93,53.12-17.2,114.06-16.76,176.79-18.6-1.59-35.54,5.19-53.48,19.56-49.29-174.42-141.6-195.93-199.34-42.58l-2.65.64c-35.35-48.24-74.19-35.26-99.11,51.52l-4.11,6.63c-43.76-39.42-93.37-24.06-124.04,78.49l-4.8,4.88,4.51-7.23h827.76l2.69,7.23-3.95-6.11c-15.15-82.3-43.39-144.69-74.6-180.67l-1.1-8.54c2.39-8.33,8.64-13.86,12.33-16.36,19.46-13.18,43.48-8.18,61.83,12.74,4.29,5.79,2.28,13.96-2.18,14.94-9.4-12.54-22.62,3.58-4.79,3.38,13.41,38.69,3.57,57.53-13.44,51.68,2.84,5.92,6.65,10.54,11.44,13.86,1.64,17.96,4.46,31.63,8.45,40.99.64,31.03,14.3,6.77,1.48,1.28-5.98-31.98-3.54-79.42,13.82-49.64,8.28,1.63,8.66,9.78,3.32,25.23.04,17.96-.98,34.93-3.07,50.9-3.94,4.07-3.62,10.18-2.64,20.2,5.04,22.45,3.2,32.37-5.52,29.73-279.03,3.61-558.69,7.11-837.7,0Z"/>
    <path class="st1" d="M1023.2,891.79l6.87-3.65c-2.84-12.5-5.65-29.61-4.15-44.47.38-3.73,3.15-3.2,3.9-8.47,1.55-10.87,1.06-33.35,1.94-45.8.89-12.45,4.32-6.05,3.79-16.96-5.28,7.99-14.53-18.02-17.2-7.35-.96,3.85-1.05,41.52-.51,43.14s15.46,9.04,4.44,25.31c-7.86,11.6-6.67-7.44-8.62-15.16-.81-3.19-2.85-3.67-3.92-8.56-1.61-7.36-2.46-27.33-4.73-32.86-2.18-5.31-6.7-2.86-9.28-6.39-1.92-2.61-2.07-9.41-3.11-11.59-1.65-3.46-9.15-7.06-9.22-13.68-.09-7.88,8.96-6.01,11.39-2.02,1.3,2.13,1.53,9.58,3.09,10.52,1.59.96,11.38-5.34,14.38-4.77,2.53-2-2.4-32.89-2.93-34.09-1.42-3.24-10.92,5.44-10.63-8.66.51-25,7.03-11.94,13.04-10.25,2.64.74,5.33,4,4.6-6.79,23.97,27.32,41.15,83.98,48.45,149.09,1.87,16.66,2.87,36.16,3.74,53.46-15.06.97-30.25-.19-45.32,0Z"/>
    <path class="st3" d="M690.86,580.73c7.83-28.25,23.04-60.53,35-76.01,58.15-75.28,129.21,19.12,138.04,188.15,8.38-4.75,18.11-21.23,26.84-21.85,7.65-.54,15.8,10.97,23.46,14.14,8.15,3.37,19.74,1.32,27.98,7.69,13.34,10.32,34.7,49.3,45.34,74.1,13.84,32.26,27.56,75.82,34.31,121.22H186.87c23.51-87.33,64.92-124.81,104.68-107.51,5.75,2.5,20.53,18.38,23.65,17.22,2.64-.98,12.12-33.5,15.85-41.77,17.62-39.08,43.51-54.89,66-39.91,5.72,3.81,19.76,25.98,23.66,23.16,1.57-1.14,13.97-34.22,17.57-40.83,35.14-64.48,81.22-80.78,121.48-41.95,24.99,24.1,45.66,71.61,61.91,125.95,17.42-15.88,32.74-25.26,51.35-17.36-4.05-61.72,3.98-134.38,17.85-184.45Z"/>
    <path class="st1" d="M992.97,682.07c4.37,16.69-10.3,18.32-11.04,19.66-1.91,3.43-.2,16.04-6.76,18.63-2.55,1-13.35-10.08-13.76-15.08-.25-3.13,3.62-17.84,5.01-19.07,5.03,2.98,23.92-14.17,26.55-4.14Z"/>
  </g>
  <path class="st2" d="M529.29,886.13c-66.91-20.94-51.72-224.94,14.85-206.61,5.49-76.13,38.23-130.12,74.59-126.55,19.91-141.03,98.52-206.05,158.83-129.5,36.09-147.57,126.74-197.48,193.6-108.25,12.24,16.34,22.09,36.07,31.78,58.56,2.05,4.77,6.33,20.47,8.07,22.41,2.2,2.46,10.62-3.79,14.22-4.17,36.29-3.86,65.54,24.16,83.42,91.77,20.39-6.56,41.28-4.87,59.42,17.49,55.69-156.37,173.67-109.4,198.12,78.8,42.68-24.69,87.39,26.28,94.24,120.5,54.04-8.7,68.25,152.33,14.89,182.94-7.13,5.09-7.78-4.08-8.45-16.62-8.51-53.12-30.05-92.83-57.28-95.12-18.08-113.97-76.71-160.85-126.61-103.88-40.63-150.3-140.16-163.31-187.58-20.41-18.87-8.09-37.66-4.92-54.18,17.05l-4.15-.58-2.26,2.09c-21.19-44.52-47.92-57.6-76.84-45.57-54.55-149.45-145.04-151.99-200.84-1.55-2.23,16.89-6.1,24.35-11.61,22.37-30.47-31.57-63.38-36.66-94.2,2.3-22.86,28.9-32.95,67.76-44.01,114.93-32.1,2.87-59.51,59.1-64.75,124l-2.09,3.62c-2.99,2.69-7.73,1.82-11.17,0Z"/>
  <path class="st3" d="M1037.06,663.95c16.91-24.12,37.66-32.41,57.5-20.73,46.34-144.08,149.89-132.18,189.03,20.68,49.02-61.16,110.84-8.46,127.33,104.27,26.8-1.08,49.08,43.41,57.85,93.84,1.94,11.16-.52,19.76,6.55,21.51-2.38,1.36-5.48,7.79-9.27,5.33l-932.56.08c-1.64,1.48-3.58-2.61-4.2-2.8h11.17c104.26-2.27,205.65-3.14,304.17-2.61-37.19,2.39-75.86,2.08-112.98,0-2.79-17.49,5.97-43.59,11.63-57.54,14.75-36.38,41.15-56.6,62.75-40.19,9.18-46.32,18.18-81.06,39.72-109.74,39.47-52.57,95.01-35.51,121.91,46.53,13.24-16.54,31.71-22.02,46.68-13.6,3.98-18.03,11.37-33.19,18.82-45.61l3.9.58Z"/>
  <path class="st1" d="M540.46,886.13c-1.01-4.3.11-14.31.77-18.56,9.46-60.82,33.48-111.05,65.05-113.4,3.44-9.63,4.37-21.91,6.97-32.38,20.55-82.58,63.34-126.85,107.24-106.22,5.49,2.58,26.28,22.37,27.74,21.81,3.82-1.47,5.14-16.59,6.99-21.83,49.76-140.83,137.86-152.47,194.96-23.55,2.16,4.88,7.06,22.01,8.66,23.74,1.84,2,7.62-3.68,10.56-4.04,19.81-2.39,36.55,2.56,53.15,26.57l14.5,25.68c-9.58,13.66-15.51,29.48-21.92,49.38-17.05-7.13-32.46-1.28-48.06,13.57-35.66-101.15-107.09-100.31-143.53-1.47-8.12,22.03-9.05,39.74-14.67,60.59-3.05,11.33-3.53,1.91-8.25.62-32.96-8.95-60.13,30.78-68.97,96.87h112.98l-4.33,2.61c-99.94,0-199.9,0-299.83,0Z"/>
</svg>