<?xml version="1.0" encoding="UTF-8"?>
<svg id="Layer_1" xmlns="http://www.w3.org/2000/svg" version="1.1" viewBox="0 0 160 160">
  <!-- Generator: Adobe Illustrator 29.8.3, SVG Export Plug-In . SVG Version: 2.1.1 Build 3)  -->
  <defs>
    <style>
      .st0 {
        fill: #f29895;
      }

      .st1 {
        fill: #f7d7db;
      }

      .st2 {
        fill: #f9dfe1;
      }

      .st3 {
        fill: #fce8a8;
      }

      .st4 {
        fill: #fbb3c1;
      }

      .st5 {
        fill: #f89da8;
      }

      .st6 {
        fill: #da7888;
      }

      .st7 {
        fill: #f9fafd;
      }

      .st8 {
        fill: #f29896;
      }

      .st9 {
        fill: #fce7ad;
      }

      .st10 {
        fill: #d2ad6f;
      }

      .st11 {
        fill: #d6b470;
      }

      .st12 {
        fill: #969ea7;
      }

      .st13 {
        fill: #aca8af;
      }

      .st14 {
        fill: #fbe7a7;
      }

      .st15 {
        fill: #fae6a6;
      }

      .st16 {
        fill: #fef7ed;
      }

      .st17 {
        fill: #c42736;
      }

      .st18 {
        fill: #cda565;
      }

      .st19 {
        fill: #f39a96;
      }

      .st20 {
        fill: #fbe7a8;
      }

      .st21 {
        fill: #f49a98;
      }

      .st22 {
        fill: #f8909a;
      }

      .st23 {
        fill: #f9fbff;
      }

      .st24 {
        fill: #f4868f;
      }

      .st25 {
        fill: #e28a94;
      }

      .st26 {
        fill: #9a9ea6;
      }

      .st27 {
        fill: #fccbd5;
      }

      .st28 {
        fill: #f699a7;
      }

      .st29 {
        fill: #d6b36f;
      }

      .st30 {
        fill: #c42737;
      }

      .st31 {
        fill: #eedb8f;
      }

      .st32 {
        fill: #f89aa7;
      }

      .st33 {
        fill: #cea767;
      }

      .st34 {
        fill: #f89ca8;
      }

      .st35 {
        fill: #cda864;
      }

      .st36 {
        fill: #d58895;
      }

      .st37 {
        fill: #d97a8a;
      }

      .st38 {
        fill: #f78f9a;
      }

      .st39 {
        fill: #f79aa8;
      }

      .st40 {
        fill: #e18994;
      }

      .st41 {
        fill: #c52637;
      }

      .st42 {
        fill: #f799a6;
      }

      .st43 {
        fill: #f3f8fe;
      }

      .st44 {
        fill: #fab2c1;
      }

      .st45 {
        fill: #f78f99;
      }

      .st46 {
        fill: #fdefc3;
      }

      .st47 {
        fill: #e18d96;
      }

      .st48 {
        fill: #f3f6fd;
      }

      .st49 {
        fill: #f48791;
      }

      .st50 {
        fill: #f89ca7;
      }

      .st51 {
        fill: #fef4eb;
      }

      .st52 {
        fill: #d97a8b;
      }

      .st53 {
        fill: #f8d7da;
      }

      .st54 {
        fill: #f7909b;
      }

      .st55 {
        fill: #fefdfe;
      }

      .st56 {
        fill: #feeab3;
      }

      .st57 {
        fill: #fef5ec;
      }

      .st58 {
        fill: #fefefe;
      }

      .st59 {
        fill: #d58894;
      }

      .st60 {
        fill: #b2b8be;
      }

      .st61 {
        fill: #fdeec5;
      }

      .st62 {
        fill: #fae8ea;
      }

      .st63 {
        fill: #e08a93;
      }

      .st64 {
        fill: #fceec1;
      }
    </style>
  </defs>
  <path class="st31" d="M37.44,93.07c1.54,3.85,4.78,6.68,8.6,8.37,4.87,2.16,11.21,2.68,14.67-2.12,1.05-1.98,1.65-2.48,2.03.04-.03-.56.23-.52.72-.41,1.72,1.7,3.58,2.36,5.93,2.33,2.37,3.32,5,6.73,9.13,8.08-.12.28-.05.33.22.13l.35.98c.99,7.6,1.88,15.19,2.69,22.77-.25.93-.93,1.4-1.86,1.48.04.19-.18.35-.68.51-1.19.11-2.43.88-3.59,1.23-1.32.41-2.69.76-4.06.98-.08.03-.29.27-.3.32-4.48,1.11-9.54,1.51-14.29,1.67-.21,0-.42-.05-.64-.1s-.43-.13-.64-.22c-.31.21-.79.26-1.43.14-.61.12-1.09.08-1.44-.14-2.54-.01-5.16-.23-7.73-.52s-5.42-.63-7.84-1.34c-1.09-.2-2.71-.65-3.9-.93-1.38-.33-6.46-1.57-7.02-2.8l1.6-15.74-.05-.4c2.09-2.13,4-4.43,5.74-6.9l.62-.53c6.99-1.88,3.97-19.65-4.07-12.36l-.37-.12c-.16-2.42.32-4.76.68-7.11.07-.14.16-.3.31-.34.33-.1,5.61,2.22,6.27,2.58.18.1.28.29.36.47Z"/>
  <path class="st44" d="M70.96,34.5c.16-.17.27-.05.34.34,1.21.28,1.88,2.32,2.19,3.51,1.23,4.75-.4,10.28-1.75,14.85l-.44.27c-.07.36-.18.64-.34.85l-.32,1.36-3.69,7.16c1.23,1.51,2.43,3.06,3.62,4.64l.38,1.22c.2-.02.31.21.34.68.13.06.26.13.38.22s.22.17.27.28c3.13,6.15,4.08,13.12,4.69,19.79l-.26.37c.06.12.15.3.08.36-.55.53-1.9,1.53-2.62,1.5l-.34.25c-1.48-.4-3.08-.33-4.57-.08.22.41-.08.68-.51.51l.1.37c-.15.28-1.16,1.4-1.46,1.49.43.12.42.19,0,.34l-.17.51c-.06.11-.12.22-.19.31-.44.52-3.96,1.22-4.72.71.14.43,0,.46-.34.17-.15.1-.3.19-.46.26s-.31.13-.47.14c-7.01.48-15.42-1.2-22.14-3.2-.15-.04-.28-.14-.42-.24s-.26-.22-.38-.35c-.03.45-.19.42-.34,0-1.93-.56-4.15-1.74-6.03-2.52-.31-.13-.56-.24-.91-.19.42-2.77.1-5.72.34-8.55.52-5.99,2.09-11.67,5.91-16.4-5.14-5.78-10.46-13.7-11.47-21.55-.57-4.41.48-9.64,5.3-11.07,11.3-3.35,15.38,14.54,16.8,22.32.1.53.43,3.73.67,3.77l6.32-.53c-.42-5.26.06-10.68,1.41-15.77,1.19-4.51,4-10.56,9.52-10.3,1.8.09,4.33.98,5.66,2.21Z"/>
  <path class="st42" d="M27.96,117.78c-4.36,3.43-8.51.87-7.95-4.65.44-4.39,6.59-12.64,9.82-15.66.89-.83,2.89-2.06,4.13-2.02,5.2.17,6.1,11.94,1.68,14.34-.42.23-1,.27-1.33.53-.96.75-2.87,3.76-3.89,4.92-.65.73-1.73,1.96-2.46,2.54Z"/>
  <path class="st60" d="M138.84,10.46c.32.12,1.17.65,1.2.93v127.15c.03.5-.78.93-1.2,1.09l-.34-.16c.1-12.84.13-25.72.11-38.62l.23-1.51c-.3-29.28-.34-59.85-.17-88.22l.17-.65Z"/>
  <path class="st50" d="M37.27,137.25s.14-.17.36-.13c4.98.87,10.03,1.62,15.1,1.65.16.04.09.24.11.34.08,0,.16,0,.23.04.29.13-.2,3.33-.35,3.83l-.39.19c-.64,2.82-1.92,5.68-5.01,6.24-4.17.77-7.26-.22-8.7-4.38-.8-2.33-1.04-5.34-1.35-7.79Z"/>
  <path class="st34" d="M71.3,137.76c-.44,1.42-.56,3.26-1.02,4.74-.53,1.74-1.64,4.32-3.13,5.42-1.81,1.34-6.82,1.32-8.63,0-1.22-.89-2.01-3.29-2.29-4.74-.09-.04-.18-.09-.26-.16-.18-.15-.48-2.95-.49-3.46l.24-.45c4.88-.03,9.93-.6,14.76-1.42.29-.05.57-.22.82.06Z"/>
  <path class="st26" d="M138.84,10.46c.05,3.48-.17,6.94-.18,10.42-.02,26.06.18,52.36.18,78.46-.02.42-.14.7-.34.85-.1-15.07-.19-30.13,0-45.2-.38-14.66-.4-29.33-.29-43.99l-17.72,1.26c-.14-.31-.51-.39-1.11-.26l-.65.32c-15.16.79-30.33,1.82-45.49,3.07h-1.55s-.04,19.25-.04,19.25l-.34.21c-.09-.09-.25-.25-.34-.34V14.69c.76-.03,1.53.04,2.28,0,20.61-1.2,41.18-3.15,61.79-4.23.87-.05,3.18-.25,3.81,0Z"/>
  <path class="st13" d="M138.84,139.62c-.18.07-.35.21-.58.17-18.18-1.25-36.34-3.23-54.52-4.4-1.39-.09-3.14-.3-4.48-.17.1-.42.47-.38.68-.51l.91-.28c5.31.36,10.62.73,15.93,1.09l.43.37.31-.2c3.66.51,7.37.89,11.13,1.12l.41.26c1.52-.37,3.13-.26,4.57.34,3.75-.17,7.49.1,11.17.85,4.4-.05,8.8.19,13.2.7,0-8.48,0-16.78,0-24.9.08-3.77.05-7.56-.08-11.38-.02-.55.02-1.07.42-1.49-.01-.38.04-.72.17-1.02.04-.19.22-.66.34-.85v40.29Z"/>
  <path class="st23" d="M119.37,11.98c1.16-.2,1.56.03,1.2.7l-16.84,21.83c-.11.29,0,.62.31,1.01l-.24.34c-.38.28-1.38-.38-1.18-.85-.58,0-1.17-.21-1.78-.66-8.4-2.4-11.04,5.85-9.16,12.58l-.23.61.52.81c1.18,5.43,3.93,10.26,6.69,15.01-6.08,6.86-7.48,16.33-8,24.97l-.39.17c.02.46-.14.98-.47,1.56-.12.73-.3,1.39-.54,1.99l-.08.48c-4.4,2.46-7.85,10.64-.88,11.74l.28.31c.48.17.52,1.05,0,1.18-.1.28,0,.5.27.68l-2.31,20.11c2.51,2.02,5.67,2.88,8.78,3.51l.37.42.38.21c.23,1.68.66,3.3,1.28,4.85l-.14.36-17.27-1.18c.69-.43,1.67-1.01,1.54-1.95-1.12-7.72-1.7-15.58-2.72-23.28-.5-.2-.46-.79,0-1.02-.46-.86-.06-1.2,1.2-1.03,6.17-2.02,2.92-9.52-1.14-12.16-.7-.39-1.11-.85-1.25-1.37l-.27-.33c.06-1.23-.3-2.35-1.07-3.36l.15-.2c-.41-1.62-.41-4.47-.71-6.32-.74-4.68-2.07-10.19-4.37-14.33-.2-1.3-.25-2.64-.17-4.01-.1-4.01-.04-7.98.17-11.91,1.65-5.16,4.13-14.13,0-18.62V15.03c.7-.03,1.41.04,2.11,0,14.64-.92,29.36-2.48,44.02-3.04.64-.02,1.31-.02,1.95,0Z"/>
  <path class="st29" d="M37.78,93.07l.57.46c3.7,7.71,19,13.42,22.91,3.18l.39-.25c.09,0,.24-.16.34-.17l.45.11c1.2,2.03,3.13,3.97,5.64,3.99-.31-.6-.36-1.12-.16-1.55.26.03.5.12.71.28,2.49,2.94,5.16,5.89,8.48,7.78,1.19.17,1.74.7,1.65,1.59.06.29-.04.7,0,1.02.05.56-.11.26-.41.16-2.59-.81-5.1-2.96-6.86-4.99-.42-.48-2.08-2.99-2.24-3.09-.22-.13-1.4-.01-1.87-.08-1.63-.23-3.19-1.42-4.36-2.5.57,3.64,1.28,7.19,1.01,10.92-1.11.4-.61-2.22-.67-3.05-.18-2.6-.49-5.97-1.18-8.47-.06-.22-.03-.44-.26-.58-3.69,8.39-14.73,6-20.48,1.18-1.71-1.43-3.76-3.62-3.98-5.92.09.03.24-.03.34,0Z"/>
  <path class="st33" d="M60.93,101.9c1.26-.23,1.41,1.73.29,1.84s-1.34-1.64-.29-1.84Z"/>
  <path class="st18" d="M61.42,106.48c1-.09,1.41,1.76.13,1.83-1.1.05-1.27-1.73-.13-1.83Z"/>
  <path class="st45" d="M35.04,40.29c5.26-.41,7.97,9.05,8.92,12.99.29,1.18,1.34,5.59,1.06,6.49-.06.19-.17.25-.31.36-.35.29-4.41,2.58-4.68,2.6-.83.08-4.71-5.73-5.27-6.69-2.1-3.59-7.14-15.17.27-15.75Z"/>
  <path class="st38" d="M57.95,58.85c-.04-3.93.22-8.13,1.11-11.96.81-3.5,3.09-9.21,7.79-7.17,5.07,2.2,1.38,12.3-.26,15.89-.33.72-2.58,5.14-3.02,5.28-.14.05-.29.03-.44-.01l-5.18-2.03Z"/>
  <path class="st32" d="M73.84,91.88c.51-.43,3.41,1.27,3.61,1.56l.11.48c1.92,1.3,4.76,3.97,5.62,6.15,1.16,2.96.41,7.09-3.18,7.72-.7.12-1.47-.39-1.26.69-.22-1.09-1.19-.96-2.07-1.4-1.25-.63-3.61-2.74-4.71-3.76-1.49-1.39-2.69-2.99-4.06-4.49-.71-.28-1.36-2.42-1.33-3.17l.31-.39c0-.19-.04-.43.17-.51,1.27.28,2.25.82,3.22,1.7.01.01,0,.11-.11-.01-.74-.85-1.65-1.67-2.85-1.7l-.26-.33c.16-.71.85-1.39,1.35-1.86.65-.21,1.93.23,2.64.52,1.48,1.06,1.48.53.17-.12-.64-.31-1.34-.54-2.05-.59l-.25-.32c1.27-.77,3.55-.62,4.91-.17Z"/>
  <path class="st15" d="M61.65,96.45c-.42,2.83-3.3,5.15-5.96,5.8-6.28,1.55-15.51-3.04-17.91-9.19,7.42,2.16,16.08,3.99,23.87,3.39Z"/>
  <path class="st16" d="M54.37,76.48l-.39.15c-5.76-2.47-5.35,7.13.16,4.17l.4.08c.36.1-.03.49-.13.63-2.03,2.83-6.53,2.07-7.69-1.19-1.66-4.67,4.69-8.34,7.65-3.84Z"/>
  <path class="st17" d="M54.37,76.48c.89,1.35,1.42,3.05.17,4.4-1.4,1.51-4.16.99-4.87-.97-1.09-3,2.14-5.25,4.7-3.43Z"/>
  <path class="st51" d="M70.45,75.63l-.3.2c-5.47-2.45-4.89,6.84.25,3.63l.4.06c.37.15.07.51-.06.7-1.6,2.49-5.4,2.1-6.57-.59-1.35-3.1,1.26-6.47,4.61-5.62.57.14,1.75.9,1.69,1.61Z"/>
  <path class="st17" d="M70.45,75.63c.93.81,1.11,2.91.34,3.89-1.49,1.89-4.81.92-4.91-1.62-.06-1.47,1.31-2.97,2.78-2.94.34,0,1.56.46,1.79.66Z"/>
  <path class="st20" d="M66.9,95.27c.05,1.31.57,2.37,1.02,3.55.23.61.41,1.26.68,1.86-2.94.33-5.3-2.03-6.6-4.4,1.68-.17,3.32-.42,4.91-1.02Z"/>
  <path class="st55" d="M63.68,86.97c.02,1.21-.17,2.58-1.39,3.1-2.6,1.11-3.79.19-4.37-2.42l.11-.36c1.05-.25,1.99-.79,2.8-1.62.85.42,1.74.74,2.65.96l.18.34Z"/>
  <path class="st59" d="M63.68,86.97c-1.29.02-2.62-1.02-2.77-1-.14.02-.84.82-1.18,1.03-.47.29-1.27.59-1.81.64-1.64.15-3.98-.8-3.89-2.71.98-.11,1.26.95,2.13,1.34,1.8.79,4.04-.06,4.13-2.18.08-.48,1.02-.45,1.18,0,.09,1.85,2.3,2.43,3.61,1.33.42-.35,1.18-2.45,1.72-1.32.26.55-.46,1.65-.85,2.03-.62.6-1.44.83-2.28.85Z"/>
  <path class="st19" d="M45.02,83.97c1.12-.16,3.44-.06,3.97,1.18.77,1.78-2.44,2.23-3.66,2.14-3.32-.26-3.63-2.86-.32-3.32Z"/>
  <path class="st49" d="M61.48,84.1c-.13.04-.99.03-1.18,0-.55-.08-1.93-.91-2.29-1.35-2.28-2.74,4.84-2.74,5.25-2.04.36.6-.04,1.6-.43,2.12-.13.17-1.26,1.24-1.35,1.27Z"/>
  <path class="st0" d="M71.26,82.62c1.12-.12,3.9.1,3.17,1.81-.28.65-1.72,1.1-2.38,1.17-3.68.4-4.6-2.57-.78-2.98Z"/>
  <path class="st9" d="M77.56,93.92c-.8-.54-2.87-1.75-3.72-2.03l2.54-1.86c.05.19.8.98.97,1.48.23.66.43,1.73.21,2.41Z"/>
  <path class="st47" d="M49.76,71.45c.35-.05,1.29-.17,1.49.11.25.35.06.88-.27,1.1-.18.13-3.01.91-3.32.93-.54.03-1.1-.24-.83-.84s2.28-1.22,2.93-1.31Z"/>
  <path class="st40" d="M65.99,71.09c.56-.18,2.48.04,3.08.26,1.11.41,1.23,1.38-.05,1.43-.37.01-3.13-.38-3.23-.51-.18-.25-.16-1.05.2-1.17Z"/>
  <path class="st12" d="M71.3,69.37c-.13-.23-.27-.56-.34-.68v-14.39c0-.33.06-.64.34-.85v15.91Z"/>
  <path class="st52" d="M68.42,92.56c.18-.17.2-.32.51-.51.86-.18,3.33.78,3.64,1.52.11.25-.29.53-.6.44-.27-.08-.77-.53-1.18-.69-.81-.33-1.68-.31-2.37-.76Z"/>
  <path class="st37" d="M67.07,94.42c1.46-.11,2.64.93,3.55,1.95l-.26.42c-.39.1-1.14-.82-1.63-1.08s-1.08-.5-1.67-.44c-.01-.17,0-.34,0-.51,0-.11-.02-.25,0-.34Z"/>
  <path class="st43" d="M119.37,11.98l19.13-1.36c0,14.78,0,29.57,0,44.35-.07,15.14-.13,30.48-.17,46.05l-.36-.1c-1.56-1.93-3.17-3.82-4.85-5.68l-.21-.65-.3-.55c0-1.85-.09-3.81-.63-5.57l.25-.32c-.19-.14-.32-.31-.4-.53,0-8.03-.88-16.22-6.14-22.71,4.97-6.93,10.28-14.56,10.13-23.47l.3-.69c.23-.26.23-.43,0-.51-.49.06-.61-.65-.17-.85,0-2.47-2.14-5.17-4.57-5.59-.25.21-.34.12-.17-.17-.62-.34-1.24-.45-1.86-.34-.2.48-1.33.48-1.52,0-.21-.13-.47-.14-.68,0,.13.45,0,.49-.34.17-1.26-.01-2.82.82-3.55,1.86l-.06.52c-1.09,1.25-2.03,2.62-2.82,4.09l-.5.13-.17.51c.05.13.1.25.12.39.07.44-2.08,6.27-2.49,7.16-.11.24-.3.42-.51.58-.21-.19-.15.16,0,.51l.17.73c-.69,2.89-1.21,5.84-1.36,8.79-.28.75-2.16.57-2.53-.04h-.51c-1.04.55-2.41.38-3.56.21-.13-2.3-.22-4.62-.25-6.97l.26-.85c.21-.85.03-1.95-.21-2.79,0,0-.06.03-.13.08-.48.13-.58-.24-.17-.51.19-.99-.22-2.74-.68-3.39-.48.05-.81-.78-.34-1.02l.16-.16-.67-1.87c-.22.26-.32.15-.17-.17-.29-1.69-1.11-3.39-2.37-4.57-.44.24-.97-.45-.68-.85-.13-.6-.81-.95-.31-1.58l16.82-21.78.08-.51c-.34-.01-.68.01-1.01,0Z"/>
  <path class="st60" d="M138.5,100.18c-.04.2-.16.86-.17,1.02-.15-.05-.15-.1,0-.17.12-15.03-.16-30.08,0-45.12,0-.29-.11-.75.17-.93,0,15.06,0,30.14,0,45.2Z"/>
  <path class="st28" d="M132.92,94.59c2.01,1.79,3.73,4.33,5.42,6.43v.17c-.33,3.94.33,8.36.01,12.29-.03.34-.02.42-.35.58l-.3.3c-.9-.04-2.52-.51-2.75-1.48h-.56c-1.85-2.1-3.71-4.17-5.58-6.22-5.35-1.14-4.96-12.96-.26-14.05,1.49-.35,3.83.52,4.36,1.99Z"/>
  <path class="st48" d="M138,114.06c.12.02.36-.09.34.1v25.12c-4.52-.29-9.03-.67-13.55-1.02l-.04-.78c.86-2.18,1.32-4.5,1.52-6.83l.39-.68.51-.44c3.01-.61,6.13-1.27,8.75-2.94l-1.28-13.48.32-.24c1.16.86,1.67.97,3.05,1.18Z"/>
  <path class="st5" d="M126.65,129.97c-.17,2.84-.72,5.68-1.86,8.29-3.72-.28-7.45-.55-11.17-.85l-.37-.14-.94-5.19.3-.26c.15-.1.31-.18.47-.25s.32-.13.48-.14c4.05-.49,8.04-1.03,12.08-1.62.16-.02.33,0,.5.02s.35.08.52.13Z"/>
  <path class="st50" d="M109.9,131.84c.08.1.16.2.21.31.32.65-.37,4.31-1.06,4.94-3.56-.29-7.6-.38-11.08-.86-.2-.03-.62-.2-.77-.33-.65-.56-1.36-4.39-1.52-5.42l.59-.11c4.33.65,8.7,1.03,13.07,1.24l.56.23Z"/>
  <path class="st7" d="M112.6,131.84l1.02,5.59c-1.52-.12-3.05-.22-4.57-.34.38-1.73.78-3.47.85-5.25l.19-.34c.61-.08,2.19-.12,2.52.34Z"/>
  <path class="st4" d="M127.84,33.31c.46-.03,1.07-.04,1.52,0,.62-.12,1.24,0,1.86.34.05.03.1.13.17.17,2.44.44,4.57,3.1,4.57,5.59.04.18.16.73.17.85.29.06.26.37,0,.51.59,8.73-5.02,17.54-10.14,24.15,3.75,4.36,5.34,10.07,5.91,15.72.25,2.42.04,5.23.34,7.53l-.54.59c-.95.49-4.73,2.15-5.48,2.06-.14-.02-.28-.06-.42-.11-.05.15-.1.15-.17,0-.1.12-.21.24-.33.33s-.24.18-.37.22c-3.69,1.13-7.74,2.06-11.57,2.6-1.84.26-7.8.99-9.17.32-.14-.07-.27-.16-.4-.26-.02.15-.08.14-.17,0l-.58.28c-1.21-.11-2.39-.36-3.53-.75-.08.18-.27.19-.46.12-.27-.3-.42-.77-.46-1.4-.57-.47-.81-.91-.73-1.3-.44-.06-.65-.22-.51-.68-1.38-.37-2.88-.23-4.22.24l-.35-.24c-.17.02-.32.03-.49-.04-.11-.04-1.89-1.14-2-1.24l-.05-.42c.28-.89.2-3.2.34-4.32.95-7.5,2.42-15.16,7.76-20.85-3.11-4.91-5.78-10.04-6.92-15.8.31-1.31,1.9-3.35,3.39-2.54l.32.41c.22,5.64,2.77,10.95,5.94,15.56l4.6-1.96c-.2-3.76-.43-7.96-1.49-11.61-.83-2.87-2.27-7.1-5.95-6.7l-.38-.28c-.1-.09-.23-.24-.18-.31,1.03-1.38,3.29-4.06,4.53-5.18l.39.07c.36.25.88.54,1.18.85.14.14.54.66.68.85,1.28,1.19,2.06,2.88,2.37,4.57.04.07.14.12.17.17.42.73.59,1.41.51,2.03.09.35.27.73.34,1.02.52.95.84,2.32.68,3.39.04.23.16.44.17.51.45.69.53,1.87.34,2.71.21,1.94.25,3.76.17,5.67-.03.65.01,1.3,0,1.95,1.13.02,2.26-.03,3.39,0h.51c.74.04,1.45.24,2.2.17.06-.83.08-1.78.19-2.6.33-2.56.74-4.64,1.33-7.05-.23-.09-.21-.4,0-.51.72-2.81,2.09-5.49,2.88-8.13l.17-.51c1.16-1.64,1.77-3.3,3.39-4.74.74-1.05,2.28-1.86,3.55-1.86.15-.03.3-.16.34-.17.2-.15.47-.13.68,0Z"/>
  <path class="st31" d="M132.92,94.59c-7.53-6.72-9.88,7.95-5.41,11.08.51.36,1.27.49,1.69.85,1.92,1.6,3.55,4.72,5.74,6.36l1.33,13.94c-2.78,1.74-6.38,2.55-9.62,3.16-4.45.84-9.56,1.62-14.05,1.86-.64.03-1.96,0-2.71,0-4.65.02-9.67-.42-14.22-1.35-3.17-.65-7.09-1.55-9.45-3.85.48-5.87,1.38-11.71,2-17.57.11-1.09.23-2.25.34-3.3l.31.15c3.35-1.27,5.76-4.06,7.67-6.94.24-.35.51-.64.96-.67,1.93.22,3.49-.81,4.85-2.08.33-.07.63-.14.7.2.07-.79.19-1.59.97-1.22,4.71,8.87,18.9,3.46,21.82-4.33.14.19.12.12-.04-.19,2.21-.65,4.31-1.67,6.43-2.54.03.21.25.51.29.81.26,1.91.56,3.66.39,5.62Z"/>
  <path class="st39" d="M97.37,90.19c-.1.28-.4.4-.9.38-1.93.53-3.44,1.71-.21.13.68-.25,1.22-.2,1.62.17,1,1.07,1.33,1.06,1.18,2.71.57.46,0,2.36-.68,2.54-2.12,3.66-5.7,7.02-9.55,8.76l-.27-.29c-1.98.28-3.89-1.27-4.39-3.14-1.06-3.94,2.13-7.29,5.07-9.39.49-1.07,2.41-2.09,3.55-1.86,1.44-.49,3.2-.93,4.57,0Z"/>
  <path class="st27" d="M102.62,35l-4.74,5.42.02.35c-1.35.98-2.58,2.25-2.71,4.01l-.36.21c-.47.28-.95.05-1.45.33-.58.33-1.35,1.72-1.94,2.21-1.02-5.19-1.5-11.78,4.74-13.63,2.65-.78,4.23-.43,6.43,1.1Z"/>
  <path class="st11" d="M125.81,90.7c.53-.07.32.15.22.48-2.23,7.08-15.9,12.67-21.21,5.87-.45-.58-.66-1.3-1.19-1.77-.91,3.53-1.1,7.2-1.19,10.83h-.51c-.18-3.31.28-6.57.84-9.82-1.05.93-2.41,2.1-3.85,2.33-.52.08-1.37-.08-1.74.13-.24.13-2.14,2.94-2.62,3.47-1.19,1.32-3.92,3.58-5.62,4.03-.54.14-.39-.1-.39-.48.04-.38-.03-.8,0-1.18,1.99-.28,6.31-4.36,7.7-5.92.73-.82,1.28-1.84,2.11-2.54.17.53.04,1.01-.18,1.5,2.16-.2,3.94-1.71,4.97-3.57l.46-.14c.06,0,.11,0,.17,0l.48.31c4.17,9.09,17.43,3.94,20.91-3.2l.45-.32c.05-.02.12.02.17,0Z"/>
  <path class="st56" d="M92.8,90.19c-1.29.44-2.45,1.07-3.55,1.86-.2-1.33.22-2.14.71-3.28.07-.16.3-.26.31-.28.85.49,1.93.91,2.54,1.69Z"/>
  <path class="st2" d="M50.59,77c.89-.29,1.28,1.08.44,1.31-.99.28-1.11-1.1-.44-1.31Z"/>
  <path class="st53" d="M67.72,76.16c.43.27-.07,1.69-.92,1.01-.8-.64.29-1.4.92-1.01Z"/>
  <path class="st23" d="M131.39,33.82c.31-.34,1.27.01,1.59.19.15.08,1.83,1.73,1.97,1.92.47.64,1.51,2.71,1.01,3.47-.66-3.13-1.95-4.16-4.57-5.59Z"/>
  <path class="st23" d="M106.85,41.27c-.78-1.51-1.35-3.19-2.37-4.57l1.1.84c.64.83.99,1.64,1.24,2.65.07.28.31.88.02,1.08Z"/>
  <path class="st23" d="M108.54,47.87c-.2-1.11-.4-2.29-.68-3.39.13-.37.4.25.43.34.18.64.45,1.73.52,2.37.04.33.15.54-.27.68Z"/>
  <path class="st23" d="M126.82,33.48c-1.3.3-2.56.98-3.55,1.86.02-.72,1.14-1.28,1.75-1.55.46-.21,1.37-.73,1.81-.31Z"/>
  <path class="st23" d="M109.05,51.09c-.09-.84-.2-1.89-.34-2.71-.07-.55.19-.37.29-.04.17.57.64,2.39.05,2.75Z"/>
  <path class="st23" d="M107.02,41.44c.3.56.58.61.77,1.52.05.25.3.95-.26.52-.18-.67-.44-1.33-.51-2.03Z"/>
  <path class="st23" d="M138.33,10.8c.25,2.14-.96.27-.68,0h.68Z"/>
  <path class="st23" d="M131.22,33.65c-.63-.05-1.23-.29-1.86-.34.81-.58,1.29.03,1.86.34Z"/>
  <path class="st23" d="M136.13,40.25l.08-.34c.35.31.46.98-.08.85-.01-.17.02-.34,0-.51Z"/>
  <path class="st23" d="M116.84,48.72c-.04.14.04.36,0,.51l-.34-.09.17-.59.17.17Z"/>
  <path class="st23" d="M127.84,33.31c-.22.01-.47-.03-.68,0,.07-.26.62-.25.68,0Z"/>
  <path class="st23" d="M119.71,40.59c.03-.09-.27.12.17-.51l-.17.51Z"/>
  <path class="st23" d="M113.11,58.7h-.51c.14,0,.26-.01.51,0Z"/>
  <path class="st22" d="M125.76,40.97c5.63-.95,5.34,4.67,4.4,8.46-1.18,4.78-3.98,9.16-7.06,12.93l-.22.05-4.87-2.59c-.27-.37-.03-1.81.03-2.36.49-4.08,2.76-13.87,6.52-15.99.34-.19.81-.43,1.2-.5Z"/>
  <path class="st54" d="M94.83,44.99c.05-.74.29-1.65.67-2.29.3-.51,1.86-2.17,2.38-2.28,5.15-1.11,6.83,6.89,7.4,10.46.18,1.16,1.04,7.75.65,8.34l-4.92,2.15c-1.78-2.44-3.35-5.19-4.44-8.04-.9-2.36-1.9-5.83-1.73-8.34Z"/>
  <path class="st14" d="M125.64,90.7c-1.82,4.69-7.31,7.9-12.13,8.61-4.26.62-8.26-1.21-9.71-5.39,7.06.64,15.17-1.26,21.84-3.22Z"/>
  <path class="st16" d="M109.9,79.19l.39-.02c4.91,3.84,6.03-5.97.33-3.43l-.38-.11c-.16-.23.28-.72.42-.85,3.79-3.49,9.25,1.36,6.1,5.43-1.55,2.01-4.6,2.04-6.35.25l-.51-1.27Z"/>
  <path class="st41" d="M109.9,79.19c-.56-.96-.46-2.76.34-3.55,1.32-1.32,3.86-.72,4.44,1.06,1.16,3.55-3.39,4.89-4.78,2.49Z"/>
  <path class="st57" d="M95.17,78.68l.38-.08c4.73,2.78,5.04-5.44.33-3.5l-.37-.14c-.42-.22.46-.91.59-1.01,1.8-1.33,4.32-.61,5.19,1.41,1.53,3.5-1.97,6.99-5.17,4.83-.3-.21-1.35-1.05-.96-1.5Z"/>
  <path class="st30" d="M95.17,78.68c-.81-.98-.65-2.91.34-3.72,2.02-1.67,4.85.55,3.98,3.05-.6,1.7-3.18,2.06-4.31.68Z"/>
  <path class="st3" d="M103.63,93.92c-1.13,2.24-3.31,4.09-5.92,4.06.24-.62.46-1.24.68-1.86.33-.95.59-1.51.68-2.54.24-.17.01-.54.39-.48.72.11,1.5.47,2.29.6.63.1,1.27.16,1.9.22Z"/>
  <path class="st21" d="M117.3,82.45c.99-.14,3.54-.09,3.9,1.09.55,1.84-2.76,2.05-3.93,1.9-2.61-.34-2.67-2.6.03-2.99Z"/>
  <path class="st36" d="M103.97,82.74c.12-.46.89-.46,1.02,0,.24,2.02,2.52,2.89,4.15,1.69.53-.39.8-1.18,1.61-1.01.08,1.85-1.95,2.68-3.55,2.54l-.31.3c-.91-.24-1.71-.71-2.4-1.41l-1.66.85-.38-.25c-1.55.29-4.19-1.33-3.31-2.71.42-.65,1.25,1.21,1.72,1.5,1.39.84,2.97.14,3.11-1.5Z"/>
  <path class="st24" d="M104.99,82.74c-.17.03-.86.04-1.02,0-1.28-.3-3.41-3.61-.08-3.57.51,0,2,.15,2.47.26,2.4.56.24,3-1.37,3.31Z"/>
  <path class="st58" d="M107.19,85.96c-.21,2.37-1.66,3.34-3.9,2.29-.88-.42-1.73-2.04-.84-2.8.77-.14,1.98-1.02,2.09-1,.31.05,1.12,1.38,2.65,1.51Z"/>
  <path class="st8" d="M93.26,81.6c1.06-.18,3.17-.18,3.75.92,1.21,2.28-5.48,2.5-5.06-.02.09-.53.84-.82,1.31-.9Z"/>
  <path class="st63" d="M113.22,70.75c.81-.26,4.21.47,3.94,1.55-.05.22-.33.43-.56.44-.14,0-2.55-.5-2.81-.58-.76-.24-1.31-1.17-.57-1.42Z"/>
  <path class="st25" d="M98.52,70.6c.57-.05,1.24-.09,1.21.72-.02.63-2.75,1.12-3.3,1.1-.5-.01-.9-.35-.67-.85.28-.61,2.12-.91,2.76-.97Z"/>
  <path class="st6" d="M97.37,90.19c.49.33.37.53.51.68-.68,0-1.49.1-2.13.33-.41.15-1.61,1.21-1.77.6-.23-.89,2.66-1.85,3.39-1.61Z"/>
  <path class="st64" d="M103.46,114.57c-.07-.31.1-.47.23-.7,1.3-2.36,6.26-7.69,8.32-9.79.55-.56,1.08-1.14,1.78-1.52-.58,1.82-2.21,3.6-3.47,5.08-1.67,1.98-4.31,4.99-6.27,6.6-.19.16-.27.41-.59.34Z"/>
  <path class="st61" d="M99.06,108.64c.2.2-.84,1.53-1.02,1.77-1.81,2.41-5.11,5.89-7.44,7.8-.15.12-.89.73-1.02.59-.05-.34.09-.57.26-.84,1.09-1.75,6.68-7.6,8.37-8.9.25-.19.5-.46.85-.42Z"/>
  <path class="st46" d="M97.2,118.29c.04.31-.17.53-.34.76-.97,1.33-5.33,6.04-6.59,6.78s-.5-.35-.08-.92c1.06-1.4,4.95-5.49,6.35-6.34.21-.13.37-.33.66-.27Z"/>
  <path class="st35" d="M103.92,103.09c1.46-.43,1.46,2.07,0,1.64-.65-.19-.65-1.44,0-1.64Z"/>
  <path class="st10" d="M104.08,99.02c1.43-.48,1.81,1.58.32,1.52-.91-.04-.71-1.38-.32-1.52Z"/>
  <path class="st62" d="M113.4,76c.86-.24,1.24.91.43,1.14-.86.24-1.24-.91-.43-1.14Z"/>
  <path class="st1" d="M98.5,75.32c.67-.05.83,1.26-.03,1.27-.78,0-.82-1.2.03-1.27Z"/>
</svg>