<?xml version="1.0" encoding="UTF-8"?>
<svg id="Layer_1" xmlns="http://www.w3.org/2000/svg" version="1.1" viewBox="0 0 160 160">
  <!-- Generator: Adobe Illustrator 29.8.3, SVG Export Plug-In . SVG Version: 2.1.1 Build 3)  -->
  <defs>
    <style>
      .st0 {
        fill: #d4923e;
      }

      .st1 {
        fill: #eaeaea;
      }

      .st2 {
        fill: #f2bf60;
      }
    </style>
  </defs>
  <path class="st2" d="M75.95,39.64c.05.5-.05,1.01,0,1.51,3.55.39,7.01,1.32,10.36,2.55.07,0,.65-.94.83-1.13,6.62-6.74,14.77-11.26,23.66-14.41,2.43-.86,8.98-3.06,11.28-2.52.12.03.11.26.25.32.23.09.49.04.78.21,1.36.81,1.69,1.72,1.8,3.26.82,10.94-2.95,26.17-9.22,35.19-2.03,2.93-4.54,5.47-7.14,7.9.83,3.9,1.8,7.8,2.17,11.78.14,1.5.03,3.24.17,4.73.03.3.06.58.34.76-3.28,3.26-6.21,7.18-9.62,10.39-2.77,2.6-5.93,4.67-8.94,6.93-5.5,4.13-5.27,11.46,1.19,14.49,3.12,1.46,9.33,1.94,12.81,1.79.1.78-.56,1.98-1.01,2.62-.62.87-1.34,1.99-2.03,2.87-.54.69-2.22,1.9-2.36,2.62-1.54.11-2.71,1.42-4,2.16-5.56,3.21-11.85,4.65-18.2,5.27-.57-.03-.53-1.79-.67-2.37-1.41-5.84-5.92-11.39-12.53-8.81-.83.32-3.92,2.34-3.18,3.42.42.62,1.96-1.05,2.4-1.33,4.3-2.72,8.7-.31,10.49,3.97.59,1.43,1.13,3.42,1.48,4.94.07.3.19,1.63.26,1.69.09.08.57-.06.67,0,.04.03-.04.31,0,.34-.26.06-.7-.21-.68.25.03.68.24,1.23.17,2.03-.1,1.21-.62,3.3-1.26,4.31-.16.26-.19.52-.6.5.07-.92-.16-4.24-1.28-4.4-1.69-.24-.27,2.34-.23,3.29.04,1.2-.47,2.14-.52,3.3-.07.05-.18.35-.44.48-1.21.59-2.99.79-4.29.53,1.39-.3,1.63-2.92,1.5-4.12-.05-.46-.5-2.29-.94-2.44-1.57-.53-.61,1.88-.6,2.59.03,1.44-.73,2.3-.98,3.63-.39-.11-.79-.03-1.35-.25-2.14-.85-3.78-3.44-4.24-5.63-2.69-.13-5.22-.28-7.74-1.29-2.67-1.07-5.3-3.47-6.68-5.99-.67-1.24-1.05-3.04-1.69-4.05-.49-.76-1.69-1.37-2.36-2.03-1.41-1.37-3.13-3.44-4.2-5.09-3.17-4.86-4.87-10.35-5.92-16.03-.51-.45-1.24-.25-1.82-.38-12.37-2.77-7.28-21.71,1.53-26,.65-5.37,1.18-10.81,2.86-15.97,1.15-3.53,3.13-7.95,5.14-11.06.6-.93,1.84-1.89,1.83-2.98.38.06.52-.11.77-.33.81-.7,1.55-1.94,2.35-2.71,6.47-6.22,15.77-9.57,24.65-9.96.68-.03,4.49.17,4.65,0s-.35-1.48.34-1.35ZM95.64,46.63c-1.1-.75-2.79-1.72-3.98-2.35-.69-.37-2.87-1.49-3.51-1.57-.87-.12-.64.36-.9.85-.1.19-.48.12-.32.63,2.37.82,4.83,2.35,6.83,3.89,7.5,5.76,11.8,14.63,14.43,23.54.27.43.35-.13.47-.24.47-.39,1.86-1.05,1.89-1.6.03-.49-1.24-4.3-1.5-5.08-2.42-7.14-7.15-13.8-13.41-18.08ZM69.66,132.03c-4.83.91-3.58,11.26,1.8,10.58,4.6-.58,3.75-7.4,1.03-9.78-.71-.61-1.91-.98-2.83-.8Z"/>
  <path class="st0" d="M126.6,79.32c-.5,1.75-1.34,3.18-.73,5.03.08.23.42.99.56,1.13.05.05,1.06.72,1.12.73.36.03.74-.16,1.15-.15.45,0,.84.19,1.19.2.29,0,.21-.28.37-.34.85-.29,1.72-.57,2.57-.86-.52,2.36-1.54,4.68-.59,7.09,1.08,2.75,4.01,1.64,5.66.09.79-.74,1.36-1.93,2.05-2.68.15-.16.15-.36.47-.28.23.21.41,4.22.55,4.94.3,1.59,1.52,3.4,1.65,4.94.12,1.42-.85,3.31-1.35,4.64s-2.08,3.2-3.12,4.39c-8,9.11-19.28,14.68-31.49,15.19-3.48.15-9.69-.33-12.81-1.79-6.46-3.03-6.69-10.36-1.19-14.49,3.01-2.26,6.17-4.33,8.94-6.93,3.41-3.21,6.34-7.13,9.62-10.39,5.24-5.19,9.15-7,15.36-10.47Z"/>
  <path class="st2" d="M75.95,39.3c-.19-.97-.87-.93-1.78-1.01-9.67-.83-26.04,4.71-30.84,13.74-.13.24-.07.53-.48.44-4.03-17.72,7.18-35.92,19.92-47.36,1.2-1.08,4.25-3.69,5.82-3.63,2.35.09,3.27,2.75,3.85,4.6,2.82,9.01,4.24,21.03,3.84,30.43l-.34,2.79Z"/>
  <path class="st1" d="M141.29,103.8c.51-1.33,1.47-3.22,1.35-4.64-.13-1.53-1.35-3.35-1.65-4.94-.14-.72-.32-4.74-.55-4.94-.32-.08-.32.12-.47.28-.69.74-1.26,1.94-2.05,2.68-1.65,1.54-4.58,2.66-5.66-.09-.95-2.41.07-4.73.59-7.09-.85.28-1.72.56-2.57.86-.16.05-.08.34-.37.34-.35,0-.75-.19-1.19-.2-.41,0-.79.18-1.15.15-.07,0-1.08-.68-1.12-.73-.14-.14-.49-.9-.56-1.13-.61-1.85.22-3.28.73-5.03,2.77-1.55,5.89-5.98,6.84-8.95.42-1.3,1.41-6.37,2.46-6.84s3.76,2.15,4.47,2.95c8.35,9.55,7.76,24.98,2.17,35.78-.24.47-.71,1.47-1.25,1.54Z"/>
  <path class="st2" d="M101.28,131.82c0,.62.26,2.02.6,2.53.38.57,1.26.84,1.75,1.29,4.13,3.7,1.82,13.77-2.01,17.12-.08-.65.57-3.47-.42-3.56-1.29-.1-.93,1.8-1.18,2.71-.27.96-1.1,1.57-1.27,2.53-1.14.27-2.45.23-3.6-.04-.21-.05-.27-.29-.29-.3l1.76-1.87c.56-.81,2.08-4.11.02-3.7-.63.12-.34.69-.5,1.19-.12.35-.65,1.34-.87,1.66-.52.77-1.5,1.39-1.92,2.21-.78-.44-1.89-1.46-2.32-2.32-.56-1.13-.62-2.34-.55-3.59-4.86.21-10-2.4-11.99-6.92,6.4.46,16.81-2.89,21.76-7.02.69-.58.57-.5.7-1.34.05-.31-.22-.69.33-.59ZM103.55,139.18c-1.35-1.96-3.04-1.38-4.47.16-2.02,2.18-3.07,6.02.05,7.72,1.56.85,3.24-.24,4.03-1.61,1-1.73,1.53-4.61.39-6.27Z"/>
  <path class="st0" d="M75.95,39.3c.02.1-.01.23,0,.34-.69-.13-.18,1.19-.34,1.35s-3.97-.04-4.65,0c-8.88.39-18.17,3.75-24.65,9.96-.8.77-1.55,2.01-2.35,2.71-.25.22-.39.39-.77.33,0-.29-.11-.57-.17-.84.29-.29.23-.39-.17-.34-.02-.1.02-.24,0-.34.41.09.35-.21.48-.44,4.8-9.02,21.17-14.57,30.84-13.74.91.08,1.59.04,1.78,1.01Z"/>
  <path class="st0" d="M101.28,131.49c-.02.09,0,.23,0,.34-.55-.1-.28.28-.33.59-.13.83,0,.76-.7,1.34-4.95,4.13-15.36,7.48-21.76,7.02-.13,0-.47.03-.51,0-.04-.03.04-.31,0-.34-.1-.06-.58.08-.67,0-.06-.06-.19-1.39-.26-1.69-.35-1.52-.88-3.51-1.48-4.94-1.79-4.29-6.19-6.7-10.49-3.97-.44.28-1.98,1.95-2.4,1.33-.73-1.07,2.35-3.09,3.18-3.42,6.61-2.59,11.12,2.97,12.53,8.81.14.59.1,2.34.67,2.37,6.36-.62,12.64-2.06,18.2-5.27,1.29-.75,2.46-2.05,4-2.16Z"/>
  <path class="st0" d="M67.85,150.73c.25-1.33,1.01-2.19.98-3.63-.01-.71-.97-3.12.6-2.59.44.15.89,1.98.94,2.44.13,1.2-.11,3.82-1.5,4.12-.48-.1-.69-.25-1.01-.34Z"/>
  <path class="st0" d="M93.34,153.6c.42-.82,1.4-1.45,1.92-2.21.22-.32.75-1.31.87-1.66.17-.5-.13-1.07.5-1.19,2.06-.41.54,2.9-.02,3.7l-1.76,1.87c-.71-.21-.7-.04-1.52-.51Z"/>
  <path class="st0" d="M75.62,147.86c-.02.24.06.41-.09.67-.05.09-1.34,1.37-1.48,1.47-.16.12-.4.02-.45.05.05-1.15.56-2.09.52-3.3-.03-.95-1.46-3.54.23-3.29,1.11.16,1.34,3.48,1.28,4.4Z"/>
  <path class="st0" d="M101.62,152.76c-.89.78-.81.69-1.86,1.18l-.17.17c-.3.12-.49.25-.84.34.16-.96,1-1.57,1.27-2.53.25-.91-.11-2.82,1.18-2.71.99.08.35,2.9.42,3.56Z"/>
  <path class="st2" d="M42.86,52.81c.4-.05.46.04.17.34,0-.02-.11-.09-.17-.34Z"/>
  <path class="st2" d="M99.59,154.11l.17-.17s-.1.14-.17.17Z"/>
  <path class="st0" d="M95.64,46.63c6.26,4.28,10.99,10.94,13.41,18.08.26.78,1.53,4.59,1.5,5.08-.03.55-1.42,1.21-1.89,1.6-.12.1-.2.66-.47.24-2.63-8.9-6.93-17.78-14.43-23.54-2.01-1.54-4.46-3.07-6.83-3.89-.16-.51.22-.44.32-.63.26-.49.02-.97.9-.85.64.08,2.82,1.2,3.51,1.57,1.19.63,2.88,1.6,3.98,2.35Z"/>
  <path class="st0" d="M69.66,132.03c.92-.18,2.13.19,2.83.8,2.72,2.38,3.57,9.2-1.03,9.78-5.39.68-6.63-9.67-1.8-10.58Z"/>
  <path class="st0" d="M103.55,139.18c1.15,1.66.61,4.54-.39,6.27-.79,1.37-2.47,2.46-4.03,1.61-3.13-1.7-2.08-5.54-.05-7.72,1.43-1.54,3.12-2.12,4.47-.16Z"/>
</svg>