<?xml version="1.0" encoding="UTF-8"?>
<svg id="Layer_1" xmlns="http://www.w3.org/2000/svg" version="1.1" viewBox="0 0 160 174.77">
  <!-- Generator: Adobe Illustrator 29.8.3, SVG Export Plug-In . SVG Version: 2.1.1 Build 3)  -->
  <defs>
    <style>
      .st0 {
        fill: #c0303c;
      }

      .st1 {
        fill: #dc8b97;
      }

      .st2 {
        fill: #df9099;
      }

      .st3 {
        fill: #f498a4;
      }

      .st4 {
        fill: #cf7780;
      }

      .st5 {
        fill: #fcede0;
      }

      .st6 {
        fill: #fcf1e5;
      }

      .st7 {
        fill: #bf2f3a;
      }

      .st8 {
        fill: #f4949c;
      }

      .st9 {
        fill: #fcfcfb;
      }

      .st10 {
        fill: #fdf4e9;
      }

      .st11 {
        fill: #cf7883;
      }

      .st12 {
        fill: #f498a3;
      }

      .st13 {
        fill: #f5b1bf;
      }

      .st14 {
        fill: #f4939f;
      }

      .st15 {
        fill: #d07c85;
      }

      .st16 {
        fill: #f0818e;
      }

      .st17 {
        fill: #e0929a;
      }

      .st18 {
        fill: #695b5f;
      }

      .st19 {
        fill: #f497a2;
      }

      .st20 {
        fill: #d67c85;
      }

      .st21 {
        fill: #ce727c;
      }

      .st22 {
        fill: #fff5ea;
      }

      .st23 {
        fill: #fcefe7;
      }

      .st24 {
        fill: #f4959c;
      }
    </style>
  </defs>
  <path class="st13" d="M39.56,101.78c.39-7.05,1.07-14.33,2.54-21.24,1.88-8.85,5.27-16.95,11.57-23.55-4.84-6.85-8.99-14.58-11.68-22.56-3.13-9.25-5.63-24.18,4.87-29.65,9.08-4.73,16.06,1.94,19.66,9.77,4.64,10.08,5.73,22.26,5.78,33.26,4.09-.73,8.28-.96,12.38-.22,0-10.69,1.11-22.42,5.43-32.28,3.35-7.65,9.6-14.67,18.8-11.07,12.1,4.74,9.12,21.17,5.8,30.81-2.61,7.56-6.52,14.52-10.75,21.26,10.17,9.73,12.94,24.02,14.34,37.52.15.3.28.61.39.92s.2.62.23.94c.51,5,.6,10.11.67,15.14-.38,1.01-.43,2.19-.19,3.13.53.39.31.81,0,1.33.11.18.21.36.28.55s.13.37.13.55c-.05,4.46-.46,9.77-1.51,14.09-.04.18-.15.34-.26.5s-.26.32-.41.46c-1.3,5.29-4.22,11.8-8.18,15.48-.13.46-.31.79-.62,1.13-2.84,3.08-10.84,5.82-14.95,6.87-1.78.46-9.59,2.13-10.78,1.56-.15-.07-.28-.17-.41-.27-1.79.1-3.95.07-5.75,0-.2.11-.41.2-.62.27-1.78.56-8.41-.64-10.64-1.1-15.52-3.17-22.4-11.9-25.83-26.94-.19-.83-.96-4.21-.64-4.76.09-.16.37-.1.57.01l.74.28c2.39,3.33,5.52,6.19,9.54,7.3l.55.59.52.69c1.7,12.7,12.01,17.31,23.67,18.29,13.16,1.1,29.35-2.05,32.4-17.03s-11.11-23.88-24.26-23.69l-.47-.37c-.18-.41.02-.84.59-1.3,5.19-8.38-9-4.1-12.36-2.15-.48.17-.79.04-1-.42-.65-1.76-1.85-3.84-3.61-4.65-4.83-2.22-4.17,4.5-3.82,7.17,0,.35-.03.63-.26.91-.47.57-5.7,2.74-6.24,2.6-.4-.1-.58-.47-.73-.81-.79-2.04-1.7-4.02-2.75-5.93l.1-.5c-.42-.13-.9-.19-1.28.09-2.06-3.72-7.28-6.01-10.9-2.95l-.65-.02Z"/>
  <path class="st19" d="M38.46,122.13c.67-.8,1.84.87,1.33,1.55-.43.22-.17.77-.12,1.11,3.28,22.27,15.11,30.55,37.27,31.41-1.85,7.22-1.38,14.58-10.72,15.27-4.61.34-9.12-.05-11.51-4.43-2.62-4.79-3.55-11.02-4.31-16.37-.75.55-3.88.28-4.17.47-.09.06-.58,1.51-.95,2.03-2.8,3.96-8.22,3.95-11.24.25-.31-.38-.84-1.57-.92-1.62-.14-.09-2.58.23-3.34.13-4.4-.6-6.45-5.04-5.46-9.11.19-.78,1.32-2.51,1.32-2.66,0-.3-.93-1.44-1.15-1.95-2.31-5.25,1.47-11.72,7.54-10.34.51-2.34,3.94-6.04,6.43-5.74Z"/>
  <path class="st12" d="M39.56,101.78c3.67-3.42,8.41-1.7,11.28,1.66.23.27.41.92.48.96.19.12.57-.03,1.07.26-.13.27-.43.45-.89.55-.31,1.13,3.11,8.01,3.54,8.12.56.15,7.71-2.64,8.19-3.22.3-1.65.29-3.38-.01-5.17-.31-5.11,3.59-2.57,4.93.15.6,2.54,1.51,3.37,2.74,2.48,2.18-1.19,9.86-4.22,11.86-2.71,1.33,1-.64,3.15-1.63,3.77l-4.09,3.1c2.22,5.42,2.29,8.62-2.88,11.86-7.23,4.52-17.67,9.53-26.09,5.66-5.24-2.41-7.29-6.75-9.3-11.63-.46-.11-.78-.31-.95-.59,0-.11-.53-1.67-.6-2.17-.53-3.93-.85-10.1,2.37-13.1Z"/>
  <path class="st3" d="M128.04,124.78l.12.46c-2.1,1.15-1.91,1.6.58,1.34l.63.62c.13.3.44.33.46,1,.16,4.85-9.22,5.62-12.18,3.21,1.24-5.03,1.66-10.97,1.77-16.15l.32-.96c1.01-1.05,1.78-2.02.08-2.8.16.84-.04,1.67-.4,2.43-.37-.23-.22-.84-.23-1.21-.08-6.38-.22-12.57-.88-18.91,8.94,4.12,23,12.37,16.02,24.09-1.66,2.79-3.8,4.87-6.29,6.87Z"/>
  <path class="st19" d="M82.69,156.19c8.51-.46,20.38-3.36,26.76-9.29-.17,3.44-.67,6.85-1.4,10.22s-2.64,10.78-5.61,12.75c-3.59,2.38-12.17,2.28-15.44-.63-2.92-2.59-3.54-9.39-4.31-13.05Z"/>
  <path class="st20" d="M52.39,104.66c.96.56,3.06,6.87,3.44,6.87,1.02-.43,5.56-1.85,5.96-2.66.31-2.35-1.31-6.9,1.44-8.07,3.43-1.47,6.11,2.42,6.99,5.21,3.51-1.22,9.65-4.47,13.22-2.41,2.68,1.54.68,4.61-.96,6.16l.07.46-2.99,2.1c1.7,4.72,1.38,9.02-2.87,12.07-4.68,3.35-12.88,7.27-18.49,8.12-1.47.22-6.27.6-7.24-.25-.12-.11-.22-.24-.32-.37-4.74-1.08-8.18-4.35-10.84-8.18-.4-.57-.62-1.46-1.33-1.55.34-1.17-.99-2.48-1.1-3.68-.08-.9.43-1.23.43-1.41.43,0,.86-.11,1.22.22.4.36,1.85,4.28,2.45,5.29,4.91,8.31,13.61,9.11,22.04,5.93,2.65-1,11.99-5.56,13.4-7.61,2.02-2.94.83-6.24-.38-9.21.19-.73,6.05-3.95,6.17-5.59.03-.33.07-.62-.22-.87-1.07-.91-6.17.56-7.58,1.05-1.09.38-4.54,2.24-5.35,2.16s-1.24-2.08-1.62-2.81c-.55-1.04-2.26-3.57-3.65-3.14-1.55.48.39,6.63-.71,7.93-.61.71-7.63,3.45-8.62,3.35-.35-.04-.86-1.13-1.11-1.57-.6-1.05-2.51-4.92-2.71-5.92-.24-1.23-.09-1.79,1.27-1.61Z"/>
  <path class="st11" d="M129.36,127.22c-.61-.52-2.89.14-3.1-.56-.22-.74,1.32-1.51,1.77-1.87.31.99.88,1.41,1.33,2.43Z"/>
  <path class="st10" d="M50.62,131.86c5.65,1.28,11.33-.33,16.45-2.69,2.5-1.15,9.65-4.81,11.2-6.72,2.41-2.97,2.09-6.92.77-10.29.09-.19,3.21-2.38,3.43-2.42,4.32-.81,12.99,2.03,16.7,4.42,13.3,8.56,10.98,27.3-2.72,34.01-9.78,4.78-29.13,4.59-38.07-2.06-4.53-3.37-7.27-8.63-7.76-14.25Z"/>
  <path class="st14" d="M53.67,15.8c8.13-.86,11.07,11.59,12.14,17.59.93,5.18,1.42,10.49,1.29,15.75l-8.64,4.2c-.45,0-1.09-1.08-1.39-1.48-4.95-6.57-11.3-21.34-9.67-29.5.63-3.15,2.89-6.2,6.27-6.56Z"/>
  <path class="st14" d="M89.8,48.67c.06-6.77.65-14.05,2.46-20.59,1.5-5.4,5.86-15.17,13.14-11.71,8.02,3.81,2.94,19.06.26,25.11-.67,1.52-5.28,10.62-6.31,10.96-.64.21-8.04-3.81-9.55-3.77Z"/>
  <path class="st15" d="M74.29,96.69c-3.34.1-5.49-1.38-7.41-3.98-.35.29-.78,1.04-1.32.88-1.37-.4,1.41-3.88,3.28-3.28,1.19.38-.23,1.03-.28,1.1-.29.41,1.58,2.22,1.98,2.5,3.24,2.26,8,.89,8.17-3.41.03-.63,1.64-.6,1.77,0,.18,4.56,6.13,5.43,8.97,2.66.63-.62,1.6-3.02,2.7-1.94.87.85-1.44,3.24-2.18,3.79-1.47,1.11-2.8,1.46-4.63,1.46-.49.77-2.09.29-2.88,0-1.07-.38-2.01-.97-2.73-1.87-1.31,1.28-3.71,3.14-5.44,2.09Z"/>
  <path class="st9" d="M85.35,96.47c-.43,4.64-3.25,6.51-7.76,5.43-1.86-.45-2.72-1.85-3.31-3.54-.16-.46-.68-1.48,0-1.67,2.33-.07,4.04-1.03,5.42-2.87,1.27,1.97,3.39,2.65,5.64,2.65Z"/>
  <path class="st22" d="M103.48,79c2.8,10.24-12.33,13.98-14.8,3.18-.1-.43.08-1.12-.02-1.41.26-.56.42-.56.66,0,.63.16.61.71,0,.88l.22.66.54.25c1.85,5.66,10.05,3.31,8.86-2.43l.34-.48.27-.48,3.54-.55.4.37Z"/>
  <path class="st16" d="M80.48,90.5c-.25.06-1.5.05-1.77,0-1.35-.27-4.51-3-4.42-4.52.14-2.39,6.35-2.21,8.02-1.84,3.48.77,2.79,3.25.46,5-.27.2-2.13,1.33-2.28,1.37Z"/>
  <path class="st8" d="M53.67,89.01c1.98-.2,7.75.65,6.52,3.64s-11.01,2.8-11.13-.73c-.06-1.81,3.16-2.77,4.61-2.92Z"/>
  <path class="st24" d="M103.21,89.01c2-.21,7.76.64,6.52,3.64-1.16,2.79-10.14,2.77-11.02-.16-.67-2.23,2.88-3.31,4.5-3.48Z"/>
  <path class="st2" d="M93.7,66.9c1.44-.18,5.11-.24,4.7,2.03-.18.99-3.13.89-4.22,1.1-1.3.26-4.09,1.78-4.96.77-1.76-2.02,3.04-3.74,4.48-3.91Z"/>
  <path class="st21" d="M103.48,79c-1.13.25-3.03.52-4.2.66-1.65.89-3.93,1.13-5.75.66-.48.76-2.44.81-3.1.22-.08.64-.81.82-1.11.22-.21.03-.45-.02-.66,0-.09-.28-1.19-.91.22-1.44,2.25-.23,13.76-2.68,15.06-1.78.49.34.37,1.27-.46,1.45Z"/>
  <path class="st17" d="M63.39,70.2c.94-.23,2.4.07,3.35.32,1.33.36,5,2.09,4.3,3.77-.75,1.78-3.62-.28-4.87-.77-1-.39-2.86-.48-3.47-1.39-.54-.81-.27-1.7.7-1.93Z"/>
  <path class="st4" d="M55.49,79.44c-1.09-.64-.76-1.38.35-1.53,1.9-.26,12.05,1.31,14.21,1.9.82.22,1.45.14,1.15,1.25-.06.23-.43.13-.44.15l-.52.43c-1.38-.1-2.68-.31-3.91-.65-1.73-.11-3.57-.23-5.54-.38l-.66-.51c-.27.68-2.69.53-2.88-.22-.45.06-1.01.09-1.11-.44-.24.56-.46.59-.66,0Z"/>
  <path class="st22" d="M70.75,81.21s.21.39.16.71c-.25,1.68-.82,3.29-1.93,4.6l-.44.28-3.76-1.11-.22-.5c-.13-.45.06-.93.58-1.45.2-.68.52-1.08.97-1.2l.22-.66c-.63-.12-.59-.67,0-.88.04,0,.31-.3.76-.24,1.22.16,2.43.47,3.66.47Z"/>
  <path class="st1" d="M64.56,85.19c.87.17,3.74.93,4.42,1.33.81.47.52,1.08-.33,1.12-1.46.08-4.72-.88-6.44-1.1-1.37-.17-2.81-.35-4.18-.47-.71-.06-4.13.36-3.87-.77.33-.37.86-.47,1.33-.56-.05-.77,1.11-.71,1.55-.22l.33-.46c2.31-.04,4.63.24,6.91.62l.28.5Z"/>
  <path class="st23" d="M56.15,79.44l.35.46c-.29,1.39-.19,2.88.66,4.06l-.12.56c-.27.02-1.22.16-1.55.22-.39-.86-.87-5,0-5.31.13-.05.47,0,.66,0Z"/>
  <path class="st18" d="M119.41,115.27c0-.44,0-.89,0-1.33,0-1.03,0-2.07,0-3.1,3.11,1.28,1.77,2.62,0,4.42Z"/>
  <path class="st7" d="M99.28,79.66c1.82,6.67-7.92,9.5-9.73,2.65l-.22-.66c-.02-.29.02-.59,0-.88.36-.05.71-.17,1.11-.22l.42.28c-.06,1.88,2.69,1.69,2.32-.15l.36-.35c1.89-.24,3.87-.43,5.75-.66Z"/>
  <path class="st21" d="M89.55,82.32c-.03-.12-.18-.2-.22-.66l.22.66Z"/>
  <path class="st5" d="M93.53,80.33c.95,2.73-3.49,3.19-3.1.22,1.02-.13,2.14-.1,3.1-.22Z"/>
  <path class="st0" d="M56.15,79.44c1.47-.07.94.32,1.11.44l.33.37c-.54,1.63,1.37,2.41,2.05.8l.49-.06c.09-.25.15-.43,0-.66-.19-.06-.19-.14,0-.22,1.82.19,3.89.21,5.81.45.17.02.29.43.39.43-.03.28.05.63,0,.88l-.22.66c-.34,1.17-.73,1.77-1.55,2.65-1.98-.39-5.57-.81-7.52-.66-1.23-1.46-1.33-3.3-.88-5.09Z"/>
  <path class="st6" d="M60.13,80.11v.22c.16.22.1.43,0,.66-.81,2.54-3.95,1.25-2.88-1.11.12.08,2.31.16,2.88.22Z"/>
  <path class="st4" d="M66.11,82.54c.06-.2.21-.63.22-.66l-.22.66Z"/>
  <path class="st4" d="M60.13,80.99v-.66c.45.33.06.49,0,.66Z"/>
</svg>