<?xml version="1.0" encoding="UTF-8"?>
<svg id="Layer_1" xmlns="http://www.w3.org/2000/svg" version="1.1" viewBox="0 0 160 160">
  <!-- Generator: Adobe Illustrator 29.8.3, SVG Export Plug-In . SVG Version: 2.1.1 Build 3)  -->
  <defs>
    <style>
      .st0 {
        fill: #943838;
      }

      .st1 {
        fill: #d38793;
      }

      .st2 {
        fill: #d7818e;
      }

      .st3 {
        fill: #f196a3;
      }

      .st4 {
        fill: #d8828e;
      }

      .st5 {
        fill: #b5232e;
      }

      .st6 {
        fill: #f195a2;
      }

      .st7 {
        fill: #fbdad1;
      }

      .st8 {
        fill: #fcf5e9;
      }

      .st9 {
        fill: #e18f9c;
      }

      .st10 {
        fill: #d7848d;
      }

      .st11 {
        fill: #ed8595;
      }

      .st12 {
        fill: #fad7d4;
      }

      .st13 {
        fill: #d57c86;
      }

      .st14 {
        fill: #d6808b;
      }

      .st15 {
        fill: #de8e99;
      }

      .st16 {
        fill: #d77f8c;
      }

      .st17 {
        fill: #fcded1;
      }

      .st18 {
        fill: #f38e98;
      }

      .st19 {
        fill: #fcf5e7;
      }

      .st20 {
        fill: #f6b2bf;
      }

      .st21 {
        fill: #fbf8e8;
      }

      .st22 {
        fill: #ef9693;
      }

      .st23 {
        fill: #b3212d;
      }

      .st24 {
        fill: #fdfcfc;
      }

      .st25 {
        fill: #d2808a;
      }

      .st26 {
        fill: #ef9695;
      }
    </style>
  </defs>
  <path class="st20" d="M41.25,79.2c1.56-13.39,7.37-27.5,20.68-32.83-1.13-3.41-2.68-6.67-3.81-10.09-2.5-7.59-7.07-24.32-2.81-31.36,2.43-4.01,7.55-3.67,10.9-.99,4.59,3.66,6.98,11.36,8.01,16.96,1.38,7.45,1.56,15.1,1.26,22.64,2.51-.16,4.9.64,7.35.93.91-5.39,2.09-10.81,4.26-15.84,2.91-6.75,8.21-13.56,15.74-7.33,10.92,9.03,3.68,25.42-3.09,34.72,1.5,2.64,3.22,5.11,4.48,7.89,4.12,9.05,5.16,19.01,5.27,28.86l-.1,2.77c.2.07.36.14.36.21.02,1.03-.48,9.64-.72,10.08-.5.93-1.06.51-1.47-.27-1.29-3.48-2.68-7-4.81-10.11-5.71-8.32-10.35-.69-10.12,6.04l-.5.3.24.26c.37,5.63.92,11.24,1.66,16.82.47,3.48,1.34,7.42,4.55,9.37l.21.66c-1.14.84-2.62,2.46-3.8,3.09l-.74.91c-6.59,3.19-14.11,3.98-21.33,3.24-.17-.02-.34-.11-.51-.21s-.34-.23-.49-.37c-.65-.07-1.26-.12-1.9-.24-.41-.1-.77-.08-1.05.27-6.39-1.62-12.48-4.61-17.76-8.56l-.45-.98c-4.79-4.06-8.11-12.27-9.27-18.31-.16-.18-.31-.36-.43-.56-1.09-1.83-1.17-9.99-1.19-12.62-.04-5.04,0-10.53,1.38-15.35Z"/>
  <path class="st6" d="M92.14,101.79c.1-1.27.35-3.29.54-4.58.57-3.91,4.18-7.81,8.03-4.82,2.5,1.94,4.76,6.7,6.06,9.64.56,1.28.79,3.07,1.78,4.04l.95-13.32c.01.95,0,1.9,0,2.85.88-.29,1.29-.96,2.31-1.13,2.85-.48,4.97.71,5.77,3.51,5.78-3.41,10.19,3.97,6.43,8.65,4.77,3.53,2,11.28-4.06,10.61.26,4.44-4.94,6.57-8.44,4.29-.39.02-.4,1.43-.51,1.86-.39,1.5-.85,3.27-2.24,4.18-.58.37-5.11,2.42-5.6,2.44-1.12.06-2.64-.8-3.41-1.59l-.66-.02c-2.06-2.56-2.73-5.85-3.38-9.05-.71-4.91-1.75-9.7-3.12-14.37-.06-1.45-.22-2.51-.45-3.19Z"/>
  <path class="st6" d="M72.88,139.6c-.21-.7-.12-1.1.28-1.2,7.49,1.48,14.23-.3,20.56-4.47.47,0,.58.39.33,1.15-2.82,9.32-2.44,16.57-13.79,18.07l-2.85.12c-1.2.35-1.13-1.64-.88-2.46,2.24-3.32.07-1.94-.48.41.2,1.58-.3,2.14-1.5,1.69-1.3-.39-1.13-.4-2.14-1.19-.52-.63-.5-1.45.05-2.45,2.38-4.26-.42-.89-.89.94l-.59.08c-.9-2.17-.19-3.49.99-5.31.31-.48,1.49-1.61,1.58-1.99.07-.31-.54-2.79-.67-3.4Z"/>
  <path class="st3" d="M41.49,107.73c-.84-.43-1.77-.15-2.67-.3-2.86-.48-4.92-2.89-5.18-5.76-.74-8.17,3.84-15.65,7.62-22.48-1.04,8.92-1.45,19.74.24,28.54Z"/>
  <path class="st3" d="M68.36,137.93c-1.93,3.18-6.68,4.68-10.23,4.76-3.05.59-3.46-.06-2.99-2.69,2.34-2.91-.31-.95-.51.77.12,1.39-.22,1.95-1.02,1.68-1.23-.32-1.59-.49-2.62-1.19-1.06-1.26.03-3.29,1.1-4.29,0-1.33-1.79,2.08-1.96,2.59l-.56.04c-.51-1.75-.3-2.96.61-4.5.45-.76,1.93-2.09,2-2.76.06-.6-.52-2.48-.71-3.2-.11-.47-.16-.96.41-.78,4.47,4.17,10.05,6.57,15.75,8.76.31.21.55.48.73.82Z"/>
  <path class="st4" d="M95,131.99c-.23,1.05-.64,2.07-.95,3.09,0-.38.19-.98-.48-.6-4.96,2.91-7.84,4.56-13.9,4.89-2.35.13-4.02-.31-6.2-.48-.78-.06-.59.05-.59.71-.3-1.34-.85-2.65-.95-4.04,8.01.86,15.85.23,23.07-3.57Z"/>
  <path class="st2" d="M92.14,101.79c.75-.13.43.38.47.83.19,1.98.9,3.44,1.36,5.3,1.22,4.95,1.77,10.2,3.04,15.03.48,1.84,1.42,4.13,2.73,5.47-.38.04-.66.26-.95.48-4.93-2.5-5.13-9.24-5.71-14.15-.42-3.6-1.23-9.53-.95-12.96Z"/>
  <path class="st16" d="M70.03,135.32c-.95-.11-.56.03-.74.56-.28.83-.47,1.3-.92,2.06-4.72-1.98-9.15-3.48-13.39-6.46-1.07-.75-1.96-1.69-3.02-2.45-.35-.25-.51-.73-.47.12-.25-.97-.86-2-.71-3.09,4.61,3.91,13.31,8.18,19.26,9.27Z"/>
  <path class="st10" d="M74.55,152.91c1.47.32.81-.88,1.06-1.92.19-.81.97-2.63,1.93-2.6,1.48.04-.44,2.01-.56,2.55-.15.7,0,1.5-.05,2.21h3.33c-2.18.29-3.5.43-5.71-.24Z"/>
  <path class="st25" d="M53.62,142.45c.75.13.42-.38.47-.83.12-1.12.01-1.41.66-2.44.92-1.46,2.71-1.85,1.73-.17-.23.39-.76.54-.91,1.23-.17.76.01,1.66-.05,2.45.87-.02,1.75.02,2.62,0-1.36.58-3.16.12-4.52-.24Z"/>
  <path class="st14" d="M51,141.26c-.93-.64-1.06-.39-1.43-1.66.37-.55,1.9-4.66,2.98-3.1.45.66-.78,1.33-1.09,2.01-.34.76-.48,1.91-.46,2.75Z"/>
  <path class="st13" d="M72.41,151.72c-.67-.52-.95-.27-1.43-1.43.65-1.01.97-2.87,2.14-3.46.51-.26,1.05.27.68.92-.76,1.34-1.35,2.3-1.39,3.97Z"/>
  <path class="st21" d="M52.85,94.72c10.6-1.23,23.45,10.58,25.62,20.62,5.46,25.3-25.39,15.96-32.1,0-2.91-6.93-3.29-19.49,6.48-20.62Z"/>
  <path class="st18" d="M94.69,29.07c2.49-.52,4.64.99,5.88,3.05,4.15,6.89-2.84,19.42-7.71,24.6-.54.57-2.54,2.55-3.16,2.46-.82-.12-3.88-3.61-4.1-4.48-.75-2.87,1.02-10.31,1.86-13.38.89-3.28,3.45-11.47,7.24-12.26Z"/>
  <path class="st18" d="M71.68,43.75c-2.2-.05-4.27.76-6.39,1.18-1.81-4.56-3.57-9.16-4.72-13.96-.95-3.96-2.78-13.25-.3-16.58,1.86-2.5,5.03-.98,6.66.94,4.35,5.13,5.36,19.81,5,26.41-.04.68-.2,1.32-.26,2Z"/>
  <path class="st19" d="M68.13,78.48c-1.13.73-.04-1.84.03-1.99.47-.95,2.2-2.74,3.24-2.95,6.66-1.36,10.97,8.86,5.47,12.37-3.65,2.33-8.81-1.44-8.98-5.41l.48.59.54.16c1.32,3.07,5.97,4,6.74.03.9-4.6-5.13-8.01-6.99-3.03l-.52.23Z"/>
  <path class="st5" d="M68.13,78.48c.38-2.76,3.39-3.99,5.7-2.49,4.76,3.11,1.82,11.01-3.54,7.58-.91-.58-1.69-1.43-1.92-2.48-.15-.7-.33-1.93-.24-2.62Z"/>
  <path class="st8" d="M56.47,68.73c.28,1.01-.36,1.16-.71.24l-.2.02c-1.73-1.99-4.32-1.38-4.42,1.19-.9.36-.31,2.81.01,3.67.94,2.51,2.69,3.11,5.09,2.49.24-.73.74-.77.48,0-3.19,5.16-8.07-.79-8.33-4.87-.11-1.71.45-5.6,2.37-6.2,2.63-.82,4.65,1.4,5.72,3.46Z"/>
  <path class="st22" d="M76.16,87.33c1.95-.14,7.71,1.75,6.01,4.37-1.27,1.95-6.36.3-7.86-.97-1.92-1.63-.04-3.26,1.85-3.39Z"/>
  <path class="st11" d="M55.52,84.19c-.85-.46-2.28-3.15-2.15-4.15.31-2.26,6.08-.47,7,1.08,1.1,1.86-1.77,2.63-3.08,3.06-.65.21-.28.43-.35.96-.41-.25-.81-.38-1.21-.41l-.22-.55Z"/>
  <path class="st1" d="M55.52,84.19c.38.21,1.15-.05,1.18,0,.03.07.12.61.25.95.83,2.14,1.79,3.8,4.53,2.98.68-.2,2.46-2.36,2.82-1.17.42,1.36-2.63,2.65-3.68,2.72-.53.03-1.04-.09-1.54-.25l-.41.35c-.66,0-2.4-2.01-2.84-2.58-.62.41-1.76,1.02-1.97.08-1.21-.13-2.48-.98-3.09-2.02-.39-.66-1.52-3.69-.36-3.69.89,0,.99,2.17,1.5,3.03,1.19,2.01,3.17,2.07,3.62-.41Z"/>
  <path class="st26" d="M43.92,75.44c.92-1.59,5.64.32,6.42,2.16,1.56,3.7-3.29,2.71-5.03,1.23-.63-.54-1.83-2.62-1.39-3.39Z"/>
  <path class="st24" d="M59.09,89.42c-.24,1.72-.51,2.84-2.48,2.6-2.34-.3-3.18-1.69-3.24-3.91-.01-.45-.21-.97.48-.83,1.26.14,1.91-.71,2.02-.71.22,0,1.64,2.36,3.21,2.85Z"/>
  <path class="st9" d="M72.7,68.55c1.25-1.08,5.66,1.55,6.24,2.8.28.61.19,1.69-.52,1.86-.83.2-2.81-1.48-3.67-1.96-.72-.4-2.22-.46-2.36-1.47-.04-.31.08-1.04.3-1.24Z"/>
  <path class="st15" d="M56.24,63.26h-4.87c-1.1,0-2.4-1.72-.66-2.56,1.46-.7,7.08-.19,5.53,2.56Z"/>
  <path class="st12" d="M56.71,76.34l-.12-.2c-.14.02-.25.16-.36.2-.48,0-.33-.2,0-.48l-.17-.5c.93-1.49.52-3.92-.45-5.37l.15-.56c-.2-.28-.2-.43,0-.48.36.32.54.21.71-.24,1.36,2.61,1.81,5.07.24,7.61Z"/>
  <path class="st17" d="M73.75,77.8c1.96-.66,2.14,2.12.45,1.87-.98-.14-1.18-1.63-.45-1.87Z"/>
  <path class="st0" d="M55.76,68.97c.05.08-.03.34,0,.48l-.54.12c-.48-.49-1.03-.93-1.71-1.08.46.77.79,2.24-.36,2.15l-.44-.3c.09-1.34-1.08-1.75-.63-.12l-.36.42c-.85.42-.21,2.48.13,3.28.67,1.58,2.24,2.54,3.87,1.69l.52.26c-.05.08.03.34,0,.48-1.48.52-2.12.82-3.55-.14-3.02-2.02-2.94-9.38,1-8.61.43.08,1.91,1.07,2.08,1.38Z"/>
  <path class="st23" d="M55.76,69.45c1.26,1.35,1.54,3.94,1.03,5.68-.15.52-.44.56-.56.74-2.49,1.47-4.58-.31-5.18-2.79-.06-.25-.31-2.15-.3-2.33.09-.99.57-.28.96-.11.37-.44,1-.27,1.43,0,.76-1.08-.06-1.86-.71-2.61,1.45-.26,2.4.43,3.33,1.42Z"/>
  <path class="st7" d="M53.14,70.64c-.64.43-.87.25-1.43,0-1.04-2.67,1.84-2.54,1.43,0Z"/>
</svg>