<?xml version="1.0" encoding="UTF-8"?>
<svg id="Layer_1" xmlns="http://www.w3.org/2000/svg" version="1.1" viewBox="0 0 160 160">
  <!-- Generator: Adobe Illustrator 29.8.3, SVG Export Plug-In . SVG Version: 2.1.1 Build 3)  -->
  <defs>
    <style>
      .st0 {
        fill: #fbdbd5;
      }

      .st1 {
        fill: #debbb1;
      }

      .st2 {
        fill: #f092a0;
      }

      .st3 {
        fill: #f28c97;
      }

      .st4 {
        fill: #fcfcfc;
      }

      .st5 {
        fill: #923739;
      }

      .st6 {
        fill: #fcf4e8;
      }

      .st7 {
        fill: #d67f8d;
      }

      .st8 {
        fill: #facdcf;
      }

      .st9 {
        fill: #d5808e;
      }

      .st10 {
        fill: #d38290;
      }

      .st11 {
        fill: #ed8292;
      }

      .st12 {
        fill: #f6afbd;
      }

      .st13 {
        fill: #d58290;
      }

      .st14 {
        fill: #dd8b97;
      }

      .st15 {
        fill: #d68490;
      }

      .st16 {
        fill: #e08b99;
      }

      .st17 {
        fill: #d5818e;
      }

      .st18 {
        fill: #f9f6e5;
      }

      .st19 {
        fill: #f09393;
      }

      .st20 {
        fill: #d47f8c;
      }

      .st21 {
        fill: #ef93a0;
      }

      .st22 {
        fill: #d47e8b;
      }

      .st23 {
        fill: #ee9390;
      }

      .st24 {
        fill: #ddbfb4;
      }

      .st25 {
        fill: #f48d98;
      }

      .st26 {
        fill: #ee93a0;
      }

      .st27 {
        fill: #d77f8b;
      }

      .st28 {
        fill: #d88694;
      }

      .st29 {
        fill: #d68693;
      }

      .st30 {
        fill: #d68391;
      }

      .st31 {
        fill: #b31d29;
      }

      .st32 {
        fill: #fcf3e7;
      }

      .st33 {
        fill: #b61f2b;
      }

      .st34 {
        fill: #fbd2d0;
      }
    </style>
  </defs>
  <path class="st12" d="M75.4,2.34c1.18.49,2.3.95,3.08,2.03,2.92,4.05.76,14.77-.21,19.55-1.58,7.81-3.98,15.41-6.43,22.97,3.11-.09,6.24.34,9.27,1.02.56.13,2.66.97,3.02.74,2.69-6.85,5.8-13.76,10.16-19.73,4.61-6.32,13.34-14.32,19.96-5.41,4.1,5.52,2.4,12.51-.34,18.23-3.43,7.16-9.19,13.1-14.84,18.54,1.66,2.71,3.44,5.41,4.79,8.29,3.69,7.84,5.13,17.4,5.56,26.02.12,2.42-.04,4.88.15,7.3.04.5-.08.42.49.4.16.31-.04.5-.6.57l-.7,10.71c-.58,5.5-1.83,10.94-4.1,16,.17.19.25.34.06.58-1.18-.52-1.07.93-1.3,1.46l.06.36c-2.51,3.82-5.15,7.15-9.2,9.47-1.29.74-6.33,3.1-7.48,2.92-.13-.02-.26-.06-.38-.11-.26.08-1.37.31-1.43.35-.25.18-.28,1.76-.68,2.07-.47-.3-.11-1.31.32-1.62-2.75.38-5.63.77-8.6.79-4.29.03-8.63-.39-12.62-1.76-1.43-.72-2.87-1.11-4.32-1.75-10.71-4.78-16.47-9.04-20.46-20.44l.3-.24c.74.11,1.48.13,2.23.06l.22.34c.23-.22.33-.12.16.16l.5.41c2.21,5.52,6.56,10.11,11.56,13.26,9.28,5.84,23.31,7.36,23.26-7.03l.31-.49c-.22-.22-.13-.31.16-.16.52-.49,1.19-.82,2.02-.99,8.04-2.96,13.84-9.38,16.77-17.32l-.25-.29c.94-2.46.78-6.07-1.28-7.95-4.35-3.98-9.65,1.04-12.5,4.36-3.71,3.86-9.11,4.56-14.23,4.66l-.57-.3c-.08-.3.04-.37.31-.4-5.49-5.58-16.15-11.56-23.39-6.16l-.41.08h-.51c-1.35-.86-3.57-2.59-4.54-3.82-3.24-4.14-3.07-8.46-2.56-13.35.53-.66.66-4.09.85-5.22,2.02-11.71,6.65-22.03,16.52-29,.41-.29,1.43-.66,1.54-1.05-.72-10.57-.85-21.54,2.46-31.72,1.92-5.9,6.16-13.27,11.88-16.14,1.11-.56,2.22-.8,3.35-1.27h2.59Z"/>
  <path class="st2" d="M104.72,130.15c-.11-.1-.45-.51-.42-.65,2.37-5.01,3.54-10.45,4.14-15.95l.81-12.39.16,1.3c.32.08.42-.03.65-.16.28-.16.54-.45.91-.63,2.87-1.38,6.34.06,7.03,3.22,1.99-.66,3.6-1.31,5.59-.17,3.33,1.91,3.58,6.66,1.56,9.62,4.83,4.04,1.98,11.78-4.38,11.47-.27.46-.11,1.02-.22,1.48-.9,3.55-5.35,4.8-8.45,3.34-.37-.18-1.34-.98-1.62-.93-.13.03-1.09.84-1.57,1.03-1.47.55-3.02.55-4.21-.56Z"/>
  <path class="st2" d="M36.2,86.74c.49-.09.33.23.3.54-.36,4.21-.71,7.46,1.57,11.27,1.62,2.71,3.49,3.48,5.74,5.36.17-.03.36-.06.52.02.68.34,2.16,2.21,2.6,2.92.55.89,1.45,2.44.93,3.38.2.23.33.55,0,.65-.21.87-2.45.81-3.2.59-.79-.47-1.58-.76-2.37-.88-1.25.88,3.64,2.37,4.29,1.92.68,0,1,.21.96.63.57.66-.61,2.81-1.46,2.75-1.96.77-4.59.35-6.16-1.15-2.15.89,3.03,2.61,3.98,2.54l.23.38-.12.44c-1.06.46-2.16.8-3.29,1.02-.22-.04-.45-.11-.66-.2-.49.07-2.26.13-2.31-.51,0-.1.35.04-.11.23-.16-.22-.09-.38-.38-.52-1.81-.83-2.6-1.07-4.15-2.48-7.89-7.16-4.9-21.05,1.86-27.95.32-.32.96-.64,1.22-.97Z"/>
  <path class="st21" d="M101.32,154.61c-.16-.16-.31-.35-.43-.59-1.16-.89-1.81-2.27-1.66-3.74-1.91-.32-.24,3.14.39,3.81.38.33.74.66,1.06,1-1.04.55-1.62.67-2.75.81-1.52.13-1.8-.41-2.34-1.71-.05-1.46-1.64-5.05-1.28-1.04l.61,1.9-.23.36c-1.68-.91-2.48-2.08-2.88-4.01-.18-.9-.04-2.4-.27-3.13-.14-.44-.84-.84-1.22-1.13-.43-.42-.3-.79.15-1.13,6.28-1.45,11.2-7.24,13.1-13.19l.36-.25c1.44,2.45,3.31,6.51,3.54,9.33.39,4.71-2.22,10.13-6.13,12.7Z"/>
  <path class="st26" d="M84.64,145.05c-.04.39-.22,1.21-.32,1.62-.54,2.19-2.03,4.69-3.73,6.16-.7.15-1.81-1.03-2.21-1.64-1.51-4.75-2.06-.54-.22,1.08.49.45.92.91,1.29,1.37-1.39.85-3.04,1.49-4.7.97.07-.26.28-.36.64-.3-.93-.99-1.55-2.18-1.88-3.56-1.75-.84.06,2.63.44,3.18l-.17.36c-1.47-.58-2.63-2.07-3.2-3.52-.48-1.21-.51-2.67-1.49-3.61.07-.49.55-.65,1.43-.46,4.6,1.02,8.92-.09,13.32-1.62.26-.09.53-.07.79-.02Z"/>
  <path class="st17" d="M103.91,132.58c-.1,1.16-.74,2.32-1.27,3.35-2.35,4.57-5.89,8.29-10.79,10.11-.84.31-1.54-.15-1.55,1.12-1.29-.96-2.75-1.75-3.89-2.92,7.88-2.3,12.22-5.1,16.52-12.23.11-.18.47-.37.49-.4.08.35.3.67.49.97Z"/>
  <path class="st17" d="M63.42,144.08c.15-.32.52-.06.73,0,5.58,1.52,11.43,1.73,17.17,1.13.9-.09,2.28-.49,3.08-.48.3,0,.27.02.24.32-3.89,1.87-7.93,2.48-12.24,2.27-1.03-.05-2.44-.64-3.31-.17-1.95-.89-3.76-2.12-5.67-3.08Z"/>
  <path class="st28" d="M37.66,118.65c0-.14-.07-.45.08-.48.28.2.64.42.98.47.82.13,1.76-.38,2.01.5.67.4.91,2.2.65,2.92-.9-.07-1.91.18-2.75-.16-.32-.91-.96-2.33-.97-3.24Z"/>
  <path class="st20" d="M100.67,155.1c-1.6.02-3.29-4.08-2.39-4.98.23-.24,1.1-.24,1.23-.02.11.17-.03.85.04,1.18.1.52.42,1.27.73,1.7.34.48,1.42,1.01,1.04,1.63-.21.14-.39.35-.65.49Z"/>
  <path class="st22" d="M79.45,153.64c-.4.05-1.03-.59-1.3-.88-.65-.69-2.26-3.03-1.23-3.83,1.12-.87,1.21,1.03,1.48,1.63.48,1.06,1.37,1.53,2.19,2.27-.4.35-.68.54-1.13.81Z"/>
  <path class="st30" d="M94.68,155.42c-.35-1.3-.99-2.4-.82-3.81.06-.47,1.08-.83,1.43.05.45,1.12.21,2,1.04,3.33.59.94.56.63,1.59.92-1.63.2-1.79.3-3.24-.49Z"/>
  <path class="st29" d="M73.78,154.29c-.37-.7-2.33-3.83-.72-4.05,1.05-.14,1.02,1.6,1.46,2.42.33.6,1.06,1.34,1.52,1.88-.35.12-.93.12-1.3.08-.48-.06-.58-.17-.97-.32Z"/>
  <path class="st18" d="M43.82,103.91c.23-.61,1.2-1.14,1.75-1.41,7.24-3.57,17.56,2.17,22.55,7.49.11.26-.61.36-.81.4l-.27.4c-2.66.63-5.54,1.74-6.74,4.4l-.44.22c.33.34.14,1.05-.32,1.13-.1,1.14-.02,2.42.32,3.54l-.15.35c.27.29.27.45,0,.49l.55,1.29c1.15,7.24,10.74,7.44,16.43,5.96l.51.21c.19,6.23-2.38,11.49-9.15,11.99-10.62.79-23.03-8.29-26.49-18.15l.23-.44c5.26-1.32,7.89-6.51,6.09-11.55-.36-2.66-2.09-4.67-4.05-6.32Z"/>
  <path class="st21" d="M67.3,110.39c4.57-.2,8.76-.32,12.66-2.97,3.08-2.1,5.98-7.05,9.93-7.4,5.28-.46,7.47,3.51,6.71,8.33-.1.62-.33,1.06-.46,1.56-3.47,7.58-11.05,13.36-18.97,15.63.11.5,0,.8-.31.89-.26.02-.47-.17-.62-.56-4.44.81-8.84,1.05-12.98-.98-.55-.27-1.74-1.09-1.62-1.7l.26-.31c1.34.37,3.36.53,4.47-.46.37-.33.02-.85-.47-.63-1.97.82-5.01.52-6.21-1.35,0-.06-.22-.26-.25-.47-.15-1.09-.55-2.44.09-3.42.62.91,1.72,1.25,2.88,1.42,3.15.45,4-1.64.26-.95-.98-.1-2.75-.51-2.82-1.6,1.2-3.17,4.48-4.34,7.45-5.02Z"/>
  <path class="st25" d="M102.58,29.92c2.56-.33,5.08,1.74,5.6,4.2,1.66,7.88-8.14,18.89-13.74,23.61-.94.79-3.69,2.98-4.68,3.42-.35.15-.56.24-.95.12-.72-.53-3.71-2.27-3.77-3.12-.03-.4.87-3.59,1.06-4.22,1.15-3.79,3.11-8.03,5.03-11.5,2.02-3.64,7.09-11.94,11.46-12.51Z"/>
  <path class="st3" d="M59.21,49.64c-.03-.36-.15-.69-.17-1.05-.59-8.72-.04-26.49,7.05-32.65,2.23-1.93,5.73-2.76,6.99.62,1.71,4.6-1.08,15.89-2.39,20.83-.71,2.66-1.58,5.78-2.5,8.35-.14.38-.44,1.39-.73,1.54-.47.25-2.68.52-3.47.74-1.62.45-3.2,1.08-4.79,1.61Z"/>
  <path class="st32" d="M65.36,83.66l-.32.73c-.66-.04-.06-1.72.13-2.14.56-1.25,2.63-3.24,4.01-3.44,6-.84,10.57,7.56,6.87,12.21-3.51,4.41-10.21.79-11.01-4.05-.04-.26-.15-.78.32-.4l.36.07c1,4.05,7.08,5.44,7.85.39s-5.42-8.45-7.85-3.47l-.37.09Z"/>
  <path class="st33" d="M65.36,83.66c.34-1.25,1.7-2.56,3.01-2.74,4.07-.56,6.76,4.16,5.07,7.66s-6.34,2.05-7.68-.87c-.05-.1-.39-1.07-.4-1.14-.09-.8-.2-2.17,0-2.92Z"/>
  <path class="st13" d="M96.14,109.9c-2.26,8.77-10.21,15.96-18.79,18.3-.76.34-1.04-1.46-.49-1.78.05-.25-.09-.99.02-1.12.09-.1,2.16-.65,2.52-.8,6.67-2.62,13-7.76,16.3-14.16.12-.22,0-.54.44-.45Z"/>
  <path class="st1" d="M59.69,120.92l.24-.06c.54.69,1.1,1.33,1.69,1.93v.4c.77.7,1.29,1.22,2.3,1.68,3.92,1.81,8.66,1.36,12.78.58-.14.39.11.72.16.97.1.53-.04,1.48.49,1.78-.05.01-.11.15-.16.16-4.77,1.24-11.23,1.57-15.14-1.95-1.89-1.69-1.94-3.22-2.35-5.5Z"/>
  <path class="st6" d="M52.89,73.78c.39.82-.53,1.08-.65.32h-.25c-4.78-4.45-6.52,3.15-4.29,6.48l.37.03c.92,1.48,2.68,2.04,4.23,1.17l.26.26c.24-.62.78-.46.49.16-3.65,5.4-8.88-1.57-8.92-5.75-.01-1.32.31-3.29.87-4.49,1.08-2.32,3.33-2.55,5.37-1.26,1.06.67,1.92,1.98,2.52,3.07Z"/>
  <path class="st23" d="M79.88,95.7c1.57,1.57.64,3.5-1.48,3.68-1.89.16-7.3-1.15-7.39-3.48-.05-1.3,1.53-2.09,2.68-2.2,1.68-.15,4.97.79,6.19,2Z"/>
  <path class="st11" d="M51.75,90.46c-1.9-2.28-4.39-6.25.85-5.62,1.25.15,4.42,1.21,4.65,2.64.35,2.13-2.03,2.29-3.46,2.85-.24.1-.5.12-.42.46-.6.02-1.14-.09-1.62-.32Z"/>
  <path class="st10" d="M51.75,90.46c.17-.18,1.4-.24,1.62.32.05.12-.02.41.08.65.84,2.03,1.56,3.51,4.06,3.24,1.36-.15,2.66-2.12,3.48-1.71,1.23.62-.7,2.18-1.37,2.52-1.46.75-2.76,1.05-4.14.32-.39.18-.82.03-1.28-.46l-1.93-2.07c-.66.43-1.15.52-1.48.26-2.56.32-4.14-1.46-4.74-3.76-.16-.59-.66-2.15.3-2.24s1.27,2.49,1.66,3.2c.68,1.24,2.47,2.34,3.41.75.15-.26.31-.98.35-1.03Z"/>
  <path class="st24" d="M41.55,122.21c-.02-.05-.14-.11-.16-.16-.33-.99-.38-2.02-.65-2.92-.04-.65-.03-.4.4-.48,1.14-.2,2-.38,3-.98l.04-.41c.6-.57,1.24-1.03,1.9-1.37.93-1.12,1.09-1.33,1.46-2.75-.39-.37-.07-1.93.32-2.27,0-.21.03-.45,0-.65.29.11.35.35.44.61,1.2,3.43-.12,7.57-3.05,9.67-1.19.85-2.39,1.18-3.71,1.71Z"/>
  <path class="st19" d="M40.7,80.3c2.14-.25,6.29,2.04,6,4.54-.27,2.26-4.27.99-5.48.05s-3.23-4.26-.52-4.58Z"/>
  <path class="st4" d="M55.48,95.81c.47.74-.25,2.5-.98,2.83-.34.15-1.29.12-1.7.08-2.72-.27-3.41-2.65-3.32-5.02.52.11.87-.06,1.3-.16s1.43-.64,1.52-.62c.26.05,1.48,1.65,1.88,2,.38.33.85.65,1.3.89Z"/>
  <path class="st16" d="M70.82,73.33c1.5-.14,5.76,1.96,6.16,3.48.2.78.09,1.73-.87,1.82-1.08.11-2.91-1.68-3.97-2.17-.73-.34-2.41-.49-2.41-1.61,0-.66.34-1.46,1.09-1.52Z"/>
  <path class="st14" d="M48.32,64.91c1.09-.04,3.82.31,4.37,1.37.33.64.36,1.74-.52,1.84-1,.12-3.71.11-4.71,0-1.16-.14-2.19-1.3-1.44-2.43.4-.6,1.64-.75,2.31-.77Z"/>
  <path class="st8" d="M53.05,82.2c-.18-.47-.27-.21-.49-.16l-.28-.33c1.5-1.94,1.05-4.88-.26-6.83l.05-.45c-.16-.25-.17-.35.16-.32.05-.02.65.43.65-.32,1.5,2.75,2,5.71.16,8.42Z"/>
  <path class="st27" d="M46.08,115.9c-.65.78-1.03,1.24-1.94,1.78-1.5-.35-3.04-.46-4.29-1.46-.52-.42-1.14-.88-.66-1.47.78-.94,1.34.23,2.15.63,1.47.73,3.16.47,4.75.52Z"/>
  <path class="st15" d="M47.87,110.87c.04,1.06-.08,1.33-.32,2.27-.77-.51-1.52-.22-2.33-.34-.9-.14-3.51-.78-3.35-1.99.19-1.42,2.32.28,3.01.38.87.14,2.2.08,2.99-.31Z"/>
  <path class="st9" d="M61.63,123.19c-.16-.15-.45-.21-.59-.38-.51-.58-.8-1.36-1.35-1.89-.03-.15.02-.33,0-.49,1.25,1,3,1.58,4.61,1.46.69-.05,2.06-.91,2.43-.16.65,1.29-2.08,1.78-2.92,1.8-.74.01-1.44-.34-2.19-.34Z"/>
  <path class="st7" d="M59.85,115.41c.7.69,1.57,1.13,2.55,1.26.73.1,2.22-.18,2.52-.1.25.07.59.54.53.8-.38,1.72-4.85.91-5.81-.16-.19-.21-.12-.42-.11-.66.02-.45.17-.74.32-1.13Z"/>
  <path class="st0" d="M72.76,85.39c-.25.2-.68.26-.99.21-1.24-.2-1.43-2.34.15-2.28,1.07.04,1.63,1.44.85,2.07Z"/>
  <path class="st31" d="M48.84,73.78c-1.03-.32-.94-.74.03-1.05.88-.28,2.99.83,3.21,1.7,1.34,1.54,1.74,4.22,1.23,6.17-.17.66-.75.78-.74,1.45-.49.12-1.07.45-1.54.5-1.27.11-2.86-.82-3.32-1.95-.68-1.23-.99-2.62-1-4.01-.01-1.1.21-2.07,1-.68l.34-.2c1.48.72,1.02-.74.59-1.62l.21-.29Z"/>
  <path class="st5" d="M52.24,74.1s-.03.27-.16.32c-.71-.81-2.48-1.99-3.57-1.38-.3.17.22.53.33.73l-.22.3c-.97-.13-.84.73-.67,1.43l-.24.38c-.28-.15-.44-.12-.57-.49-.27.19-.23.44-.25.72-.11,1.35.3,3.21.82,4.46-2.67-3.66-.62-11.38,4.54-6.48Z"/>
  <path class="st34" d="M48.84,73.78c.78,1.39.91,3.16-1.13,2.11-.32-1.16-.43-2.36,1.13-2.11Z"/>
</svg>