<?xml version="1.0" encoding="UTF-8"?>
<svg id="Layer_1" xmlns="http://www.w3.org/2000/svg" version="1.1" viewBox="0 0 160 160">
  <!-- Generator: Adobe Illustrator 29.8.3, SVG Export Plug-In . SVG Version: 2.1.1 Build 3)  -->
  <defs>
    <style>
      .st0 {
        fill: #fae5ba;
      }

      .st1 {
        fill: #9c673b;
      }

      .st2 {
        fill: #eaae3f;
      }

      .st3 {
        fill: #763d31;
      }

      .st4 {
        fill: #bc8233;
      }

      .st5 {
        fill: #b98034;
      }

      .st6 {
        fill: #f1e1b3;
      }

      .st7 {
        fill: #dba64b;
      }

      .st8 {
        fill: #d2913a;
      }

      .st9 {
        fill: #faf4df;
      }

      .st10 {
        fill: #eaad3d;
      }

      .st11 {
        fill: #d9a349;
      }

      .st12 {
        fill: #cda664;
      }

      .st13 {
        fill: #f6bf5c;
      }

      .st14 {
        fill: #bc8033;
      }

      .st15 {
        fill: #e6ad3e;
      }

      .st16 {
        fill: #924336;
      }

      .st17 {
        fill: #ed996a;
      }

      .st18 {
        fill: #a87b4a;
      }

      .st19 {
        fill: #eedca7;
      }

      .st20 {
        fill: #f1cfb7;
      }

      .st21 {
        fill: #f1dca9;
      }

      .st22 {
        fill: #da8064;
      }

      .st23 {
        fill: #ec9768;
      }

      .st24 {
        fill: #faf3df;
      }

      .st25 {
        fill: #814a30;
      }

      .st26 {
        fill: #f7d2b3;
      }

      .st27 {
        fill: #e6a83a;
      }

      .st28 {
        fill: #753b2f;
      }

      .st29 {
        fill: #e9b045;
      }

      .st30 {
        fill: #f9e9c7;
      }
    </style>
  </defs>
  <path class="st15" d="M107.82,77.41c2.08-.32,4.28-1.18,6.26-1.7,8.65-2.29,17.42-3.92,26.1-6.07,4.35-1.08,8.48-2.49,13.05-2.98,2.1-.23,4.51-.14,4.13,1.53-.26,1.1-5.49,3.31-7.82,4.08-.3.1-.45.33-.31.47,2.65,2.68.67,9.48-5.92,10.69-.63.11-1.94.21-2.67.23-.12,0-.24-.02-.3-.08-.09-.07-.13-.18-.11-.31.01-.1-.05-.19-.18-.23-2.22-.71-3.18-4.21-.88-5.55.06-.03.12-.06.19-.07,3.83-1.05,4.43-3.49,2.82-4.85-.31-.26-1.08.08-.89.39,1.16,1.86-.34,4.32-5,3.82-.04,0-.07-.01-.11-.02-5.02-1.5-2.74.81.21.95.07,0,.13.01.18.04l.29.12c.13.05.18.15.14.26-.74,2.22-.58,4.27,2.46,5.12.14.04.22.12.21.23h0c-.01.13-.15.26-.35.33-8,2.72-16.18,5.21-24.51,7.11-.86.2-3.78.5-4.13.99-.24.35.38.8-.11,1.16-.43-5.2-1.35-10.73-2.75-15.67Z"/>
  <path class="st4" d="M139.66,83.7c-.22-.03-1.63-.58-1.88-.7-1.87-.97-2.02-2.91-1.25-4.64.06-.14-.03-.27-.23-.3-1.54-.29-3.91-.47-3.5-1.74.03-.11.15-.22.32-.28,1.24-.45,2.15.24,3.13.4,4.1.67,6.07-1.66,4.18-3.69-.35-.38-.97-.55-1.22-.92-.11-.17.11-.41.43-.47,2.25-.39,3.91,1.87,3.95,2.95.04,1-1.4,2.26-2.79,2.95-.46.23-1.09.29-1.52.53-.29.16-.85,1.18-.89,1.42-.24,1.46.37,3.07,2.32,3.65.21.06.26.23.13.38l-.21.23c-.1.12-.3.2-.49.21-.21.01-.44.03-.5.02Z"/>
  <g>
    <path class="st13" d="M90.79,51.32c.23-.39.39-.26.47.16,12.39,5.91,20.73,22.08,21.01,35.48l.22.64c.25,4.63,0,9.34-.49,13.96-.2.4-.31.83-.35,1.28-.71,7.61-2.87,16.69-9.49,21.32l-.35.61c-6.29,3.82-13.84,5.28-21.1,5.88-.1,0-.21-.03-.32-.08s-.22-.11-.33-.19c-1.68.1-3.92.1-5.6,0-.16.07-.33.14-.5.18s-.33.08-.49.07c-7.48-.57-14.69-2.44-21.09-5.93l-.33-.54c-.22-.18-.48-.62-.78-.86-1.81-1.47-3.41-2.75-4.51-4.9-.06-.17-.1-.34.05-.42,3.23-1.22,6.53-3.46,7.11-7.13s-1.76-6.41-4.26-8.88l.06-.37.06-.55c2.96-2.66,6.99-8.47,3.24-12.02-2.65-2.5-6.11-1.31-8.88.33-.81.67-1.68,1.18-2.61,1.55-.26-.12-.15-2.45-.06-3,.12-5.14,1.29-10.03,2.64-14.93-4.77-.99-9.17-2.96-13.06-5.86-.17-.12-.25-.32-.32-.37-.24-.34-.03-.51.37-.4,2.2,1.79,4.8,3.05,7.39,4.19.75.33,5.28,2.03,6.04,1.37.16-.14,2.02-3.74,1.87-3.89-.52-.08-.76-.29-.73-.65.11-.36.44-.41.99-.16l.19-.18c2.52-4.25,5.42-8.68,9.59-11.5.18-.3.32-.61.43-.93.17-.22.32-.21.47,0,1.79-1.44,3.85-2.83,6.01-3.65l.37.06c1.53-1.31,3.96-1.86,5.96-2.3,5-1.1,10.24-.99,15.2.23,1.65.41,3.77.98,5.26,1.75.27.14.47.38.65.63Z"/>
    <path class="st29" d="M55,40.73l.16.16c.12,0,.24.02.35.05s.21.06.28.13c2.79,2.65,5.69,5.88,7.73,9.16.14.23.17.51.19.78-2.05.92-4.14,2.27-5.95,3.58-.17.12-.19.34-.35.47h-.23c.02-.28-.2-.33-.31-.47l-.7-.31c-5.89-7.16-13.59-11.91-22.34-14.63-3.94-1.23-13.83-3.53-11.26,3.74,3.95,11.19,10.93,19.2,22.3,23.35l.8.62c.3.11.63.42,1.09.31.02.13,0,.23-.04.35-.12.43-1.75,3.86-1.98,4.09-.66.68-3.29-.24-4.17-.51-3.13-.97-6.66-2.77-9.3-4.71-.13-.09-.39-.54-.54-.16-7.84-6.03-13.35-15.07-17.2-24.12-.79-1.86-2.64-6.11-2.55-7.99.19-4.41,5.45-5.21,8.94-5.55,11.57-1.12,26.66,3.61,35.09,11.67Z"/>
    <path class="st8" d="M40.06,111.55c-.05.37-.32.65-.82.85-1.41,1.49-.2,3.7.97,4.9l.4-.11c1.06.5,2.18.89,3.34,1.16-.13.79-.13,1.63,0,2.53.08.53.5,1.89.46,2.25-.09.95-3.44,3.67-4.33,4.23-5,3.14-11.14,3.79-16.9,4.27-.25.02-.71.08-.86-.16l.11-.28c-1.4-.05-2.43-.58-3.07-1.58-.83-1.9-1.85-3.31-3.46-4.63-.39-.43-.93-1.02-.28-1.42,6.31.33,7.58-4.07,1.3-6.28-.32-.23-.34-.5-.03-.74,3.17-1.68,4.27-4.95.05-6.04l-.08-.35c4.94-3.36,10.64-6.07,16.64-6.7.03-.25,0-.51,0-.77.41-.13.57.22.5,1.07.85,3.13,3.36,5.59,5.96,7.37l.08.43Z"/>
    <path class="st15" d="M41.46,87.89c-.02.93.01,1.87,0,2.8.1.12,2.24-1.46,2.51-1.61,2.66-1.57,6.13-2.84,8.85-.65,3.3,2.65,1.99,6.78-.09,9.72-.88,1.25-2.06,2.26-3.02,3.43h-.48c-1.3-1.14-2.77-2.15-4.39-2.68,2.48,1.8,4.7,3.84,6.65,6.13,4.83,5.94-1.37,12.89-8.02,12.27-.93-.09-2.76-.43-2.94-1.4-.58.36-1.03-.79-1.11-1.29-.22-1.31.75-2.62,2.15-2.03,4.22,2.04.76-.75-.78-1.19-.27.28-.51.33-.73.15-.7-.46-1.56-1.08-2.18-1.63-1.74-1.55-3.64-3.78-4.16-6.11-.08-.37.1-.86-.19-1.13.16-4.12,2.26-6.92,5.21-9.65.41-.38,2.37-1.76,2.5-2.02.35-.71-.22-2.33.23-3.11Z"/>
    <path class="st6" d="M16.87,110.14c.15,0,2.26.94,2.42,1.08.11.1.57.82.61.95.71,2.17-1.37,3.8-3.03,4.74,1.73.71,4.81,2.07,4.52,4.36-.21,1.63-2.45,2.37-3.84,2.54-.51.06-1.03-.02-1.54.02-.17.01-.52-.08-.39.23.32.76,1.98,1.98,2.56,2.74s1.42,2.95,2.03,3.42,2.98.73,3.2.93c.44.41-.93.31-1.09.31-2.69-.03-7.07-1.75-9.44-3.09-6.26-3.52-11.01-10.77-10.17-18.16.17-1.52.96-1.46,2.21-1.12,1.65.45,4.18,2.03,5.81,2.14s4.6-1.17,6.15-1.1Z"/>
    <path class="st2" d="M74.45,130.38c-.45.82-.35,1.89-.51,2.84-.86,5.04-2.1,8.53-7.84,9.13-4.26.45-8.52-.02-10.6-4.15s-2.76-9.49-3.47-14.04c.2.16,2.98,1.5,3.48,1.73,5.83,2.76,12.48,4.13,18.93,4.49Z"/>
    <path class="st10" d="M80.05,130.38c6.84-.4,16.48-2.3,22.1-6.23-.39,3.54-1.07,7.17-2.1,10.58-.8,2.66-1.71,5.18-4.3,6.6-3.04,1.67-9.64,1.58-12.35-.69-2.43-2.03-3.23-7.24-3.35-10.27Z"/>
    <path class="st5" d="M49.71,101.59c1.14,1.07,3.33,3.48,3.92,4.87,2.2,5.26-1.15,9.64-6.01,11.48-.66.25-.48.19-.86.46-.02.01-.19-.11-.35-.09-.81.09-1.63.1-2.44.26v2.33s-.15-.16-.17-.37c-.04-.36.09-1.82-.01-1.94-1.42-.41-2.31-.43-3.56-1.26-.87-.46-.6-1.57.31-1.4,3.59,2.7,10.2.14,11.83-3.81s-.99-7.12-3.81-9.74c-1.34-1.25-2.91-2.29-4.28-3.5-.16-.66,1.08-.12,1.28-.03,1.45.6,3.02,1.69,4.17,2.76Z"/>
    <path class="st12" d="M91.26,51.47c-.12-.06-.31-.08-.47-.16l-.38-.72c-1.2-15.05-14.61-25.75-27.71-31.04-6.21-2.5-8.2-1.79-8.61,5.16-.31,5.25.3,10.38,1.67,15.36.07.58.1,1.31-.61.81-.05-.05-.1-.1-.16-.16.71.08-.11-1.15-.2-1.43-1.48-4.89-2.22-13.62-1.03-18.55,1.45-6.03,9.1-2.08,12.65-.38,12.42,5.93,24.35,16.33,24.85,31.1Z"/>
    <path class="st21" d="M68.01,96.7c8.33-5.85,19.38-7.96,28.86-3.44,12.32,5.88,11.93,21.51.72,28.28-5.89,3.56-16.38,5.66-23.22,5.27-18.31-1.03-20-20.52-6.36-30.11Z"/>
    <path class="st27" d="M90.79,51.32c-8.49-3.86-18.52-4.17-27.08-.31-1.28-1.67-2.38-3.44-3.74-5.05s-3.22-3.54-4.82-5.06c.45.09.33-.25.32-.54-.04-1.24-.8-3.18-1.06-4.55-.67-3.59-1.36-13.49.55-16.49,1.11-1.75,3.46-1.45,5.21-.93,11.55,3.49,25.1,13.49,29.12,25.19.86,2.5,1.28,5.12,1.51,7.75Z"/>
    <path class="st19" d="M45.66,67.35c-11.12-3.94-19.08-11.51-23.04-22.8-.96-2.73-1.64-5.57,2.02-6.39,5.03-1.13,14.69,2.93,19.2,5.41,5.63,3.09,8.81,6.35,13.02,11.02.11.35.22.5.01.86-.37.63-2.01,1.55-2.66,2.17-1.97,1.85-4.18,4.83-5.66,7.11-.35.53-1.35,2.74-1.88,2.77-.28.01-.68-.24-1.02-.14Z"/>
    <path class="st28" d="M75.07,69.68c.49-.37,3.21.45,3.98.62.4.09.43-.15.38.47l.22.27c-.38,1.19,1.71,1.36,1.77.14l.19-.1.08-.31c.34.09.69.13.85.47.08,0,.16,0,.23.01.57.12.34,2.72.17,3.24-.58,1.8-2.54,3.61-4.45,2.97-.1,0-1.26-.13-1.4-.16-2.14.23-3.62-2.55-3.58-4.5.01-.56.75-3.21,1.31-3.19.08,0,.16.03.25.06Z"/>
    <path class="st3" d="M102.93,68.59c.66-.53,1.33,1.13,1.56,1.72.49,1.26.62,2.24.21,3.57-.29.93-.94,2.42-2.07,2.34-.57.28-1.54.33-2.18.31-.29.36-.76.2-1.4-.47-.61.03-1.32-1.14-1.62-1.7-.52-.96-1.12-2.76-.09-3.44.04-.11.18-.4.27-.46,1.1-.16,4.48-2.08,5.33-1.87Z"/>
    <path class="st1" d="M98.26,80.89c.52,1.73-1.41,1.97-1.94,2.65-.39.51-.69,2.03-1.33,2.87-2.18,2.87-6.51,2.87-8.69-.03-.51-.67-.71-1.6-1.05-2.06-.32-.42-3.33-1.72-2.18-2.67.55-.45,1.49.94,2.07,1.22,1.4.7,3.09.29,4.43-.32.53-.24,1.95-1.29,2.25-1.31.6-.05,2,1.23,3.24,1.22,1.8-.02,1.65-1.57,3.19-1.57Z"/>
    <path class="st23" d="M71.31,79.84c1.34-.08,2.84.11,3.97.91,2.5,1.77.11,3.3-1.88,3.67-1.78.33-6.89.18-6.23-2.65.3-1.28,3.03-1.86,4.14-1.93Z"/>
    <path class="st9" d="M77.1,77.31c.24.43.24.28-.17.25-1.66-.15-3.35-.19-5.02-.28-.39-.12-1.42-2.06-1.53-2.51-.3-1.16-.12-3,.26-4.15.14-.43.9-1.9,1.28-2,.23-.06,2.3.52,2.72.65.26.08.51.03.43.42-.63.47-1.26,2.56-1.26,3.35,0,1.8,1.47,3.93,3.28,4.28Z"/>
    <path class="st17" d="M109.89,81.62c-.14.22-1.33.96-1.66,1.06-.92.28-3.12.14-4.01-.21-1.37-.54-2.09-1.87-.78-2.94,1.01-.82,4.03-.92,5.25-.44.93.36,1.81,1.59,1.2,2.53Z"/>
    <path class="st25" d="M94.48,75.79c.73.66-1.12,2.87-1.76,3.21-1.24.65-2.61-.12-3.6-.88-4-3.06,4.16-3.41,5.36-2.33Z"/>
    <path class="st11" d="M78.14,64.11c1.27-.37,6.34,1,5.41,2.92-.56,1.15-3.86-.05-4.7-.59-.69-.44-2.15-1.92-.71-2.33Z"/>
    <path class="st7" d="M99.92,65.74c-.21.2-1.57,1.1-1.83,1.21-1.17.49-3.09.51-2.36-1.27.43-1.04,3.36-2.36,4.44-2.03.91.27.22,1.64-.26,2.09Z"/>
    <path class="st30" d="M102.93,68.59c-.07-.37.99-.64,1.16-.63.89.08,1.55,2.9,1.62,3.68.21,2.3.08,5.5-3.09,4.57,1.36-.66,2.13-2.83,2-4.26-.07-.77-.9-3.17-1.69-3.36Z"/>
    <path class="st24" d="M96.86,75.44c-.57-.82-1.33-3.44-.79-4.29.1-.16,1.32-.92,1.26-.22-.74,2.27.5,3.56,1.71,5.14.75.4,1.2.88.08,1.15-.91.22-1.92-1.02-2.26-1.77Z"/>
    <path class="st0" d="M82.54,71.24c-.14-.62.78-.09.85,0,1.01,1.38-.64,5.66-1.93,6.62-.64.48-1.92.04-2.73-.09-.34-.05-.54.17-.24-.31,1.78-.04,3.61-1.21,4.13-2.95.27-.9.34-2.41-.08-3.27Z"/>
    <path class="st26" d="M81.61,71.08c.41,1.87-3.13,1.5-2.18-.31.35-.67,2.06-.25,2.18.31Z"/>
    <path class="st30" d="M99.04,76.06l1.4.47,1.09.31c-.99-.1-2.29.85-3.16.59-.36-.11-1.59-1.47-1.51-1.99.38.55,1.43,1.6,2.1,1.57.94-.04.4-.54.08-.95Z"/>
    <path class="st14" d="M40.06,111.55c.43-.26.48-.6,1.13-.43.3.08,2.87,1.86,2.92,2.07.1.45-.73.42-1.01.39-1.01-.1-1.87-1.26-2.71-.7-1.05.7-.81,2.31.15,3.03-.5.39-.87.88-.31,1.4-.46-.31-.77-.42-1.16-.94-.8-1.11-1.21-3.38.07-4.26.23-.16.67-.4.93-.55Z"/>
    <path class="st18" d="M75.32,118.3c-.04-.07-.48-.12-.17-.54.43-.59,1.54-.11,2.04.16.6.32.87.93,1.7.78.78-.13,1.4-1.82,2.73-1.17,1.25.61-1.32,1.91-1.25,2.64.06.66,2.82,2.11,1.21,2.77-1.19.49-1.86-1.55-2.99-1.2-.8.25-2.04,2.21-3.04,1.71-1.35-.68,1.56-2.66,1.56-3.12,0-.4-1.16-1.1-1.49-1.47-.14-.16-.19-.38-.29-.57Z"/>
    <path class="st20" d="M101.95,69.56c1.55-.46,1.95,1.55.75,2.01-1.29.49-1.89-1.67-.75-2.01Z"/>
    <path class="st16" d="M86.9,84.93c-.06-.07-.6-.04-.47-.47.87-.1,1.87-.09,2.71-.32.72-.2,2.24-1.3,2.68-1.35.48-.06,2.63,1.23,3.48.9-.44.98-.88,2.31-1.71,3.02-.11.09-.3-.07-.31-.06l-.45-.03c-1.45-1.45-3.6-1.74-5.56-1.43l-.37-.25Z"/>
    <path class="st22" d="M93.28,86.64s0,.28-.25.45c-1.51,1.05-4.18.57-5.44-.76-.54-.57-.64-1.34-.7-1.4,2.22-.44,4.86-.09,6.38,1.71Z"/>
  </g>
</svg>