<?xml version="1.0" encoding="UTF-8"?>
<svg id="Layer_1" xmlns="http://www.w3.org/2000/svg" version="1.1" viewBox="0 0 160 160">
  <!-- Generator: Adobe Illustrator 29.8.3, SVG Export Plug-In . SVG Version: 2.1.1 Build 3)  -->
  <defs>
    <style>
      .st0 {
        fill: #d9a348;
      }

      .st1 {
        fill: #daa44a;
      }

      .st2 {
        fill: #f2e1b7;
      }

      .st3 {
        fill: #dba54b;
      }

      .st4 {
        fill: #dba44a;
      }

      .st5 {
        fill: #f5e3b6;
      }

      .st6 {
        fill: #f5e2b3;
      }

      .st7 {
        fill: #fee276;
      }

      .st8 {
        fill: #f4a270;
      }

      .st9 {
        fill: #eeb44e;
      }

      .st10 {
        fill: #d9a34c;
      }

      .st11 {
        fill: #f7e4c0;
      }

      .st12 {
        fill: #f8e3d7;
      }

      .st13 {
        fill: #fff8e7;
      }

      .st14 {
        fill: #f9e0ab;
      }

      .st15 {
        fill: #daa54b;
      }

      .st16 {
        fill: #d9a349;
      }

      .st17 {
        fill: #824836;
      }

      .st18 {
        fill: #fef7e5;
      }

      .st19 {
        fill: #dba44b;
      }

      .st20 {
        fill: #dba54e;
      }

      .st21 {
        fill: #f1b84f;
      }

      .st22 {
        fill: #a16a49;
      }

      .st23 {
        fill: #7d3e2f;
      }

      .st24 {
        fill: #efc77e;
      }

      .st25 {
        fill: #fac86c;
      }

      .st26 {
        fill: #f7e2b5;
      }

      .st27 {
        fill: #7b3d30;
      }

      .st28 {
        fill: #b2804f;
      }

      .st29 {
        fill: #dca64c;
      }

      .st30 {
        fill: #fde179;
      }

      .st31 {
        fill: #f5a059;
      }

      .st32 {
        fill: #fbe8db;
      }

      .st33 {
        fill: #f3a574;
      }

      .st34 {
        fill: #dda74d;
      }

      .st35 {
        fill: #fbc86c;
      }

      .st36 {
        fill: #d8a34c;
      }

      .st37 {
        fill: #f69f58;
      }

      .st38 {
        fill: #d2933d;
      }
    </style>
  </defs>
  <g>
    <path class="st38" d="M45.41,110.45c-9.33-2.55-20.77,3.07-27.24,7.65,4.2,1.41,4.6,3.34,1.5,6.01-5.78,2.29,13.21,7.17-2.55,8.88-.72.19-.69.68-.42,1.3,4.05,3.11,3.27,8.86,9.89,8.12,9.43-.29,19.42-2.72,24.18-9.61-3.48-9.91,7.54-19.73-5.35-22.34h-.01Z"/>
    <path class="st2" d="M11.98,118.97c-2.43.03-7.94-3.24-8.88-2.72-1.35.74-.82,5.36-.59,6.77.56,3.49,2.43,7.12,4.68,9.95,4.17,5.24,12.39,9.42,19.39,9.42-1.13-.53-3.12-.72-3.99-1.35-.48-.34-1.52-2.36-2.02-3.29-.91-1.69-2.58-2.7-3.64-4.24,8.43.61,9.67-5.54,1.44-7.93,2.11-.95,4.72-3.12,3.79-5.53-.64-1.64-1.9-1.58-3.32-2.26"/>
  </g>
  <path class="st25" d="M84.12,40.81l.44-.36c2.6.11,5.21.35,7.77.83l.34.45.55-.25c4.99,1.41,9.73,3.79,13.99,6.73l.16.58.49-.09c.96.77,1.93,1.56,2.86,2.38v.5c.86.79,2.14,2.57,2.98,3.53l-.29.35c-1.36.04-6.39,3.35-3.33,4.11l.28.37.13.54c-1.25,2.65-1.01,6.14.52,8.55.81-.09,1.16.11,1.03.58l-.06.25c-1.45.09-2.94.16-4.47.25-4.93.35-.45,3.9,1.86,4.29l.26.42c.83.61.27,2.54-.4,3.24-3.05,3.16-9.73,1.25-12.25-1.95-1.93-.52.17,1.87.8,2.36,4.02,3.11,8.08,3.17,12.46.67l.65.09c1.78,1.14,4.09,1.27,5.42-.58,1.74-2.44.23-4.15-1.08-.86-.52,1.67-3.81.96-4.22-.12-.15-.38.04-2.59.47-2.85l.11-.43c.99-.6,1.78-1.52,2.25-2.56l.42-.16c1.42-.02,2.5-.82,3.26-2.39l.28-.02c0-.51.11-1.02.31-1.52.71-2.51-.08-4.77-1.06-7.04h-.29c-.83-1.32-1.94-2.06-3.3-2.22l-.31-.39c-.17-.55.81-1.8,1.3-2.05,4.6,5.59,7.64,11.05,9.72,18.08.42,1.43,1.3,4.14,1.26,5.53l.22.75c-.36.58-.5,1.09-.39,1.79,1.16,6,1.04,12.32.62,18.34.48.55.44,1.29.3,2,.29,6.36-1.95,16.19-4.81,21.88-.26.52-1.45,2.18-1.52,2.48l-.53.11c-5.94,7.75-14.74,11.5-24.39,12.6-.14.02-.3-.02-.45-.06s-.32-.12-.48-.19c-.12.01-.25-.01-.37,0l-.75.18c-4.47.45-9.08.44-13.58.27-1.66,2.25-3.24,4.57-4.95,6.78-1.86,2.38-4.63,6.4-7.42,7.46-4.47,1.71-16.45,2.64-20.88,1.17-4.83-1.6-1.08-6.12,1.75-7.65.6-.32,3.68-1.41,3.76-1.63-.36-4.81-.13-9.65,1.13-14.3-1.54-2.07-3.91-3.58-5.01-6.03l.3-.47c8.92-2.94,6.12-12.74,1.7-18.54l-.23-.69c4.17-2.38,6.36-4.83,7.67-9.41.19-.67.73-3.81-.6-2.87-.17,5.07-3.13,9.85-8.21,11.26-2.05-1.68-4.3-3.22-6.96-3.67-.68-.12-2.01.11-.8.66,5.59,1.22,9.65,5.74,11.55,11.06,2.1,5.87.25,11.09-6.53,11.66-3.58.3-7.26-2.56-3.7-5.59-.68-.04-1.05-.26-1.08-.66-5.6-2.06-10.96-6.23-13.43-11.77-1.82-4.07-.09-4.88,1.56-7.99.58-1.1.89-2.6,1.42-3.79,1.33-2.99,3.51-5.5,6.36-7.12.3-.23.47-.11.54.25-.43,1.42.19,2.58.77.66,1.13-6.12,4.61-9.07,10.71-10.18.3.1,4.16-.27,3.07-.71-2.34-.97-7.08.81-9.15,1.87-.64.14-.57-.09-.36-.62.23-.79.28-2.01.53-2.9,1.1-4.02,2.52-8.1,4.49-11.78l-.14-.52c1.13-2.02,2.36-4,3.7-5.89l.53-.1c0-.16.02-.32.05-.49.38-1.58,5.69-6.36,7.24-7.61s7.3-5.49,8.95-5.52c.16,0,.32.02.49.05l.38-.57c2.2-.93,4.46-1.72,6.79-2.27l.64.24c2.63-.54,5.5-.8,8.18-.75v-.05Z"/>
  <path class="st35" d="M126.9,101.25l-.28-.26c.47-6.73.96-13.81-1.06-20.41l.23-.35c3.55-3.77,9.74-4.86,14.14-1.86.39-.22.63-.14.7.22.17,2.04.82,4.12,2.2,5.63.51.55,1.71,1.54,1.36.19-1.47-1.68-2.23-3.55-2.53-5.78-.24-1.7.39-6.89,1.5-8.16,1.1-.28,4.36-3.83,2.09-3.78-2.99,6.47-13.01,1.43-10.34-5.05,4.24-6.72,11.41-3.01,15.43,1.78,4.56,5.42,8.51,13.66,8.75,20.82.06,2.06-.25,7.07-1.27,8.78-1.14,1.92-2.41,1.69-4.07,2.44-1.16.52-2.32,1.4-3.46,1.93-6.04,2.81-12.09,4.28-18.83,4.25l-4.55-.38h-.01Z"/>
  <path class="st21" d="M75.94,41.56c-2.48.51-5.5,1.57-7.81,2.6l-.41-.34c-.36-3.01-2.04-5.85-3.64-8.41-3.45-5.53-8.08-12.14-13.18-16.21-5.93-4.73-7.37-.5-7.61,5.24-.47,11.37,1.01,22.68,7.81,32.23l.3,1.05c-1.28,1.72-3.07,4.6-4.09,6.51-1.48-1.45-2.76-3.61-3.76-5.46-7.54-14.04-8.76-36.46-5.49-51.86.91-4.29,1.68-6.69,6.4-4.08,5.74,3.17,15.05,11.95,19.5,16.95,5.4,6.07,10.78,13.54,12,21.76h-.02Z"/>
  <path class="st21" d="M110.72,51.59c-.66-.62-2.65-2.26-3.35-2.79l.08-1.1c3.36-8.53,4.06-19.87,1.8-28.74-1.54-6.01-4.94-1.85-6.9,1.19-3.94,6.12-7.9,13.08-9.45,20.2.23.76.15,1.22-.22,1.41-2.32-.52-6.1-.88-8.55-.93.69-9.95,5.88-19.26,11.56-27.21,1.81-2.53,7.89-10.77,10.42-11.71,1.33-.5,1.93-.25,2.85.8,2.05,2.31,4.38,12.6,4.89,15.94,1.68,10.84,1.44,22.89-3.13,32.98v-.02Z"/>
  <path class="st9" d="M119.84,126.91c-.17.79.31,2.21.37,3.07.36,5.5-1.96,11.09-5.02,15.53,3.3.45,8.18,1.1,9.52,4.71s-2.89,4.02-5.51,4.22c-4.66.38-11.35.21-15.98-.4-1.79-.24-5.45-.69-6.41-2.33s-.94-5.98-1.39-8.1c-.3-1.46-.74-2.92-1.43-4.24,9.47-1.15,16.95-3.66,23.53-10.78.58-.64,1.47-2.65,2.32-1.68h.01Z"/>
  <path class="st1" d="M47.67,125.61c-1.83.43-4.5.49-6.19-.4-2.72-1.44-3.35-5.03-.68-6.84.29.11,1.73.39,1.86.56-1.69,1.36-2.94,2.63-.75,4.37,1.72,1.36,3.75,1.07,5.73.51,10.09-2.9,2.71-17.54-3.98-20.47-.77-.34-3.53-1.05-3.8-1.41-.31-.41-.14-.86.34-1,2.11-.63,6.72,2.01,8.17,3.65,4.34-1.55,6.81-4.74,7.64-9.22.14-.74-.24-2.3.89-2.3,1.67,0,.5,4.07.18,5.03-1.22,3.67-3.93,6.24-7.34,7.93,2.69,4.07,5.62,8.9,4.15,13.99-.84,2.89-3.3,4.94-6.19,5.62l-.02-.02Z"/>
  <path class="st15" d="M134.9,61.64c0,1.57-.17,3.13.52,4.59,1.3,2.75,6.07,4.15,8.41,2.02.82-.75.73-2.41,2.1-1.93,1.12.39-.15,2.48-.63,3.03-.6.69-1.91,1.17-2.19,1.72-.38.73-1.09,4.61-1.15,5.54-.13,2.21.36,4.27,1.45,6.17.37.65,1.67,1.66,1.14,2.36-1.01,1.34-3.05-2-3.42-2.87-.47-1.09-.78-2.38-.84-3.57-.04-.16-.23-.24-.37-.32.56.11.36-.28.37-.64.09-2.33.42-4.34.93-6.6-5.14.06-9.47-4.01-6.66-9.18.1-.17.3-.24.34-.3v-.02Z"/>
  <path class="st3" d="M36.7,87.67c0-.43,1.71-4.32,2.08-4.89.73-1.14,3.29-3.14,3.5-3.84-.04.62.11.29.43.15,1.26-.56,2.53-1.17,3.89-1.5,1.12-.28,5.05-1.06,5.64.05.65,1.22-2.77,1.02-3.52,1.14-4.38.7-7.91,2.71-9.56,6.99-.29.77-.87,3.67-1.23,3.97s-.93.23-1.14-.21c-.19-.4.08-.94.12-1.4.02-.24-.21-.43-.21-.45h0Z"/>
  <path class="st19" d="M125.78,80.23c1.26,1.98,1.7,10.66,1.68,13.31-.3.95-.19,7.43-.56,7.71-.05.04-.45-.08-.53.01-.18.21.21,1.09-.22,1.29-.08-1.6-.23-.96-.65-1.86-.29-.64.25-3.94.28-4.92.09-2.69.02-5.72-.19-8.37-.12-1.46-.97-5.15-.7-6.29.13-.54.49-.56.52-1.43.14.17.25.37.37.56h.01Z"/>
  <path class="st29" d="M113.7,55.14c.3.35.49.62.75.93-.14.82-.76,1.46-1.3,2.05l.14.39c-.49.61-2.28,2.21-2.92,1.46-.76.06-1.7-.36-1.69-1.21,0-1.25,3.64-3.94,5.05-3.63h-.02Z"/>
  <path class="st9" d="M93.61,139.37c-.06,0-.4.15-.75.18l.75-.18Z"/>
  <path class="st26" d="M122.44,99.76l.25.41c-3.29,11.92-18.62,11.39-27.45,6.24.23-.88,1.05-10.01.09-10.01-.17,0-.25.39-.23.54.17,2.18.4,8.27-1.18,9.81-.67.66-3.32,1.65-4.22,1.89-9.29,2.62-24.53,3.13-27.79-8.34l.26-.37c-.76-2.01-.73-5.91-.28-8,1.35-6.41,9.07-5.03,13.9-4.21,3.45.6,7.77,1.48,11.12,2.45,2.93.86,5.78,2.17,8.24,3.97,4.21-3.39,9.61-4.73,14.82-5.84,4-.84,11.27-2.66,12.74,2.7.55,2.01.37,6.72-.28,8.75h.01Z"/>
  <path class="st26" d="M114.44,109.98c.61-.09.57,1.44.56,1.76-.36,11.12-8,21.82-19.28,23.69-9.88,1.65-20.35-1.21-24.33-11.14-1.71-4.27-2.46-10.04-1.4-14.5l.89-.11c7.19,2.06,14.97,1.16,21.85-1.59l.89.03c.79-.45,1.08.54.47.81l.1.87c.67.64.6,2.3.54,3.27-.02.4-.37,3.17-.48,3.3-2.05,2.4-9.74,2.73-12.71,1.86-4.94-1.54-1.36.53,1.09.75,3.75.34,6.98.37,10.46-1.23.49-.18.8-.03.91.48-.88,3.01-.88,3.97-.01,2.9l.7-3.18.38-.41c3.31,1.37,6.13,1.67,9.65,1.13,2.53-.39,4.04-2.43.12-.58-2.58.77-7.42.41-9.59-1.21-.17-.13-.24-.45-.25-.67.26-2.32.47-4.53-.02-6.86l.32-.44c-.56-.1-.53-1,0-1.12l.86-.03c5.49,2.35,11.55,3.49,17.44,2.1l.86.16v-.02Z"/>
  <path class="st5" d="M68.13,44.16c-6.4,2.86-12.58,7.98-16.74,13.58-6.76-9.01-9.03-20.58-8.56-31.71.09-1.97.29-5.88,1.2-7.54.99-1.79,2.32-1.95,4.14-1.33,5.93,2.05,16.62,17.49,19.07,23.34.54,1.3.76,2.24.9,3.66Z"/>
  <path class="st6" d="M107.38,48.81c-3.53-2.69-10.35-6.1-14.69-7.07,0-.55-.21-.95-.15-1.53.48-4.85,7-16.94,10.04-21.04,1.36-1.84,4.6-6.03,6.38-2.18,2.02,4.38,2.14,15.32,1.58,20.17-.47,4.02-1.52,7.94-3.16,11.63h.01Z"/>
  <path class="st10" d="M122.44,99.76c1.73-.28.51,2.21.16,3.04-1.48,3.55-4.43,6.18-8.15,7.19-6.58,1.78-13.1.47-19.15-2.23-.06.06-.13.12-.22.15-.39.18-1.06.43-1.46.22-7.11,3.1-16.15,4.17-23.62,1.68-3.67-1.22-7.03-3.64-8.24-7.48-.22-.68-.86-2.49.42-2.37.44,1.18,1.41,3.38,2.15,4.45,4.86,7,20.03,6.14,27.05,3.26.5-.21,2.14-.96,2.43-1.29.56-.65,1.07-4.38,1.12-5.39s-.37-4-.1-4.57c.19-.41.7-.58.99-.05.18.36.39,2.22.42,2.74.13,2.43-.41,4.77-.67,7.17,5.86,3.58,17.85,4.84,23.17-.09,1.48-1.37,3.11-4.5,3.71-6.42Z"/>
  <path class="st13" d="M92.49,58.11c.03-.14.13-.35.23-.32.63.11,3.07,1.17,3.62,1.54l.06.47c3.74,2.43,3.9,8.67.83,11.71-6.42,6.37-17.29-1.66-12.07-9.84,1.37-2.15,4.77-3.93,7.33-3.55h0Z"/>
  <path class="st22" d="M111.46,74.84c.18.52-.25,2.56-.11,2.79.16.26,1.6.81,1.96.84,2.09.19,1.89-3.14,3.4-2.87s.44,2.52-.15,3.3c-1.07,1.42-2.62,1.79-4.32,1.37-.58-.14-1.44-.86-1.95-.78-.32.05-.63.43-.94.56-3.65,1.56-7.02,1.82-10.52-.32-.84-.52-3.59-2.66-2.9-3.8.75-1.22,2.38.97,3.01,1.46,2.38,1.83,5.52,2.43,8.37,1.36,2.08-.77,2.41-1.78,2.28-3.94.18-.54,1.61-.49,1.86,0h.01Z"/>
  <path class="st8" d="M82.23,73.78c1.83-.22,4.86-.09,6.5.84,1.5.86,1.71,2.45.18,3.42-2.04,1.3-7.56,1.42-9.52-.03-2.89-2.14.65-3.96,2.84-4.22h0Z"/>
  <path class="st18" d="M117.04,60.71c.27.67.26.82-.37.37l-.47.08c-5.48-3.1-5.32,10.51.12,8.38.35-.42.71-.64,1.09-.64.52-.58.55-.26.37.37-.54,1.29-1.41,2.56-2.9,2.77-.35.05-.74.18-.63-.36l-.34-.28c.17-1.2-.71-1.35-1.71-1.37l-.18-.38c-.36-.4-.96.01-1.4-.37-.14-.13-.56-1.13-.66-1.39-.89-2.45-.97-5.62.38-7.91.94-.08,2.15-1.18,2.79-1.86,2.1.04,2.89.99,3.91,2.6h-.01Z"/>
  <path class="st17" d="M112.02,69.63c1.43.06,2.51.19,2.23,2.05-.15.99-1.86,2.94-2.79,3.16-.31.08-1.48.04-1.86,0-1.61-.17-5.33-2.12-4.62-4.16.42-1.21,5.86-1.1,7.04-1.05h.01Z"/>
  <path class="st34" d="M96.4,59.78c-.51-.34-3.38-1.59-3.91-1.68-2-.87-3.85-3.62-.14-3.11,1.23.17,4.77,1.69,5.63,2.56,1.44,1.45.18,2.62-1.58,2.23Z"/>
  <path class="st33" d="M119.23,71.92c1.22-.21,3.8,0,4.24,1.43,1.13,3.61-7.29,3.28-6.34.19.22-.7,1.4-1.5,2.11-1.62h-.01Z"/>
  <path class="st0" d="M61.99,110.36c.25,1.37,1.31,2.81,2.43,3.62.54.38,1.74.56,1.68,1.31s-1,.47-1.45.32c-1.34-.42-3.13-2.56-3.53-3.91-.18-.62-.14-1.45-.34-1.89-.14-.32-1.69-1.41-2.13-1.96-.56-.71-1.61-2.25-.84-3.06.62-.19,1.23,1.6,1.61,2.1,1.2,1.62,5.12,2.98,5.27,3.28,1.01,1.95-2.58.06-2.7.19Z"/>
  <path class="st16" d="M45.96,90.51c.27-.03.53-.12.79.04,1.07.74-2.2,1.73-2.66,1.99-1.59.89-2.92,2.35-3.57,4.06-.25.66-.45,3.04-1.3,2.78-1.08-.32.55-4.27.99-4.96,1.09-1.78,3.67-3.66,5.76-3.92Z"/>
  <path class="st20" d="M123.37,106.09c.48.47-.63,2.52-.96,3.03-1,1.52-.68,1.21-1.18,2.91-.3,1.03-2.49,4.25-3.64,3.44-.71-.5,1.25-1.54,1.68-2.06s1.04-1.57,1.12-2.23-.6,0-.88.05c-.74.14-1.33.15-.9-.7.1-.18,1.53-.86,1.96-1.2.47-.38,1.08-1.07,1.39-1.59.24-.42.41-1.29.56-1.47.17-.21.76-.26.83-.18h.02Z"/>
  <path class="st11" d="M117.79,69.26c.04-.39.02-.41-.37-.37l-.18-.42c.94-2.17.76-5-.64-6.93l.09-.45c.4.04.41.02.37-.37,1.7,2.69,1.98,5.6.75,8.55h-.01Z"/>
  <path class="st4" d="M141.91,88.45c1.65-.5.81,1.31.15,2.01-2.66,2.85-8.4,3.29-11.81,1.75-.64-.28-1.39-.6-1.09-1.46.26-.79,2.81.4,3.51.54,3.07.62,5.6.1,8.1-1.78.35-.26.82-.97,1.16-1.08h-.01Z"/>
  <path class="st14" d="M136.53,81.68c-.39.69-4.72.9-3.39-1.44.3-.52,2.22-.5,2.74-.35.55.16.9,1.34.65,1.79Z"/>
  <path class="st36" d="M95.28,108.87c.17,1.65.44,2.8.37,4.56-.02.61-.51,2.88-.19,3.16,2.99,1.4,5.9,1.97,9.16,1.15.65-.16,2.69-1.3,2.92-.57.35,1.07-2.19,1.73-2.92,1.88-3.22.64-6.6.22-9.53-1.26-.26.73-.55,3.66-1.12,4.01-.38.23-1.1.16-1.12-.36,0-.44.88-3.32.74-3.45-1.22.3-2.33.9-3.56,1.18-2.7.6-5.48.57-8.18.08-.76-.14-3.44-.67-3.11-1.69.25-.75,2.35.24,2.96.36,4.27.82,8.53.6,12.26-1.71-.04-1.09.35-2.25.4-3.32s-.15-2.02-.18-3.06c-.49-1.19.44-1.84,1.12-.93h0Z"/>
  <path class="st28" d="M95.78,124.52c.84-.25.9.51.79,1.17-.13.84-1.48,1.89-1.45,2.21.05.57,2.09,2.1,1.37,3.11-.65.94-2.5-1.48-2.99-1.86-.57.6-2.83,2.25-3.54,1.69-1.14-.91,1.88-2.23,2.34-2.9,0-.17-2-1.83-2.24-2.22-.14-.22-.3-.41-.1-.67,1.47-.74,2.58.87,3.74,1.5.37,0,1.48-1.85,2.08-2.02Z"/>
  <path class="st24" d="M95.28,107.75c.02.37-.04.76,0,1.12h-1.12v.93c-.53-.44.25-1.83-.56-1.68.42-.18.83-.44,1.21-.69.21-.02.35.27.45.32h.01Z"/>
  <path class="st27" d="M92.08,60.75c8.46-1.23,8.44,11.81.18,10.69-6.14-.83-5.89-9.85-.18-10.69Z"/>
  <path class="st23" d="M116.67,61.08c1.69,1.68,1.98,5.82.75,7.81-1.36,2.2-3.79,1.4-4.87-.62-1.02-1.89-1.09-5.31.31-7.02,1.13-1.35,2.57-1.42,3.82-.18h-.01Z"/>
  <path class="st37" d="M95.47,65.54l1.02-.55c1.3,1.99.79,4.87-1.68,5.56-3.36.95-5.99-2.32-3.7-5.2.41-.19.41,1.29,1.2.93-.68-2.39,1.84-2.69,1.49-4.83,1.63.79,1.81,2.44,1.68,4.09h-.01Z"/>
  <path class="st32" d="M89.84,62.79c2.12-.44,1.72,3.18-.28,2.24-.92-.43-.77-2.02.28-2.24Z"/>
  <path class="st31" d="M116.68,64.99l.74-.37c.81,2.06-.27,6.13-3.04,4.44-1.47-.9-1.16-4.27-.58-4.24.19,0,.36.89.83.74-.55-1.71,1.37-2.59.75-4.09.63-.55,1.66,3.05,1.3,3.53h.01Z"/>
  <path class="st12" d="M113.67,62.59c.19.12.51,1.59-.26,1.66-1.34.11-.95-2.39.26-1.66Z"/>
  <path class="st7" d="M94.73,67.59c.22.25.69-.88,1.03.17.9,2.83-4.08,3.05-4.03.66.03-1.4.31-.83.86-.91s1.2-1.6,1.02-2.15c.36-.43,1.43,1.81,1.12,2.23h.01Z"/>
  <path class="st30" d="M114.98,66.65c.1-.06.54-1.4.58-1.67.66.22.42,1.09.65,1.5.11.21.56-.16.66.44.41,2.62-3.32,2.32-2.58-.16.14-.48.58-.05.69-.13h-.01Z"/>
</svg>