<?xml version="1.0" encoding="UTF-8"?>
<svg id="Layer_1" xmlns="http://www.w3.org/2000/svg" version="1.1" viewBox="0 0 160 160">
  <!-- Generator: Adobe Illustrator 29.8.3, SVG Export Plug-In . SVG Version: 2.1.1 Build 3)  -->
  <defs>
    <style>
      .st0 {
        fill: #ec9769;
      }

      .st1 {
        fill: #fcf6e3;
      }

      .st2 {
        fill: #faf4e1;
      }

      .st3 {
        fill: #d5a247;
      }

      .st4 {
        fill: #faeed0;
      }

      .st5 {
        fill: #f1e0b2;
      }

      .st6 {
        fill: #e9ad3e;
      }

      .st7 {
        fill: #f1dca8;
      }

      .st8 {
        fill: #733a2e;
      }

      .st9 {
        fill: #936639;
      }

      .st10 {
        fill: #f7d399;
      }

      .st11 {
        fill: #f4bd5d;
      }

      .st12 {
        fill: #cea564;
      }

      .st13 {
        fill: #ecb042;
      }

      .st14 {
        fill: #f7d9c3;
      }

      .st15 {
        fill: #eddca8;
      }

      .st16 {
        fill: #f9f2de;
      }

      .st17 {
        fill: #fbe3b3;
      }

      .st18 {
        fill: #804931;
      }

      .st19 {
        fill: #d3a146;
      }

      .st20 {
        fill: #f5d4c0;
      }

      .st21 {
        fill: #a87a49;
      }

      .st22 {
        fill: #ed9869;
      }

      .st23 {
        fill: #d29139;
      }

      .st24 {
        fill: #e7ac3d;
      }

      .st25 {
        fill: #e7aa3d;
      }

      .st26 {
        fill: #743a2f;
      }

      .st27 {
        fill: #e7ac3e;
      }
    </style>
  </defs>
  <path class="st11" d="M104.42,46.99c.25-.47.44-.32.54.18,12.36,5.89,21.13,20.74,23.39,33.9.25,1.44.52,6.6.92,7.39.93.29,1.16.58.14,1,.06,5.14-.18,10.39-.72,15.75l-.32.95c-.76,9.01-2.92,17.18-9.65,23.51-.28.27-1.14.72-1.26.93-.31.51,0,.87-.17,1.31-.31.05-.47-.11-.48-.49-7.16,4.55-16.37,6.15-24.72,6.56-.19-.3-.68-.18-.98-.18-1.8-.02-3.68.1-5.45,0-.18.08-.37.16-.56.21s-.37.1-.55.08c-8.29-.56-16.72-2.66-23.81-6.9-.46.38-.73.2-.81-.54-.82-1.21-2.28-1.88-3.29-2.88-2.2-2.17-4-5.7-5.11-8.56-.15-.12-.28-.25-.4-.39s-.23-.28-.29-.44c-1.19-3.06-1.93-6.32-2.54-9.55-.03-.16,0-.34.03-.52s.09-.36.16-.54c-1.04-6.98-1.26-15.22-.53-22.25.49-4.7,1.65-9.13,2.85-13.67-5.21-1.15-10.57-3.28-14.82-6.55-.22-.17-.42-.35-.55-.61.25-.35.5-.28.82-.1,1.98,1.8,13.32,7.23,14.84,6.17.26-.18,2.31-4.32,2.25-4.57-.61-.2-.92-.46-.93-.79l.29-.38c.83.41,1.43.13,1.81-.83,2.61-4.74,6.09-9.35,10.53-12.48.15-.33.29-.66.42-.97.19-.23.38-.15.6-.06,2.01-1.63,4.29-2.98,6.61-4.14l.66.09c1.76-1.49,4.55-2.12,6.85-2.62,5.74-1.26,11.76-1.14,17.46.26,1.9.46,4.33,1.12,6.04,2.01.31.16.54.44.75.72Z"/>
  <path class="st13" d="M30.59,21.43c.06,0,.12,0,.18,0l3.04.36c.82.12,1.67.24,2.5.36.58.2,1.17.32,1.79.36,8.3,1.96,19.06,6.29,25.2,12.33l.18.18c.14.01.28.03.41.07s.25.08.33.16c3.09,3.03,6.38,6.59,8.44,10.31.41.36.63.72.66,1.09-2.25,1.01-4.83,2.66-6.84,4.11-.19.13-.23.4-.4.54h-.26c.03-.33-.23-.38-.36-.54-.19-.08-.38-.16-.56-.26s-.34-.21-.47-.34c-5.46-5.42-9.92-9.78-16.92-13.31-4.34-2.19-9.68-4.09-14.43-4.64s-8.8.05-7.06,5.68c3.86,12.42,13.18,22.25,25.48,26.8l.91.73c.45.17.73.23,1.17.35.2.06.32-.11.25.26-.45.77-2.03,4.89-2.62,5.07-2.15.65-9.67-2.84-11.79-4.05-1.11-.63-3.07-2.25-3.99-2.35-1.79-.21-9.36-9.31-10.69-11.2-4.06-5.77-9.93-16.48-11.6-23.26-1.54-6.22,2.95-7.87,8.18-8.44l1.52-.18c1.15-.14,2.3-.18,3.46-.18.04,0,.08.08.12.18,1.34-.26,2.74-.32,4.2-.18Z"/>
  <path class="st23" d="M48.47,107.77c.57,3.84,1.64,7.83,3.04,11.44-.88,2.19-1.09,5.23-.89,7.59.05.65.61,2.43.51,2.82-.04.14-1.36,1.8-1.57,2.02-5.65,5.76-14.94,7-22.61,7.6-.33.03-.94.1-1.17-.19l.13-.32c-1.58-.06-2.74-.65-3.49-1.76-1.02-2.18-2.24-3.89-4.08-5.45-.48-.51-.98-1.24-.13-1.57,4.29.46,9.27-2.5,3.8-6.03l-2.4-1.16c-.28-.16-.38-.39-.21-.67,3.5-1.97,5.32-5.59.37-7.13l-.07-.4c3.59-2.6,8.08-5,12.34-6.34,5.88-1.85,9.66-1.8,15.59-.4.26.06.67.3.85-.05Z"/>
  <path class="st27" d="M129.27,88.46c5.42.72,10.93,2.44,16,4.47,5.64,2.26,13.86,5.65,11.02,13.35-2.63,7.13-14.74,3.65-20.09,1.97-2.08-.65-4.69-1.99-6.71-2.41-.45-.09-.9-.19-1.12.31.41-4.82.58-9.74.72-14.58.03-.84-.69-2.61.71-2.59-.04-.26-.43-.32-.54-.53Z"/>
  <path class="st5" d="M19.69,114.56c.24.03,2.55,1.2,2.76,1.44,2.08,2.39-.76,5.36-2.94,6.33,2.15.91,5.56,2.32,5.19,5.19-.22,1.67-2.99,2.57-4.41,2.74-.64.08-1.34-.06-1.95.02-.19.02-.38-.04-.26.27.3.78,2.13,2.18,2.75,2.97.76.95,1.84,3.58,2.51,4.1.71.55,3.42.84,3.67,1.07.51.47-1.07.36-1.25.36-3-.03-7.83-1.9-10.49-3.37-7.4-4.08-13.03-12.28-12.04-21.03.19-1.72,1.1-1.71,2.54-1.29,1.91.55,4.94,2.39,6.85,2.46s5.53-1.43,7.06-1.26Z"/>
  <path class="st6" d="M59.91,130.65c.12.17.2.32.18.54.81-.75.88-.09,1.48.22,7.98,4.03,15.1,5.93,24.08,6.4-.51.94-.4,2.17-.58,3.26-.99,5.8-2.41,9.79-9,10.48-4.77.5-9.78,0-12.13-4.63s-3.19-10.99-4.02-16.26Z"/>
  <path class="st6" d="M92.08,137.98s.23-.34.31-.36c7.98-.48,16.22-1.89,23.23-5.87.39-.22,1.03-.84,1.22-.92.33-.14.23.12.26.28.04.2.18.75.19.79.16,2.64-2.21,11.66-3.39,14.22-2.36,5.12-7.56,6.17-12.77,5.43-4.71-.67-6.58-2.4-7.96-6.87-.44-1.42-1.35-5.36-1.08-6.69Z"/>
  <path class="st12" d="M104.95,47.17c-.19-.09-.39-.11-.54-.18l-.41-.85c-1.14-14.53-12.04-25.25-24.19-31.99-2.73-1.52-10.98-5.82-14.35-5.03-2.34.55-2.79,3.32-3.08,5.41-.88,6.45.09,13.38,1.8,19.53.06.66.13,1.52-.7.96-.06-.06-.12-.12-.18-.18.55.07.35-.16.24-.5-2.05-6.27-3.19-16.02-1.65-22.45,1.84-7.67,13.26-1.19,17.51,1.05,13.03,6.85,25.09,18.61,25.55,34.24Z"/>
  <path class="st25" d="M30.59,21.43c-1.3,0-2.89.18-4.2.18h-3.58c-.21,0-1.16.14-1.52.18,3.03-.6,6.22-.69,9.3-.36Z"/>
  <path class="st25" d="M33.81,21.79c-1,0-2.1.06-3.04-.36,1.04,0,2.08.22,3.04.36Z"/>
  <path class="st25" d="M38.1,22.5c-.58.01-1.3,0-1.79-.36.73.1,1.1.2,1.79.36Z"/>
  <path class="st7" d="M89.05,94.54c-.15-.32-.37-.36.05-.58,1.05-.53,2.85-.95,4.03-1.16,14.9-2.64,32.93,6.07,28.02,23.73-3.71,13.32-23.76,17.86-35.76,17.16-13.95-.81-21.5-12.53-15.4-25.43.46-.96,1.23-2.93,2.45-2.82l.62-.03c7.16,4.12,15.29,8,23.48,9.5,4.28.78,8.58.97,10.39-3.66,2.05-5.24-2.13-8.42-6.21-10.87-3.62-2.18-7.56-3.81-11.45-5.37l-.2-.46Z"/>
  <path class="st25" d="M104.42,46.99c-9.74-4.43-21.28-4.76-31.1-.36-1.15-.61-1.3-1.79-2-2.74-2.15-2.91-5.23-6.31-7.83-8.88.52.1.36-.28.36-.62,0-1.29-.71-2.7-.99-4.02-1.07-4.96-1.85-14.56,0-19.31,1.59-4.05,6.45-2.03,9.44-.86,11.38,4.47,23.81,13.31,29.03,24.59,1.77,3.83,2.91,7.95,3.09,12.19Z"/>
  <path class="st15" d="M52.4,65.4c-12.46-4.59-21.17-12.71-25.95-25.26-.75-1.98-1.96-4.88-.6-6.75,1.89-2.59,7.59-1.64,10.32-1.01,12.13,2.77,21.13,9.24,29.28,18.36.13.4.25.58.01.99-.38.65-2.32,1.78-3.06,2.49-2.18,2.12-4.53,5.18-6.22,7.73-.45.69-1.81,3.58-2.45,3.63-.38.03-.89-.3-1.34-.18Z"/>
  <path class="st24" d="M89.05,94.54c4.88,1.91,16.14,6.49,18.19,11.39,1.7,4.06-.83,9.31-5.41,9.71-7.88.68-22.71-5.92-29.41-10.2-3.66-2.33-6.74-4.51-6.06-9.37.4-2.83,3.28-5.67,6.18-5.82,4.79-.24,12,2.51,16.51,4.28Z"/>
  <path class="st8" d="M94.59,68.98c.72-.04,1,1.7,1.04,2.33.09,1.48-.2,3.77-1.76,4.28.08,1-1.72,1.57-2.61,1.72-4.93.84-8.45-4.39-5.66-8.66.47-.71,1.75-2.27,2.55-1.64.35-.1.51-.17.89-.11.79.13,3.9,1.21,4.7,1.57.19.09.76.37.84.5Z"/>
  <path class="st2" d="M81.72,68.26c.61-1.15,1.44-2.36,2.64-3.01,1.13.31,2.64.74,3.73,1.21.47.2.25.21.07.55-1.92.54-3.31,3.15-3.22,5.09.2,4.35,5.87,6.58,8.94,3.49,1.5-.9.77.51.18,1.33-.45.64-2.57,1.99-3.34,2.16-6.6,1.45-12.02-4.57-9-10.81Z"/>
  <path class="st26" d="M117.83,66.12c.49-.71,2.48.75,2.32,1.43,1.12.75,1.23,2.48,1.2,3.82-.02,1-.22,3.53-1.38,3.51.14.72-.87,1.18-1.48,1.41-3.34,1.23-6-2.87-5.83-5.85.04-.69.13-1.85.87-1.99.46-.99.85-.73,1.59-1.18.86-.52,1.62-1.3,2.7-1.14Z"/>
  <path class="st0" d="M82.22,79.75c1.4-.05,3.14.14,4.31.94,3.06,2.08.07,4.12-2.4,4.37-2,.2-7.59.14-6.84-3.09.35-1.52,3.63-2.18,4.93-2.22Z"/>
  <path class="st9" d="M97.58,81.36c1.66-.29,4.09.41,5.85.5,1.12.06,2.65.07,3.76-.01,1.82-.14,3.84-1.19,5.46.09,1.99,1.57,1.32,5.29-1.37,5.62-1.9.23-4.22-.22-6.24-.17-1.86.05-3.89.46-5.71.54-1.72.08-3,.06-3.99-1.55-1.17-1.89.05-4.64,2.25-5.02Z"/>
  <path class="st1" d="M112.28,76.31c-1.35-1.61-2.29-4.42-1.96-6.51.14-.86,1.83-1.44,2.66-1.63.35-.08.63-.27.55.28-.81,1.75-.61,3.24.15,4.95,1.18,2.67,4.06,3.8,6.29,1.49,1.19-.48.32.9-.12,1.49-2.01,2.71-5.36,2.02-7.57-.06Z"/>
  <path class="st22" d="M121.18,78.68c1.55-.2,4.86-.21,5.32,1.74.76,3.17-6.56,3.48-7.97,1.52s1.02-3.05,2.65-3.26Z"/>
  <path class="st18" d="M108.66,75.11c.87.79-1.3,3.3-2.02,3.68-1.21.64-2.46.12-3.52-.54-5.91-3.69,3.95-4.6,5.55-3.14Z"/>
  <path class="st19" d="M89.18,61.32c.26-.05.51-.06.77.05,1.63,1.1,4.22,1.63,5.78,2.63,1.12.72,1.6,2.32-.01,2.61-1.88.34-4.86-1.19-6.22-2.45-.76-.71-2.08-2.48-.31-2.83Z"/>
  <path class="st3" d="M115.45,61.14c.63-.1,1.1.43,1.05,1.05-.16,1.89-4.08,4.82-5.87,4.43-.87-.19-1.4-1.41-.77-2.12l5.6-3.35Z"/>
  <path class="st17" d="M81.72,68.26c-.15.73-.27,1.46-.4,2.19-.18,1.03-.53,1.57-.23,2.82.98,4.04,5.53,6.75,9.57,5.63.43-.12,3.05-1.77,3.3-2.06.23-.27.39-.98.63-1.33l-.72.09c1.33-1.33,1.69-3.46,1.23-5.25-.04-.14-.48-1.3-.52-1.36-.07-.79.92-.2,1.08.08.07.11.51,1.6.53,1.79.47,3.37-2.33,7.96-5.83,8.49-6.64,1-11.99-4.81-8.65-11.07Z"/>
  <path class="st10" d="M112.28,76.31c1.68.78,2.84,1.91,4.87,1.57.92-.15,2.69-1.51,3.01-2.36.13-.36.3-.43-.19-.63,1.57-1.63,1.41-5.52.18-7.33.13-.27.3-.45.54-.54,1.45,2.54,1.17,7.44-.8,9.65-2.3,2.58-5.49,2.16-7.6-.36Z"/>
  <path class="st4" d="M120.69,67.01v.89s-.43-.28-.54-.36c-.72-.53-1.36-1.29-2.32-1.43-.77-.22.26-.91.53-1,.87-.27,1.93,1.18,2.33,1.89Z"/>
  <path class="st21" d="M86.57,129.73c-1-.63,2.12-3,2.12-3.46,0-.51-1.43-1.38-1.8-1.79-.1-.12-.11-.34-.19-.48-.11-.19-.61-.21-.26-.69.92-1.27,3.14,1.17,4.12,1.1s1.44-1.76,3.03-1.44c2,.39-1.11,2.36-1.17,2.95-.09.94,2.99,2.24,1.54,3.31-1.05.78-2.27-1.25-3.02-1.39-1.19-.23-1.94,1.58-2.79,1.83-.29.09-1.41.17-1.59.06Z"/>
  <path class="st14" d="M92.38,68.5c1.77-.12,2.01,2.28.65,2.59-2.37.54-2.35-2.47-.65-2.59Z"/>
  <path class="st20" d="M119.56,67.96c1.28.95-.54,3.48-1.75,1.83-.83-1.12.69-2.62,1.75-1.83Z"/>
  <path class="st16" d="M109.07,84.71h3.31c.11,0,.26.29.28.45.28,2.42-5.54,1.32-6.89,1.33-.93,0-2.23.13-3.21.2-2.04.13-6.12,1.54-6.35-1.61,1.74.1,3.45-.27,5.18-.36l-5.18-.54c-.09-1.36,1.21-1.98,2.41-1.98,2.39,0,4.87.66,7.33.55,1.57-.07,4.28-.82,5.68-.5.37.09.51.24.7.55,1.47,2.25-2.4.93-3.26,1.92Z"/>
</svg>