<?xml version="1.0" encoding="UTF-8"?>
<svg id="Layer_1" xmlns="http://www.w3.org/2000/svg" version="1.1" viewBox="0 0 160 160">
  <!-- Generator: Adobe Illustrator 29.8.3, SVG Export Plug-In . SVG Version: 2.1.1 Build 3)  -->
  <defs>
    <style>
      .st0 {
        fill: #d2828c;
      }

      .st1 {
        fill: #ed919c;
      }

      .st2 {
        fill: #e58c96;
      }

      .st3 {
        fill: #d37f88;
      }

      .st4 {
        fill: #d27c86;
      }

      .st5 {
        fill: #ec8e9c;
      }

      .st6 {
        fill: #ed919e;
      }

      .st7 {
        fill: #f6aebc;
      }

      .st8 {
        fill: #d27f8c;
      }

      .st9 {
        fill: #ee929d;
      }

      .st10 {
        fill: #ec919c;
      }

      .st11 {
        fill: #d37f8a;
      }
    </style>
  </defs>
  <path class="st7" d="M77.25,44.27c-1.92-.02-5.14.23-6.91.95-.54,0-.92.08-1.14.24,1.27,7.02.72,16.22-8.07,17.2-3.1-.74-5.63-2.66-7.61-5.76-.36-.28-.57-.19-.8.22-1.27,1.66-2.41,3.46-3.37,5.32-5.9,11.35-6.95,25.28-6.15,37.9.13,2.08.72,4.22.71,6.31.08.73.68.51.97-.06,1.08-2.97,2.3-5.94,3.84-8.74,5.64-9.85,10.76-4.62,11.08,4.21l.54.54c-1.36,11.87-2.04,17.8-2.04,17.8-.3,3.12-1.37,5.77-3.21,7.93-1.45.42-1.92.89-1.41,1.42.94.66,1.89,1.76,2.86,2.38,1.54,2.04,4.83,3.03,7.31,3.74,6.7,1.92,14.58,1.94,21.23.04,1.66-.47,7.75-2.51,8.55-3.53.12-.15.21-.32.3-.49.22-.11.33-.29.31-.54-1.01-1.2-1.34-2.26-1.69-3.76-3.85-.92-4.85-5.08-1.76-7.63l-.02-.55c-2.48-4.3,1.02-7.43,5.27-7.68,2.31-4.37,7.45-5.23,9.57-.11.51.57,1.28.58,2.29,0l2.29.19.4-.42c.26-1.01.3-2.08.48-3.1l.42-.58c1.78-8.92,1.01-18.34.06-27.28-.93-2.27-1.09-6.36-1.78-9.05-2.69-10.45-8.85-19.87-18.93-24.29-.1-.17-.2-.34-.33-.49-1.17-1.35-11.13-3.43-12.75-2.68-.18.08-.34.19-.5.31Z"/>
  <path class="st5" d="M52.72,57.13s.45.03.6.23c3.4,4.32,7.04,8.17,12.58,4.02,5.2-3.9,4.55-10.01,3.71-15.77.02-.1.58-.32.73-.38-.74.08-.61.09-.79-.51-.67-2.23-.89-4.99-1.47-7.35-1.89-7.56-7.64-23.75-18.06-15.67-11.27,8.74-4.32,25.26,2.48,34.6.22.3.19.79.22.84Z"/>
  <path class="st5" d="M77.25,44.27c4.93.05,9.08.89,13.57,2.86,1.14-3.34,2.68-6.53,3.81-9.88,2.61-7.7,7.1-24.18,2.81-31.39-1.62-2.72-4.58-3.88-7.63-2.96-7.51,2.28-10.36,13.32-11.55,20.12s-1.59,14.27-1.02,21.24Z"/>
  <path class="st6" d="M60.35,102.61c-.14-1.26-.38-2.74-.54-4.1-.36-3.01-2.37-7.02-5.99-6.36-4.35.79-7.76,10.13-9.24,13.87-.15.37-.06.77-.65.65,0,1.73-1.03,3.28-1.55,5-1.23,4.1-1.85,8.66-.83,12.86.32.77.7.67,1.03-.04.17-.77.39-1.61,1.11-2.05l-.62,3c-.28,1.17-.01,2.16.63,3.15.9.94,1.22,1.16,2.38,1.67.63.28.93.23.89-.14-.35-1.73-.29-3.49.82-4.95l-.04,5.27c.51.44,1.22.54,2.13.3,1.19-.27,1.99-.59,2.86-1.43l.6.04c1.93-3.06,3.16-6.47,3.68-10.25l1.83-9.62c.79-2.34,1.29-4.62,1.51-6.84Z"/>
  <path class="st1" d="M110.59,111.42c-.12-.06-2.48-.28-2.74-.25-.56.06-1.29.58-1.63.47-.17-.06-1.26-2.3-2.07-2.94-2.78-2.22-5.82-.74-7.84,1.64-.25.3-.43.97-.52,1.03-.22.14-2.3.32-3.05.64-1.89.8-3.37,2.89-3.31,4.98.03.87.98,2.42.94,2.86,0,.1-1.06.87-1.38,1.51-1.15,2.33-.26,5.03,2.03,6.19.33.17,1.13.25,1.21.34s.23,1.44.4,1.86c.32.81,1.1,1.31,1.31,2.15.12.75,1.89,1.73,2.38.95.73.96,3.07-.15,3.97-.77,1.53-.2,3.05-.18,4.56.07.62-.03,1.79-3.52,1.71-3.72-.33-.81-.96-.65-1.55-.18-.8-.55-1.54-.25-2.06.53l-.29-.53c-.88.09-2.83-1.35-1.11-.79.61-.68,2.99-2.4,2.2-.6.8,1.96,2.98.44,3.91-.79.46.98,1.2.68,1.95.25-.76,1.91,1.34,1.79,2.34.66.53-.6,1.11-2.55.51-3.16-.21-.22-4.07-.8-4.59-.6-.71-1.9-.08-2.15,1.69-2.82,1.28-.83,2.18-1.6.84-2.78-.1-.09-.12-.22-.08-.35,1.29-.03,3.22-.39,2.88-2.04-.21-.92-.45-1.62-1.09-2.37-.14-.16-1.44-1.4-1.53-1.44Z"/>
  <path class="st9" d="M57.25,134.28c.42,1.37.72,2.81,1.13,4.18-1.61.9-2.54,1.31-3.51,2.96l.18.62c1.88-.04,4.64,1.31.95.82-1.03-.12-1.64.2-1.85.94-.08,2.66.74,3.49,2.78,4.96,4.2,3.01,12.12,5.11,16.73,2.05,3.11-2.06,3.57-6.95,4.54-10.34.36-1.32-.15-1.13-1.11-.7-6.91.36-14.3-1.23-19.26-6.26-.8-.26-.78.04-.59.76Z"/>
  <path class="st2" d="M113.21,115.23c.17,1.1-2.14,1.51-2.86,1.67-.01-.32-.13-1.5-.28-1.63-.14-.12-.63,0-.89-.17-.41-.25-.47-.59-1.1-.82-1.66-.62-2.14.39-.43,1.16,1.44.65,2.8.25,1.99,2.65h.95c.41,1.95-3.12,2.33-3.45,3.08-.04.09.1,1.84.15,2,.32.98,1.51.35,1.97.41.95.13,1.87.75,2.99.46-.09,1.88-.25,3.08-2.38,3.33-.03-.65.56-1.22-.13-1.67-.22-.04-1.15.82-1.54.48-.14-.12.29-.84-.35-.7-1.09.24-1.43,1.45-2.11,1.72-.29.12-1.51,0-1.6-.07-.06-.05.52-.72-.03-1.52-.86-1.27-.9.24-.95.29-.19.17-1.49.12-1.76,1.23l-1.19-.95c-1.06.29.89,2.18,1.06,2.27.4.19,1.13.06,1.19.12s-.45,1.46-.24,1.67c.63.62.86-.89,1.07-1.19.85-1.16,1.18-.37,1.67-.33.26.02.86-.61,1.07-.39.28.29-1.27,2.65-.96,3.33-.93.08-1.78-.4-2.72-.23-.61.11-1.39.25-2,.38-1.27.27-2.68,1.06-4.09,1.04l-.5.06c-3.88,3.18-9.2,4.29-14.09,5.04-.52.13-.71.34-.41.85,4.04,2.51,11.01,4.3,15.12,1.19,2.66-2.01,2.76-4.88,3.93-7.74,1.06.49,2.04,1.16,3.25,1.29,1.27.26,3.72-.91,4.34-2.04.33-.6.44-2.14.52-2.22.09-.09,1.56.03,1.99-.03,2.77-.4,4.35-3.6,3.71-6.17-.36.29-.8.32-1.22.13-.06-1.08-.32-1.75-1.54-1.79,1.14-1.91,0-1.21.09-1.2.22.03.37-.09.52-.23,1.09-1.87,1.7-2.55,1.19-4.76Z"/>
  <path class="st10" d="M111.07,108.33c10.03.72,8.53-10.11,6.2-16.56-1.44-3.99-4.22-7.64-5.72-11.31-.17.43-.21.77-.18,1.23.58,9.57,1.35,16.99-.29,26.63Z"/>
  <path class="st11" d="M93.92,131.9c-4.72,2.25-9.87,4.3-15.12,4.76-7.45.65-15.83-.4-22.26-4.52.02.77.52,1.51.71,2.14-.03-1.19.98.4,1.07.47,5.59,4.48,11.73,5.8,18.83,5.5.79-.03,1.17-1.09,1.06.22.32-1.11.81-2.17.96-3.33.73.53,1.38,1.19,2.14,1.67.25-.43.65-.41,1.07-.47,4.27-.64,8.7-1.72,12.39-4.04.46-.29,1.5-.83,1.54-1.44-.87-.02-1.88-1.04-2.38-.95Z"/>
  <path class="st8" d="M60.35,102.61c-.83-.13-.41,1.37-.53,1.97-.29,1.38-1.01,3.01-1.35,4.37-1.2,4.9-2.48,17.19-5.74,20.34.39.03.66.27.95.48-.09-.71.82-.48,1.42-.84,3.42-2.08,4.13-11.46,4.53-15.23.31-2.94,1.01-8.35.72-11.07Z"/>
  <path class="st4" d="M49.87,130.71h-1.67c.04-2.15-.15-4.31.24-6.43-.6-.6-1.72,1.67-1.85,2.08-.4,1.22-.3,1.96-.22,3.21.03.41.51.76-.31.67,1.6.7,2.09.87,3.81.48Z"/>
  <path class="st0" d="M43.68,128.57c-.18-.86-.29-1.61-.23-2.5.05-.95.85-3.45.69-4.02-.29-1.05-1.5.75-1.69,1.12-.24.45-.26,2-.9,1.36.44,1.82.85,2.7,2.14,4.05Z"/>
  <path class="st1" d="M112.02,120c-.11-.07-.42-.29-.47-.24-.09.72-.38,1.33-.95,1.79.39.53,1.08.23,1.57.58.63.44-.41,1.66,1.4,1.7.77.01.61-.01.6-.73-.32-1.26-1.01-2.42-2.14-3.1Z"/>
  <path class="st3" d="M54.15,143.81c1.19-.76,2.34-.38,3.57-.34,1.57.05.33-1.38-.73-1.67-.78-.21-1.53.06-2.13-.37-.66,1.12-.67.98-.71,2.38Z"/>
</svg>