<?xml version="1.0" encoding="UTF-8"?>
<svg id="Layer_1" xmlns="http://www.w3.org/2000/svg" version="1.1" viewBox="0 0 160 174.77">
  <!-- Generator: Adobe Illustrator 29.8.3, SVG Export Plug-In . SVG Version: 2.1.1 Build 3)  -->
  <defs>
    <style>
      .st0 {
        fill: #de8b92;
      }

      .st1 {
        fill: #ee9caa;
      }

      .st2 {
        fill: #eb838c;
      }

      .st3 {
        fill: #df8c94;
      }

      .st4 {
        fill: #b82730;
      }

      .st5 {
        fill: #bc2632;
      }

      .st6 {
        fill: #f18a96;
      }

      .st7 {
        fill: #f4909a;
      }

      .st8 {
        fill: #d3848f;
      }

      .st9 {
        fill: #f29797;
      }

      .st10 {
        fill: #fdf4e9;
      }

      .st11 {
        fill: #f498a3;
      }

      .st12 {
        fill: #f495a2;
      }

      .st13 {
        fill: #fff5ec;
      }

      .st14 {
        fill: #f496a3;
      }

      .st15 {
        fill: #faebe3;
      }

      .st16 {
        fill: #f9e4dc;
      }

      .st17 {
        fill: #fff5ea;
      }

      .st18 {
        fill: #f5b0bc;
      }

      .st19 {
        fill: #fffdfd;
      }

      .st20 {
        fill: #f29596;
      }
    </style>
  </defs>
  <path class="st18" d="M43.94,117.96c-1.41-13.97-1.31-29.35,3.5-42.66,2.46-6.8,6.16-12.88,10.99-18.22-5.71-7.61-11-16.15-14.03-25.24-3.13-9.38-4.58-23.64,7.94-26.43s18.75,12.03,21.45,21.35c1.84,6.36,3.1,13.3,3.34,19.92,3.54-.38,6.73-.6,10.29-.23,1.47-.61,3.95-.13,5.14.93l.84-.27c3.07.77,5.94,2.08,8.76,3.5l.45.75c.66-.2,1.42.03,2.28.68.74.16,1.23.48,1.46.96-.1.23-.24.61-.02.82,13.03,10.8,18.25,28.05,18.72,44.52l.34,1.04c.42,5.49.1,11.07-.37,16.56-.03.34-.14.68-.25,1.03s-.26.68-.42,1.01c-1.12,10.65-3.59,22.56-12.86,29.21l-.55.95c-6.94,4.48-15.3,6.33-23.47,6.73-.16,0-.32-.06-.5-.13s-.34-.18-.5-.29c-1.58.05-3.33.06-4.91,0-.16.11-.32.22-.5.29s-.34.14-.49.13c-8.41-.45-17.04-2.46-23.99-7.4l-.5-.97c-.09-.07-.15-.17-.23-.23-2.17-.64-4-3.23-5.31-5.13-4.38-6.34-6.04-14.23-6.93-21.76.28-.43.44-.89.32-1.39Z"/>
  <path class="st1" d="M106.35,52.98c-1.4-.21-2.47-1-3.74-1.64l.13-1.07c1.57-2.61,2.78-5.36,3.79-8.18,2.38-6.64,7.31-23.58-3.14-25.57-6.14-1.17-9.01,8.49-9.65,13.11-.81,5.92-.82,10.51-.8,16.42,0,.46-.19.9-.38,1.32-1.73-.41-3.37-.75-5.14-.93-1.08-7.03-.91-14.54.03-21.59,1.3-9.71,5.36-25.31,18.56-20.49,15.01,5.49,8.51,30.46,3.96,41.37-1.04,2.51-2.56,4.8-3.62,7.25Z"/>
  <path class="st11" d="M55.86,146.24c-.97.76-3.88.19-4.45.57-.15.1-.73,1.75-1.06,2.22-2.58,3.72-8.3,3.59-11.09.13-.26-.33-.88-1.68-.97-1.73-.13-.07-1.9.46-2.42.46-4.08,0-6.83-4-6.43-7.85.13-1.23,1.56-3.5,1.56-3.74,0-.26-1.06-1.56-1.29-2.14-1.62-3.94.56-9.12,5.02-9.64.67-.08,2.28.13,2.67-.13.17-.12.62-1.51.88-1.92.86-1.39,1.89-2.25,3.39-2.92.96-.43,2.62-.25,2.26-1.59,1.03,10.22,3.58,21.46,11.92,28.28Z"/>
  <path class="st11" d="M81.58,154.42c-1.27,7.78-.71,15.95-10.67,16.8-7.81.67-10.18-2.38-12.18-9.27-1.43-4.94-2.27-10.36-2.64-15.48,6.89,5.44,16.83,7.63,25.48,7.95Z"/>
  <path class="st12" d="M125.05,98.33c3.52,1.2,7.04,2.42,10.44,3.93,5.75,2.56,15.17,6.75,11.65,14.77-2.91,6.61-13.16,3.5-18.3,1.93-1.21-.37-2.67-1.11-3.79-1.38-.55-.13-.43-.04-.7.38.69-6.61.89-13.03.7-19.63Z"/>
  <path class="st11" d="M86.49,154.42c8.37-.26,18.11-2.29,25.01-7.25-1.03,5.6-1.79,16.21-5.95,20.34-3.3,3.28-11.66,2.8-15.09-.12-2.97-2.52-3.66-9.29-3.97-12.98Z"/>
  <path class="st10" d="M83.45,110.95c13.24-9.57,38.43-6.62,37.18,13.92-1.02,16.69-17.52,25.55-32.85,24.41-11.19-.83-18.58-9.61-16.64-20.84.11-.63.25-2.51,1.09-2.53l.83-.07c6.79,3.55,15.8,5.43,23.26,3.09,11.48-3.6,11.59-15.66-1.12-15.8-3.85.09-7.59-.41-11.21-1.47l-.53-.7Z"/>
  <path class="st14" d="M83.45,110.95c5.91,2.3,9.94,1.07,15.48,2.17,7.39,1.46,8.33,9.23,2.73,13.59-7.78,6.05-21.45,3.86-29.43-.8-4.9-2.86-14.62-11.69-14.64-17.69,0-3.65,3.86-7.4,7.49-7.33,4.7.09,12.96,7.95,18.36,10.06Z"/>
  <path class="st7" d="M56.74,17.51c9.18-1.56,12.84,12.61,14.25,19.3.8,3.82,1.46,7.89,1.43,11.8-.13.44-2.7,1.95-3.31,2.3-.97.58-4.09,2.36-5.01,2.5-.84.12-2.45-2.34-2.95-3.03-4.77-6.59-12.01-20.25-9.27-28.38.7-2.08,2.6-4.11,4.86-4.49Z"/>
  <path class="st6" d="M102.61,51.35c-3.57-1.77-6.09-3.02-10.05-3.97-.5-6.65-.26-13.85,1.24-20.38,1.21-5.23,4.39-13.18,11.27-10.48,9.92,3.9,3.16,23.66-.08,30.55-.7,1.48-1.48,2.92-2.38,4.28Z"/>
  <path class="st17" d="M81.29,71.04c8.69-1.07,12.31,10.04,5.6,14.48-5.76,3.8-13.38-1.19-12.21-8.01.55-3.2,3.38-6.07,6.62-6.47Z"/>
  <path class="st13" d="M110.03,70.8c6.39-1.08,9.14,6.55,6.74,11.41-3.37,6.83-11.79,2.3-11.35-4.8.15-2.41,2.03-6.17,4.61-6.61Z"/>
  <path class="st8" d="M103.78,93.18l-.47.4c-1.2-.19-2.24-.8-3.15-1.57-1.31,1.42-3.02,2.36-4.96,2.54l-.54-.43c-1.78.06-2.77-.24-4.19-1.31-.76-.57-4.18-3.73-1.76-4.08,1.03-.15,2.16,1.98,3.21,2.62,2.74,1.68,6.57.27,7.41-2.85-.11-.75,1.75-.99,2.1-.47-.47,2.17,2.04,3.78,3.99,3.17,1.78-.56,2.1-4.01,3.56-3.6,1.73.48-.4,3.82-1.23,4.53-1.24,1.06-2.44,1.26-3.98,1.04Z"/>
  <path class="st20" d="M75.45,87.41c1.81-.13,6.46.47,6.12,3.07-.43,3.28-9.84,3.25-10.7.44-.74-2.43,2.83-3.38,4.58-3.51Z"/>
  <path class="st2" d="M101.45,88.04c-.67.32-1.42.23-2.1.47-1.76-.88-5.14-2.61-4.67-5.02.34-1.79,6.38-1.73,7.81-1.51,3.75.58.89,5.15-1.04,6.06Z"/>
  <path class="st19" d="M103.78,93.18c.97.39-.03,3.04-.37,3.72-.95,1.9-3.7,2.18-5.57,1.88-1.73-.27-2.74-3.18-3.17-4.66,2.28-.08,4.03-1.1,5.49-2.8,1.14,1.11,2.05,1.64,3.62,1.86Z"/>
  <path class="st9" d="M118.47,85.99c2.02-.08,6.08,1.47,3.79,3.81-1.53,1.56-6.38,1.49-7.85-.11-2.01-2.19,2.31-3.63,4.06-3.7Z"/>
  <path class="st3" d="M81.52,66.13c1.15-.15,3.32-.29,2.82,1.41-.43,1.45-6.72,2.7-7.33,1.82-1.26-1.82,3.36-3.07,4.52-3.23Z"/>
  <path class="st0" d="M109.09,65.88c1.02-.3,5.29.74,5.79,1.83,1.1,2.39-4.63,1.08-5.66.51s-1.43-1.96-.13-2.34Z"/>
  <path class="st5" d="M83.38,73.61c8.03-1.37,8.6,11.87-.03,10.67-5.65-.78-5.78-9.68.03-10.67Z"/>
  <path class="st4" d="M111.67,73.14c4.35-.8,5.85,2.59,5.44,6.37-.18,1.62-1.53,3.49-3.21,3.8-6.34,1.17-7.21-9.26-2.23-10.17Z"/>
  <path class="st15" d="M81.04,75.7c2.15-.65,2.38,2.47.44,2.29-1.45-.14-1.41-2-.44-2.29Z"/>
  <path class="st16" d="M114.69,74.77c1.03-.1,1.8,1.62.68,2.3-1.98,1.21-2.48-2.13-.68-2.3Z"/>
</svg>