<?xml version="1.0" encoding="UTF-8"?>
<svg id="Layer_1" xmlns="http://www.w3.org/2000/svg" version="1.1" viewBox="0 0 128 128">
  <!-- Generator: Adobe Illustrator 29.8.3, SVG Export Plug-In . SVG Version: 2.1.1 Build 3)  -->
  <defs>
    <style>
      .st0 {
        fill: #d1903e;
      }

      .st1 {
        fill: #f5c062;
      }

      .st2 {
        fill: #e2a74a;
      }

      .st3 {
        fill: #d1903d;
      }

      .st4 {
        fill: #d39341;
      }

      .st5 {
        fill: #d0923e;
      }

      .st6 {
        fill: #e3a84b;
      }

      .st7 {
        fill: #e3ac49;
      }

      .st8 {
        fill: #f3e1b2;
      }
    </style>
  </defs>
  <path class="st1" d="M55.22,27.14c-.62,0-.77.19-.47.58,4.7,6.45,6.25,13.07,3.07,20.56-2.7,6.38-7.47,11.53-14.88,10.29-5.53-.92-9.96-8.49-11.22-13.55-.16-.31-.37-.35-.51-.02-.13.61-1,2.15-1.29,2.93-1.73,4.77-2.49,9.26-2.98,14.31-.71,7.24-.93,14.35-.13,21.61.12,1.07.48,2.26.53,3.29.05.45.35.45.58.08,1.22-3.19,2.61-6.37,4.37-9.31,1.71-2.85,4.84-7.41,8.47-4.65,2.53,1.92,2.9,5.29,2.84,8.3.11.09.2.18.2.27.08,1.18.07,2.55-.06,3.69-.15.23-.25.47-.3.74-.19,3.48-.53,6.99-1,10.39s-1.2,7.2-4.63,8.39c-.24.49,1.33,1.7,1.78,1.99,4.75,3.09,9.86,5.09,15.42,6.21.32-.16.7-.18,1.13-.07,2.72.42,5.91.52,8.67.4.1.06.21.12.32.16.83.31,4.23-.44,5.3-.7,4.45-1.08,8.78-3.17,12.25-6.2,1.23-1.07,2.66-2.34,3.21-3.87.07-.09.1-.42.27-.54l-.07-.37c-2.41-1.71-4.77-3.72-6.65-6.04-7.14-8.76,3.36-19.77,12.69-19.7.22-.21.29-.35-.02-.41-.05-.79-.04-1.57.05-2.34,0-8.21-.67-16.82-3.6-24.56-.07-.26-.08-.53-.02-.79-2.62-6.66-6.77-12.8-12.8-16.75-1.11-.73-4.15-2.59-5.29-2.62-.14,0-.28.01-.42.03-.18-.57-.55-.54-1.07-.4-3.44-1.1-7.65-1.76-11.27-1.62-.6.02-1.98.11-2.46.27Z"/>
  <path class="st6" d="M55.22,27.14c-.29.04-.45,0-.67-.2-1.12-1.03-2.5-3.24-3.66-4.5-2.95-3.23-7.43-7.02-11.15-9.31-2.09-1.29-5.4-3.52-7.29-.8s-2.73,9.29-2.95,12.46c-.41,5.77-.1,11.86,1.13,17.52.16.74.76,1.95.61,2.68.35-.04.25.21.31.42,1.42,5.22,6.05,12.87,11.93,13.5,5.86.63,9.68-2.11,12.69-6.88,3.08-4.89,4.64-10.8,2.93-16.5-.89-2.94-2.56-5.67-4.26-8.2-.01-.03.32-.17.4-.2Z"/>
  <path class="st5" d="M92.16,73.58c-.33.34,0,2.42-.13,2.55-1.03-.09-1.96.09-2.96.31-7.13,1.53-14.32,8.98-11.67,16.77,1.05,3.08,6.12,7.51,8.76,9.23,5.27,3.45,12.68,5.22,18.93,5.37.8-.29,1.69-.56,2.67-.8.77-.29,1.27-.97,1.68-1.66.78-1.93,1.91-3.59,3.38-4.99.57-.49.75-.92.53-1.27-.01-.1-.04-.25-.12-.27-.17-.03-2-.04-2.16,0l-.19.27-.12-.27c-5.6-1.38-3.07-5.95,1.13-7.11.31-.16.33-.48.09-.73-3.42-1.64-4.66-5.99-.07-6.91l.23-.28c-1.11-.68-2.12-1.51-3.21-2.2-3.79-2.4-8.33-4.53-12.76-5.27-1.33-.22-2.67-.37-4.03-.31,0-.8,0-1.61,0-2.42Z"/>
  <path class="st2" d="M68.96,28.48c.34.11.72.28,1.07.4,4.14-.13,8.16,2.45,11.35,5.03,4.12,3.33,6.89,7.23,9.39,11.94l.32.21c8.91-9.31,10.69-28.77,7.16-40.69-.97-3.26-1.79-4.83-5.34-3.18-4.95,2.3-12.89,9.91-16.42,14.21-3.18,3.88-4.82,7.29-7.06,11.68-.12.23-.15.41-.47.4Z"/>
  <path class="st7" d="M27.36,87.14c.05,1.09-.37,1.68-.6,2.68-.76,3.34-1.26,6.42-.71,9.85.36,2.28.84,3.29,2.59,4.78,2.53,2.16,4.84,3.03,7.66.81,1.04-.12,1.89-1.69,2.37-2.62.9-1.74,1.42-3.66,1.86-5.56.7-4.46,1.67-8.87,2.9-13.23-.02.5.09,1.06.33,1.68.22-.14.13-.51.14-.74.02-1.93,0-4.27-.14-6.17-.32-4.27-4.19-8.65-8.27-5.24-3.07,2.57-6.31,9.75-7.73,13.56-.09.25-.11.43-.4.2Z"/>
  <path class="st8" d="M112.15,83.78c-.82-.04-2.58.83-3.05,1.56-1.01,1.57-.18,3.5,1.04,4.68.46.44,1.26.76,1.65,1.12.1.09.14.21.08.28-2.22.57-5.79,3.08-4.29,5.73.5.89,2.31,1.92,3.29,1.92h2.47c-.04.3-.35.64-.54.87-.59.72-1.42,1.4-1.97,2.17-.94,1.33-1.63,3.96-3.05,4.58-.71.31-1.58.41-2.28.66-.25.09-.44.12-.42.45,6.64.16,14.74-5.18,18.19-10.75,2.26-3.65,4.1-9.42,3.25-13.71-.31-1.57-1.23-1.2-2.34-.81-1.98.7-4.64,2.56-6.75,2.31-1.63-.19-3.7-.99-5.28-1.06Z"/>
  <path class="st7" d="M36.69,106.6c.02.18-.02.36,0,.54l.27,1.34c.25,2.49.75,5.03,1.33,7.44-.05.23-.93.28-1.22.38-2.61.9-4.08,3.52-2.3,5.99,2.69,3.73,13.15,6.36,15.86,1.62,1.43-2.5,2.53-5.79,3.66-8.46-.1-.09-.19-.18-.3-.25s-.21-.14-.32-.17c-6.23-1.84-12.14-3.68-16.58-8.74-.33-.16-.53-.04-.39.3Z"/>
  <path class="st7" d="M84.82,107.4c.14-.52.19-1.15-.47-.6-5.02,5.9-12.64,8.66-20.22,8.88-.21-.09-.34.06-.38.44-.09,4.7,8.14,6.83,11.78,6.29,2.45-.37,3.5-1.23,4.67-3.36s4.39-9.41,4.62-11.66Z"/>
  <path class="st0" d="M43.76,85.53c.05-1.25-.04-2.51,0-3.76-.4.13-.21.64-.3.97-.52,1.92-1.17,3.97-1.61,5.89-1.09,4.76-1.61,13.52-5.55,16.62.47-.12.21.6.26,1.02.02.17.14.3.14.32.11-.32.36.03.47.13.44.4.82.88,1.26,1.28,4.51,4.05,10.05,6.09,15.87,7.45.15-.35.85-2.2.96-2.26.18-.11.67.02.91-.02-4.79-.74-12.44-3.4-16.33-6.31-.22-.17-1.74-1.44-1.8-1.55-.12-.23.12-.17.2-.2,3.77-1.24,4.31-6.84,4.73-10.27.37-2.95.68-6.36.8-9.33Z"/>
  <path class="st4" d="M91.09,46.07c-1.45-2.64-2.79-5.22-4.69-7.57-3.34-4.12-10.63-10.15-16.18-9.88-.33.02-.44-.1-.2.27,9.23,3.43,15.11,11.09,18.53,20.13-.2-.78.84-1.2,1.34-1.68.43-.4.8-.86,1.2-1.28Z"/>
  <path class="st3" d="M64.82,113.58c-.63.71-1.05,1.57-1.07,2.55.18-.38.18-.17.36-.18,1.99-.08,3.85-.26,5.8-.67,5.75-1.2,11.06-3.97,14.84-8.55.12.13.08.5.07.67.46-1.44,1.01-2.9,1.07-4.43-4.69,6.44-13.24,10.27-21.07,10.6Z"/>
  <path class="st0" d="M36.96,108.48c-.04-.44.04-.96-.27-1.34.05.43,0,.97.27,1.34Z"/>
</svg>