<?xml version="1.0" encoding="UTF-8"?>
<svg id="Layer_1" xmlns="http://www.w3.org/2000/svg" version="1.1" viewBox="0 0 160 160">
  <!-- Generator: Adobe Illustrator 29.8.3, SVG Export Plug-In . SVG Version: 2.1.1 Build 3)  -->
  <defs>
    <style>
      .st0 {
        fill: #753a30;
      }

      .st1 {
        fill: #a0b0b2;
      }

      .st2 {
        fill: #f7c76a;
      }

      .st3 {
        fill: #773b30;
      }

      .st4 {
        fill: #d9a64b;
      }

      .st5 {
        fill: #ebb044;
      }

      .st6 {
        fill: #f1e0b2;
      }

      .st7 {
        fill: #ebb34b;
      }

      .st8 {
        fill: #9eaeb2;
      }

      .st9 {
        fill: #bdccb8;
      }

      .st10 {
        fill: #faf5e5;
      }

      .st11 {
        fill: #f7e8d9;
      }

      .st12 {
        fill: #e9b043;
      }

      .st13 {
        fill: #f6ede0;
      }

      .st14 {
        fill: #9d673f;
      }

      .st15 {
        fill: #d9a64a;
      }

      .st16 {
        fill: #c2e0df;
      }

      .st17 {
        fill: #f1e0b0;
      }

      .st18 {
        fill: #becbb6;
      }

      .st19 {
        fill: #f4dfb2;
      }

      .st20 {
        fill: #ef9d6e;
      }

      .st21 {
        fill: #af7f4b;
      }

      .st22 {
        fill: #7f4632;
      }

      .st23 {
        fill: #ecb54d;
      }

      .st24 {
        fill: #f5ecde;
      }

      .st25 {
        fill: #eab44c;
      }

      .st26 {
        fill: #cf9340;
      }

      .st27 {
        fill: #ee9c6b;
      }

      .st28 {
        fill: #f2e2b1;
      }

      .st29 {
        fill: #d0923e;
      }

      .st30 {
        fill: #f7e9dd;
      }

      .st31 {
        fill: #faf5e3;
      }

      .st32 {
        fill: #d19440;
      }

      .st33 {
        fill: #ecb54e;
      }

      .st34 {
        fill: #fbf7e9;
      }

      .st35 {
        fill: #f6faf7;
      }

      .st36 {
        fill: #f4faf9;
      }

      .st37 {
        fill: #c4dfdf;
      }

      .st38 {
        fill: #f7c264;
      }
    </style>
  </defs>
  <path class="st5" d="M49.39,122.52c.36.58-.12.86.75.52,7.19,6.32,16.26,8.97,24.74,9.39-.46,4.59-1.02,12.85-3.78,15.95-3.63,4.07-12.64,4.46-16.09-.11-1.87-2.48-3.15-8.69-3.81-12.16-.84-4.38-1.55-9.07-1.81-13.59Z"/>
  <path class="st12" d="M81.57,132.43c8.05-.38,18.92-3.21,25.5-9.91-.53,5.02-1.18,10.13-2.16,15.04-1.24,6.22-2.38,11.41-7.33,13.37-3.3,1.3-9.93.89-12.5-2.66-2.26-3.13-3.39-11.52-3.51-15.84Z"/>
  <path class="st38" d="M38.33,57.78c.22-.19,2.42-5.04,2.46-5.33-.13-.25-.14-.48-.04-.7.03-.39.2-.42.51-.38,3.35-6.11,7.78-11.94,13.25-16.08.07-.31.2-.37.46-.29,1.33-1.32,5.97-4.74,7.49-4.78.17,0,.34.02.51.05,1.96-1.71,5.06-2.46,7.62-3.07,6.42-1.52,13.19-1.49,19.59.11,2.56.64,5.65,1.42,7.59,3.16.49-.47.62-.15.79.4,9.48,4.92,17.13,14.04,21.6,23.81,3.38,7.39,5.06,15.4,5.55,23.54.19.05.39,0,.58.01.3.27.23.6-.22.98.15,6.01-.11,11.98-.79,17.92l-.36.97c-1.04,10.29-3.59,21.59-12.19,28.1l-.45.82c-7.79,5.06-18.04,7.53-27.23,7.78-.14,0-.27-.05-.42-.12s-.28-.15-.42-.25c-2.39.08-5.08.09-7.47,0-.18.1-.36.18-.55.25s-.37.12-.55.11c-9.29-.59-18.75-2.55-26.65-7.79-.39.33-.65.07-.76-.8-.94-1.12-2.69-2.16-3.84-3.41-9.61-10.45-10.65-32.44-9.73-46.06.41-6.05,1.62-12.03,3.54-17.76"/>
  <g>
    <path class="st2" d="M87.55,25.16c.55-.11,1.06-.01,1.54.28,2.98.83,6,1.72,8.71,3.27.07-.24.47-.28.66.04.22.03.35.2.39.5,4.88,2.57,9.34,6.34,13.25,10.36l.08.62c1.44,1.7,2.89,3.58,4.24,5.42.08.1.1.25.13.4s.03.31.03.47c4.78,7.23,8.36,17.26,8.44,26.03l.18,2.15c0,.18,0,.36,0,.54l-.35.18c-5.28-2.85-11.56,2.52-15.24,6.12l-.41-.02-.22.5c-2.79,2.58-5.84,4.85-9.14,6.7-.14.08-.31.11-.48.13s-.36.03-.54.02c-.23-.66-.78-.91-1.54-1.19-6.17-2.27-13.49-2.74-20.04-2.38-5.31.29-11.04,1.13-15.53,3.93l-.86-.06c-2.89-1.52-5.79-3.11-8.24-5.31-3.63-3.57-13.12-12.8-18.34-8.02-.18.42-.38.56-.87.43l.17-1.94c-.09-9.56,3.06-19.38,8.26-27.28,0-.33.07-.65.21-.94l3.73-5.01c.17-.63.44-.98.8-1.05l.08-.5c3.88-3.71,7.93-7.57,12.76-10.23.74-.19,1.32-.57,1.75-1.12,3.27-1.24,6.61-2.36,10.02-3.35.34.18.69.22,1.05.11,4.52-1.03,10.8-.89,15.3.18Z"/>
    <path class="st25" d="M33.56,74.34c0,.6,0,1.2,0,1.79.28-.04.25-.39.53-.62,2.2-1.82,4.73-1.47,7.25-.59,5.21,1.83,9.16,7.16,13.59,10.36,2.15,1.56,4.46,2.69,6.76,3.95l.61-.08c6.61,3.18,15.19,7.69,17.54,15.19,2.2-7.75,11.56-12.33,18.34-15.55l.62.07c3.69-2.02,7.28-4.41,10.37-7.36.99.72-.4,1.5-1.17,1.81-1.08,1.72-2.5,2.9-4.25,3.53l-2.02,1.63c-.68.06-1.03.26-1.04.59-1.37.86-2.79,1.72-4.25,2.6-1.33.13-2.54.72-3.63,1.76-.33,1.38-.85,1.12-1.82.52l-.13.11c.97.89.64,1.29-.99,1.19-1.36.55-2.56,1.43-3.6,2.66l-.81.29c.22,1.03-.37,1.72-1.8,2.1-.85.59-2.57,2.65-1.16,3.34-.18.66.21.79,1.17.38,1.75-1.72,3.23-1.79,4.12.61.29,1.09-1.17,2.74-1.83,1.65v-.44c2.17-3.15-2.32-.47-3.31.18-1.47.73-3.04,1.42-4.61.51l-3.67-2.05c-2.87-.31-.74,1.34.47,2.01,1.44.8,2.99,1.47,4.56,1.91l.23.4c.6.85-.28,3.34-1.41,3.23-.49.52-1.04.92-1.64,1.19-2.16-.69-3.98-1.58-5.67-3.05-2.6-1.2-.25,2.2.86,2.49,3.69,1.73-.62,2.53-2.66,2.55-7.24.05-19.19-6.16-24.75-10.93-3.41-2.92-5.69-5.53-8.43-8.89-.85-1.04-.94-.8-1.11.43l-.38.23-.41-.02c-.14-.69-.36-1.28-.65-1.78-.12-.8-1.09-2.39-1.41-3.32-1.49-4.3-1.77-9.02.26-13.2.24-.5,1.01-1.34,1.11-1.74.14-.55-.15-1.22.22-1.66Z"/>
    <path class="st7" d="M109.18,81.52c.19-.41,1.82-1.84,2.28-2.25,3.04-2.68,9.08-6.64,13.14-4.45.17.09.44.33.58.42,4.29,2.88,4.1,10.58,2.68,15.03-.55,1.74-1.59,3.12-2.16,4.71-.23.37-.67.3-1.33-.2l-.51.18c-5.1,7.7-13.58,13.65-21.95,17.36-4.47,1.98-7.9,2.96-12.77,2.75-3.02-.13-3.95-1.6-.68-2.83,2.79-2.13,1.1-3.46-1.08-.92-.9.57-3.79,2.05-4.69,1.84-.69-.52-1.3-1.14-1.82-1.86-.74.65-1.35-2.01-.88-2.51l.11-.38c1.9-.52,3.72-1.39,5.47-2.31l.39.17c1.22.15,1.74-.97,1.38-2.04-.03-.08-1.07-1.15-1.15-1.17-.86-.22-1.84,1.03-2.39,1.28-.36.16-.78.11-1.14.27-.45.2-1.58,1.95-1.81.67-.27-1.53,1.3-.7,1.41-1.26-.01-.48-.67-.39-.71-.9,0-.1.46-1.65.53-1.76.05-.08,1.11-1.15,1.26-1.28.52-.44,1.49-.66,1.71-.86.3-.28-.09-.88.11-1.22.17-.29.7-.24.93-.41.51-.38,1.45-1.51,2.07-1.92.98-.65,1.91-1.08,3.08-.72-.37-.36-1.2-.92-.35-1.36.39-.2.89.66,1.4.46,0-.31.07-.65.27-.89.09-.11,2.11-1.49,2.3-1.6.57-.3,1.18-.09,1.44-.24,1.06-.61,2.24-1.31,3.31-2.09.21-.15.62-.13.72-.25s.04-.47.21-.59c.19-.14.6-.05.88-.18.4-.18,1.73-1.53,2.29-1.79,1.26-.57,1.18-.23,2.35-1.37.58-.57,1.26-1.62,1.7-2.03.3-.28.98-.37,1.24-.71s.1-.68.16-.82Z"/>
    <path class="st23" d="M87.55,25.16c.47.05.46.07.61-.35.43-1.18.71-2.39,1.26-3.57,7.95-17.15,32.28-13.15,46.94-10.27,3.86.76,9.94,1.48,13.07,3.89,1.67,1.29,1.59,2.24.98,4.2-2.15,6.84-16.38,19.85-22.59,23.43-3.23,1.87-6.94,3.22-10.64,3.68-.33.04-.71-.23-.62.35-1.3-1.97-2.94-3.82-4.34-5.73-.24-.33-.03-.53-.05-.56l.36-.54c3.95-1.5,6.57-4.2,8.61-7.71l.4-.33c4.62-.92,9.62-3.1,13.08-6.53,3.78-3.75,2.57-5.29-1.77-6.41-12.47-3.21-28.01-4.72-33.98,9.85l-.41.19-.71.29c-2.75-1.48-5.65-2.41-8.64-3.22-.42-.12-1.17-.57-1.55-.66Z"/>
    <path class="st33" d="M72.25,24.98c-3.73.85-7.32,2.28-10.88,3.58,0-.15-.14-.25-.19-.35l-.55-.28c-5.92-13.2-20.86-11.96-32.37-8.89-1.02.27-2.04.54-3.03.91-2.18.8-2.82,1.92-1.32,3.9,3.25,4.31,8.44,7.11,13.64,8.01.62.18,1.21.48,1.63,1,1.91,2.97,4.01,5.48,7.34,6.78l.06.43c-.06.04-.14.74-.56,1.32-1.37,1.91-2.88,3.7-4.19,5.68.08-.43-.19-.41-.48-.48-7.12-1.82-11.59-4.4-17.1-9.29-4.12-3.66-9.12-8.31-12.17-12.89-1.43-2.15-4.27-5.91-2.07-8.29s12.07-4.22,15.6-4.89c14.64-2.78,37.2-5.77,44.92,10.96.32.68.55,1.97.87,2.52.22.38.48.32.85.3Z"/>
    <path class="st2" d="M34.44,96.06l.58.29c3.79,5.7,9.45,9.91,15.13,13.48l.29.59c-.05.44.36,1.76.67,2.63,4.56,12.91,15.88,15.75,28.15,15.96,7.35.12,16.05-.14,22.26-4.48,4.95-3.46,9.42-9.19,9.76-15.37l.27-.46c4.81-3.48,9.55-7.23,12.91-12.28.75-.71.75-.17.72.53-.1.69-.09,1.61-.18,2.33-.13.64-.19,1.3-.18,1.97-.64,4.94-1.98,10.52-4.15,15.06-1.93,4.03-4.87,7.97-8.68,10.25l-.38-.05c-.14-1.12-.67-1.28-1.59-.48-3.16,2.28-6.8,3.98-10.55,4.97-.51.35-.96.48-1.37.4l-.36.21c-2.53-1.12-5.53-2.18-8.29-1.61l-.32-.22-.06.43c-2.59.79-5.16,1.68-6.25,4.46l-.38.11c-.16-.56-.85-.54-1.39-.34-.58-.01-1.18,0-1.76,0-.6-.12-1.53-.27-1.96.17l-.34-.14c-1.39-2.26-3.54-3.74-6.12-4.25l-.19-.44-.22.17c-2.95-.38-6,.21-8.64,1.59l-.46-.14-.79.07-5.7-2.13c-2.49-1.47-5.03-2.78-7.62-3.91.02.35-.12.48-.48.41-7.07-4.87-10.64-13.57-12.26-21.85-.65-3.32-.62-6.57-1.1-9.74l.09-.18c.54.53.61,1.35.97,1.97Z"/>
    <path class="st32" d="M125.71,94.98c-.23.63-.43,1.32-.53,1.97l-.17-.72c-3.48,5.3-8.46,9.53-13.72,12.92l-.14.52c-6.77,4.28-20.7,11.22-27.93,5.19-.98-.81-2.46-2.26-2.35-3.56l1.95,1.53.38.06c1.28-.65,2.67-1,3.88-1.8.78-.51,2.19-2.39,3.01-1.21.66.95-.6,2.02-1.32,2.58-.39.31-2.02,1.09-2.09,1.19-.43.61,2.27,1.05,2.55,1.07,2.84.26,5.57-.18,8.26-1.07,8.82-2.92,18.85-9.42,24.7-16.79.4-.5,1.18-2,1.52-2.22.98-.63,1.14.28,2,.34Z"/>
    <path class="st7" d="M125.18,74.7c-.33-.54-.17-1.47-.18-2.15.32.53.18,1.48.18,2.15Z"/>
    <path class="st32" d="M124.83,101.26c.08-.62-.21-1.49.18-1.97-.08.66-.09,1.28-.18,1.97Z"/>
    <path class="st28" d="M112.17,40.24c-2.67-3.08-7.58-7.01-11.02-9.3-.42-.28-2.58-1.37-2.66-1.5-.08-.11-.05-.52-.03-.69.07-.55.69-1.61.96-2.16,6.29-12.43,20.64-11.46,32.13-8.56,1.97.5,6.67,1.34,5.5,4.26-1.69,4.21-8.51,7.8-12.57,9.06-.78.24-2.05.31-2.63.55-.85.35-1.73,2.46-2.4,3.3-1.83,2.33-4.62,3.93-7.28,5.04Z"/>
    <path class="st17" d="M61.17,28.21c.25,1.02-1.03,1.1-1.64,1.47-3.41,2.03-6.74,4.48-9.62,7.24-1.29,1.23-1.88,2.11-3.34,3.14l-2.62-1.36c-2.54-1.7-3.27-3.22-4.97-5.52-.9-1.23-2.63-1.08-3.98-1.5-3.77-1.18-7.9-3.45-10.5-6.51-1.13-1.33-2.79-3.38-.88-4.85,1.54-1.18,8.89-2.67,11.09-3.03,8.89-1.46,18.39-.92,24.23,7,.93,1.26,1.49,2.57,2.21,3.93Z"/>
    <path class="st6" d="M61.7,89.24c.04-.58.8-.91,1.25-1.15,8.15-4.27,25.99-4.1,34.44-.73.6.24,1.15.6,1.76.81l-.35.71c-6.11,3.35-15.66,7.28-18.32,14.42-.29.78-.32,1.88-.84,2.46.02-.37,0-.72-.08-1.09-1.88-7.73-11.6-12-17.86-15.43Z"/>
    <path class="st0" d="M103.2,55.31l.41.06c.21.56.26,1.16.3,1.76.05.67.15,2.36-.53,2.49,0,.25-.06.43-.18.54-.93,1.14-2.34,1.85-3.82,1.82l-2.85-.13c-.74.17-1.45.38-2.12.64-.14.45-.19.44-.35,0-.91.19-1.7-1.35-2.02-2.15-.95-2.35-.39-5.35,1.34-7.17.62-.65,1.99-1.82,2.79-1.26,1.4-.36,1.77.61,2.9,1.26.56.32,1.15.64,1.73.93.74.36,2.05.5,2.4,1.23Z"/>
    <path class="st3" d="M64.51,51.9c.36-.53,1.43.21,1.88.52,2.51,1.77,3.62,4.55,2.44,7.55-.34.85-1.09,2.4-2.03,2.34-.52.21-1.14.09-1.88-.36l-.85-.17c-2.33.3-4.45.37-6.23-1.44-.41.2-.53-.04-.35-.72l-.39-.09c-.26-1.36-.24-2.82.16-4.16l.4-.06c.2-.43,2.44-1.15,3.05-1.47,1.05-.55,2.72-2.11,3.81-1.94Z"/>
    <path class="st20" d="M53.26,65.72l.27-.31c1.29.77,2.13,1.11,3.58.59l.38.26c2.36.59,2.96,3.64.65,4.71s-8.45,1.19-10.33-.48c-.82-.72-1-2.24-.29-3.09,1.21-1.45,3.98-1.89,5.75-1.67Z"/>
    <path class="st27" d="M107.94,65.54c1.19-.17,3.96.29,5.05.86,2.22,1.16,2.52,3.33.12,4.5-2.25,1.1-7.15,1.22-9.27-.19-1.89-1.26-1.45-3.09.23-4.28l.11-.22c1.24.19,2.4-.14,3.49-.98l.28.3Z"/>
    <path class="st22" d="M77.13,60.56c1.09-.17,6.51-.23,7.48,0,.72.16,1.15.96,1.19,1.67.1,1.88-2.44,3.98-4.16,4.19-2.31.28-5.85-1.3-6.21-3.85-.19-1.33.49-1.82,1.7-2.01Z"/>
    <path class="st14" d="M71.59,76.81c-.91-.94,1-3.46,1.71-4.18,4.19-4.18,11.7-4.3,15.37.65.56.75,1.89,2.91.63,3.48-1.39.64-1.55-1.32-2.21-2.23-2.81-3.88-9.07-3.82-12.3-.56-.73.74-2.01,4.06-3.2,2.84Z"/>
    <path class="st18" d="M53.61,60.34c.56.02.74.5.35.9l.05.38c-.91.35-.69.75.68,1.2l.15.39c.4-.05.75.2,1.04.74l5.47-.56.26-.34c1.7.16,3.41-.09,4.98-.68l.21.11c.32-.43,1,.3.7.72-.29.26-.27.52-.83.68-1.53.42-3.38.21-5.15.67-1.54.4-2.73,1.25-4.05,1.7-.5.17-1.66.41-2.18.35-.84-.1-1.2-.78-2.04-.89-.22-.57-.95-.72-1.21-1.19-.36-.64-.51-2.72-.11-3.3.21-.3,1.65-.55,1.32-1.61.49-.09.73.36.35.72Z"/>
    <path class="st9" d="M107.94,65.54c-.75.11-1.41.95-2.03,1.07-.42.08-1.4-.06-1.84-.17-1.68-.42-3.38-1.7-5.27-2.07-1.38-.28-3.39-.09-4.63-.48-.23-.07-.62-.49-.83-.68-.13-.41.26-.95.7-.72.03-.01.3-.02.35,0,.08-.12.22-.25.32-.19,1.23.73,1.99.79,3.47.79.74-.13,1.29-.03,1.66.29,1.35.07,2.69.18,4.03.55.93.32,1.47.12,1.61-.62l.51-.11.19-.38c.67-.16,1.6-.41.97-1.18l.07-.24c-.38-.41-.62-.83,0-1.08-.46-.3-.13-.81.35-.72.17,1.69,1.5.81,1.59,2.96.06,1.45-.29,1.99-1.24,2.97Z"/>
    <path class="st4" d="M95.41,41.34c.97-.16,1.93,1.81,2.51,2.39s1.73,1.22,2.51,1.56c.69.3,2.27.32,2.41,1.32.29,2.08-3.95,1.05-5,.59-1.64-.71-4.24-3.18-3.36-5.18.1-.23.67-.65.92-.69Z"/>
    <path class="st15" d="M58.41,47.54c-.51-.41-.37-1.17.08-1.57s1.81-.57,2.46-.85c.72-.32,1.9-1.22,2.43-1.82.73-.82.8-2,2.29-1.82,2,.25.25,3.46-.53,4.33-1.15,1.27-5.32,2.86-6.72,1.74Z"/>
    <path class="st31" d="M67.5,63.21l-.7-.72c-.15-.05-.15-.11,0-.18,2.57-2.37,2.93-6.2.45-8.8-.46-.48-2.12-1.51-2.73-1.61-.99-.15,1.09-2,1.24-2.07.48-.24,1.77,1.23,2.11,1.62,2.86,3.27,2.96,8.79-.36,11.76Z"/>
    <path class="st31" d="M96.16,51.9c-4.45,1.13-5.79,7.69-2.11,10.59-.1.05-.4.68-.7.72-2.89-2.65-3.21-7.37-1.2-10.65.42-.68,1.94-2.43,2.61-2.73s1.56,1.26,2.1,1.62l-.7.45Z"/>
    <path class="st34" d="M107.59,59.62c-.03.17-.32.54-.35.72l-.41.16c-1-.52-2.12-.53-3.34-.02-.25-.04-.29-.33-.11-.86.24-1.1.32-3.3-.18-4.31.41-.26,1.34-.04,1.8.04.39.07,2.61.54,2.69.66.18,1.19.1,2.42-.1,3.6Z"/>
    <path class="st10" d="M53.26,59.62c-.14-.59-.37-3.45-.01-3.69,1.39-.01,2.61-.55,3.91-.86.33-.08.57-.33.5.24-.45.98-.5,3.32-.18,4.31.46,1.17-.36.92-1.13.56-.79-.1-1.59.06-2.33.36l-.41-.21c-.09-.21-.31-.53-.35-.72Z"/>
    <path class="st19" d="M79.99,108.8c.09.62.33,1.65.57,2.2.09.21.29.28.31.31,5.68,11.23,22.95,2.67,30.42-2.15.53-.09.36.25.33.6-.62,7.04-7.03,14.13-13.13,16.94-6.07,2.8-15.64,2.88-22.29,2.57-11.91-.55-23.3-5.33-25.99-18.35-.07-.34-.33-.58.23-.51l.56-.09c5.68,3.15,13.01,7.01,19.66,6.03,3.25-.48,5.22-2.1,7.57-4.32.28-.41.53-.45.82-1.04.33-.66.57-1.45.58-2.19.04-.36.22-.34.35,0Z"/>
    <path class="st26" d="M34.44,96.06c.31-3.76,2.15-.22,3.07.9,2.56,3.11,5.48,5.95,8.72,8.33,5.65,4.15,19.31,11.71,26.19,8.99,1.35-.53-.38-.97-.94-1.38-.84-.61-2.37-1.7-2.02-2.9.48-1.65,2.94.99,3.66,1.4,1.1.64,2.34.91,3.47,1.48l1.63-.86c-6.51,9.44-20.11,2.89-27.78-1.62-5.27-3.1-12.94-8.97-16-14.36Z"/>
    <path class="st29" d="M79.63,108.8c-1.24-.09-5.55-2.1-6.5-2.97-1.06-.98-.32-2.17,1.05-1.79,1.18.33,3.16,1.93,4.64,2.44,1.19.41,2.2-.13,3.3-.6s3.07-2,4.08-1.91c1.29.11.64,1.73-.24,2.32-.7.47-2.56,1.3-3.4,1.65-.67.28-1.91.8-2.58.87-.11.01-.24,0-.35,0Z"/>
    <path class="st37" d="M103.37,59.62c.02.41-.19.63.37.47,1.41-.42,2.14-.66,3.5.25-.06.3.04.75,0,1.08-.11.12-.25.22-.4.16-1.3-.51-2.61-.61-1.55,1.06.37.1.61.29.72.57-.27.23-.43.9-.61,1.08-.43.41-3.15-.38-3.92-.49-.33-.05-1.69.28-1.62-.41.26-.45.67-.84,1.23-1.17l2.11-2.06c.03-.09.16-.47.18-.54Z"/>
    <path class="st8" d="M99.86,63.39c-.94.17-3.64.02-4.58-.27-.46-.14-.82-.61-.88-.63-.06-.33.9-.73,1.07-.79,1.72-.57,3.07.13,4.78-.15.91-.15,2.11-.96,2.94-1.39-.36.97-2.35,3.05-3.34,3.23Z"/>
    <path class="st13" d="M94.89,53.73c2.11-.26,2.39,2.78.8,3.16-2.51.6-2.77-2.92-.8-3.16Z"/>
    <path class="st11" d="M100.34,58.93c1.12-.33,1.9,1.04,1.02,1.77-1.44,1.19-2.38-1.38-1.02-1.77Z"/>
    <path class="st16" d="M57.83,60.34c.85.89,1.76,1.7,2.73,2.44.45.09.71.29.78.61-.19.42-.95.47-1.34.52-1.33.15-2.7.19-4.03.39-.74.06-.57-.8-1.14-1.09l.14-.38c2.07-.24.81-2.6-.64-1.39l-.38-.2c-.1-.3-.23-.61-.35-.9.81-.4,1.82-.62,2.71-.52.49.05,1.34.81,1.16-.19.04.13.26.54.35.72Z"/>
    <path class="st1" d="M66.8,62.31s.03.16,0,.18c-1.17.95-3.99,1.06-5.45.9s-2.87-1.77-3.52-3.05c.95.2,2.02,1.05,2.94,1.21,1.23.22,2.31-.23,3.46-.12.91.09,1.72.61,2.57.88Z"/>
    <path class="st24" d="M59.71,54.63c2.45-.57,2.53,2.93.62,3.16-2.06.25-2.43-2.74-.62-3.16Z"/>
    <path class="st30" d="M65.52,59.29c1.34-.37,1.88,1.87.45,2.1-1.25.2-1.52-1.81-.45-2.1Z"/>
    <path class="st36" d="M53.96,61.24c.35-.2,1.12-.58,1.49-.54.52.05,1.18,1.35.94,1.76-.13.22-1.19.76-1.55.75-.41-.01-1.63-.61-1.74-1.02-.13-.47.53-.77.86-.96Z"/>
    <path class="st35" d="M107.24,61.42c1.33.93-.27,1.76-1.23,1.79-.83.03-1.84-.79-1.38-1.68.63-1.23,1.71-.74,2.61-.12Z"/>
    <path class="st21" d="M79.93,124.18c-.37.29-1.22.86-1.66.92-2.95.38.7-3.58,1.72-3.92.19-.27-2.99-2.52-3-3.14,0-.16.07-.26.17-.37,1.11-1.4,3.33,1.37,4.5,1.38s2.54-2.99,3.88-1.64c1.27,1.27-2.37,2.37-1.51,3.88.52.9,3.32,2.23,1.4,3.21-.96.49-1.81-.99-2.5-1.37-1.75-.97-1.91.2-2.99,1.06Z"/>
  </g>
</svg>