<?xml version="1.0" encoding="UTF-8"?>
<svg id="Layer_1" xmlns="http://www.w3.org/2000/svg" version="1.1" viewBox="0 0 160 160">
  <!-- Generator: Adobe Illustrator 29.8.3, SVG Export Plug-In . SVG Version: 2.1.1 Build 3)  -->
  <defs>
    <style>
      .st0 {
        fill: #fbf4e3;
      }

      .st1 {
        fill: #e8af43;
      }

      .st2 {
        fill: #d4aa62;
      }

      .st3 {
        fill: #f2e1b7;
      }

      .st4 {
        fill: #ebb044;
      }

      .st5 {
        fill: #ed9b6b;
      }

      .st6 {
        fill: #f3d7be;
      }

      .st7 {
        fill: #d8a348;
      }

      .st8 {
        fill: #fbf5e3;
      }

      .st9 {
        fill: #e9b043;
      }

      .st10 {
        fill: #f0deac;
      }

      .st11 {
        fill: #f6d7a7;
      }

      .st12 {
        fill: #743c2f;
      }

      .st13 {
        fill: #ebb349;
      }

      .st14 {
        fill: #753c30;
      }

      .st15 {
        fill: #ac7d4d;
      }

      .st16 {
        fill: #e8ab3f;
      }

      .st17 {
        fill: #f5d9c2;
      }

      .st18 {
        fill: #844c34;
      }

      .st19 {
        fill: #f4dead;
      }

      .st20 {
        fill: #d2933d;
      }

      .st21 {
        fill: #9d6739;
      }

      .st22 {
        fill: #d8a247;
      }

      .st23 {
        fill: #ec996d;
      }

      .st24 {
        fill: #f9e8c0;
      }

      .st25 {
        fill: #f7c264;
      }
    </style>
  </defs>
  <g>
    <path class="st20" d="M45.41,110.45c-9.33-2.55-20.77,3.07-27.24,7.65,4.2,1.41,4.6,3.34,1.5,6.01-5.78,2.29,13.21,7.17-2.55,8.88-.72.19-.69.68-.42,1.3,4.05,3.11,3.27,8.86,9.89,8.12,9.43-.29,19.42-2.72,24.18-9.61-3.48-9.91,7.54-19.73-5.35-22.34h-.01Z"/>
    <path class="st3" d="M11.98,118.97c-2.43.03-7.94-3.24-8.88-2.72-1.35.74-.82,5.36-.59,6.77.56,3.49,2.43,7.12,4.68,9.95,4.17,5.24,12.39,9.42,19.39,9.42-1.13-.53-3.12-.72-3.99-1.35-.48-.34-1.52-2.36-2.02-3.29-.91-1.69-2.58-2.7-3.64-4.24,8.43.61,9.67-5.54,1.44-7.93,2.11-.95,4.72-3.12,3.79-5.53-.64-1.64-1.9-1.58-3.32-2.26"/>
  </g>
  <g>
    <path class="st25" d="M104.53,49.07c.44-.42.56-.14.71.36,8.56,4.35,15.48,12.43,19.52,21.08,3.06,6.54,4.57,13.64,5.01,20.84.17.05.35,0,.52,0,.27.24.21.53-.2.87.14,5.32-.1,10.61-.72,15.86l-.32.86c-.94,9.11-3.24,19.11-11.02,24.87l-.4.73c-7.04,4.48-16.3,6.66-24.6,6.88-.12,0-.25-.05-.38-.1s-.26-.14-.38-.22c-2.16.07-4.59.08-6.75,0-.16.09-.33.16-.5.22s-.33.11-.49.1c-8.39-.52-16.94-2.26-24.08-6.89-.36.3-.59.06-.69-.7-.85-.99-2.43-1.91-3.47-3.02-8.68-9.25-9.63-28.72-8.79-40.77.37-5.36,1.46-10.65,3.2-15.72-5.55-1.08-10.57-3.23-15.1-6.58-.26-.55.32-.61.78-.4,2.44,1.97,5.46,3.31,8.37,4.52.52.21,5.6,1.79,6.07,1.39.2-.17,2.19-4.46,2.22-4.72-.11-.22-.13-.43-.04-.62.03-.35.18-.37.46-.33,3.02-5.41,7.03-10.57,11.98-14.23.06-.27.18-.33.41-.25,1.2-1.17,5.4-4.2,6.77-4.23.15,0,.31.02.46.05,1.77-1.52,4.57-2.18,6.89-2.72,5.8-1.35,11.92-1.32,17.7.09,2.31.56,5.11,1.26,6.86,2.8Z"/>
    <path class="st13" d="M35.6,67.72c-9.36-6.91-16.36-18.41-20.79-29.05-2.65-6.37-5.81-12.66,3.34-14.61,14.98-3.2,34.17,2.93,45.34,13.1.38.1.73.25,1.04.48,2.71,2.06,6.93,7.43,8.67,10.41.25.38.33.58-.12.83-2.15.99-4.27,2.3-6.2,3.66-.3.21-.87.92-.93.94-.16.07-.46-.21-.5-.16l-.91-.6c-6.55-8.26-16.12-13.91-26.01-17.04-5.21-1.64-16.14-4.12-12.94,4.8,4.52,12.58,14.16,23.52,27.16,27.02l.26.39.52.43-2.46,5.15c-.38.49-3.7-.43-4.36-.61-3.36-.93-6.72-2.74-9.68-4.53-.35-.21-.89-1.14-1.43-.61Z"/>
    <path class="st16" d="M104.53,49.07c-9.79-4.65-21.61-4.69-31.45-.18.05-.36-.14-.57-.31-.84-2.59-4.02-5.79-7.7-9.28-10.88.13-.08.13-.29.18-.36l-.05-.37c-1.96-6.15-2.73-13.58-1.94-20.23.91-7.69,4.76-6.79,10.89-4.31,13.42,5.44,26.76,15.2,31.1,29.73.19.63,1.87,7.35,1.15,7.47-.09.02-.19,0-.29-.03Z"/>
    <path class="st1" d="M130.29,91.35c5.08.51,12.94,3.25,17.71,5.3s10.98,4.82,9.57,11.41c-1.89,8.83-14.8,4.79-20.67,3.06-2.34-.69-5.08-1.95-7.33-2.46-.42-.1-.32-.04-.53.29.57-5.56.73-11.18.71-16.79l.54-.79Z"/>
    <path class="st4" d="M59.76,133.81c.37.43-.12.64.76.38,7.26,4.64,16.43,6.6,25,6.9-.47,3.37-1.03,9.44-3.82,11.73-3.67,2.99-12.77,3.28-16.26-.08-1.89-1.82-3.18-6.39-3.85-8.94-.85-3.22-1.56-6.67-1.83-9.99Z"/>
    <path class="st9" d="M92.27,141.1c8.13-.28,19.12-2.36,25.76-7.28-.53,3.69-1.2,7.45-2.18,11.05-1.25,4.57-2.4,8.39-7.41,9.83-3.33.96-10.03.66-12.62-1.95-2.29-2.3-3.43-8.47-3.55-11.64Z"/>
    <path class="st2" d="M105.24,49.42c-.2-.1-.53-.27-.71-.36.73-.63-.03-2.32-.16-3.12-2.7-15.89-14.91-25.93-28.85-32.45-2.18-1.02-8.63-3.88-10.78-2.89-.12.05-1.67,1.31-1.76,1.44-.7,1.09-1.2,5.47-1.27,6.9-.3,5.81.37,12.01,2.24,17.5.08.27-.21.28-.28.36-.73-1.45-1.14-3.24-1.48-4.83-1.12-5.21-1.55-12.92-.42-18.13,1.49-6.92,9.07-3.06,13.31-1.16,15.11,6.8,29.45,18.95,30.16,36.73Z"/>
    <path class="st19" d="M89.07,97.39c-.05-.48-.07-.46.35-.62,11.95-4.48,31.82.63,32.87,15.46,1.07,15.13-11.71,21.63-24.63,23.69-7.7,1.22-15.29,2.21-22.32-1.96-8.45-5.02-9.35-16.12-4.6-24.07.33-.55.79-1.52,1.45-1.66l.57-.06c6.31,3.72,13.25,6.91,20.33,8.9,4.79,1.35,11.91,3.04,14.19-2.83,2.45-6.31-4.1-9.78-8.76-12.23-3-1.57-6.12-2.9-9.24-4.16l-.2-.46Z"/>
    <path class="st10" d="M53.01,67.9c-1.29-.06-5.69-1.97-7.05-2.63-9.05-4.4-15.89-13.06-19.72-22.2-1.42-3.39-3.52-7.92,1.65-9.08,6.22-1.39,18.17,3.89,23.62,7.09s10.21,7.28,13.94,12.26c-.02.03.06.33-.05.48-.38.53-2.41,1.9-3.07,2.54-2.11,2.06-4.51,5.05-6.2,7.48-.4.57-2.26,3.91-2.46,4.03-.15.1-.47.05-.67.04Z"/>
    <path class="st1" d="M89.07,97.39c4.44,1.73,14.68,6.14,17.48,9.79,3.32,4.32,1.07,10.82-4.48,11.48-7.38.88-23.55-6.33-29.89-10.43-3.8-2.46-7.48-5.35-5.57-10.46.7-1.86,2.34-3.63,4.23-4.29,4.17-1.46,14.01,2.27,18.22,3.91Z"/>
    <path class="st8" d="M120.88,69.14c.2.25,1.06,2.33.34,1.82-.07-.05-.12-.13-.16-.23l-.43-.05c-1.12-1.75-3.41-2.42-5.09-1.03-3.88,3.2.23,11.9,4.85,7.3h.5c.89-.81.45.41.14,1.01-1.68,3.32-5.64,3.57-8.13.94-5.85-7.08,2.02-17.86,7.99-9.77Z"/>
    <path class="st23" d="M81.58,82.52c1.92-.19,4.04-.07,5.54,1.28,2.54,2.29-1.48,3.82-3.47,4-1.74.15-5.55-.13-6.32-2.03-.84-2.09,2.71-3.1,4.24-3.25Z"/>
    <path class="st21" d="M112.83,82.85c.26-.07.56.08.75.25,1.1.97-.91,3.27-1.82,3.85-1.3.82-2.71.98-4.17.55-.36-.11-1.58-.75-1.69-.73-.19.03-.83.62-1.19.77-2.59,1.1-5.58.61-7.8-1.08-.66-.5-2.74-2.28-1.72-3.11.77-.63,1.58.81,2.15,1.26,2.11,1.63,4.5,2.48,7.02,1.17.33-.17,1.25-.94,1.35-.95.63-.12,2.61,1.78,4.45,1.07,1.51-.58,2.02-2.87,2.66-3.03Z"/>
    <path class="st5" d="M122.26,81.28c1.25-.13,3.35.03,4.28.94,1.52,1.49-.05,2.89-1.55,3.39s-6.09.19-6.24-2c-.11-1.6,2.3-2.21,3.51-2.34Z"/>
    <path class="st18" d="M108.93,77.71c1.06,1.03-1.85,3.94-2.91,4.04-.89.09-2.77-1.09-3.45-1.68-3.85-3.35,5.34-3.35,6.36-2.36Z"/>
    <path class="st24" d="M81.43,71.63l.31.19c-1.66,5.11,3.23,10.69,8.51,9.37.64-.16,4.11-2.29,3.83-2.83-.04-.07-.12-.12-.21-.16v-.5c1.46-1.62,1.56-4.07.57-5.96l.14-.47c.63-.22-.37-1.41-.7-1.77-3.82-4.16-9.62-2.71-12.04,2.13h-.41c3.55-9.92,17.9-4.21,14.35,5.38s-17.89,4.51-14.35-5.38Z"/>
    <path class="st22" d="M87.79,61.02c.82-.1,2.05-.28,2.54.57.75,1.32-1.72,2.08-2.64,2.35-1.05.31-5.2,1.33-4.4-1.03.32-.93,3.56-1.78,4.5-1.89Z"/>
    <path class="st7" d="M114.09,61.36c.93-.12,3.4.53,4.25.99.79.43,1.44,1.61.4,2.08-.53.24-3.91-.47-4.57-.75-1.05-.46-1.53-2.13-.09-2.32Z"/>
    <path class="st11" d="M112.88,78.91c1.51,1.06,2.9,1.92,4.84,1.56,1.38-.26,3.14-1.89,3.49-3.27.11-.43-.27-.17-.34-.25-.15-.06-.35-.18-.31-.28.62-1.92,1.11-3.44.29-5.52l.2-.42c.88.04-.28-1.05-.18-1.6,2.81,3.81.92,12.51-4.84,11.68-1.38-.2-2.34-.93-3.15-1.91Z"/>
    <path class="st15" d="M92.94,126.22c.56-.15,1.37-.12,1.43.61s-1.93,1.92-1.89,2.43c.22.96,2.52,2,1.94,2.88-1.06,1.62-2.45-1.24-3.64-1.16-1.02.06-2.14,2.23-3.39,2.15-1.84-.12.24-2.16.8-2.77.82-.88,1.41-.44.09-1.69-.43-.41-2.93-2.1-1.08-2.32,1.53-.18,2.56,1.44,3.38,1.45.97.02,1.52-1.34,2.36-1.57Z"/>
    <path class="st12" d="M120.88,76.96c-5.17,5.66-10.13-4.4-5.24-7.82,1.83-1.28,4.48-.3,5.42,1.6.67,1.37.69,3.56.31,5.01-.07.25-.57,1.11-.48,1.2Z"/>
    <path class="st0" d="M81.43,71.63c.22-.43,1.41-2.13,1.78-2.57,1.7-1.99,5.49-3.04,7.91-1.88.43.2,1.55.82,1.95,1.07.61.37,2.7,2.66,2.04,3.38-.19-.07-.36-.23-.53-.36l-.42.13c-2.73-3.53-8.22-1.97-8.68,2.51s4.52,6.72,7.91,4.23l.47.06c.81-.44.62.29.33.78-.37.62-3.12,2.34-3.85,2.55-4.23,1.22-9.07-2.64-9.28-6.96-.02-.33.25-2.73.36-2.94Z"/>
    <path class="st14" d="M94.58,71.28c1.31,2.17,1.18,5.14-.71,6.93-1.51,1.43-4.17,1.69-5.98.74-5.01-2.61-2.83-10.43,3.23-9.8,1.8.19,2.22,1.22,3.47,2.13Z"/>
    <path class="st6" d="M120.12,70.61c.66.66.08,2.59-1.2,2-1.67-.77,0-3.21,1.2-2Z"/>
    <path class="st17" d="M92.22,71.13c1.79-.53,2.43,1.98.99,2.42-1.91.57-2.4-2-.99-2.42Z"/>
  </g>
</svg>