<?xml version="1.0" encoding="UTF-8"?>
<svg id="Layer_1" xmlns="http://www.w3.org/2000/svg" version="1.1" viewBox="0 0 160 160">
  <!-- Generator: Adobe Illustrator 29.8.3, SVG Export Plug-In . SVG Version: 2.1.1 Build 3)  -->
  <defs>
    <style>
      .st0 {
        fill: #d8a348;
      }

      .st1 {
        fill: #f8ca6d;
      }

      .st2 {
        fill: #f09e6d;
      }

      .st3 {
        fill: #efb74f;
      }

      .st4 {
        fill: #f19f70;
      }

      .st5 {
        fill: #f3e2b8;
      }

      .st6 {
        fill: #f0b74e;
      }

      .st7 {
        fill: #f6e6de;
      }

      .st8 {
        fill: #a06341;
      }

      .st9 {
        fill: #dba548;
      }

      .st10 {
        fill: #f4e1b7;
      }

      .st11 {
        fill: #763a2e;
      }

      .st12 {
        fill: #efbb52;
      }

      .st13 {
        fill: #b0804e;
      }

      .st14 {
        fill: #fbf7e9;
      }

      .st15 {
        fill: #814632;
      }
    </style>
  </defs>
  <g>
    <path class="st12" d="M116.35,67.08c-.83.81-1.64,1.64-2.78.54-.19-.18-2.32-4.36-2.38-4.63-.07-.32.12-1.07.25-1.37l-.37-.52c7.38-9.64,10.13-24.96,7.63-36.82-.46-2.18-1.11-3.41-3.44-2.11-9.35,4.8-14.86,16.13-19.81,24.65-.17.48-.58.91-.42,1.66-1.66-.73-5.95-1.11-7.26-1.98-.41-.27.08-1.76,0-2.27,2.9-13.7,18.34-27.77,29.33-35.79,5.42-3.79,6.62-2.16,7.72,3.86,2.82,17.51,2.18,39.98-8.48,54.78Z"/>
    <path class="st5" d="M111.44,61.62c-2.13,0-2.98-3.13-4.55-4.59-1.67-1.78-4.16-3.79-6.2-5.14-.88-.58-5.2-2.8-5.33-3.28-.13-.51.1-1.23.1-1.77.81-6.13,23.87-39.19,24.27-19.23,1.28,11.64-1.15,24.63-8.28,34.03Z"/>
  </g>
  <g>
    <path class="st12" d="M43.57,65.76c.83.81,1.64,1.64,2.78.54.19-.18,2.32-4.36,2.38-4.63.07-.32-.12-1.07-.25-1.37l.37-.52c-7.38-9.64-10.13-24.96-7.63-36.82.46-2.18,1.11-3.41,3.44-2.11,9.35,4.8,14.86,16.13,19.81,24.65.17.48.58.91.42,1.66,1.66-.73,5.95-1.11,7.26-1.98.41-.27-.08-1.76,0-2.27-2.9-13.7-18.34-27.77-29.33-35.79-5.42-3.79-6.62-2.16-7.72,3.86-2.82,17.51-2.18,39.98,8.48,54.78Z"/>
    <path class="st5" d="M48.48,60.3c2.13,0,2.98-3.13,4.55-4.59,1.67-1.78,4.16-3.79,6.2-5.14.88-.58,5.2-2.8,5.33-3.28.13-.51-.1-1.23-.1-1.77-.81-6.13-23.87-39.19-24.27-19.23-1.28,11.64,1.15,24.63,8.28,34.03Z"/>
  </g>
  <path class="st6" d="M50.77,133.28c.04-.58-.3-1.03.58-.72,2.25.78,4.72,2.6,7.09,3.58,5.82,2.4,12.13,3.54,18.43,3.6-.03.27.04.58,0,.84-.46,2.99-1.29,9.43-3.51,11.5-3.7,3.47-13.21,3.83-16.85.29-3.16-3.08-4.77-13.18-5.71-17.59-.1-.49.06-1.11-.03-1.5Z"/>
  <path class="st3" d="M83.88,141.7c-.01-.61-.18-1.36.47-1.64,8.77-.99,16.95-2.61,24.36-7.63.58-.06.37.03.42.42.09.64.03,1.7,0,2.39-.2,4.03-2.21,14.24-5.19,17.11-3.46,3.32-12.66,3.39-16.27.28-2.09-1.81-3.73-8.22-3.79-10.94Z"/>
  <path class="st1" d="M121.82,92.05c0,14.01-.43,29.58-8.61,38.45-7.48,8.11-22.21,10.13-33.25,10.13s-25.5-2.61-32.99-10.82c-8.09-8.86-8.87-23.83-8.87-37.76,0-26.83,18.74-48.58,41.86-48.58s41.86,21.75,41.86,48.58Z"/>
  <path class="st1" d="M35.79,62.89"/>
  <path class="st10" d="M76.37,97.14c7.97-.48,17.83-.26,24.56,4.46,14.58,10.22,8.51,29.61-7.83,33.59-4.52,1.1-17.38,1.1-22.05.23-6.63-1.24-13.51-5.2-16.07-11.71-6.21-15.74,7.01-25.7,21.4-26.57Z"/>
  <path class="st13" d="M84.17,129.13c-.21-.21-.21-.64-.27-.7.35-.93,2.71-1.94,1.56-2.82-1.15-.88-2.37,1.59-3.38,1.6-.86.01-2.4-1.92-3.61-1.56-1.46.44.65,1.91,1.22,2.22.19.35.83.92.84.98,0,.22-3.73,3.12-2.06,3.53,1.79.44,2.8-2.83,4.4-1.94,1.35.75,1.97,2.61,3.27.66-.64-.67-1.31-1.31-1.97-1.97Z"/>
  <circle class="st14" cx="63.88" cy="72.38" r="7.61"/>
  <circle class="st11" cx="65.24" cy="72.51" r="5.23"/>
  <path class="st4" d="M54.35,80.05c2.04-.28,9.33-.14,7.51,3.58-1.05,2.14-9.62,2.14-10.67,0s1.45-3.34,3.16-3.58Z"/>
  <path class="st2" d="M103.73,80.04c1.02-.19,3.37-.18,4.43-.07,2.3.25,5.51,2.35,2.65,4.34-2.03,1.41-10.13,1.43-9.81-1.92.11-1.16,1.68-2.16,2.73-2.35Z"/>
  <path class="st8" d="M89.49,84.75c1.24-.49,2.36-1.42,3.38-2.78.36-.13.55-.13.79.16,1.2,1.4-4.43,4.74-4.46,4.59-1.47.48-2.14.71-3.79.56-1.29-.12-3.27-1.17-4.19-1.11-.76.05-2.1.96-3.13,1.09-3.7.49-9.36-1.2-9.38-5.59,1.97-.31,2.35,1.89,4.01,2.87,1.91,1.12,4.02,1.18,6.1.65.8-.2,1.97-.97,2.67-.96s2.43.97,3.64,1.09c1.49.14,2.99.08,4.35-.56Z"/>
  <path class="st9" d="M95.7,59.24c.66-.77,6.16.44,6.99,1.23.53.5.3,1.41-.29,1.7-.52.25-4.9-.52-5.68-.77-.74-.24-1.47-1.62-1.02-2.15Z"/>
  <path class="st0" d="M66.49,59.21c.01.91.22,1.77-.78,2.17s-7.7,1.54-6.12-.78c.59-.86,5.7-1.67,6.89-1.39Z"/>
  <path class="st15" d="M85,75.49c1.45,1.23.68,2.7-.55,3.8-2.55,2.27-5.44,1.24-7.59-.99-.07-.62-.64-1.51-.15-2.26.76-1.15,6.79-.41,8.29-.55Z"/>
  <circle class="st7" cx="62.41" cy="70.37" r="1.15"/>
  <circle class="st14" cx="98.04" cy="72.38" r="7.61"/>
  <circle class="st11" cx="96.68" cy="72.51" r="5.23"/>
  <circle class="st7" cx="99.5" cy="70.37" r="1.15"/>
</svg>