<?xml version="1.0" encoding="UTF-8"?>
<svg id="Layer_1" xmlns="http://www.w3.org/2000/svg" version="1.1" viewBox="0 0 201.68 772.4">
  <!-- Generator: Adobe Illustrator 29.8.3, SVG Export Plug-In . SVG Version: 2.1.1 Build 3)  -->
  <defs>
    <style>
      .st0 {
        fill: #cbbd98;
      }
    </style>
  </defs>
  <g>
    <path class="st0" d="M44.32,458.12c.2,2.41.22,5,.07,7.79,2.09,5.31,12.17,26.08,15.52,29.35,1.77,1.73,3.54,2.56,5.95,2.01,11.27-5.91,22.54-11.18,33.79-15.83,1.74-3.37,3.6-4.42,5.58-3.15-.15,4.58-.97,4.59-4.59,6.9s-32.88,16.43-35.77,16.72c-1.66.17-3.22-.67-4.86-.72-2.52-2.29-9.34-14.05-11.07-17.41-2.94-5.69-9.17-18.17-7.25-24.17.54-1.67,2.06-1.12,2.64-1.48Z"/>
    <path class="st0" d="M80.31,168.59c-1.42,6.17-6.52,17.12-9.65,22.94-1.43,2.66-2.75,5.1-5.8,6.14-14.2-.46-30.09,1.45-44.1.28-2.12-.18-5.98-.97-7.81-1.87-.27-.13-.58-.66-.92-.92-1.82-3.09-.28-5.18,0-7.33,1.38,2.82,3.87,4.67,7.48,5.55l43.09.72c5.97-4.83,10.02-11.52,12.17-20.04,1.23-3.91,3.08-5.74,5.55-5.47Z"/>
    <path class="st0" d="M125.52,428.8c.19,0,3.06.74,3.69.92l2.2,1.44c7.09,10.75,13.43,21.88,19.02,33.38.63,3.65,2,8.19.05,11.54-.38.65-1.66.95-1.9,1.29-9.52,1.38-21.36,2.96-30.93,1.85-2.58-.3-3.79-.84-5.48-2.81-2.64-3.07-10.37-16.24-12.66-20.42s-4.82-8.13-1.74-13.04c2.44-3.89,19.05-9.44,23.12-13.23,1.52-.37,3.01-.95,4.61-.92Z"/>
    <path class="st0" d="M129.21,121.86c4.4.7,5.23,5.51,4.41,9.41-.61,2.89-11.58,23.38-13.76,26.65-.98,1.46-2.35,2.17-3.56,3.34-.3.03-.62-.01-.92,0-5.88.21-20.03-.95-25.43-2.7-9.17-2.96-42.56-21.78-51.43-27.72-7.36-4.93-6.72-9.83-2.49-17.23l1.51,1.52c-1.6,4.56-2.53,9.14,2.26,11.97,9.79,5.77,21.38,12.07,31.49,17.42,14.73,7.79,47.05,24.8,51.5-1.28,4.22-4.94,6.92-10.21,8.12-15.8-2.81-2.29-3.38-4.15-1.69-5.59Z"/>
    <path class="st0" d="M149.51,459.95c.56,1.48.65,3.04.92,4.58l-21.22-34.82c1.05.29,1.89-.38,3.22.9.59.57,6.21,9.71,7.12,11.28,3.51,6.08,6.02,11.77,9.96,18.05Z"/>
    <path class="st0" d="M129.21,121.86c.26,2.06,3.15,3.79,3.56,5.25,1.29,4.63-6.22,13.18-8.36,17.01-1.64,2.94-2.13,7.23-4.43,10.26-3.93,5.17-9.23,4.49-15.2,4.12-23.09-1.42-45.06-20.75-65.92-29.83-6.52-5.03-4.62-8.03-2.83-15.05.14-.54-.15-1.33,0-1.83,1.52-5.18,8.56-20.15,15.11-19.21l78.08,29.29Z"/>
    <path class="st0" d="M136.59,69.63c-3.11,11.79-16.54,25.1-25.76,33.48-2.67,2.43-5.26,3.18-8.79,2.41-2.9-.63-5.8-1.49-8.63-2.44-5.86-1.96-35.87-12.63-38.26-15.28s-2.36-4.91-1.6-8.09c1.83-6.42,11.15-24.52,18.05-25.6s44.25-1.1,50.49.15c5.15,1.04,13.66,10.46,14.51,15.37Z"/>
    <path class="st0" d="M147.42,74.42c7.19-1.47,12.44,2.93,11.94,10.21-.2,2.95-12.22,26.1-14.63,29.27-1.95,2.58-4.24,5.02-7.76,5.15-2.7.1-14.77-4.3-16.47-6.41-2.19-2.71-1.97-8.25-.4-11.28,6.6-5.34,19.69-25.38,27.32-26.94Z"/>
    <path class="st0" d="M53.55,79.71c-.67,4.21.66,6.91,4.37,8.95,13.68,2.86,30.3,13.03,43.36,15.57,3.07.6,6.59.6,9.03-1.6,8.08-11.39,21.86-19.52,26.28-33,.48,2.78-.28,6.34-1.84,8.71-2.88,4.39-20.18,22.79-24.44,26.13-5,3.92-5.76,2.87-11.51,1.31-7.37-2-36.68-12.31-42.22-15.8-4.75-2.99-4.39-5.52-3.03-10.27Z"/>
    <path class="st0" d="M149.51,481.94c4.21,0,8.95.95,11.5,4.62,1.58,2.28,11.22,24.12,11.57,26.53l-1.43,7.74c-2.19,5.11-25.51,18.54-31.04,19.39-18.48-.88-36.89-1.99-55.23-3.33-5.68-1.51-6.58-3.07-9.18-8.23-4.51-5.51-11.85-18.27-4.58-24.24l42.35-20.25c11.78-.14,24.39-2.23,36.04-2.24Z"/>
    <path class="st0" d="M193.8,754.98c-.28-.06-.62.04-.92,0-2.42,4.01-3.39,4.62-7.51,6.6-6.09,2.91-36.07,10.3-41.96,9.32-6.66-1.11-34.75-20.39-39.06-25.16-1.21-1.34-2.28-2.75-2.82-4.5-.04-1.62.69-3.71.92-5.5.83-6.26,3.46-22.57,5.78-27.71.92-2.05,2.91-3.48,5.02-4.19,26.27,4.47,52.38,10.27,78.29,16.28,10.97,5.48.89,25.21,2.27,34.86Z"/>
    <path class="st0" d="M185.5,636.79c.74,8.58-14.02,11.58-20.89,12.15-6.38.52-11.64-.39-17.81-2.14l-35.08-9.95c-2.11-1.65-3.67-2.89-4.65-3.72-.32-1.62.21-3.86-.12-5.83-.89-5.34-4.57-21.08-1.8-24.94s29.63-7.02,35.53-9.49l36.08,11.82c1.15.93,1.54,2.17,2.04,3.48,1.71,4.52,6.15,23.74,6.7,28.62Z"/>
    <path class="st0" d="M170.49,530.71c3.19-.66,6.3-.48,8.43,2.21,2.63,3.31,6.64,19.15,7.98,24.15,2.12,7.91,8.98,33.66,6.22,40.09-2.03,4.72-9,4.36-13.39,3.68-5.38-.84-25.16-7.64-30.47-10.06-3.08-1.41-4.97-2.64-5.8-6.15-2.49-10.45.93-26.5,1.22-37.4.36-.84,1-1.42,1.61-2.06,1.79-1.86,21.95-13.99,24.21-14.45Z"/>
    <path class="st0" d="M159.66,695.43c-.42,5.32-1.38,7.93-6.91,9.57-3.16.94-28.48-4.15-32.59-5.44-10.64-3.33-10.86-4.48-11.25-16.04.04-1.38.93-3.12.96-4.99.14-7.91-1.4-23.37.16-30.09,1.1-4.74,6.11-4.74,10.19-4.1,5.42.86,25.44,6.87,30.46,9.14,7.02,3.17,6.32,8.95,7.12,15.84.9,7.78,1.66,18.42,1.85,26.11Z"/>
    <path class="st0" d="M192.66,647.05c4.18-.58,7.79,1.43,8.47,5.83,1.18,7.63.11,15.33.02,22.81-.13,10.09.66,22.03-1.1,31.89-.42,2.32-2.72,6.22-5.05,6.9-4.36,1.26-22.46-2.05-26.07-4.89-3.18-2.5-3.3-8.71-3.72-12.8-.91-8.93-2.11-23.37-1.92-32.06.08-3.69.91-8.53,4.34-10.4,2.63-1.44,21.67-6.81,25.03-7.27Z"/>
    <path class="st0" d="M136.59,547.91c1.54,3.3,1.43,28.46.96,33.48-.46,4.95-1.39,7.43-6.27,9.35-3.26,1.28-22.69,5.89-25.4,5.54-7.06-.9-8.72-15.51-10.8-21.36-2.49-7.02-9.95-20.87-6.72-27.71,1.08-2.3,3.82-2.69,5.78-3.88,14.04,1.2,29.13-.09,42.44,4.58Z"/>
    <path class="st0" d="M94.6,750.13c1.14-1.55-1.03-6.65.74-6.24,3.09.71,21.13,15.2,23.41,18.2,2.43,3.2,1.86,7.48-2.7,7.76-4.01.24-25.56-14.83-27.63-18.71-.69-1.29,5.36.11,6.18-1.01Z"/>
    <path class="st0" d="M140.29,541.5c-3.22.44-7.62-.06-11.07,0-.17.82-.48.79-.92,0l-15.23-1.82c-6.58-.41-30.49.09-34.09-3.72-1.37-1.45-2.67-5.26-3.27-7.29.64.78,4.6,5.18,5.04,5.53,4.04,3.28,24.47,2.36,30.47,2.72,8.97.54,21.72,3.41,30.42,1.79,1.41-.26,22.81-12.18,24.96-13.7,5.45-3.85,3.03-6.97,5.99-11.92.88,6-.21,10.06-5.08,13.74-2.76,2.09-24.76,14.33-27.22,14.66Z"/>
    <path class="st0" d="M185.5,636.79c.17,1.54.25,4.37-.18,5.77-.96,3.15-15.61,7.06-19.15,7.56-16.1,2.25-38.59-10.07-55.01-12.35-1.87-.5-3.73-2.84-4.09-4.65,2.71-2.17,1.49,1.43,4.38,2.53,6.83,2.59,42.53,12.38,48.66,12.56,2.53.08,20.16-4.03,22.03-5.15,2.45-1.48.96-4.8,3.37-6.28Z"/>
    <path class="st0" d="M159.66,695.43c.13,5.4-.5,10.5-6.93,11.04-4.21.35-32.42-5.31-37.39-6.89-7.72-2.45-6.62-9.21-6.43-16.06,2.09,5.07-.83,9.4,5.05,12.85,2.84,1.66,18.07,4.45,22.44,5.2,9.12,1.58,21.3,6.26,23.26-6.14Z"/>
    <path class="st0" d="M2.8,234.56c4.44-10.49-1.36-31.21,14.3-32.99s33.08,2.32,48.69,1.13c3.36.62,27.06,14.54,29.51,17.17,2.05,2.2,2.83,5.34,2.54,8.27l-3.23,5.08c-19.86,7.84-40.15,14.79-60.86,20.85-11.36-1.72-21.37-5.78-30.03-12.18-1.11-3.06-.93-4.06-.92-7.33Z"/>
    <path class="st0" d="M78.46,324.35c.24,3.45,1.14,4.12,0,7.33-1.65,2.28-3.71,4.33-6.51,5.15-20.68,1.13-41.76.83-62.47.28-2.73-.66-4.5-2.02-5.76-4.52-1.25-4.2-2.32-17.91-1.89-22.49.67-7.16,3.86-6.9,10-8.39,9.61-2.32,28-5.94,37.57-6.67,5.19-.39,7.75-.53,11.56,3.15,4.8,4.65,12.8,19.47,17.5,26.15Z"/>
    <path class="st0" d="M84.72,243.03c9.49-1.16,11.83,7.79,7.18,14.49-2.49,3.58-25.12,25.75-28.81,28.2-8.89,5.89-19.77,6.94-23.63-4.63-2.65-7.96-5.41-18.39,2.98-23.21,4.48-2.58,37.45-14.26,42.29-14.85Z"/>
    <path class="st0" d="M2.8,296.86c-3.91-11.35-2.96-21.29-1.73-33.32.79-7.74,1.3-11.84,10.27-10.43,2.05.32,15.43,5.23,16.73,6.29s1.21,1.52,1.77,2.82c1.65,3.83,4.91,21.97,4.27,25.89-.68,4.16-3.46,5.58-7.13,6.65-6.1,1.77-18.23,3.73-24.18,2.1Z"/>
    <path class="st0" d="M92.3,266.63c.26,10.22-.32,20.51-.03,30.73.16,5.67,3.88,20.18-.89,23.78-1.62,1.22-3.96,1.73-5.94,1.39-3.76-.63-13.87-16.9-16.01-20.81-3.3-6.03-4.71-9.26-.18-15.39,2.08-2.81,17.17-17.6,19.77-18.85,1.12-.54,1.89-1.17,3.29-.85Z"/>
    <path class="st0" d="M96,233.64c-17.5,9.84-43.58,14.03-62.49,21.79-7.97-2.78-26.84-5.4-29.78-13.54,8.95,4.85,19.9,9.08,29.9,10.97,18.1-7.46,40.71-11.26,58.28-19.16,3.23-1.45,3.44-3.69,5.94-5.56-.19,1.96-1.64,3.54-1.85,5.5Z"/>
    <path class="st0" d="M9.26,338.09c-3.94-1.86-4.02-.39-5.54-5.5,2.48,1.87,3.59,3.29,6.9,3.68,7.9.95,55.31,1.14,61.31-.55,2.15-.6,4.65-2.79,6.53-4.05-1.17,3.3-3.46,5.62-6.97,6.36l-62.23.05Z"/>
    <path class="st0" d="M192.88,754.98c-.09,3.57-2.18,5.76-5.27,7.14-6.21,2.77-31.8,9.18-38.8,10.03-4.35.53-6.05.3-9.94-1.57-7.19-3.47-26.46-16.39-32.65-21.63-2.73-2.31-4.6-3.85-4.69-7.71,4.55,5.2,10.02,9.31,15.75,13.23,4.03,2.76,22.91,14.7,26.32,15.15,5.89.78,32.14-6.43,39.13-8.68,1.62-.52,4.23-1.03,5.5-1.87,1.72-1.14,2.28-3.65,3.73-4.58,1.08-.7.63.47.93.5Z"/>
    <path class="st0" d="M122.75,415.97c.13,3.04-.7,5.46-2.66,7.77-3.89,4.59-29.39,15.95-35.33,17.74-13.72,4.15-30.29,8.82-44.45,10.65-1.31.17-2.8-.07-4.02-.56-3.37-1.36-10.38-22.81-11.34-27.36-.4-4.43-1.07-4.97,3.38-8.09,17.42-7.14,35.2-20.16,52.56-26.6,5.85-2.17,19.36-1.97,25.66-.98,2.77.43,4.43,2.04,5.82,4.3,1.83,2.99,9.9,20.38,10.38,23.13Z"/>
    <path class="st0" d="M78.46,379.32l-2.44,5.02c-15.14,9.43-31.64,18.45-48.17,25.23-7.19.94-11.23-3.64-12.13-13.76-2.99-8.37-10.09-34.5-10.22-42.61-.08-5.09,2.06-8.94,7.2-10.32,15.87.76,34.07-1.74,49.66-.26,5.52.52,7.12,1.76,8.98,6.66,2.37,6.25,7.4,23.91,7.12,30.03Z"/>
    <path class="st0" d="M88.34,330.96c11.12-2.59,8.98,12.63,10.68,20.17,1.52,6.76,4.94,14.98,5.98,21.54,2.17,13.78-16.23,15.94-20.74,3.19-2.43-6.87-8.48-30.55-6.02-36.61.84-2.08,7.91-7.78,10.1-8.29Z"/>
    <path class="st0" d="M118.14,426.97c-5.15,3.57-27.06,13.69-33.42,15.84-9.67,3.26-33.18,9.38-42.96,10.52-2.5.29-4.32.16-6.67-.71-4.46-6.5-9.45-20.65-10.15-28.4,1.58,4.1,9.12,24.73,11.99,26.12,1.02.49,2.06.62,3.18.5,13.8-3.64,29.09-5.82,42.64-9.99,7-2.15,16.92-7.08,23.59-10.48,6.94-3.54,15.28-5.92,16.41-14.4.88,5.06-.52,8.16-4.61,10.99Z"/>
    <path class="st0" d="M15.72,395.82c.75,2.11,1.66,4.87,2.56,7.08,3.55,8.76,9.17,5.66,16.09,2.73,12.81-5.42,25.2-14.32,38.11-19.88,3.41-1.08,3.26-4.76,5.99-6.42-.19,4.17-.82,5.63-4.31,8.09-4.52,3.2-42.17,22.7-46.39,23.56-10.6,2.18-10.79-7.15-12.05-15.17Z"/>
    <path class="st0" d="M12.03,187.83c1.63-12.68,7.37-31.53,11.75-43.76,2.6-7.27,3.2-12.79,12.92-9.59,10.32,8.28,32.05,14.74,41.06,23.1,4.02,3.73,3.6,6.45,2.55,11.01-7.18,8.2-6.56,22.21-17.29,27.26l-44.02-.74c-4.01-2.34-8.38-1.38-6.97-7.28Z"/>
    <path class="st0" d="M104.3,202.49c-5.17,13.57-13.14,10.12-22.99,3.13-9.24-6.56-5.68-11.17-2.09-20.24,1.49-3.76,7.36-17.8,9.83-19.56,4.23-3.02,16.67-1.62,20.34,1.84,2.87,2.71,2.64,6.69,2.07,10.34-.72,4.57-5.39,19.86-7.16,24.5Z"/>
    <path class="st0" d="M105.22,478.28c-2.55.99-3.14,3.92-5.28,5.3-1.97,1.27-5.45,1.54-7.55,2.58-8.63,4.27-17.17,8.74-25.9,12.82-3.9,1.02-6.95-.88-9.09-3.9-5.62-7.9-9.33-20.15-14.69-28.47-.68-3.04-.62-6.12,1.62-8.49,1.88-1.18,2.32-1.54,4.61-2.3,4.33-1.43,35.05-9.15,37.17-8.55,3.06.88,8.67,10.27,10.65,13.31,2.91,4.47,8.64,12.73,8.48,17.7Z"/>
    <path class="st0" d="M128.29,541.5c.31,0,.62,0,.92,0,.09,5.44-9.7,1.95-7.38,0,2.14-.05,4.31.05,6.45,0Z"/>
  </g>
  <path class="st0" d="M136.45,2.14c12.73,4.2,2.68,26.46-1.19,35.04-.77,3.51-2.22,5.27-4.34,5.27-3.1,5.16-4.11,6.67-10.22,8.07-4.82,1.11-38.34,1-41.23-.92-2.11-1.4-2.73-3.87-2.99-6.24-.6-.32-1.06-.59-1.03-.69,4.1-11.74,9.03-24.7,13.9-36.15.17-2.76,11.17-6.36,12.87-6.53l34.23,2.14Z"/>
  <path class="st0" d="M183.51,16.8c.54,1.59.4,3.05.17,4.67-.85,6.13-12.19,38.67-15.47,43.49-5.06,7.46-21.48,9.34-27.78,2.75l-6.75-9.68c-.12-.43-.91-.9-1-2.24-.33-4.7,8.44-23.79,10.66-29.87,1.54-4.22,3.96-17.1,7.6-19.26,2.5-1.49,19.86-1.2,23.4-.46,6.27,1.31,8.01,4.89,9.18,10.59Z"/>
</svg>