<?xml version="1.0" encoding="UTF-8"?>
<svg id="Layer_1" xmlns="http://www.w3.org/2000/svg" version="1.1" viewBox="0 0 160 160">
  <!-- Generator: Adobe Illustrator 29.8.3, SVG Export Plug-In . SVG Version: 2.1.1 Build 3)  -->
  <defs>
    <style>
      .st0 {
        fill: #316132;
      }

      .st1 {
        fill: #945f33;
      }

      .st2 {
        fill: #ea9648;
      }

      .st3 {
        fill: #ef9848;
      }

      .st4 {
        fill: #4e2a17;
      }

      .st5 {
        fill: #f697a3;
      }

      .st6 {
        fill: #6f4024;
      }

      .st7 {
        fill: #b7681d;
      }

      .st8 {
        fill: #6a3f2a;
      }

      .st9 {
        fill: #fdfdfb;
      }

      .st10 {
        fill: #cacaca;
      }

      .st11 {
        fill: #fdd9cf;
      }

      .st12 {
        fill: #28713a;
      }

      .st13 {
        fill: #d7c198;
      }

      .st14 {
        fill: #4f8c3e;
      }

      .st15 {
        fill: #e2b68c;
      }

      .st16 {
        fill: #f99196;
      }

      .st17 {
        fill: #e8ab5b;
      }

      .st18 {
        fill: #e7aa5a;
      }

      .st19 {
        fill: #b2641b;
      }

      .st20 {
        fill: #b4671c;
      }

      .st21 {
        fill: #a15e2f;
      }

      .st22 {
        fill: #6e432d;
      }

      .st23 {
        fill: #e59c4a;
      }

      .st24 {
        fill: #c27c43;
      }

      .st25 {
        fill: #db736c;
      }

      .st26 {
        fill: #fddfd5;
      }

      .st27 {
        fill: #af611b;
      }

      .st28 {
        fill: #b2641a;
      }

      .st29 {
        fill: #b1631b;
      }

      .st30 {
        fill: #80adef;
      }

      .st31 {
        fill: #b4651b;
      }

      .st32 {
        fill: #27753d;
      }

      .st33 {
        fill: #ab9463;
      }

      .st34 {
        fill: #29723b;
      }

      .st35 {
        fill: #623925;
      }

      .st36 {
        fill: #ceb68a;
      }

      .st37 {
        fill: #da9e4e;
      }

      .st38 {
        fill: #623824;
      }

      .st39 {
        fill: #d2b6aa;
      }

      .st40 {
        fill: #b6732c;
      }

      .st41 {
        fill: #edd79f;
      }

      .st42 {
        fill: #b5762f;
      }

      .st43 {
        fill: #633a25;
      }

      .st44 {
        fill: #77ab3e;
      }

      .st45 {
        fill: #768c31;
      }

      .st46 {
        fill: #f88e9a;
      }

      .st47 {
        fill: #f4e7c8;
      }

      .st48 {
        fill: #d0b3aa;
      }

      .st49 {
        fill: #e8aa5c;
      }

      .st50 {
        fill: #e18b96;
      }

      .st51 {
        fill: #753822;
      }

      .st52 {
        fill: #b26419;
      }

      .st53 {
        fill: #f3808d;
      }

      .st54 {
        fill: #876741;
      }

      .st55 {
        fill: #297239;
      }

      .st56 {
        fill: #b4641a;
      }

      .st57 {
        fill: #77ac3e;
      }

      .st58 {
        fill: #508b3e;
      }

      .st59 {
        fill: none;
      }

      .st60 {
        fill: #6a4028;
      }

      .st61 {
        fill: #feaf06;
      }

      .st62 {
        fill: #de9a63;
      }

      .st63 {
        fill: #ac9564;
      }

      .st64 {
        fill: #4c2715;
      }

      .st65 {
        fill: #b7772f;
      }

      .st66 {
        fill: #a15b2a;
      }

      .st67 {
        fill: #87653f;
      }

      .st68 {
        fill: #e5ceaf;
      }

      .st69 {
        fill: #fde0ba;
      }

      .st70 {
        fill: #ed9949;
      }

      .st71 {
        fill: #f797a4;
      }

      .st72 {
        fill: #b5783e;
      }

      .st73 {
        fill: #ec9849;
      }

      .st74 {
        fill: #ac9664;
      }

      .st75 {
        fill: #a35c2c;
      }

      .st76 {
        fill: #f6eacf;
      }

      .st77 {
        fill: #f797a3;
      }

      .st78 {
        fill: #b0631c;
      }

      .st79 {
        fill: #532e24;
      }

      .st80 {
        fill: #613824;
      }

      .st81 {
        fill: #e08d69;
      }

      .st82 {
        fill: #fef6e9;
      }

      .st83 {
        fill: #da7f8d;
      }

      .st84 {
        fill: #903d38;
      }

      .st85 {
        fill: #d57681;
      }

      .st86 {
        fill: #a7b053;
      }

      .st87 {
        fill: #edd7a0;
      }

      .st88 {
        fill: #ac611d;
      }

      .st89 {
        fill: #a35d2f;
      }

      .st90 {
        fill: #e5d3b2;
      }

      .st91 {
        fill: #da7e89;
      }

      .st92 {
        fill: #edd79e;
      }

      .st93 {
        fill: #482a17;
      }

      .st94 {
        fill: #ffaf05;
      }

      .st95 {
        fill: #ef9845;
      }

      .st96 {
        fill: #6c3f29;
      }

      .st97 {
        fill: #508a37;
      }

      .st98 {
        fill: #6d432d;
      }

      .st99 {
        fill: #4f2916;
      }

      .st100 {
        fill: #633924;
      }

      .st101 {
        fill: #e6bb90;
      }

      .st102 {
        fill: #e8aa5b;
      }

      .st103 {
        fill: #bd222f;
      }

      .st104 {
        fill: #fffefe;
      }

      .st105 {
        fill: #e9ac5c;
      }

      .st106 {
        fill: #6a3d2a;
      }

      .st107 {
        fill: #508b3d;
      }

      .st108 {
        fill: #fdd735;
      }

      .st109 {
        fill: #2b7639;
      }

      .st110 {
        fill: #6d3f24;
      }

      .st111 {
        fill: #f09847;
      }

      .st112 {
        fill: #fdd731;
      }

      .st113 {
        fill: #e8ab5c;
      }

      .st114 {
        fill: #e6d4b2;
      }

      .st115 {
        fill: #e08d67;
      }

      .st116 {
        fill: #a65d2a;
      }

      .st117 {
        fill: #b5661b;
      }

      .st118 {
        fill: #f0f1d6;
      }

      .st119 {
        fill: #713e2b;
      }

      .st120 {
        fill: #28753c;
      }

      .st121 {
        fill: #4e8b36;
      }

      .st122 {
        fill: #2b7539;
      }

      .st123 {
        fill: #b0b752;
      }

      .st124 {
        fill: #b3641a;
      }

      .st125 {
        fill: #5c3822;
      }

      .st126 {
        fill: #db7f89;
      }

      .st127 {
        fill: #ac601d;
      }

      .st128 {
        fill: #ee9949;
      }

      .st129 {
        fill: #cfb3a9;
      }

      .st130 {
        fill: #b2631b;
      }

      .st131 {
        fill: #7a7b45;
      }

      .st132 {
        fill: #b4222f;
      }

      .st133 {
        fill: #d77d88;
      }

      .st134 {
        fill: #623924;
      }

      .st135 {
        fill: #d793a1;
      }

      .st136 {
        fill: #d97d89;
      }

      .st137 {
        fill: #297339;
      }

      .st138 {
        fill: #6a3e2b;
      }

      .st139 {
        fill: #b7742e;
      }

      .st140 {
        fill: #cdb68a;
      }

      .st141 {
        fill: #fed731;
      }

      .st142 {
        fill: #f0cda2;
      }

      .st143 {
        fill: #e8a95a;
      }

      .st144 {
        fill: #4e8a3e;
      }

      .st145 {
        fill: #633926;
      }

      .st146 {
        fill: #e18c97;
      }

      .st147 {
        fill: #f9f2ee;
      }

      .st148 {
        fill: #723b2e;
      }

      .st149 {
        fill: #fefdfa;
      }

      .st150 {
        fill: #c67e42;
      }

      .st151 {
        fill: #fcf7eb;
      }

      .st152 {
        fill: #f699a4;
      }

      .st153 {
        fill: #85663c;
      }

      .st154 {
        fill: #633923;
      }

      .st155 {
        fill: #c37b40;
      }

      .st156 {
        fill: #b2651d;
      }

      .st157 {
        fill: #af6818;
      }

      .st158 {
        fill: #c47c42;
      }

      .st159 {
        fill: #6d3e2a;
      }

      .st160 {
        fill: #b5212d;
      }

      .st161 {
        fill: #eed7a3;
      }

      .st162 {
        fill: #287039;
      }

      .st163 {
        fill: #fefefa;
      }

      .st164 {
        fill: #9aa41e;
      }

      .st165 {
        fill: #e5cdae;
      }

      .st166 {
        fill: #bf2330;
      }

      .st167 {
        fill: #b26a17;
      }

      .st168 {
        fill: #ee9745;
      }

      .st169 {
        fill: #db7f8a;
      }

      .st170 {
        fill: #4f2a16;
      }

      .st171 {
        fill: #6a402a;
      }

      .st172 {
        fill: #da7b8a;
      }

      .st173 {
        fill: #a15d2f;
      }

      .st174 {
        fill: #fddbb5;
      }

      .st175 {
        fill: #f0deb0;
      }

      .st176 {
        fill: #e17375;
      }

      .st177 {
        fill: #f09846;
      }

      .st178 {
        fill: #fdf6e3;
      }

      .st179 {
        fill: #643a25;
      }

      .st180 {
        fill: #e59b48;
      }

      .st181 {
        fill: #a25b2a;
      }

      .st182 {
        fill: #eed8a0;
      }

      .st183 {
        fill: #fbaebd;
      }

      .st184 {
        fill: #946034;
      }

      .st185 {
        fill: #bc7832;
      }

      .st186 {
        fill: #371914;
      }

      .st187 {
        fill: #d7c8c9;
      }

      .st188 {
        fill: #f9f3ef;
      }

      .st189 {
        fill: #f09747;
      }

      .st190 {
        fill: #743b2f;
      }

      .st191 {
        fill: #5c3923;
      }

      .st192 {
        fill: #4f2a17;
      }

      .st193 {
        fill: #feaf05;
      }

      .st194 {
        fill: #4c2a17;
      }

      .st195 {
        fill: #522c19;
      }

      .st196 {
        fill: #de9b63;
      }

      .st197 {
        fill: #3d1911;
      }

      .st198 {
        fill: #643a24;
      }

      .st199 {
        fill: #feae05;
      }

      .st200 {
        fill: #edd6a0;
      }

      .st201 {
        fill: #ed9b4c;
      }
    </style>
  </defs>
  <g>
    <path class="st164" d="M50.93,112.92c.14.12.45.9.7.7.43-2.39,1.63-4.08,1.41-.35l1.05-.35c-.02.64-.08,1.35.52,1.74,2.04-.78,4.34-1.49,6.48-1.93,10.74-2.18,28.9-1.59,39.7.63,2.13.44,11.07,3.62,12.19,3.41.67-1.22,1.14-1.34,1.4-.35h.35c.67-.19.9-.07.7.35-.66.29-1,.59-.1.98,1.66.71,4.3,1.15,6.17,1.9.45.18.75.55.93.63.83.84-.17,1.44-1.06,1.84l-3.38.41c-3,2.45-6.37,2.98-10.17,3.46,2.68,5.93-.66,8.58-6.44,9.02l-6.99-.37c-3.77,2.88-8.01,2.76-12.54,2.35s-8.95-1.64-13.28-3.07c-3.74,1.44-16.47,2.01-18.88-1.01-1.1-1.38-.82-2.8-.33-4.33-4.35.31-7.58-1.04-9.69-4.05-1.29.13-7.03-.96-5.67-2.79.12-.16.27-.29.44-.41.14-.08.24-.28.35-.35-.09-.44.21-.67.9-.69-.04-1.02.63-1.1,1.2-.01.06.02.08.37.44.3.34-.07.86-.58,1.39-.75,3.84-1.23,7.63-2.6,11.49-3.75.22-.99-.75-.83-1.05-1.05-1.22-1.26-.77-1.64.79-1.17.33-.86.66-1.17.97-.93h0Z"/>
    <path class="st164" d="M128.39,123.09c2.74,1.22,2.07-.24,4.56-.7l-.7.87,1.05.18c-.06.61-1.45.97-.7,1.57,1.17.94,7.67,2.1,6.76,4.28-.29.7-.97.89-1.15,1.15-1.3.77-2.93,1-4.89.7.06.62,0,.92-.72,1.05.95.43.99,1,0,1.4,1.6,1.89-2.69,2.02-.7.35-.58-.07-.81-.65-.7-1.75-.54.85-1.06.62-1.56-.71-.43.14-.96.3-1.41.3-2.69,0-6.93.02-9.43,1.15-.13.06-.19.17-.21.32,1.67.82,3.43,1.48,5.29,1.97l.32.83c1.93-.64,4.47.79,3.32,3.12-.29.59-9.39,4.81-10.62,5.32-.37.77-.62,1.58-.77,2.43.71.08.68.43,0,.7-.67-.41-1.25-1-1.75-1.75-.22,0-.34-.13-.35-.35-1.02-1.57-2.83-1.82-5.44-.76,0,0-3.8-.4-11.39-1.21-1.43.12-2.73.91-3.91,2.37-2.26.08-4.54-.08-6.85-.46-.16.67-.61,1.05-1.27,1.23-.26,2.57-1.36,2.12-1.91-.13l-.78-.34c.4,1.4-1.13,1.2-1.34-.18-1.56.48-2.47-1.45-.76-1.23,0-.2-.22-.47-.67-.82l-4.92-.26c-9.07.61-18.25.12-27.17-.45-.66.92-1.31,1.19-1.94.82.22.7.02,1.46-.7,1.75-.1.31-.22.31-.35,0-1.09-.04-1.35-1.3-.35-1.75-.51-.99-1.56-1.51-3.15-1.56-1.83.02-4.75,0-4.91-2.29-1.46-1.03,1.4-4.63,2.8-4.56.19-.34.07-.74-.26-.97-.44-.31-7.42-.47-7.8.97-.13.51-.6.74-1.4.7-.41,1.79-1.48-.5-1.51-1.58l-3.82.76-.62-.59c-.21-1.21.01-1.09,0-1.75.01-.9.48-1.62,1.39-2.17-1.13.02-1.94-.31-2.44-.99-.14-.38-.58-.87-.58-1.22.02-.99,2.04-2.45,3.03-2.64l-1.05-1.57,1.05-.18-.7-1.04c2.02.1,2.07,1.92,4.21,1.05,1.89.85,3.99,1.33,6.28,1.42,2.5,3.61,6.41,5.13,11.75,4.54.52.21.76.64.77,1.21-2.89,3.96-.26,5.17,3.5,5.74,5.92.91,11.2.61,16.89-.95,6.1,2.81,19.64,5.62,25.69,2.76,1.52-1.16,2.84-2.14,4.85-1.81,6.56,1.01,17.5.72,11.79-8.78-.07-.44.12-.75.54-.93l6.19-1.02c2.71-.35,4.44-1.42,6.24-3.18,1.83-.06,3.64-.2,5.41-.4l-.03.02Z"/>
    <path class="st164" d="M128.39,123.09c-1.18,1.66-3.93.67-5.37,1.11-.71.22-.72,1.02-1.2,1.35-2.91,1.99-7.91,2.16-11.31,2.79.96,2.09,2.13,3.62,1.73,6.11-.44,2.74-5.17,3.88-7.5,4.06-2.45.2-6.62-.71-8.42-.36-.78.15-2.21,1.59-3.27,1.99-5.33,2.01-17.1,0-22.66-1.67-.93-.28-2.32-1.32-2.81-1.35-1.1-.06-4.5,1.25-6.31,1.38-3.06.23-12.5.09-14.74-1.76-2.92-2.42.43-5.42.18-5.61-3.13-.04-8.32-.15-10.7-2.44-.64-.62-1.18-1.99-1.28-2.05-1.12-.73-5.79.26-6.24-2.17,1.71-.7,4.25-2.22,5.96-3.15-.03,2.93,4.52,1.98,5.61,2.63.28.17,1.11,1.58,1.75,2.11,2.31,1.89,5.61,1.46,8.42,1.92.42.4-2.48,4,1.67,5.51,2.21.8,9.37,1.01,11.84.81,1.67-.14,3.49-1.12,4.88-1.08,1.28.04,3.53,1.25,5.08,1.61,4.92,1.14,13.25,2.75,17.89.69.9-.4,1.79-1.41,2.65-1.56,1.68-.3,5.06.54,7.34.33,5.82-.53,8.3-3.26,5.09-8.75,2.45-.67,5.33-.67,7.7-1.59,1.24-.48,2.57-1.84,3.49-2.11,1.67-.49,3.48.44,4.57-1.56,2.21.91,3.93,1.9,5.96,2.8h0Z"/>
    <path class="st95" d="M36.21,140.26c.9,2.07,7.76,1.8,8.06,2.1.09.09-.06,1.35,0,1.75l-.52.55c-.22-.31-.63.09-1.24,1.2,2.42,1.47-2.45,2.32-.35,0-.71-.1-1.09-.81-1.15-2.12-2.43-.57-.56,5.85-.05,6.99,1.09,2.42,5.05,3.97,7.16,2.49-1.07.35-.82-3.8-.68-4.06,1.42-2.52,2.57,2.84,1.38,4.06,1.3,1,4.38,1.32,5.26-.35-.31-.06-.3-.18,0-.35.6-.13.96.3,1.1,1.29,3.49-.51,2.88-6.52,1.11-8.3-2.05-2.06-7.59-.93-10.16-.27-.79.04-.97-.55-.46-1.13.1-.07.49.03.71-.17.39-.36.18-1.15.55-1.26,1.19-.35,3.25.35,4.5.39,3.45.12,7.11.33,10.51.35,6.31.04,12.71-1.12,18.93.33l-.51,1.05c-.66.24-1.47.45-2.45.64l-.7.42c1.5.04.29,1.72-.73,1.05-.47-2.66-2.64-1.64-2.49.61-1.21,1.56-2.71-.7-.99-1.31-.33-.41-.59-.65-.78-.72-2.65.44-5.31.54-7.95.31,0,.41-.35.62-.73.76.93.5.63,2.18-.35,2.45-.82-.53-1.15-1.68-.99-3.46-2.23.21-1.18,5.96-.28,7.25.64.91,3.9,2.03,3.37.15l.7-.43c-.96-1.81,2.64-.77.7.35.6.06.77.4.51,1.02l10.29-.16.76-.51c-2.58-3.49,2.98-3.12.35-.35.8-.04.75.45.67,1.1,4.02,1.81,5.03-.55,3.02-7.07l.16-.69,1.05-1.05c-.04,1-.02,2.32,1.05,2.8-.46-2.69.6-1.78.99-2.17.21-.21-.1-.94.25-1.01,1.47-.3,4.59,1.03,6.63.7,1.45-.23,1.75-1.39,2.74-1.82,2.17-.93,8.3.3,10.94.45,2.08.12,5.17-.37,7.02-.02.89.17.93.62.88,1.4l-.78.27c-1.25-1.1-2.75-.99-4.49.32l-.69-.59c-.12,1-.86,1.01-1.05,0-3.51-.71-7.11-1.03-10.81-.93l-1.46.93c.78.74-.19,1.61-1.05,1.05-.49.63-1.79.78-2.45.35-.94.23-3.05.21-3.5-.7-.47.69-.82.81-1.05.35-2.06,3.38-2.38,8.03,1.76,10.05v.81c-.53.33-1.19.37-2,.13l-8.18-1.53c-10.82-.58-22.73.82-33.41-.76-1.06-.16-4.79-.8-5.41-1.43-.67-.67-.61-5.01-1.17-6.19-1.69.25-3.48-.44-5.04-.42s-5.16,1.67-6.14.73l-.24-1.19c1.76-.24,3.35-.67,4.79-1.26-2.69-2.78,2.79-3.87.35-.35,3.26,1.67,3.84-1.99,3.72-4.6l.49-.31.02.04Z"/>
    <path class="st95" d="M118.58,133.25c-.26-.49-.52-.26.22-.66,3.17-1.73,7.4-.91,10.86-1.78,1.28.26.17,1.16,1.54,1.39.32.79.14,1.77-.7,2.1.83.58.63.92-.35,1.05l-.74-.28c.13-1.42-.76-2.55-.81-.72-.04,1.41-.06,6.17.51,7.16.63,1.09,1.32.86,1.04-.45l.7-.45c-1.46-3.88,3.26-2.89.7.7.4.18.7.52.89,1.03,1.92-.69,2.91-.45,2.96.72-.22.44-1.18,1.05-1.58,1.05h-5.61c-.14,0-2.58.81-2.66.92-.99,1.37-.46,5.75-1.88,7.15-2.79.9-6.07,3.46-8.61,4.36-4.56,1.62-14.48-.8-19.62-.52-1.41.76-2.69,1.22-3.86,1.4-.02-1.56,0-3.22.05-4.98l-.97-5.01.57-.53c.83-.54,1.51-.8,2.45-.35l.44.81c-.41,1.84-.26,3.87.59,5.58-.05-.71,0-2.76.97-2.24.15.08.94,2.69.84,3.2l5.74.06c.02-.66.32-1.03.88-1.1-.74-1.52,1.87-.7.35.35.78.06.75.51.67,1.15,3.1.76,3.46-.85,3.65-3.44l-.33-4.79.56-.64c1.49-.13,1.46-1.08,3.33-1.08,1.45,0,1.59.24,2.63,1.08.13.1.24.23.35.35-.24.62-.69,1.32-1.4,1.4,2.52,2.06-2.59,2.68-.35.35-.59-.09-.8-.5-.64-1.25-3.23-.95-1.39,7.87-.35,8.48.61.36,2.81.55,2.38-.54l.71-.39c-.3-.12-.3-.23,0-.35.38-.37.73-.17.96.28.85.02,4.92-2.27,5.45-2.94.64-.82,1.66-5.94,1.63-7.07,0-.18-2.71,2.04-2.43,2.38,2.12,1.3-2.36,1.87-.35-.35-.47.19-.87-.48-.66-.65.34-.28-.28,1.34-.74,1.35.84-.11.3,2.24.1,2.4-1.3,1.05-2.29-1.57-.8-2.05-.29,0-.53-.1-.7-.34-.35-.5.43-.85-.07-.2-.17.22-.39.4-.63.54-.1.31-.22.3-.35,0,.03-.84-.26-2.48.34-2.99.34-.29,1.31-.34,1.84-.61,1.52-.77,2.95-1.76,4.47-2.54,2.88-1.48,8.08-2.49,1.4-4.73.91-.99,1.99-3.99-.37-2.99-.36,1.56-1.48,1.99-2.05.32-1.27.48-2.33.44-3.18-.13l.02.03Z"/>
    <path class="st3" d="M23.95,136.4c-.27-.98,4.15-1.18,4.34-1.03.33.26,1.16,2.16.22,2.08-.86.56-.99,1.03-1.06,2.06-.21,3.08-.24,6.42,3.72,5.3l.49.7c-.02.28.1.92-.02,1.03-.13.12-2.81.47-3.43.62s-1.31-.19-1.1.8c-.43-.42-2.78-10.04-3.15-11.57h0Z"/>
    <path class="st201" d="M137.16,132.2c-1.11,2.39-1.56,6.29-1.78,8.94-.07.86.49,1.01.03,1.93-.66-1.01-3.43.43-3.86,0-.02-.58.03-1.17,0-1.75l.4-.68c2.39-.02,3.43-5.68,2.75-6.68-.43-1.8,1.19-3.65,2.45-1.75h.01Z"/>
    <path class="st95" d="M23.59,135l5.26-1.05c.31.33-.68,3.6.7,2.45.94.12.89.41,0,.7.94.26.39,3.39-.12,3.52-1.31.35-1.92-2.54-.94-3.17v-1.4l-4.56.35c-.12-.49-.25-.84-.35-1.4h.01Z"/>
    <path class="st95" d="M138.21,130.45c-.3.43-.84,1.31-1.05,1.75-1.73-.23-2.05.21-2.45,1.75.69.19.16,3.02-.35,3.15-1.48.4-1.41-3.33,0-3.5-.69-.43-1.28-.89-1.75-1.4.06-.57-.04-1.18,0-1.75h5.61,0Z"/>
    <path class="st95" d="M89.84,154.63c.12.44.21.74.77.68-.05.88.28,1.58.98,2.12,1.42-.22,1.53-1.27,3.86-1.4-2.09,1.03-2.59,2.11-5.09,2.12-3.79.02-8.36-1.39-12.09-2.12,3.43.18,6.95,1.48,10.16,1.4.16-.87.51-1.57,1.05-2.1-1.21-1.04-1.06-4.02.79-3.39.42.14.53,2.73-.44,2.69h0Z"/>
    <path class="st37" d="M22.54,130.09l4.21.35-3.15,2.8c-.02-1.02-.68-2.14-1.05-3.15h-.01Z"/>
    <path class="st86" d="M36.91,120.28c-.23-.07-.56-.45-.69-.35-.03.02.07.5-.25.71-.4.26-.95.21-1.16.34l-2.11-1.58c.64-.79,2.5.82,2.81.52l-.7-1.4c1.06-.14,1.96.71,2.1,1.75h0Z"/>
    <path class="st118" d="M50.93,112.92c-.67.19.16,1.24,0,1.4-.29.29-2.84-1.45-1.75.7-.51-.37-1-.72-1.39-1.23.66-1.02,1.54-.1,2.44-.18.19-.18-1.74-2.76.7-.7h0Z"/>
    <path class="st123" d="M112.97,116.78c.18-.93,1.68-2.68,2.45-2.28l-1.05,1.93s-.08.45-.31.32l-.21-.67c-.24.21-.59.65-.88.7Z"/>
    <path class="st123" d="M114.72,116.43l2.45-1.05c-.17.54-1.28,1.36-1.75,1.4-.04,0-.35-.33-.7-.35Z"/>
    <path class="st95" d="M44.97,145.87c.17-.6.85-.9,2.03-.9,3.75-.75,9.15-1.71,9.76,3.51.23,1.99-.62,5.48-2.68,4.05v.35c-.25,1.18-4.62,1.39-5.26.35-.32-1.56-.35-3-.53-4.56-.31,0-.16,3.94-.18,4.56-1.42,1.52-5.13-.18-6.38-1.68-.9-1.08-2.18-4.04-1.41-5.3.5-.82,1.13-1.2,1.83-.38.06.32-.18,1.06.18,1.06.34-.09.16-.73.18-1.06.68-.69,1.42-.69,2.1,0h.36Z"/>
    <path class="st95" d="M120.33,146.22c.16-1.09.79-1.81,1.68-.87.84.89-.17,4.3-.86,5.27-.79,1.11-4.99,3.84-5.92,2.91-.82-.83.47-1.94-.03-.14-.03.1-.23.15-.48.19-.01.12.01.23,0,.35-.17,1.33-2.35,1.37-3.24.65-1.03-.83-1.44-4.82-1.03-6.05.37-1.12,1.44-2.3,2.17-.91.02.35-.02.7,0,1.05h.34c.06-.44-.07-.99,0-1.4,1.44-1.63,2.26-.74,3.08.9.01.03-.32-.49.08-.55.02-.23,0-.47,0-.7h.35c0-1.03,1.17-.98,1.4,0,.05.58-.04,1.17,0,1.75h.34c-.2-.81.21-1.45.35-2.1.26-.84.64-1.51,1.4-.7.02.35-.02.7,0,1.05h.34c.05-.22-.06-.55,0-.7h.03Z"/>
    <path class="st95" d="M45.68,144.11c.5,1.21.7.28,1.07.21,3.5-.62,9.81-1.94,11.1,2.51.99,3.42,1.03,7.24-3.23,7.8l-.53-2.11c.04-.93-.03-1.87,0-2.8l.35,2.45c.89.84,1.59-1.59,1.64-2.33.44-7.15-6.64-4.2-11.1-3.99-.1-.97-.06-1.23.7-1.75h0Z"/>
    <path class="st95" d="M80.38,144.82c-.01.15-.5.6-.35.7l2.1-.34-.35,1.4c.1.15.55-.35.7-.35.99,0,1.43,5.08,1.43,6.13s-.27,2.81-1.63,2.99c-.24.03-3.52-.59-3.65-.73-.12-.13.02-1.32-.02-1.74l.31-.73c3.28-.85,1.86-5.81-1.31-5.63l-.41-.66v-1.4h2.98c.18.05.19.19.18.35h.02Z"/>
    <path class="st95" d="M134.35,133.6c-.21,1.03-.43,2.09-.35,3.15.74-.42.51-2.1.7-2.8,1.05-.19.73.5.66,1.17-.27,2.58-.41,6.49-3.81,6.19-.05-1.04.04-2.11,0-3.15l-.7,2.45c-2.37.78-2.62-4.56-.7-5.26.11-.49.28-.78.35-1.05.34-.96.82-1.42,1.4-.35.06.05-.05.5,0,.7h.34c-.14-.43.32-.85.35-1.05.03-1.05,1.56-.97,1.75,0h0Z"/>
    <path class="st95" d="M33.76,137.46l.3-1.91c-1.57-1.43,5.13-1.04,5.28-.76l-.33.91c-1.11,1.92-2.62,2.41-2.8,4.56-.2,2.34.88,4.91-2.09,5.79-1.12.33-1.9.48-2.11-.88l.16-.46c2.17.59,2.58-4.99,2.32-5.16-1.34.32-2.06-1.71-.73-2.09h0Z"/>
    <path class="st168" d="M118.58,133.25l3.85-.7.35,1.75c.04-2.24,1.23-2.27,3.16-2.1-.09,1.22.22,4.1-1.75,3.86-1.8-.6-4.56-.83-5.61-2.8h0Z"/>
    <path class="st95" d="M30.96,135.7c.22-3.46,6.32-.54,8.76-1.4.18.71-.45.97-.7,1.4.26-.98-.87-.79-1.45-.81-.53-.02-2.95.04-3.07.14-.21.17-.12,2.05-.73,2.42-.71-.08-.68-.43,0-.7l-.84-.73c-1,.37-1.65.27-1.97-.32Z"/>
    <path class="st73" d="M30.96,135.7c.93-.16,1.82-.53,2.81-.35,0,.47,0,.94,0,1.4-.19,1.14-3.73,1.38-4.21.35.04-.22-.02-.47,0-.7.09-1.24.29-.51,1.4-.7Z"/>
    <path class="st180" d="M116.13,147.62c-.02.24.15.71-.17.7-.61-1.53-1.56-1.01-2.98-1.05.05-.28.28-1.3.38-1.37.21-.15.74.03,1.02-.03.52-.1,1.02-.37,1.23,0,.3.51-.05,1.41.52,1.76h0Z"/>
    <path class="st70" d="M44.27,144.11c.08.6.15,1.18.35,1.75h-2.1c.04-.81-.03-1.64,0-2.45l1.75.7Z"/>
    <path class="st2" d="M132.6,132.2h2.1c0,.5-.26.93-.35,1.4h-1.75c.07-.42-.05-.95,0-1.4Z"/>
    <path class="st23" d="M131.2,132.2c1.22.2.59.36.7,1.75-.15-.13-1.08.31-1.4.35.17-.67-.07-1.47.7-2.1Z"/>
    <path class="st95" d="M73.01,146.22c0,.4-.26,1.48.35,1.4-.6-3.11,3.59-4.3,3.51-1.05.62.15.24-.62.35-.7.14-.11,1.17,0,1.49.08,3.45.74,3.95,6.83-.09,6.93-.05-.58.04-1.17,0-1.75h-.34c-.02.7.02,1.4,0,2.1-.05.17-.12.33-.23.45-.38.41-9.84.16-11.16.04l-.17-.84c-.05-.05.1-.49-.05-.66-.26-.28-.61.31-.65.31-1.37,1.87-4.56-2.13-2.8-3.5,0-.83.21-1.64.35-2.45l.29-.71c2.88.13,5.76.03,8.64-.32l.53.68h-.02Z"/>
    <path class="st95" d="M33.76,136.75c0,.23-.02.47,0,.7.05.65-.14,1.29.53,1.75l.18-2.1c1.21.9.61,5,.27,6.41-.32,1.33-1.46,1.75-2.73,1.65-.08-.54.06-1.19,0-1.75h-.34c-.05.69.05,1.41,0,2.1-.82-.03-3.76.18-4.15-.41-.33-.51-2.04-9.01.99-7.65l.7,3.15c-.13-1.2.17-2.34.35-3.5l4.21-.35h-.01Z"/>
    <path class="st95" d="M94.75,145.52l.86-.74c1.37-.62,10.69.47,11.06,1,.1.14-.23,1.74-.7,1.49-.3.87-1.18,1.21-2.64,1.03-5.12-1.01-7.29.09-6.5,3.3l5.89.59.45.69c-.05.45-.12,1.65-.58,1.77s-5.78.07-6.2-.06c-.3-.1-.43-.23-.53-.53-.27-.83.4-2.45-.4-2.93-.16.35.44,3.63-.53,3.15-1.81-1.36-2.11-5.95-1.23-7.71.03-.07.73-.63,1.05-1.05Z"/>
    <path class="st95" d="M66,152.53v2.1c-3.53.15-5.24-.75-5.6-4.39-.22-2.17-.72-5.92,2.45-5.43l.35,4.21c0,1.69.98,3.56,2.8,3.5h0Z"/>
    <path class="st95" d="M42.17,145.87c-2.02.28-1.37,2.18-.87,3.5,1.19,3.13,3.72,3.71,6.82,3.87,0,.47,0,.94,0,1.4-4.03-.13-7.34-.83-8.32-5.18-.16-.73-.88-5.04-.74-5.46.24-.72,1.84-1.23,2.43-.79.3.22.56,2.08.68,2.66Z"/>
    <path class="st95" d="M108.06,145.52c.36,2.42,1.53,9.43-2.01,9.74-.3.03-2.45-.19-2.54-.28-.09-.08.02-1.35,0-1.75.12-.51.58-.87,1.39-1.09.19-.82.55-1.28,1.07-1.37.2-1.73.38-3.44.55-5.12l.5-.13c.2.06.78.02,1.05,0h-.01Z"/>
    <path class="st95" d="M91.24,146.92c.27.42,1.06,7.26,1.08,8.24s-.07,1.58-.73,2.28c-.26.04-1.35.05-1.4,0-.1-.1-.3-2.34-.35-2.8,1.87-2.03-.1-5.41-2.45-6.31-.44-.68-.54-1.8.35-2.1.94-.09,2.96-.15,3.5.7h0Z"/>
    <path class="st95" d="M107.01,145.52l-1.05,5.26c-1-.56-1.12-3.08,0-3.5.03-.31.55-.87.35-1.4-3.87.51-7.81-1.4-11.57-.35.62-.82.48-1.76,2.27-1.76,2.48,0,6.46.35,8.85.99.51.14.98.72,1.15.77h0Z"/>
    <path class="st95" d="M86.68,146.57c.69-.13.5,1.52.35,2.1-1.23,2.26-.94,5.59,2.07,5.95l.38.71c-.02.7.02,1.41,0,2.11-.35,0-.7,0-1.05,0-1.78-1.09-3.14-1.73-3.47-4.06s-.63-5.85,1.72-6.8h0Z"/>
    <path class="st95" d="M78.27,153.23c0,.35.02.7,0,1.05l-11.92.35.35-1.75c.85.79,9.78.12,11.57.35h0Z"/>
    <path class="st128" d="M73.01,146.22l-9.46.35c.07-.43-.06-.95,0-1.4,1.26-.26,2.51.38,3.67.37,1.31-.02,4.16-.84,5.28-.73,1.42.14.52,1.12.52,1.41h0Z"/>
    <path class="st95" d="M54.09,152.88c-.03.58.03,1.17,0,1.75h-5.26c-.06-.44.08-1,0-1.4,0,0,5.26-.35,5.26-.35Z"/>
    <path class="st95" d="M87.74,146.22c-.44.65-.33,1.37-.35,2.1,2.54,4.72-2.51,4.31-.35.35l-.35-2.1c.42-.17.4-.29,1.05-.35Z"/>
    <path class="st95" d="M105.96,147.27c-.11,1.13.1,2.37,0,3.5-.16,1.79-.52,2.31-2.45,2.45-.01-.23.01-.47,0-.7-.28-.09-.3.34-.35.35-.69.12-6.77-.45-6.96-.75-.42-.67-.38-4.2,1.19-4.5,2.47-.46,5.92.4,8.58-.36h-.01Z"/>
    <path class="st95" d="M120.33,146.22c-.51-1.37,2.72-4.25,3.13-2.59.11.44-1.35,7.2-1.72,7.68-.32.41-5.66,3.27-6.16,3.32-.81.08-.39-.69-.86-1.05.07-.68-.05-1.41,0-2.1,1.43-.46.06,2.07,1.21,1.74,2.96-.86,5.86-3.08,5.77-6.45-.03-1.19-.76-1.93-1.37-.55Z"/>
    <path class="st95" d="M114.72,153.93c-.08.89.27,1.52-.87,1.75-1.6.32-2.83.15-3.5-1.4-.47-1.09-1.06-6.37-.72-7.38.39-1.15,1.76-1.63,2.77-1.05.46.27.21,1.3.23,1.77-2.54-.44-1.54,5.02-.98,6.06.61,1.15,2.14.46,3.09.24h-.02Z"/>
    <path class="st177" d="M130.85,140.61v2.45c-4.67-.33-2.03-6.07-3.1-9.21.42-.78,1.1-1.46,2.05-1.31l.35,2.8c-.38,1.71-1.31,4.01.7,5.26h0Z"/>
    <path class="st111" d="M116.48,146.92c-.21-1.05.07-1.74,1.22-1.76.35,0,.15,1.35.18,1.76h-1.4Z"/>
    <path class="st189" d="M118.58,146.57c.11-.5-.2-1.45.53-1.75,1.07-.44.83.37.87,1.05l-1.4.7Z"/>
    <path class="st95" d="M87.38,148.32c3.16-.83,4.75,4.66,3.32,6.65-.59.82-.56-.16-.87-.34-.07-.64.36-2.22-.35-2.45-.03,1.05.03,2.11,0,3.15-2.78.06-4.21-2.38-3.78-5,.07-.43.53-1.9,1.32-1.66l.35,3.15c.03-1.16-.03-2.34,0-3.5h.01Z"/>
  </g>
  <g>
    <path class="st30" d="M129.76,57.31c.12.05.12.1,0,.14v-.14Z"/>
    <path class="st30" d="M129.4,57.46c.12.05.12.1,0,.14v-.14Z"/>
    <path class="st30" d="M38.21,46.59c.12.05.12.1,0,.14v-.14Z"/>
    <path class="st30" d="M37.66,46.16c.12.05.12.1,0,.14v-.14Z"/>
    <path class="st30" d="M129.4,43.59c.12.05.12.1,0,.14v-.14Z"/>
    <path class="st30" d="M44.03,37.73c.12.05.12.1,0,.14v-.14Z"/>
  </g>
  <path class="st45" d="M106.36,120.16l-14.53-1.24c-1.37-.12-1.74-1.95-.52-2.59l6.17-3.21c.2-.1.41-.16.63-.16h11.48c1.11,0,1.76,1.25,1.12,2.16l-3.12,4.45c-.28.4-.75.62-1.24.58h.01Z"/>
  <path class="st45" d="M95.1,140.79l-40.63-3.47c-2.3-.2-2.92-3.28-.87-4.35l19.01-9.9c.33-.17.7-.26,1.07-.26h30.98c1.87,0,2.96,2.1,1.89,3.63l-9.37,13.37c-.47.67-1.27,1.05-2.09.98h0Z"/>
  <path class="st175" d="M94.32,139.35l-40.63-3.47c-2.3-.2-2.92-3.28-.87-4.35l19.01-9.9c.33-.17.7-.26,1.07-.26h30.98c1.87,0,2.96,2.1,1.89,3.63l-9.37,13.37c-.47.67-1.27,1.05-2.09.98h0Z"/>
  <path class="st175" d="M106.36,118.68l-14.53-1.24c-1.37-.12-1.74-1.95-.52-2.59l6.17-3.21c.2-.1.41-.16.63-.16h11.48c1.11,0,1.76,1.25,1.12,2.16l-3.12,4.45c-.28.4-.75.62-1.24.58h.01Z"/>
  <g>
    <path class="st183" d="M102.2,101.11s-.05.08-.08.12-.04.08-.06.12c-.2.59-.39,1.26-.51,1.87,0,.05,0,.09.01.14-.07.27-.12.53-.16.8-.28,1.48-.46,3.4.39,4.72.09.31.39.59.63.81.77.7,1.85,1.22,2.85,1.5h.06s.04-.01.07-.02c.07.02.19.07.24.08l.8.17s.05-.02.08-.01c.09.01.18.05.27.06l.06-.05c.03-.19.07-.37.12-.55l-.04-.07-.05-.05c-.63-.14-1.26-.29-1.89-.46-3.11-.99-2.97-5.34.56-5.53,1.34-.07,2.99.3,4.1,1.03h.07l.09.02c.36-.21.69-.47.99-.78.49-.5,1.39-.7,1.86-.1.77.97-.77,2.58-1.62,3l-.04.08-.03.05c.04.68-.26,1.33-.7,1.83l-.03.08c.13.36.16.75.12,1.13l.04.07c1.07-.5,1.8-1.53,2.23-2.61.72-1.77,1.03-3.83,1.18-5.73.14-1.72.15-3.57-.89-5.04,1-.21,2.04-.52,2.98-.94,1.36-.6,3.5-2.04,2.3-3.76s-3.77-.51-5.11.44c-.95.68-1.8,1.51-2.49,2.44-.6-.21-1.22-.37-1.84-.5.47-.46.96-.91,1.41-1.4.93-1,2.88-3.22,1.24-4.41-.98-.71-2.21-.38-3.09.3-1.85,1.43-2.8,4.02-3.09,6.27-.31.25-.62.46-.9.75-1,1.04-1.69,2.73-2.14,4.09v.04Z"/>
    <path class="st77" d="M108.9,108.95l-.06.04c-.13.31-.22.64-.28.97,0,.06-.09.08-.14.06-.15-.08.15-.87.23-1l-.02-.07c-.13-.08-.34.01-.48.07-.66.3-1.03,1.05-1.23,1.71l.03.08c-.06.2-.13.47-.14.67-.09.93.29,1.94,1.33,2.08,1.21.15,2.11-1.37,2.29-2.38.07-.38.02-.92-.13-1.28.07-.08-.09-.36-.2-.34l-.06.03c-.04.18-.27.93-.47.92-.05,0-.11-.07-.08-.12.24-.28.33-.64.39-1l-.04-.09c-.03-.14-.27-.24-.41-.29s-.4-.13-.52-.04v-.02Z"/>
    <path class="st71" d="M98.41,104.01h.06c.04-.14.43-.83.44-.4-.14.19-.25.4-.33.63l.03.08c.15.16.3.23.51.3.02,0,.04,0,.05-.02.03-.18.2-.7.39-.73.06,0,.09.04.07.09-.14.22-.23.45-.29.69h.1c.44-.02.7-.21.96-.56.33-.43.47-1,1.17-.74.02.03-.19.7-.15.81.19-1.02.46-2.07.79-3.06-.84-.3-1.79-.34-2.55.18-.71.49-1.65,1.85-1.25,2.71v.02Z"/>
    <path class="st152" d="M102.81,111.93s.03.09.02.14c.02.4-.02.51.25.84h.07c0-.25.06-.36.17-.33l-.03.32c-.01.11-.01.2.09.26.19.1.24.12.46.13l.07-.03s.07-.77.18-.62c-.04.2-.04.4-.03.6h.09c.83-.19,1.15-1.32,1.26-2.06-1.31-.37-2.84-1.12-3.6-2.29-.1.89-.24,2.08.5,2.75.15.13.31.24.51.29h0Z"/>
    <path class="st136" d="M102.81,111.93s.02.1.02.14c.02-.07,0-.09.07-.06.72.29,1.66.09,2.01-.66-.05-.02-.07.01-.1.03-.16.08-.31.24-.48.33-.41.22-1.07.34-1.52.22Z"/>
    <path class="st48" d="M112.51,110.41c.33-.23.61-.63.8-.99.17-.33.37-.74.26-1.12-.13.44-.3.87-.51,1.28-.16.3-.35.56-.55.83Z"/>
    <path class="st91" d="M99.12,104.62s.04.04.11.05.14,0,.21-.01c-.08,0-.05-.05-.03-.1.03-.11.09-.23.14-.34.05-.09.29-.39,0-.41-.2-.01-.43.63-.43.8h0Z"/>
    <path class="st136" d="M98.41,104.01c.05.1.13.23.2.31.05-.13.08-.26.14-.38.06-.13.27-.32.21-.44-.18-.34-.5.38-.56.51h.01Z"/>
    <path class="st129" d="M100.33,100.49c.3-.15.61-.2.95-.17.14.01.31.12.42-.02-.44-.19-1.05-.23-1.37.19Z"/>
    <path class="st133" d="M103.84,113.29c.1,0,.21-.02.31-.04-.07,0-.06-.18-.05-.22.01-.12.16-.52-.09-.43-.05.02-.12.21-.13.28-.03.13.03.29-.03.41h-.01Z"/>
    <path class="st85" d="M103.08,112.91c.11.14.14.17.3.25-.1-.1.02-.59,0-.62-.01-.02-.14-.04-.17-.01-.12.09-.04.28-.12.38h-.01Z"/>
    <path class="st39" d="M101.77,98.15c-.2-.05-.17.24.07.31.41.12.07-.27-.07-.31Z"/>
    <path class="st82" d="M106.95,110.81c.23-.82.74-1.77,1.68-1.86.04.07.23.08.27,0,.4.03.61.09.93.34.02.09.18.28.27.27.09.13.14.19.2.34.06.02.08-.02.11-.06.4-.42.66-1.12.65-1.7,0-.04,0-.09-.03-.12h-.13c-1.24.69-2.59.4-3.78-.22-.57-.3-1.16-.76-1.21-1.44l-.05-.1c.08-.01.07-.12,0-.16,0-.14.11-.32.19-.44l.18-.2v-.07c.06.04.24-.1.22-.17l.08.02c.37-.18.78-.08,1.13.09.44.25.89.45,1.36.59.21.04.59.06.72-.12-.06-.08-.16-.14-.24-.19-1.05-.65-3.25-1.08-4.46-.83-3.01.62-3.01,4.33-.35,5.45.72.3,1.52.39,2.27.58h-.01Z"/>
    <path class="st5" d="M109.74,105.8c-1.21.49-2.17-1.16-3.29-.57.02.1.18.24.27.31.16.08.28.18.37.29-.04.29-.72-.32-.78-.42h-.08c-.21.17-.39.4-.37.7.04,0,.07-.04.08-.1.19.22.4.37.66.5.04.42-.57-.13-.68-.24h-.06c-.03.9.9,1.47,1.62,1.78,1.26.55,2.33.66,3.55,0,.81-.44,1.78-1.36,1.91-2.31.11-.82-.61-1.35-1.39-1.15-.72.18-1.12.96-1.8,1.24v-.03Z"/>
    <path class="st46" d="M106.16,95.83c.2-.03.39-.11.58-.15.24-.05.87-.1,1.04-.19s.87-.85,1.05-1.04c.59-.63,1.69-1.78,1.69-2.67,0-.35-.16-.61-.48-.76-1.09-.54-2.19.76-2.7,1.58-.61.98-.97,2.1-1.18,3.24h0Z"/>
    <path class="st46" d="M111.27,96.39c.29.18.58.36.85.58.08.06.17.2.26.2,1.1-.31,2.26-.57,3.24-1.17.66-.4,1.6-1.24.93-2.05-.86-1.03-2.76.15-3.57.76-.2.15-1.78,1.55-1.72,1.68h.01Z"/>
    <path class="st82" d="M106.91,100.77h-.07c-.35.28-.99.02-1.01-.44-.04-.74.87-.99,1.18-.33l.06.02c.07-.07-.02-.28-.06-.35-.56-1.14-2.31-.61-2.12.68.14.95,1.39,1.28,1.98.53.02-.02.08-.08.04-.1h0Z"/>
    <path class="st82" d="M111.83,101.61h-.06c-.41.56-1.25.24-1.15-.47s1.04-.72,1.23-.06l.06.03s.02-.08.02-.11c-.18-.99-1.5-1.27-2.04-.41-.75,1.2.93,2.38,1.8,1.33.05-.06.18-.23.14-.31Z"/>
    <path class="st103" d="M111.91,101.11c-.07-.41-.54-.69-.93-.53-.6.26-.54,1.19.09,1.35.26.07.65-.08.76-.32.07-.16.11-.32.08-.5Z"/>
    <path class="st166" d="M106.91,100.77c.2-.19.24-.5.16-.75-.21-.68-1.26-.6-1.29.24-.02.56.73.89,1.13.51Z"/>
    <path class="st53" d="M107.99,102.19c-.01.1.2.15.23.05.19-.03.7-.27.79-.45.1-.21.07-.32-.12-.44-.23-.14-.88-.28-1.14-.24-.31.05-.3.33-.19.56.06.12.33.45.43.51h0Z"/>
    <path class="st16" d="M104.61,101.18c-.27-.08-.96-.16-1.03.22-.08.42.77.61,1.07.62.48.01.82-.34.33-.67-.1-.07-.25-.13-.37-.17Z"/>
    <path class="st16" d="M112.07,102.81c-.26-.09-1.08-.25-1.18.13-.12.48.9.68,1.24.64.64-.08.41-.6-.06-.77Z"/>
    <path class="st176" d="M107.32,103.05c-.16-.01-.67.05-.77.21-.02.03-.03.05,0,.08.49.12,1.05.12,1.59.26.28.08.63.25.9.28-.01-.11-.14-.27-.23-.35s-.32-.27-.41-.19v-.04c-.17.04-.32.05-.47.02l-.05.04c0-.05-.03-.06-.05-.01l-.02-.06c-.18-.03-.32-.1-.43-.23h-.06,0Z"/>
    <path class="st160" d="M106.55,103.35c.15-.2.45-.22.68-.25.04,0,.09.03.09-.05.04-.03.05-.09.02-.18.02-.12,0-.21-.06-.27,0,0-.02-.03-.02-.06-.31,0-.87.19-.95.54-.05.2.09.22.24.25v.02Z"/>
    <path class="st132" d="M108.68,102.91c-.06.03-.12.08-.15.17-.09.09-.13.17-.13.25.08.01.35.21.42.28.09.09.12.21.22.27.18.02.26.02.28-.19.03-.3-.34-.62-.56-.78-.03-.02-.08,0-.08,0Z"/>
    <path class="st50" d="M106.67,98.31c-.13-.06-.4.15-.59.18s-.66-.08-.58.24c.07.3.9.08,1.09-.04.15-.09.31-.28.08-.39h0Z"/>
    <path class="st146" d="M111.07,99.26c-.15-.07-.26.03-.27.2,0,.14.33.43.45.51.15.09.49.29.63.12.19-.23-.31-.35-.46-.46-.12-.09-.29-.35-.35-.37Z"/>
    <path class="st104" d="M107.89,102.55c-.14-.02-.4-.04-.54-.02-.07.01-.06,0-.07.08,0,.12,0,.33.04.44.08.19.33.26.51.3h.03c.06-.22.13-.51.16-.73l-.04-.05c0-.08-.03-.07-.08-.02h-.01Z"/>
    <path class="st104" d="M108.19,102.64s-.14-.06-.17-.05c-.04.01-.16.65-.17.74,0,0,0,.01.02.02.07.01.14.04.22.04.1,0,.27-.07.3-.06.1-.13.22-.27.28-.43,0,0,.02-.04-.02-.06-.13-.07-.32-.17-.46-.2Z"/>
    <path class="st135" d="M107.99,102.19l-.1.36s.05.01.08.02c.01.07.07.08.18.04l.08-.36c-.07,0-.18-.01-.23-.05h-.01Z"/>
    <path class="st187" d="M108.15,102.61c-.06-.02-.12-.03-.18-.04l-.14.78s.03,0,.05.01l.19-.75s.09.02.13.03c0-.03-.02-.03-.05-.04h0Z"/>
    <path class="st126" d="M109.83,109.29c-.04.3-.11.6-.25.87-.04.07-.14.16-.15.22-.02.09.05.17.14.18.25.02.49-.8.53-1-.1-.14-.12-.16-.27-.27Z"/>
    <path class="st169" d="M108.63,108.95c-.11.19-.38.91-.27,1.08.04.06.14.06.2.03.1-.05.09-.34.12-.46.06-.21.19-.42.22-.64-.1,0-.17-.01-.27,0h0Z"/>
    <path class="st172" d="M106.44,105.22c-.12.06-.13.09-.23.17.14.14.29.31.46.43.1.07.3.21.4.1.18-.19-.17-.29-.28-.38-.12-.09-.22-.24-.36-.32h.01Z"/>
    <path class="st83" d="M105.84,106.26c.11.12.6.55.75.42.05-.04.08-.17.03-.22-.04-.04-.29-.15-.38-.22s-.24-.27-.32-.31c-.06-.03-.07.13-.08.17-.01.07,0,.1,0,.16Z"/>
    <path class="st11" d="M111.7,100.88c-.23-.1-.32.27-.12.32s.29-.24.12-.32Z"/>
    <path class="st26" d="M106.92,100.2c.13-.09.06-.38-.16-.3s-.03.42.16.3Z"/>
  </g>
  <ellipse class="st17" cx="69.71" cy="81.13" rx="19.67" ry="25.37" transform="translate(-16.14 17.33) rotate(-12.71)"/>
  <path class="st17" d="M84.26,55.61c-.35-1.29-.77-2.59-1.28-3.86.06-.02.11-.04.17-.06-.73-1.97-1.84-6.11-3.3-7.67-1.1-1.18-1.87-1.21-3.11-.17-1.23,1.03-2.42,2.61-3.48,4.39-.1.14-.19.28-.28.43-.96,1.54-1.69,3.21-2.47,4.84l.02.23c.97.92,1.85,1.94,2.62,3.04l.23.03.17-.15c.35-1.13,2.44-6.51,3.76-6.79.82-.17,1.9,1.57,2.19,2.18,1.26,2.64,1.72,4.99,2.26,7.84.04.2.14.38.24.55,1.09-.38,2.16-1.11,2.96-1.94-.33-.94-.44-1.93-.7-2.89Z"/>
  <g>
    <path class="st143" d="M91.25,85.01l.32-.19c.9-.09,1.75-.32,2.55-.68.15-.04.17.04.19.18-.15.41-.42,2.08.05,2.28.54.24,2.16-1.02,2.39-1.48.21-.22.36-.08.47.41.13.53.25,1.06.35,1.6.19.1,1.01-1.1,1.12-1.3.05-.03.15-.09.17-.07.39.25,1.06,2.01,1.23,2.61.16-.35.31-.7.45-1.07.08-.11.16-.1.26-.03.28.17.09,3.24-.24,3.65-.47,2.16-1.84,4.02-3.23,5.69-.02.03.63-.31.68-.33h.28s.11-.02.11.03c-2.58,3.08-6.89,4.77-10.88,3.82v-.23c.63-1.08.94-2.27,1-3.51l.13-.11h.17c1.49,1.39,2.96,1.12,4.33-.26,1.16-1.17,2.52-3.44,1.1-4.88-.42-.35-.8-.74-1.12-1.17-.12-.67-.84-1.08-1.41-1.36-.73-.36-1.64-.68-2.43-.39-.16.02-.43.04-.43-.17.15.03.11-.07.13-.16.29-.92.88-1.72,1.6-2.36.12-.1.55-.48.65-.51h.01Z"/>
    <path class="st200" d="M91.25,85.01c.16-.26.49-.43.73-.65,1.38-1.27,2.06-2.27,2.39-4.16.07-.38.09-.78.13-1.16.05-.18.29-.12.34-.2.09-.13-.11-.76-.17-.92-.09-.25-.27-.55-.4-.79.33-.31.94-.06,1.3.11,1.78.83,3.34,3.04,4.01,4.82.04.11.23,1.14.47.83.22-.28.2-1.45.7-.16.94,2.45.44,5.7-.15,8.18-.02.05-.03.05-.05,0,.09-.32.25-.85.27-1.16.02-.27-.01-2.31-.11-2.41-.07-.07-.1.01-.12.07-.13.29-.22.63-.38.92-.03.05-.13.28-.2.2-.03-.03-.16-.58-.2-.69-.27-.7-.63-1.36-.99-2.01-.41.51-.68,1.24-1.35,1.46-.16-.74-.24-1.52-.54-2.22-.39.49-.78.92-1.33,1.24-.31.19-1.21.68-1.44.26-.36-.66-.11-1.67.06-2.37-.27.13-.53.25-.81.35-.71.24-1.53.26-2.16.46h0Z"/>
    <line class="st59" x1="33.54" y1="130.87" x2="33.54" y2="130.78"/>
    <path class="st171" d="M66.76,94.27c.29,0,.59.02.87.1,1.1.32,2.21.65,3.3,1,.18.06.26.18.14.34.06.08.12.16.17.25s.09.17.11.26c.55,2.55.84,5.17.82,7.77.45-.11.41.21.01.28.03.96-.04,1.92-.15,2.87l-.2.32.16.11c.03.47-.23,2.56-.55,2.85-.28.26-.92.45-1.22.17-.04.05-.08.09-.13.13-.7.51-5.65-.13-6.74-.37l-.39-.26c-1.5-.36-3.57-1.23-4.78-2.2-.85-.68-1.08-1.03-.96-2.14l.75-3.26c.09-.2.21-1.1,0-1.26v.08c-.6.38-1.08.92-1.66,1.34-.55.39-1.15.68-1.72,1.03-.37.16-.36-.24-.16-.48,1.62-1.96,1.92-4.61,1.85-7.04l-.09-.25c.83-2.39-.75-4.7-3.32-4.58l-.22-.16.02-.19c-.76-.69-1.67-1.22-2.65-1.52-.13-.07-.17-.15-.1-.27.04-.06,1.17-.35,1.34-.37.05,0,.1-.05.15-.11,2.99.06,5.65,1.67,8.11,3.22,1.82,1.25,3.66,2.46,5.52,3.62.4.31.74.4,1.04.26l.49-1.45.2-.06v-.03Z"/>
    <path class="st60" d="M93.97,70.44c.52-.05.95.55,1.23.95,1.26,1.76,1.9,4.53,1.43,6.64l-.21.1c-.25.71-.74.79-1.26,1.15-.21.14-.38.41-.65.53-.39.18-.76.12-1.13.22-.55.14-2.13,2.27-2.48,2.84-.3.5-.98,1.77-.98,2.32,0,.44.55,1.28.93,1.48l.02.16c.82.86,1.72,1.72,2.62,2.55.26.27-.24.82-.53.68l-.3.18-6.47.25c-.05.06-.02,1.33.24,1.32,1.53.2,3.07.27,4.63.19l.12.17v.31l-.85,1.35c-.11.4-.23.55-.58.37-.11.21-.34.32-.7.32-.93.18-4.53.51-5.42.16-.06-.02-.05-.14-.05-.22-.06.03-.14.07-.2.04-.38-.19-2.16-3.27-2.37-3.67-.25-.49-.49-.97-.7-1.48l.06-.29c-.67-1.68-1.21-3.15-.19-4.79,2.14-3.45,5.23-6.49,6-10.74.16-.91.09-1.47-.31-2.3.16.01.34-.02.51,0,.67.08,1.27.81,1.44,1.44.06.19.64-.18.76-.34.55-.37.33-.34.58-.82.5-.94.98-.75,1.86-1.02,1.18-.36,1.72-.73,2.98-.02l-.03-.03Z"/>
    <path class="st113" d="M45.71,89.87c.16.05.16.12,0,.17,1.4.97,2.89,1.96,4.47,2.98,1.36-1.51,3.77-2.13,5.24-.38,1.9,2.28-.33,5.51-2.78,6.13-.73,3.25-3.84,4.77-6.76,5.72,0,.11-.11.17-.34.17-.42-.24-1.03-.05-1.57-.08-4.26-.21-7.52-3.76-7.89-7.92-.39-4.37,3.16-8.66,7.77-7.43.55.15,1.38.67,1.86.63h0Z"/>
    <path class="st18" d="M70.22,110.58c.06.1.93.52,1.42.73,2.81,1.23,5.35,1.38,8.24.35l.31.1c.12.23.14.53.07.89.1.4.07.7-.1.9l-3.1.87c1.12-.07,2.22-.29,3.29-.67,1.31,2.27,3.97,3.04,6.45,2.78l.23.14c.22.58.8.97,1.17,1.49,1.53,2.14,2.31,5.3.52,7.47-.27.14-.83-.22-1.08-.41-.37-.27-.64-.6-.86-.99.23.75.83,1.36,1.6,1.54l.09.19c-1.21,1.16-2.8,1.49-4.39.89s-2.24-2.38-2.91-3.85c-.91-.28-1.85-.46-2.73-.82-2.17-.91-4.74-3.1-6.32-4.83-.53-.58-1.65-2.27-2.11-2.62-.28-.21-1.87-.67-2.39-.91-1.75-.83-3.55-2.17-4.67-3.73,2.09.51,5.15.77,7.27.51v-.02Z"/>
    <path class="st17" d="M86.45,97.48c.09-.08.19-.06.3-.02,1.31,1.03,2.87,2.14,4.45,2.69.56.2,1.23.21,1.48-.42l.2-.05c.23-.1.81.45.98.66l-.05.19.17.37c-.03,2.44-.72,4.86-2.2,6.76-.26.31-.34.61-.25.9.11.15.43,3.05.42,3.42-.02.89-.32,1.94-.84,2.66l-.17-.16c-.34-2.49-3.4-3.18-5.51-2.9-1.1-.26-.37-2.12-.06-2.79.71-.07,1.42-.01,2.13.18-2.2-1.06-5.02-.01-6.54,1.75l-.24.04c-.06-.02-.13-.04-.18-.07-.76-.41-1.66-3.88-1.68-4.66-.09-1.71.11-3.39,1.12-4.94.16-.39.38-.6.66-.63v-.25c1.18-.83,2.46-1.54,3.82-2.13.39-.18.64-.4.74-.66.22-.34,1.24-.39,1.27.08l-.02-.02Z"/>
    <path class="st54" d="M94.74,88.18c.67.27.79-.04,1.48-.09,1.45-.09,4.49,1.2,5.18,2.52.09.18.07.38.19.57.43.71,1.7,1.48,2.27,2.46,1.63,2.83-1.95,7.69-4.61,8.71-1.98.76-3.38-.07-4.84-1.33-.32.14-.53-.23-.59-.51-.26-.24-.73-.64-.93-.85h-.22c-.69-.75-1.32-1.56-1.92-2.38-.25-.04-.44-.12-.57-.24-.2-.21.08-.27.28-.25-.61-.64-.81-1.76-.64-2.47l-.06-.15c.09-.02.2-.11.32-.1.05-.11.05-.24.12-.35.33-.52.64-1.09,1-1.58-.18-.29.18-.43.42-.51-.02-.46.58-1.02,1.01-1.18-.08-.29.08-.35.34-.42l.51-.46c-.79-.81-1.74-1.52-2.44-2.39-.12-.15-.49-.44-.17-.52.51.27,1.38.46,1.97.7.64.26,1.28.57,1.92.83h-.02Z"/>
    <path class="st17" d="M54.11,57.66c-.93,1.23-1.13,2.92-1.27,4.39l-.18.05c-.55-.6-2.8-2.66-3.56-2.5-.91.18-.85,2.92-.83,3.64.1,3.04.94,5.99,1.89,8.87.21-.04.34.02.39.16-.51.19-1.12.12-1.65.17-.75.07-1.49.2-2.24.25.04-.14.32-.03.34-.13.04-.25-.53-1.75-.64-2.15-1.03-3.93-1.84-10.66-.57-14.52.51-1.54,1.17-1.92,2.73-1.5,2.06.55,3.92,1.97,5.58,3.25v.02Z"/>
    <path class="st8" d="M51.46,85.82s.28.25.33.3c1.92,1.62,7.25,1.98,9.83,2.43,1.74.3,6.09.84,7.36,1.76.63.46.95,1.48,1.24,2.18,0,.14-.04.23-.17.19-.85-.29-1.7-.54-2.57-.76-.12.62-.33,1.21-.55,1.8l-.26.21c-.26.48-.46,1.02-.61,1.6-.07.16-.2.24-.39.23-2.96-2.01-5.99-3.9-9.08-5.67-1.65-.87-3.34-1.38-5.18-1.49-.14-.06-.15-2.07-.13-2.36.03-.16.09-.29.17-.42h.01Z"/>
    <path class="st185" d="M80.71,110.75c1.42-1.96,5.09-3.23,7.19-1.74.1.07.21,0,.16.22-.87-.13-1.72-.39-2.61-.33-.16.63-.77,1.89-.22,2.45.15.15,1.26-.02,1.61,0,1.76.09,4.32,1.23,4.26,3.3-.85,1.16-2.68,1.82-4.06,2.03-2.41.36-5.58-.43-6.73-2.78-1.4.55-2.84.85-4.34.67l4.23-1.18c-.15-.49-.13-1.11,0-1.6-.28-.16.21-1.12.51-1.01v-.03Z"/>
    <path class="st105" d="M96.43,78.13c.72-2.04-.48-6.58-2.45-7.69,2.64-.89,6.64-.56,7.48,2.62.39,1.48.08,3.03-1.15,4.01-1.13.89-2.53.82-3.88,1.06Z"/>
    <path class="st98" d="M53.57,104.33c-1.34.92-1.93,1.42-3.67,1.52-2.17.13-2.61-.2-4.36-1.19-.05-.26.13-.16.34-.17l3.03-.98c2.09-.81,3.2-2.58,4.03-4.5,1.07-.48,1.96-1.04,2.71-1.96h.21c.06-.04.14-.08.18-.04.21.22-.02,1.97-.09,2.34-.34,1.79-1.18,3.49-2.56,4.71.14.04.21.09.18.26h0Z"/>
    <path class="st192" d="M51.29,86.24l.18,2.27c1.72-.06,3.18.46,4.7,1.18,3.4,1.59,6.37,3.97,9.55,5.92.39.06.36-1.62.95-1.68.1.05.13.17.08.34l-.55,1.6c-.28.38-.81.05-1.13-.13-3.92-2.21-9.13-6.98-13.82-6.89-.35,0-.97.26-1.31.38,1.15.32,2.18.96,3.04,1.77l-.34.13c-.1.21-.16.21-.25,0l-.35-.06c-1.43-1.16-3.07-1.69-4.88-1.37-.14-.02-.16-.12-.09-.25.97-.22,1.7-.07,2.6-.31.24-.07,1.66-.38,1.71-.45.02-.03-.17-.53-.18-.72,0-.35.03-1.41.09-1.73h0Z"/>
    <path class="st22" d="M47.07,89.45c.09.16.3.07.44.06.9-.09,1.46-.11,2.33.17s1.84.87,2.55,1.46l-.12.19c-.77.32-1.51.73-2.21,1.23-1.47-.82-2.92-1.66-4.35-2.52v-.17c.32-.03.94-.33,1.35-.42h.01Z"/>
    <path class="st99" d="M88.57,72.29c.07.22-.4.31-.51.46-.18.24-.05,2.15-.08,2.63-.09,1.89-.32,3.86-.61,5.73-.26,1.74-.68,4.56-1.3,6.14-.38.97-1.12.04-1.67-.27-.42-.23-.95-.53-1.38-.73-.34-.16-1.16-.58-1.47-.31s-.06,1.53-.08,1.94c0,.13.06.25-.13.21-.3-.17-.44-1.64-.38-1.98.02-.09.4-.68.44-.7.79-.45,3.3,1.28,4.01,1.74l.24-.07c.71-2.64,1.23-5.36,1.55-8.08.14-1.16.27-2.46.35-3.62.03-.48-.14-2.56.25-2.75.21-.1.56-.21.76-.34h0Z"/>
    <path class="st4" d="M56.28,96.13c.08.26.16.71.17.97.08,1.95-.5,4.09-1.52,5.74-.14.23-.73.66-.34.81-.38.24-.65.43-1.01.68l-.51-.21c1.9-1.52,2.91-4.19,2.87-6.59,0-.14.05-.38-.09-.46-.18-.17.18-.93.42-.93h.01Z"/>
    <path class="st40" d="M94.4,101.03c-.12.53-.11,1.09-.18,1.63-.21,1.51-.82,3.06-1.59,4.37-.31.53-.68,1.08-1.1,1.52-.05-.07-.35.02-.18-.47.19-.52.91-1.36,1.2-1.93.89-1.73,1.28-3.69,1.25-5.64.16.15.4.34.59.51h.01Z"/>
    <path class="st65" d="M88.48,125.96c-1.06-.16-1.95-1.21-1.94-2.28.23-.05.14.07.21.17.29.44.46.79.89,1.14.36.29.72.4,1.1.63-.09.1-.07.16-.25.34h0Z"/>
    <path class="st170" d="M57.97,101.28c-.02-.08-.2-.05-.17-.17.7,0,.17,1.29.25,1.77-.15,0-.08-.31-.08-.42,0-.29.06-.98,0-1.18Z"/>
    <path class="st161" d="M82,60.45c-1.43.91-2.75,1.71-4.23,2.54l-.21-.07c-.32-.51-.71-.98-1.18-1.4l.04-.22c-1.08-1.36-1.96-3.05-3.04-4.48.58-1.8,1.23-3.71,2.25-5.32.26-.41,1.17-1.7,1.6-1.78.78-.14,1.43.72,1.83,1.29.51.71.91,1.59,1.23,2.41.88,2.25,1.43,4.63,1.71,7.04h0Z"/>
    <path class="st74" d="M70.22,92.49c.11.03.23.14.34.17h.42c4.12.91,8.47,1.71,12.59,1.77.32.27,1.44.19,1.91.17,1.16-.03,3.18-.13,4.26-.43.25-.05.16.13.17.29.02.77-.02,1.06.34,1.78.09.18.37.46.42.59.09.25-.48.03-.51.21l-.32.18c-1.15.11-2.28.19-3.4.25-.61-.32-.74-.1-1.27-.08-.1.05-.19.09-.3.12s-.2.06-.3.06c-4.12.13-8.48-.46-12.38-1.55-.45-.03-.83-.13-1.14-.32-.03,0-.09-.15-.2-.18-1.39-.39-2.74-.82-4.11-1.25-.04-.01-.12.01-.17,0-.03-.14.04-.23.08-.34.27-.71.54-1.44.68-2.19.11-.09,2.37.68,2.73.78.1.03.14-.03.14-.03h.02Z"/>
    <path class="st92" d="M83.58,94.44c.08.27-.51.18-.64.17-4.23-.25-8.29-.85-12.38-1.95.07-.26.35-.51.55-.68,2.48-2.21,5.06-2.96,8.37-2.87.3,0,.71.26.88-.08.51,1.28,1.4,2.89,2.18,4.03.2.29.82,1.19,1.03,1.38h0Z"/>
    <path class="st9" d="M73.59,70.63c4.83-.66,5.52,6.48,1.07,7.07-4.99.66-5.63-6.45-1.07-7.07Z"/>
    <path class="st51" d="M65.14,83.21c-.07-.04-.55-.01-.75-.05-.36-.07-1.22-.43-1.18-.85.05-.57.67.08.85.17,1.19.62,2.46-.33,3.21-1.19.13-.14.29-.53.42-.59.31-.15.73.1,1.06.13,1.27.1,3.08-.07,3.64-1.43.08-.2-.05-.6.4-.5.67.16-.26,1.28-.27,1.46-.02.31.3,1.16.33,1.61.13,1.66-.13,3.36-1.69,4.23-2.43,1.35-4.47-.61-5.78-2.5-.08-.12-.21-.47-.23-.49h0Z"/>
    <path class="st115" d="M79.84,75.45c1-.12,2.47.04,2.31,1.37-.12.99-1.92,1.75-2.77,1.88-.65.1-2.01,0-2.26-.74-.49-1.44,1.57-2.37,2.72-2.51Z"/>
    <path class="st81" d="M57.27,83.13c1.02-.13,3.07.03,2.49,1.56-.54,1.43-3.9,2.35-4.84,1-.83-1.2,1.33-2.43,2.35-2.56Z"/>
    <path class="st119" d="M65.18,79.2c-1.27-1.26,1.93-2.32,2.82-2.33,1.65-.02.39,2.69-.69,2.86-.58.09-1.69-.1-2.12-.53h0Z"/>
    <path class="st178" d="M56.53,80.83c.04-.38.48-.01.65.18,1.02,1.41,2.38,1.68,3.91.87.25-.13.92-.5.68-.79-.06-.25.4-.88.68-.93.18-.75.2-1.36,0-2.11l-.2-.04c-.23-.43-.58-.81-1.02-1.03l-.04-.2c-.45-.1-.91-.18-1.37-.1l-.07-.07c0-.29.76-.32,1.04-.32.78.17-.02-.22-.37-.31-2.87-.74-4.76,2.18-3.75,4.71l-.13.15c-2.31-4.08,3.5-7.46,5.99-3.83,2.69,3.92-3.48,8.25-5.99,3.83h-.01Z"/>
    <path class="st139" d="M69.72,87.76c1.34.06,2.33-.37,3.3-1.27-.15,1.63-2.11,2.32-3.3,1.27Z"/>
    <path class="st87" d="M85.18,97.4l.3.09c-1.2,1.23-3.8,1.76-4.86,2.96l-.15.1c-1.25-.07-2.69.64-3.75,1.28-.58.35-.81.59-1.06,1.25l-.2-.02c.04.06.06.17,0,.18-.96.35-1.96.6-2.98.83-.1-.09-.2-.12-.33-.08h-.17c.06-2.8-.38-5.56-.93-8.28,1.06,0,2.28.5,3.36.73,3.39.72,7.28,1.06,10.75.96h.02Z"/>
    <path class="st41" d="M77.07,106.02c.54.03,1.08-.01,1.62-.12l.16.12c.25-.05.15.12.18.28.3,1.64.73,3.06,1.68,4.45-.19.26-.43.71-.51,1.01-.89.2-1.76.54-2.67.66-2.62.36-4.99-.27-7.2-1.65-.12-.08-.28.06-.1-.19.34-.04.94-.03,1.14-.34.32-.5.4-2.14.47-2.78l.09-.2c1.58-.33,3.2-.69,4.75-1.3l.4.05h-.01Z"/>
    <path class="st72" d="M52.39,91.14c.08-.01.17,0,.25,0,2.95-.2,4.63,2.26,3.63,4.99-.08.21-.3.77-.42.93-.21.29-1.14,1.17-1.44,1.39s-1.26.58-1.35.68c-.19.22-.58,1.32-.82,1.72-.77,1.25-1.99,2.35-3.38,2.88-.78.29-2.18.73-2.98.78.24-.12.49-.2.73-.32.78-.41,1.22-.65,2.03-1.01,1.38-.61,2.67-1.7,3.35-3.07.16-.32.41-1.29.52-1.42.09-.1,1.03-.39,1.3-.56.82-.51,1.91-1.87,2.08-2.82.49-2.67-2.13-4.41-4.43-3.08-.51.3-.82.75-1.31.97-1.48-1.01-3.1-1.84-4.45-3.01-.1-.08,0-.12,0-.12,1.57.53,2.9,1.59,4.35,2.37.71-.45,1.45-1.15,2.32-1.27v-.03Z"/>
    <path class="st67" d="M75.47,103.06c.19-.06.31.06.34.38.03.87.5,1.64,1.02,2.31.31-.05.65.3.25.27-1.17.35-2.32.82-3.52,1.09-.58.13-1.21.11-1.72.35.11-1.11.24-2.21.17-3.33l.34-.05c.02-.13-.08-.07-.17-.08.61-.18,1.25-.29,1.86-.47.24-.07,1.31-.38,1.44-.46h0Z"/>
    <path class="st64" d="M66.03,102.5c-.87.84-1.82,1.61-2.87,2.24-.33.2-1.73.99-2.01.92-.29-.08-.88-1.23-.83-1.55.05-.28,1.11-.78,1.4-.98,1.63-1.11,3.11-2.4,4.5-3.79.13-.04.2.04.28.11.09.08.93,1.07.97,1.15.03.07.05.11.04.2-.02.31-1.2,1.42-1.49,1.69h0Z"/>
    <path class="st194" d="M69.94,104.53c.83.86-.56,2.69-1.27,1.4-.53-.96.48-2.23,1.27-1.4Z"/>
    <path class="st93" d="M69.27,99.19c1.22-.37,1.3,1.63.64,1.9-1.22.5-1.5-1.65-.64-1.9Z"/>
    <path class="st170" d="M59.83,97.4c-.1.87-.43,1.64-.86,2.39-.13.23-.75,1.24-.95,1.24-.1,0-.4-.12-.34-.25.08-.17.63-.73.79-.99.22-.35.52-.87.71-1.24.17-.35.21-1.04.66-1.16h0Z"/>
    <path class="st4" d="M92.96,90.04c-.11.14-.22.29-.34.42-.07.05-.15.09-.23.13s-.15.07-.23.07c-1.83.17-3.52.27-5.34.13-.4-.03-.22.56-.12.61,1.59.19,3.2.14,4.8.07l.11.17c-.13.17-.31.35-.42.51h-3.26c-.37-.13-1.59-.04-1.77-.34-.13-.22-.21-1.35-.09-1.52l6.89-.25Z"/>
    <path class="st195" d="M93.72,79.22c-.11.08-.23-.09-.25-.21-.09-.48.04-1.24,0-1.77-.11-1.47-.8-3.5-2.02-4.4-.55-.4-1.28-.5-1.86-.76-.12-.37.48-.32.7-.27,2.56.51,3.7,3.8,3.61,6.11,0,.18-.12,1.27-.17,1.31h-.01Z"/>
    <path class="st182" d="M52.84,62.05c-.08.93-.13,1.9-.17,2.83-.06,1.39-.04,2.8-.08,4.19-.22.9-.42,1.86-.08,2.79.04.2-.09.19-.23.23-.45.12-1.23.18-1.71.19-.12,0-.45.05-.52-.05-.56-1.75-1.15-3.45-1.48-5.26-.36-1.92-.7-4.63-.24-6.53.09-.39.31-.95.77-1.01.87-.12,3.15,1.93,3.75,2.62h0Z"/>
    <path class="st184" d="M71.04,50.71c1.04.79,2.45,2.67,3.26,3.74l.24.11c1.07,1.47,2.1,2.98,3.1,4.52l.12.46c.15.24.08.3-.17.37-5.98,0-12.27,1.33-17.91,3.62-3.06,1.24-5.4,2.66-8.15,4.4-.2.13-.43.19-.66.24-.1-.5-.07-1.25,0-1.82-.07.57-.12,1.36.03,1.88l-.22.13c-.05-.11-.09-.23-.12-.34s-.06-.23-.06-.34c0-2.24.05-4.49.22-6.72,0-.1.05-.19.09-.29s.1-.19.15-.28c-.26-.87.03-2.15.3-3.04.13-.44.52-1.58.83-1.84.09-.07.2-.1.31-.11.76-1,2.21-1.95,3.5-1.92.68,0,1.61.43,2.3.49,2.42.2,4.21-2.47,6.11-3.6,2.15-1.28,4.7-1.2,6.71.33h.02Z"/>
    <path class="st42" d="M86.03,127.06c-.65.08-.83-.04-1.22-.51-.46-.56-.63-1.12-.56-1.85.32.38.39.83.72,1.26.27.36.66.56.93.85.08.08.15.12.12.26h0Z"/>
    <path class="st63" d="M80.62,100.44c-.73.83-1.51,2.64-1.6,3.76-.04.48.09,1.26,0,1.67-.01.05-.12.12-.17.15-.27.13-1.74.32-1.77,0,0,0,.08-.04.09-.08-.14,0-.3.03-.42-.04-.22-.13-.88-1.35-.97-1.65-.12-.4-.05-.88-.3-1.18.11-.07.3-.63.46-.85.39-.5,2.43-1.45,3.09-1.65.5-.15,1.1-.34,1.61-.13h-.02Z"/>
    <path class="st1" d="M89.47,55.22c-.06.16-.13.31-.21.46s-.16.29-.26.41c-2.62,3.18-5.67,6.04-8.63,8.79l-.21.03c-1.7,1.51-4.12,3.14-6.05,4.42-.51.71-1.55,1.39-2.4,1.54-3.68,2.17-7.08,3.6-11.33,4.32l-.19.23c-1.02.21-2.04.33-3.08.35-.12-.15-.31-.18-.57-.1-.4-.02-.82.1-1.1.1h-2.5s-.16-.09-.28-.1c-.32-.01-.87-.04-1.16,0-.21.03-.12.18-.23.3-.2-.04-.28-.21-.09-.26-4.02-.21-8.16-1.2-11.88-2.56l-.04-.25c1.54-.27,3.13-.26,4.7-.38.63-.27,1.33-.41,2.1-.44.79-.07,1.56-.09,2.32-.04l.13-.2c.7-.04,1.42-.1,2.08-.28.05-.06.13-.1.19-.07.22.11,4.06-.73,4.82-.91,3.05-.7,6.04-1.55,9.01-2.6,4.85-1.71,9.1-3.84,13.66-6.15.33-.17.68-.26,1.03-.35.06-.09.13-.18.2-.26s.14-.15.23-.2c1.24-.76,2.5-1.52,3.76-2.26.09-.05.19-.08.29-.11s.21-.04.32-.05c1.13-.72,2.23-1.49,3.36-2.21.7-.45,1.25-.82,2.02-1.15v-.02Z"/>
    <path class="st96" d="M90.17,97.06c.21,0,.46-.05.64.08.15.11.64.88.84,1.11.38.43.86,1.06,1.23,1.44-.21.71-.83.87-1.51.7-.87-.21-2.75-1.34-3.54-1.87-.46-.31-.9-.78-1.38-1.03-.05-.26.13-.16.29-.17,1.14-.04,2.34-.24,3.43-.25h0Z"/>
    <path class="st33" d="M90.68,95.79c-.39-.04-.37-.85-.33-1.13.18-1.46,3.7-5.48,5.13-5.94s3.54.45,4.74,1.3c1.28.9.96,2.12.31,3.33-.98,1.82-2.34,2.73-4.44,2.07-1.52-.48-2.88-1.98-4.6-1.21-.71.32-.83.86-.81,1.59h0Z"/>
    <path class="st138" d="M92.62,90.47c-.32.37-.72.81-1.01,1.18l-2.84.09c-.41-.18-2.18.07-2.31-.31-.04-.11-.04-.62.03-.71.14-.2.7,0,.93,0,1.75.06,3.47-.15,5.2-.26h0Z"/>
    <path class="st49" d="M84.85,108.98c-.06.43-.3.67-.34,1.14-.05.56.04.98.26,1.48-.85.1-1.49.63-2.15,1.1-.62-.67-.59-2.01-.11-2.73.4-.62,1.68-.81,2.35-.99h-.01Z"/>
    <path class="st102" d="M81.72,110.58s-.08.28-.08.38c-.02.49,0,.96.19,1.41.28.66.65.55,0,1.31l-.32,1.03c-1.24-1.48-1.26-2.6.02-4.03.03-.04.07-.25.19-.11h0Z"/>
    <path class="st148" d="M73.5,72.15c3.17-.14,3.44,4.65.4,4.97-3.4.36-3.67-4.82-.4-4.97Z"/>
    <path class="st25" d="M72.25,81.93c.21,1.58-.1,3.5-1.86,4.01-1,.29-1.99.12-2.7-.63-.26-.54.35-1.35.74-1.78.91-1.01,2.3-1.59,3.63-1.75l.2.15h0Z"/>
    <path class="st84" d="M67.69,85.31c-.32-.34-.23-.15-.58-.39-.2-.14-1.26-1.43-1.26-1.58,0-.48.65-.62.94-.83.47-.34.84-.73,1.16-1.22,1,.14,1.99.25,2.97-.07,1.06-.34,1.13-.9,1.34.7-1.91.14-4.18,1.37-4.56,3.38h-.01Z"/>
    <path class="st190" d="M61.18,76.77c.54.21,1.04.74,1.27,1.27.19.74.2,1.35,0,2.11-.11.25-.47.77-.68.93.08.24-.19.36-.34.17-.79.29-1.59.35-2.37,0-.37.16-.79-.39-1-.69-.6-.9-.56-2.15.06-3.03.22-.3.65-.84,1.02-.68.67-.26,1.34-.27,2.03-.08h0Z"/>
    <path class="st9" d="M56.53,80.83c-.06-.07-.35-1.54-.34-1.73,0-1.76,1.71-3.61,3.51-3.43.19.02.9.16,1.06.21.08.02,1.27.86,1.34.94.14.15.17.43.17.63-.34-.26-.9-.91-1.33-1-.16-.03-.99.09-1.21.15-.11.13-.31.21-.59.25-1.74.92-1.8,3.45-.08,4.39.78.35,1.58.29,2.37,0,.07-.04.32-.15.34-.17.57-.02.14.42-.06.58-.53.41-1.32.83-2,.83-.11,0-.83-.05-.92-.07-1.01-.18-1.41-1.11-2.02-1.55-.09-.06-.24-.04-.25-.05v.02Z"/>
    <path class="st79" d="M62.45,80.15c-.15-.33.09-.65.09-1.06s-.2-.72-.09-1.06c.33.74.33,1.37,0,2.11h0Z"/>
    <path class="st197" d="M61.18,76.77l-.89-.09-1.14.18c.07-.04.56-.25.59-.25.42-.07,1.04.01,1.44.17h0Z"/>
    <path class="st106" d="M66.41,99.94c.11.43.81.56.52,1.05-.14.24-1.4,1.43-1.69,1.69-.86.76-2.54,2.02-3.59,2.41-.12.04-.26.12-.38.04-.06-.04-.57-.82-.34-.94,1.43-.97,2.86-1.96,4.15-3.12.31-.28.75-.86,1.05-1.06.09-.06.19-.13.29-.07h0Z"/>
    <path class="st153" d="M99.19,91.42c1.16-.02,1.23,1.9-.26,1.66-.87-.14-.83-1.64.26-1.66Z"/>
    <path class="st188" d="M72.15,73.32c.79-.14.9,1.08.23,1.17-.77.11-.97-1.04-.23-1.17Z"/>
    <path class="st147" d="M58.79,77.8c.87-.18,1.02,1.12.13,1.15-.6.02-.77-1.02-.13-1.15Z"/>
    <path class="st186" d="M61.44,81.25c-.81.42-1.56.45-2.37,0l.73.16h.59l1.05-.16Z"/>
    <path class="st159" d="M77.76,59.54c.5.63,1.25,1.11,1.54,1.92-7.03,3.94-14.49,7.08-22.35,9-2.07.51-4.18.81-6.26,1.27.02-.09-.09-.15-.1-.19-.55-.33-.42-1.51-.32-2.12,0-.49.15-.84.42-1.05.14-.6.07-1.07.1-1.68,0-.12-.07-.36.1-.34v1.82c1.63-1.21,3.38-2.28,5.19-3.21,5.96-3.04,12.93-4.84,19.63-5.24.57-.03,1.18.05,1.74,0,.19-.02.24,0,.33-.2l-.02.02Z"/>
    <path class="st6" d="M71.04,58.11c.16.25-.14.34-.34.37-2.23.28-5.33-.8-6.51-2.78-.25-.42-.8-1.78-.25-2.06.45-.23.43.51.56.79.75,1.54,2.52,2.68,4.13,3.17.38.12,2.35.41,2.42.51h0Z"/>
    <path class="st110" d="M53.76,64.24c-.12-.46.2-.55.37-.83.89-1.5,1.75-3.09,1.84-4.88.02-.37-.19-2.35-.09-2.45.24-.23.6.3.69.51.82,1.93-.09,4.88-1.37,6.45-.12.15-1.3,1.36-1.44,1.2Z"/>
  </g>
  <g>
    <path class="st140" d="M52.77,116.19l.22-.16c.74-.02,1.61.03,2.35.09.83.06,3.11.23,3.73.68.08.06.1.16.12.24.2-.02.47.11.65.22,1.2.82,2.58,4.29,2.92,5.73l-.1.22.24.18c.51,1.26.92,2.55,1.24,3.87l-.13.27c.32.26.32,1.04.26,1.47-.08.53-.26.85-.6,1.23-2.21.5-6.8-.02-9.16-.35-3.62-.51-4.99-1.4-6.74-4.58-1.12-2.02-2.53-4.97-3.2-7.16-.5-1.85,1.46-2.28,2.87-2.03.07-.05.14-.09.21-.12s.14-.06.21-.07c1.66-.07,3.26.07,4.9.27h0Z"/>
    <path class="st47" d="M67.73,105.62c-.07.18-.29.21-.67.09-.59.29-.95.88-1.29,1.42l-1.07,1.89-.27.14c-.17-.02-.24-.16-.23-.43-.15-.13-1.77,3.17-1.89,3.47-1.62,2.93-3.26,3.58-6.48,3.58-1.57-.13-3.13-.15-4.68-.07.29.22.76.25,1.17.17.24,0,.54.03.46.31-1.71-.07-3.63-.18-5.32-.08-.64.1-2.89-1.01-3.07-1.43-.03-.06-.04-.12-.05-.18.48-2.13,3.34-6.41,4.78-8.19,2.36-2.92,4.6-2.9,8.11-3.05s8.44-.91,10.52,2.36h-.02Z"/>
    <path class="st36" d="M67.73,105.62c.5.78.78,1.54,1.1,2.41,1.01,2.72,2.49,7.13,2.28,9.98-.17,2.33-2.85,8.44-4.31,10.27-1.12.87-2.1-.89-2.2-1.86-.06-.02-.11-.05-.16-.08-.24-.17-1.11-2.64-1.25-3.14l.06-.33-.24-.17c-.58-1.36-1.8-4.89-1.63-6.27.02-.17.09-.35.18-.49l-.15-.21c.48-2.2,1.59-4.55,2.78-6.46l.24-.09c.42-.77.92-1.72,1.4-2.44.32-.48.64-.95,1.2-1.18l.7.07h0Z"/>
    <path class="st13" d="M66.8,128.27c-.91,1.14-1.69,1.62-3.13,1.94l-.17-.13c.8-.61.64-1.7.51-2.58.37-.02.52-.35.43-1l.16-.1c.28.61.85,1.91,1.57,1.95l.63-.09h0Z"/>
    <path class="st90" d="M47.45,116.1c-.69.04-1.77.13-2.36.55-.64.47-.3.84-.51,1.47-.42-1.38-.58-2.19-.25-3.63.82.62,1.76,1.05,2.69,1.49.15.07.24.16.43.12Z"/>
    <path class="st151" d="M52.77,116.19c-.35-.28-.72-.04-1.12-.1-.31-.05-.74-.3-1.08-.32.13-.2.7-.24.97-.26,3.62-.24,7.42,1.24,9.93-2.24.94-1.31,1.55-3.25,2.45-4.48.05-.06.34-.39.42-.3l.08.68c-.95,1.72-2.72,4.87-2.87,6.76-.12.69-.41,1.03-.87,1.04-.44.36-.77.41-1.25.09l-.25-.03c-1.64-.81-4.57-.77-6.42-.85h0Z"/>
    <path class="st145" d="M56.39,118.49c1.08-.22,2.85.73,2.98,1.88.24,2.11-3.02,1.17-3.59-.29-.24-.62-.14-1.43.61-1.59Z"/>
    <path class="st100" d="M47.68,118.06c1.13-.12,2.91,1.24,2.6,2.43-.42,1.61-3.81-.05-3.49-1.71.08-.44.47-.67.89-.72Z"/>
    <path class="st38" d="M59.34,126.09c1.16-.21,3.16.87,2.86,2.18-.34,1.53-3.67.25-3.61-1.4.02-.37.38-.72.74-.78h0Z"/>
    <path class="st198" d="M50.81,125.42c1.14-.21,3.22,1.21,2.57,2.41-.65,1.2-3.4-.36-3.31-1.61.03-.39.36-.72.73-.79h.01Z"/>
    <path class="st76" d="M63.25,122.86c.1.4-.37.69-.59.34-.65-1.86-1.61-5.25-3.47-6.17.3-.21.51.13.88.08.23-.03.36-.22.55-.3.13-.06.33,0,.41-.05.07-.05.3-.76.52-.83-.17,2.11.96,4.93,1.69,6.93h.01Z"/>
    <path class="st114" d="M64.61,126.41c.04.39,0,1.61-.59,1.1-.2-1.33-.9-3.01-1.35-4.31.28.05.46-.1.59-.34.4,1.11.87,2.49,1.35,3.55Z"/>
    <path class="st35" d="M58.25,111.05c1.94-.26,2.24,1.22.76,2.2-.66.44-2.08.85-2.73.23-1.06-1.01,1.04-2.31,1.97-2.43Z"/>
    <path class="st43" d="M49.46,110.97c.49-.03,1.18.08,1.2.7.06,1.45-3.3,2.74-3.69,1.48-.33-1.08,1.59-2.12,2.48-2.18h0Z"/>
    <path class="st154" d="M53.56,109.91c-.11-.13-.12-.36-.12-.53.06-1.36,3.1-2.39,3.58-1.29.6,1.37-2.68,2.76-3.46,1.81h0Z"/>
    <path class="st35" d="M61.71,104.54c2.4-.38,1.91,1.64.13,2.24-.75.25-2.36.34-2.11-.84.14-.65,1.38-1.3,1.99-1.39h-.01Z"/>
    <path class="st179" d="M53.35,104.72c1.86-.21,1.34,1.26.16,1.93-.55.31-2.23.81-2.41-.08-.19-.95,1.47-1.77,2.25-1.86h0Z"/>
    <path class="st80" d="M63.45,114.78c.73-.71,1.25.72,1.31,1.29.07.62-.1,2.9-1.14,2.41-.9-.43-.86-3.04-.18-3.7h0Z"/>
    <path class="st134" d="M66.61,122.29c.62-.06.81,1.45.79,1.89-.02.51-.41,2.42-1.19,1.78s-.56-3.57.4-3.67Z"/>
    <path class="st80" d="M66.93,115.12c.82,0,.86,1.92.8,2.46-.05.48-.45,1.67-1.1,1.18-.78-.59-.64-3.63.29-3.64h0Z"/>
    <path class="st35" d="M67.2,108.08c.62-.17.93,1.2.96,1.63.04.55-.12,2.57-1.07,1.99-.72-.44-.79-3.38.11-3.63h0Z"/>
    <path class="st134" d="M69.57,115.69c.55-.16.84,1.07.87,1.47.04.5-.14,2.39-.93,2.03s-.66-3.28.06-3.5Z"/>
  </g>
  <path class="st191" d="M91.3,54.98c-.83-.25-1.13-.06-1.83.24-2.29,2.82-4.81,5.44-7.49,7.89,1.56,1.73,2.95,3.74,4.11,5.96.06.05.12.1.18.15.13.02,1.74-1.58,1.95-1.81,1.64-1.8,3.37-4.43,4.01-6.8.4-1.49,1.04-5.05-.93-5.64h0Z"/>
  <path class="st125" d="M49.76,77.03c-.26-.7-.3-.57-.13-1.11.04-.12-.24-.73-.22-.85-3.59-.24-5.37-.6-8.8-1.66-.44-.14-.96-.26-1.34-.53-.71.12-1.31.05-1.82.72-.88,1.14.28,2.76,1.15,3.55,2.49,2.27,6.68,3.74,9.99,4.18.2.03.86.15,1.32.17-.15-1.52-.19-3.01-.13-4.47h-.02Z"/>
  <g>
    <line class="st10" x1="150.61" y1="2.43" x2="150.61" y2="2.5"/>
    <line class="st10" x1="9.49" y1="63.31" x2="9.39" y2="63.31"/>
    <path class="st158" d="M49.8,22.3c.11-.1.2-.13.32-.05.12.02,1.89.99,1.94,1.08.23.42.35,1.98.36,2.51l-.15.27.23.09c.1.35.25.73.79.74,2.66-.14,5.35-.23,8.09-.28l.33.09c.33-.07,1.11.28,1.03.55l.4.09c.54.65,1.27.71,2.21.67,1.1-.15,2.21-.23,3.32-.24-.14-1.35-.25-2.71-.28-4.07,0-.09.22-.28.34-.31l25.25-1.2.14.15c.31.3.38,1.24,0,1.5.21.16.15.43-.18.82,4.48-.21,8.95-.43,13.43-.66,1.29.29,2.56.67,3.79,1.14.73.16,1.49.16,2.29,0,4.71-.75,9.71-1.07,14.63-1.14.32-.18.63-.41.89-.65l.23.02c.28-.24.69.05.31.24.08.1.15.2.15.32.02.39-.05,2.98-.21,3.08-.07.04-.16.02-.25,0l-.06.16-17.82.54,17.66.48.12.16.2.1c-.1.76-.1,1.52.01,2.28.29.36.59.73.9,1.09-.17.31-.19.67-.06,1.07l-.14.05.21.13c.07.79.07,1.59,0,2.38l-.21.11c-.04.21-.25.47-.31.75-.35,1.74-.05,3.74-.44,5.52-.11.53-.91,1.04-1.41,1.41,0,.22-.5.44-.72.24l-.54.23c-2.37.27-4.73.54-7.1.81-.45.35-.97.54-1.62.55-2.44.03-4.88,0-7.32-.1-4.99.12-10,.19-15.01.22,7.17.3,14.27.44,21.28.41.49-.06,1.53.19.87.58l.06.17-1.04,1.17c-.18.15-.37.27-.56.08l-.66.28-8.57,1.5c-.78-.17-1.43-.58-1.94-1.22l-.27-.17-2.22,1.21c-1.15.29-2.38.31-3.67.07-3.39,0-6.78,0-10.16-.02-1.35-.19-2.46-.33-3.48.51-.98.09-1.99.06-3.03-.1-2.77-.36-5.57-.68-8.3-.92-.31-.24-.59-.51-.83-.82-1.5-.11-3.01-.11-4.54-.01-.39-.11-.67-.35-.82-.71-.24.73-.91.71-1.74.6-1.72-.25-3.47-.39-5.23-.41-1.97-.15-2.65-.23-3.81-1.53l-.24-.08c-1.03.08-2.06.18-3.1.28.08,1.07.13,2.14.16,3.21,0,.64-.56,1.01-1.65,1.09-2.56.58-6.56,1.35-9.17,1.42-.34,0-.79,0-1.08-.14-.08.14-.69-.01-.9-.11-1.19-.9-2.45-1.63-4.19-1.69-1.84-.05-3.63-.25-5.36-.6l-.21-.21-.19.11c-.26-.05-1.36-.52-1.25-.74-.11-.07-1.01-.81-1.03-.87-.31-.06-.28-.32,0-.4.01-.2.21-.32.6-.35,4.4-.29,8.83-.44,13.32-.43-5.08-.23-10.05-.36-14.9-.4l-.35-.16c-.26.23-1.13-.48-.92-.71.13-4.21.4-8.44.83-12.7l.2-.68.06-.16,4.45-.17.02-.32c-1.41-.14-2.84-.19-4.3-.14l-.13-.16c-.05-.06-.09-.11-.12-.17s-.05-.11-.05-.17c.07-1.28.16-2.57.26-3.85,0-.05.04-.11.07-.16s.09-.11.14-.16l.06-.16,11.29-.49c-3.09-.2-6.18-.31-9.28-.33l-.64-.13.05-.17,6.46-1.1c.42-.39.72-.86.88-1.42.27-.6.7-.75,1.48-.55,3.79.07,7.52.13,11.19.17l.44.23Z"/>
    <path class="st142" d="M111.74,10.11l.18.14c-.03.3.05.61.14.9,1.08,2.97,2.11,5.88,2.25,9.03.04.85.1,3.09-.33,3.74-.05.08-.11.15-.18.21-.3.31-1.29.4-1.82.4-.59,0-1.16-.11-1.7-.28-1.06-.47-2.16-.8-3.3-1-3.92.32-7.86.55-11.79.69l-1.08-.05c.07-.46-.02-1.02,0-1.5-.2-.12-.24-.33-.11-.62-8.81.36-17.63.69-26.44.97l.19,4.21c0,.15-.1.23-.28.26l-4.36.22-.37-.14c-.26-.17-.82-.38-1.03-.55l-.33-.08c-.24-.39-.52-.65-1.11-.65-2.28-.02-4.58.07-6.89.28-.45.06-.82,0-1.1-.19-.21-.89-.13-1.8-.36-2.69-.68-.19-1.51-.93-2.1-1.11-.51-.3-1.04-.57-1.59-.8-2.12-.28-4.27-.35-6.46-.23l-.15-.16-.11-.26c.17-1.74.45-3.44.83-5.13l-.06-.23c1.41-1.91-1.43-2.95-3.53-3.03s-6.49.65-7.13,2.35c-.32.85.54,1.28,1.5,1.44l.09.18c.08.16-.02.37-.31.61,2.11,2.39-1.78,1.34-2.86.42-.32,0-.71-.93-.68-1.14,0-.07.03-.14.07-.2-.4-1.56,1.95-3.27,3.49-3.99,4.42-2.06,10.39-2.45,15.38-3.21,0,.45,0,.95.11,1.38.14.55.55-.16.66-.35.18-.32.24-.79.48-1.06.44-.49,2.82-.66,3.64-.75,6.32-.71,13-.91,19.37-1.04,3.45-.07,8.91-.4,12.17.18,2.46.44,4.81,2.22,7.54,1.26.47-.17,1.21-.76,1.57-.85.78-.19,3.68.12,4.66.21,4.52.41,8.95,1.21,13.29,2.21Z"/>
    <path class="st174" d="M112.97,10.26c1.03-.17,1.96-.63,2.97-.83,1.47-.29,5.14-.47,6.52-.12.16.04.46.12.56.22.2.19.46,1.09.66,1.13.37.06.4-1.08,1.62-.77,2.13.53,2.78,1.92,2.74,3.5-.02.71-.59,1.63.92,1.47-.03.72-.75.22-.87.24-.07.01-.73.85-.8.97-.13.24-.11.5-.18.69l.05.39c-.23.75-1.38,4.3-1.79,4.62-.06.05-.13.09-.21.13.16.4-.57,1.41-1.23,1.27-.03.21-.28.31-.73.3-2.25,0-4.51.13-6.76.41l-.2-.08c-.18.02-.43.03-.43-.13.57-4.19.56-8.6-1.16-12.6l-1.66-.63-.04-.19Z"/>
    <path class="st89" d="M52.55,50.12c.27-.06.67-.12.82-.32.41-.54-.21-3.79.03-3.9.86.17,2.77-.45,3.48-.2.39.14.98.95,1.43,1.19.8.43,4.32.43,5.49.51.85.06,2.22.35,2.98.32.59-.02.5-.3.75-.62.05-.07-.03-.13.17-.1.29.22.36.72.82.79,1.45.02,3.07-.22,4.51,0,.49.08.48.74.95.85.61.14,1.74.11,2.43.19,2.61.27,5.51.8,8.11.86.98.03.73-.26,1.38-.52,1.04-.41,1.99-.06,3.03-.03,3.21.1,6.44-.09,9.65,0,1.2.03,2.62.41,3.77-.01.48-.18,2.08-1.25,2.38-1.25.53,0,1.46,1.66,2.36,1.35l9.08-1.58-.04.25c-.47.45-1.35,1-1.98,1.19,0,.06-.01.11-.05.13-.95.44-3.84,1.17-4.91,1.24l-.3-.11c-.32.06-.78.06-1.13.12-.75.13-2.59.61-3.22.52-.52-.08-1.32-1.26-1.74-1.26s-1.62,1.17-2.47,1.26c-.76.08-1.53-.07-2.24-.08-2.74-.03-5.48.03-8.21,0-1.38-.01-2.93-.23-4.31-.09-.61.06-.56.63-1.12.64s-1.72-.25-2.38-.31c-1.35-.13-2.72-.19-4.07-.34-.78-.08-3.13-.3-3.69-.55-.31-.14-.39-.5-.64-.62-.92-.44-3.27.15-4.4,0-.41-.06-.66-.6-.82-.63-.26-.04-.27.46-.64.54-.23.05-.74.03-1.01.02-2.21-.06-4.42-.57-6.64-.65-.98-.35-1.03-1.25-2.28-1.25-.2,0-.39.08-.61.08-.33,0-2.15-.06-2.22.12,0,.65.63,3.21.07,3.6-.2.14-2.09.43-2.52.51-1.06.19-2.42.46-3.49.51l-1.35.12c-.39.15-2.85.69-3.12.61-.53-.14-1.46-.73-1.86-1.07-.52-.06-.83-.21-.95-.45"/>
    <path class="st14" d="M123.64,45.66l-.08.2c-.33.08-.66.17-.99.26-.05.11,2.23,1.27,2.58,1.28l.12.17c.23.37,1.31.89,1.49,1.19.06.09.08.14,0,.24-.23.28-4.15.8-4.16.99,0,.12.65.11.78.11,1.01-.03,2.34-.06,3.35.03,2.44.24,2.84,1.75,3.49,3.32s1.16,2.69.28,4.38c-.21.41-.56,1.03-1.23.99.45-1.55-.56-2.07-2.19-2.63-1.07-.37-2.6-.56-3.5-1.09-.34-.2-.56-.53-.97-.67-.5-.17-.87-.07-1.36-.14-1.25-.16-2.77-1.37-3.9-1.9-.16-.07-.27-.17-.48-.14-.3-.19-.54-.46-.74-.81-.73-.65-1.31-1.35-1.73-2.1.42,1.43.65,2.5.24,3.95l-.23.07c-.06.19-.82,1.5-.97,1.5-1.74-1.35-3.51-2.76-4.56-4.51,1.34-.25,3.31-.62,4.55-1.04,1.09-.36,1.87-1.04,2.73-1.65.03-.02.21-.04.36-.15.28-.22.96-1.19,1.18-1.27,1.91-.4,3.97-.6,5.95-.55Z"/>
    <path class="st57" d="M26.11,19.92c.11.04.19,0,.26-.1.49-.01,5.13,2.19,5.59,2.95.42.02.89.85.41.95-.08.05-.16.11-.25.15-.64.3-2.35.43-3.13.41l-.48-.13c-2.26-1.61-4.98-2.82-7.95-3.46,2.28.81,4.45,1.77,6.42,2.97.54.21.97.47,1.3.79l-.07.18c-.41.09-.8.18-1.17.27l-.3,7.69-.21.09c-.17-.06-.25-.24-.24-.56l-.72-.24c-.7-.47-1.44-.86-2.23-1.17-.21.11-.38.11-.51-.01l-.72-.24c.13-.13.36-.19.68-.17-.95-.53-1.62-1.01-.54-1.78l1.37-.76-2.15.4c-1.18.34-2.02-.93-2.18-1.66l.16-.15c-.46-1.37,1.38-1.32,2.26-2.14-.88-.1-2.26.43-3.03,0-.94-.83-1.64-1.95-2.56-2.77-.74-.66-1.75-1.06-2.51-1.7,0-.2,2.13-.53,2.44-.57,3.43-.42,6.79-.04,10.07.77Z"/>
    <path class="st44" d="M130.3,19.92c2.99-.77,6.22-1.17,9.37-.86.38.04,2.93.41,2.93.66-1.63.96-2.92,2.11-4.14,3.37-.19.19-.82,1.04-.95,1.1-.73.35-2.07-.11-2.9,0,.65.63,2.43.87,2.25,1.86-.03.15-.16.25-.2.36.26.19-.04.77-.2,1.01-.46.69-.72.82-1.75.71l-2.06-.42c.72.41,1.36.87,1.92,1.39-.08.48-.47.88-1.16,1.18.35-.04.58.02.68.16-.34.34-.78.02-1.33.16-.08.18-.28.33-.62.44l-1.34.81c-.56.13-.68.45-.35.98l-.15.15c-.11.2-.19.2-.31,0,0-.34.07-.83-.02-1.13-.08-.28-.65-.55-.82-.87-.28-.53-.12-1.95-.08-2.59-.29-.39-.23-.97.1-1.35,0-.01.1-.09.11-.19.07-1.06,0-2.16.2-3.21l.23-.29c1.92-1.16,4-1.94,6.18-2.73-2.3.53-4.7,1.3-6.46,2.53l-.25.02-.16.12c-1.65.11-3.29.16-4.94.17-.2-.05-.24-.14-.14-.29.58-.22,1.01-.83,1.23-1.27,1.34-.56,2.67-1.15,4-1.78.35-.17.73-.24,1.13-.2Z"/>
    <path class="st144" d="M32.16,50.01c.08-.16.24-.15.49.01,1.2.82,2.76,1.05,4.34,1.19l3.82.31c.94.15,2.88,1.11,3.64,1.62v.2c0,.27-1.46,1.58-1.59,1.58-.44-.35-.54-.92-.82-1.34-.09-.13-.11-.24-.36-.24.05-.8-.06-1.42-1.35-1.42-.71,0-.76.09-.89.65l-.22.06c-.21-.13.05-.4-.34-.31-1.06.61-2.53,1.76-3.86,1.93-.38.05-.87-.02-1.16.05-.2.05-.62.48-.84.62-2,1.21-6.67,1.01-6.1,3.8-1.48-.2-1.72-2.02-1.64-2.97.08-1.03.69-1.91,1.13-2.85.52-1.1.45-2.05,2.12-2.56.8-.24,2.78-.44,3.62-.33Z"/>
    <path class="st196" d="M49.8,22.3c-.63-.19-2.34-.06-3.13-.08-2.83-.07-5.67-.11-8.52-.15-.24,0-.49-.11-.71-.08-.71.07-.78,1.75-1.57,2.04l-6.59,1.13c-.24.25-.93.3-1.3.25.11.27.17.67-.14.86-.05,1.39-.13,3.12-.31,4.51.27.27.23.73-.1.95-.41,4.38-.6,8.73-.82,13.11,0,.15.11.32-.21.27l-.26-.02c-.24-.23-.5-1.22-.15-1.4-.25-1.58.4-3.43.42-5.03,0-.54-.19-1.27-.21-1.82-.01-.23-.06-.94,0-1.1.02-.07.22-.05.31-.13.11-.85.11-1.77,0-2.61-.28-.1-.28-.22,0-.32l.31-8c.51.03.98-.15,1.43-.24.09-.28.43-.3.72-.16,1.11-.21,2.26-.37,3.38-.55l.14-.18c.9-.07,1.76-.22,2.59-.45.37-.64.72-1.28,1.07-1.92l.21-.11c1.68-.01,3.36-.03,5.02-.05l.19.1c1.6-.02,5.84-.18,7.07.36.44.19.82.52,1.14.82Z"/>
    <path class="st101" d="M112.97,10.26l1.89.72c.69,1.78,1.18,3.64,1.39,5.5.29,2.58.04,4.53-.2,7.05-.01.15-.1.32.2.27-.67.33-1.7.48-2.46.32.61-2.83.31-5.77-.44-8.57-.36-1.34-.95-2.62-1.35-3.94-.14-.47-.37-1.03-.25-1.51.38.09.83.15,1.23.16Z"/>
    <path class="st120" d="M127.84,43.28c2.01-.23,4.8,1.26,6.62,1.82.26.32-1.44,1.18-1.77,1.33-.47.21-1.52.64-2.04.65-.68.01-1.33-.78-1.84-1.11-.12-.07-.17-.19-.36-.16-.09.07.31.58.39.69.17.22.7.59.43.78-.47.34-3.28.32-4,.28-.25-.02-.31,0-.55-.09s-2.53-1.25-2.53-1.37c.43-.22.96-.27,1.43-.44l.15-.23c1-.45,1.9-1.01,2.71-1.66l.63-.24c.28-.04.41-.2.72-.24Z"/>
    <path class="st58" d="M26.11,19.92c.3.04.22-.11.18-.26-.11-.42-.41-.94-.56-1.39-.38-1.13-.73-2.33-.75-3.5.12-.1,3.13.75,3.28.83.45.26.48,1.06.52,1.46.25.03.16,0,.22-.11.13-.27.1-.62.4-.84.07.28.48.96.62,1.35.08.02.08.05,0,.08l.1.24c.08.06.15.13.22.2s.12.14.15.22c.51,1.34,1.01,2.71,1.48,4.06.03.08.03.16.03.25s-.01.17-.03.26l-2.47-1.46c-1.06-.31-2.35-1.14-3.38-1.39Z"/>
    <path class="st107" d="M127.12,16.76l.21.2c.2-.45.15-1.08.78-1.37l3.11-.88c.04,1.16-.28,2.31-.64,3.42-.16.48-.63,1.27-.69,1.69-.03.21.26.09.41.12-1.61.41-3.44,1.53-4.96,2.15-.31.13-.14-.05-.17-.17.8-1.59,1.23-3.48,1.95-5.15Z"/>
    <path class="st137" d="M26.52,32.67c0,.11,0,.21,0,.32.1.86.11,1.75,0,2.61-.64,0-2.46-.67-2.55-1.17-.07-.38,1.68-1.14,1.94-1.52-.89.06-2.39.79-3.22.46-.49-.2-1.03-1.18-.97-1.59.05-.35.73-.92,1.11-1.09.04-.02.46-.14.49-.14.47-.04,1.88.96,2.39,1.21.21.1.62.18.71.24.18.12.09.48.1.67Z"/>
    <path class="st21" d="M41.8,51.68c.21.33.74.17,1.07.32.15.07.21.25.37.35.52.3,1.17.52,1.69.83.34-.05.72-.25,1.03-.31.24-.04,1.28-.1,1.45-.18.14-.07.21-.44.39-.53l.05.32c.41-.01.82.02,1.23,0l-4.62.87-2.84-1.56c-2.3-.32-5.91-.27-7.99-1.03-.4-.15-1.13-.69-1.47-.73-.15-.27-.61-.37-.82-.55-.39-.14-.46-.27-.21-.4,2.02.63,4.82.41,6.95.85,1.29.27,2.24,1.05,3.21,1.72.16.07.34.03.51.04Z"/>
    <path class="st32" d="M26,43.68c.08.53.02.98.41,1.43.13.14.76.68.92.71v.08c-.32.4-1.16,1.21-1.79,1.19-.58-.01-2.94-1.01-3.39-1.35-.23-.18-.43-.34-.35-.62l4.19-1.44Z"/>
    <path class="st122" d="M136.66,26.42c1.14.17,2.27,1.04,2.35,1.95.01.16-.11.91-.4.74-.45-1.31-2.01-.63-2.77.12-.64.64-.45,1.15-1.74,1.23-.18.01-1.03.04-1.02-.12,0-.13,1.47-.75,1.32-1.17-.03-.09-.66-.54-.8-.65-.13-.09-1.52-.86-1.33-.99,1,.02,2.43.67,3.39.44.57-.14.87-1.13,1.02-1.55Z"/>
    <path class="st109" d="M19.44,26.34c.11.34.7,1.52,1.12,1.63.92.22,2.61-.42,3.6-.44-.42.57-2.23,1.03-2.26,1.7-.02.5.99.8,1.34,1.19-.35.05-.77.06-1.13.04-1.38-.09-1.11-.82-1.85-1.46-.53-.46-1.8-.95-2.36-.32-.15.17-.34.85-.64.34-.58-1,1.12-2.28,2.18-2.67Z"/>
    <path class="st55" d="M132.77,30.61c.62.11,1.8.66,1.73,1.21-.05.34-.65,1.72-1.15,1.72-.82,0-1.96-.51-2.74-.6-.16-.02-.19.05-.2.05-.01.07-.05.07-.1,0-.16-.34-.32-.66-.16-1.03.91-.27,1.74-1.12,2.62-1.34Z"/>
    <path class="st12" d="M116.87,52.23c.23.61.61,2.6-.51,2.69-.13-.82-1.13-1.21-1.95-1.58.08-.28.31-1.51.31-1.78,0-.36-.68-2.36-.51-2.49.28-.22.61.64.74.82.6.81,1.56,1.41,1.93,2.35Z"/>
    <path class="st34" d="M39.23,52.63c.14-.54.2-.9.98-.88.96.03,1.49.14,1.66.93.08.34.12.44-.18.65-.48.35-1.22.51-1.56.97-.14.19-.18.7-.53.6-.68-.2-.49-1.83-.37-2.29Z"/>
    <path class="st162" d="M130.3,32.99s.07,0,.1,0c.87.66,2.77,1.23,1.06,2.12-.37.2-1.02.41-1.47.49.13-.66.02-1.89,0-2.61.1,0,.21.01.31,0Z"/>
    <path class="st0" d="M28.67,47.16c.03.12-.03.29,0,.4-.35-.05-1.74-.1-1.84-.37-.07-.18.8-.76.81-1.06.86.46.79.05,1.03,1.03Z"/>
    <path class="st131" d="M31.13,49.06c.03.12.1.31.21.4-.36-.13-2.1-.21-1.94-.66.04-.11.32-.2.3-.37.19.11,1.21.56,1.44.63Z"/>
    <path class="st112" d="M41.59,34.41c0,.59-.02,1.62-.82,1.82l-.37.16h-8.02l-.12-.16c0-2.14,0-4.28,0-6.41,1.54.05,3.14-.07,4.67,0,3.84.17,5.08,1.69,4.67,4.59Z"/>
    <path class="st193" d="M119.54,36.24c.03.82.13,3.26.87,3.8.33.24.91.28,1.33.23.86-.11,1.13-1.1,1.18-1.66-.26-.24-.35-.82,0-1.03-.17.26-1.44.25-1.64,0-.08-.39-.08-.78,0-1.19,0-.05,0-.11,0-.16v-.11c1.51-.06,3.04-.08,4.6-.05l.12.16c.09,1.91.04,3.95,0,5.86l-.15.15c-.93.12-2.18.17-2.18-.78-.94,1.15-3.23,1.26-4.74.77-2.64-.86-2.75-3.72-2.69-5.6,0-.13,0-.26,0-.4,0-.06.04-.15.09-.16.43-.03,2.77-.06,3.04,0l.15.16Z"/>
    <path class="st94" d="M103.84,42.09c0,.06-.04.16-.09.16-.4.02-3.26.04-3.38-.05-.05-.31-.48-2.15-.6-2.22-.1-.06-2.13-.04-2.42.01-.22.75-.45,1.49-.67,2.23l-2.97.03-.12-.16c.11-1.95.95-3.91,1.44-5.86l.12-.16h2.4l.15.16.18.21c-.11.5-.14.99-.08,1.45,0-.04.02-.07.04-.1.04-.05,1.33-.1,1.43-.09l.17.11c.04-.5,0-1.01-.12-1.51l.12-.08.09-.16h2.1c.28-.09.47-.06.58.08.54,1.97,1.43,3.92,1.64,5.94Z"/>
    <path class="st94" d="M66,36.24c.02.86-.11,2.89.47,3.56.44.51,1.44.68,2.05.24.77-.56.55-2.96.56-3.8,0-.06.04-.15.09-.16.43-.03,2.77-.06,3.04,0l.15.16c-.01.83.06,1.71,0,2.53.8,4.86-9.9,5.14-9.54.32-.14-.98-.09-1.94-.1-2.93.01-.06.04-.15.1-.16.62-.04,2.43,0,3.04.07l.14.16Z"/>
    <path class="st61" d="M77.59,36.24l.13.04c-.09.51-.17,1.03-.23,1.55.58-.05,1.17-.09,1.78-.11l.16.11c0-.48-.07-.96-.21-1.44l.11-.06c.67-.34,2.04-.34,2.77-.08.51,1.92,1.44,3.89,1.64,5.86,0,.06-.04.16-.09.16-.39.02-3.14.02-3.27-.06-.17-.77-.42-1.51-.75-2.21h-2.35c-.28.72-.52,1.47-.71,2.23l-3.05.03-.15-.16c.17-1.87,1.07-4,1.54-5.86l.12-.16h2.4l.15.16Z"/>
    <path class="st112" d="M43.13,36.24c0-1.83-.27-4.41,0-6.14.01-.08.05-.27.16-.27h7.85c-.01.59.01,1.19,0,1.79,0,.15-.11.29-.11.35.02.07,0,.12-.07.16h-4.29c0,.22-.1.43-.26.63-.01.66.01,1.32,0,1.98h4.2v1.5c0,.06-.04.16-.1.16-2.12.05-4.49.06-6.61,0-.41.06-.67,0-.78-.16Z"/>
    <path class="st196" d="M113.79,24.12c.82-.09,1.64-.23,2.46-.32,1.43-.16,3.16-.4,4.57-.47.89-.05,2.36.13,3.13-.16.25.33.8.08,1.18.08,1.35-.03,2.72.08,4.06-.08.27.06.28.17,0,.24-.08.15-.89.76-1.08.79-3.7.03-7.39.29-11.06.65-1.38.13-4.03.66-5.24.62-1.1-.04-3.35-1.22-4.62-1.27-4.49.23-8.99.54-13.49.64.03-.37.35-.56.41-.95,4.29-.21,8.59-.49,12.87-.8,1.96.14,3.21,1.38,5.23,1.27.53-.03,1.07-.18,1.59-.24Z"/>
    <path class="st141" d="M125.79,33.94c0,.06-.02.16-.07.16-.34.04-2.85.29-2.96.22-.26-3.62-2.98-3.16-3.06.18l-.06.08c-.18.5-.12,1.14-.1,1.66h-3.28c-.02-2.43.03-6.26,4.15-6.57s5.46,1.4,5.38,4.28Z"/>
    <path class="st141" d="M61.39,31.96l-.09.16h-2.56c.03.25-.04.46-.22.63-.02,1.16,0,2.32,0,3.48,0,.06-.04.16-.09.16-.37.02-2.86.05-3.04,0l-.15-.16c0-1.16.02-2.33,0-3.48-.18-.17-.25-.39-.22-.63h-2.5s-.15-.16-.15-.16c-.02-.6-.2-1.25-.11-1.86.01-.08.05-.27.16-.27h8.92c.11,0,.15.19.16.27.09.62-.09,1.27-.11,1.86Z"/>
    <path class="st196" d="M62.72,27.29l4.81-.25-.19-4.43c8.97-.21,17.93-.8,26.87-1.03,0,.27-.09.51-.1.79l-25.37,1.2-.17.19c.08,1.41.16,2.83.31,4.24-1.54-.25-4.03.66-5.33-.04-.32-.17-.52-.46-.83-.67Z"/>
    <path class="st141" d="M82.1,36.24c-.93,0-1.85-.03-2.77.08l-.16-.19c-.2-.98-.43-1.95-.69-2.92-.25.98-.5,1.97-.75,2.94l-.15.08h-2.67c.53-2.09.85-4.22,1.55-6.29.08-.12.2-.12.35-.13.72-.06,2.46-.06,3.19,0,.41.03.5.07.63.38.75,1.78.97,4.17,1.46,6.04Z"/>
    <path class="st141" d="M102.2,36.16l-.56.08h-2.21c-.11-.07-.21-.15-.23-.25-.02-.16-.55-2.89-.58-2.76-.24.91-.48,1.81-.67,2.73l-.25.28h-2.67c.53-2.12.81-4.28,1.53-6.37,1.09,0,2.59-.16,3.66-.05.15.01.26.02.36.12.46,1.51.88,3.03,1.3,4.54.15.53.19,1.15.34,1.68Z"/>
    <path class="st199" d="M50.62,36.24c0,.21,0,.42,0,.63l-.07.16h-3.85c-.02.19-.11.3-.29.32-.06.61-.09,1.83,0,2.42.01.08.05.27.16.27h4.77c.01.68-.02,1.37,0,2.06l-.1.16h-7.99l-.12-.16c-.04-1.95,0-3.91,0-5.86h7.49Z"/>
    <path class="st141" d="M111.33,36.24c-.02.06-.05.15-.12.16-.24.02-2.19.03-2.3,0l-.15-.16-.23-.04-.41-.94c.04.13-.04.25-.17.34.02.21-.01.42,0,.63,0,.06-.04.15-.09.16-.3.02-2.52.06-2.63,0-.08-.04-.13-.09-.15-.16,0-2.14,0-4.28,0-6.41h3.13c.19,0,.74,1.12.85,1.33.83,1.59,1.37,3.61,2.28,5.09Z"/>
    <path class="st75" d="M127.12,43.52c-1.02.74-2.19,1.7-3.49,2.14-1.98.21-3.96.4-5.95.55.07-.34-.06-.37-.46-.4-2.11-.15-4.6.05-6.77,0-6.08-.12-12.14-.45-18.23-.5l-.9-.22c.87-.02,1.75.02,2.62,0,5.25-.12,10.53-.08,15.79-.24,2.69-.08,5.42.24,8.11.09.87-.05.93-.17,1.56-.54,2.51-.39,5.23-.5,7.72-.89Z"/>
    <path class="st199" d="M88.15,36.24c0,.25.11.45.11.67,0,1.04-.01,2.09,0,3.13h4.51c0,.68.01,1.37,0,2.06l-.1.16h-7.57l-.12-.16c-.04-1.95,0-3.91,0-5.86,0-.06.04-.15.09-.16.33-.02,2.8-.04,2.94,0,.08.02.12.1.15.16Z"/>
    <path class="st199" d="M114.51,36.24c0,1.95.04,3.91,0,5.86,0,.06-.04.16-.09.16-.36.02-3.02.03-3.09-.08l-2.48-5.19c-.21-.31-.23-.56-.07-.75h2.56c.07.11.13.28.31.32,0-.1,0-.21,0-.32.09-.19.33-.27.72-.22l1.95.08.2.14Z"/>
    <path class="st199" d="M40.77,36.24c.09.44-.84.85-1.33,1.04-.38.15-1.5.45-1.88.38-.1-.02-.17-.09-.23-.15.09.23-1.57.19-1.65.16-.08-.03-.11-.1-.14-.16.28.28.28.59,0,.87-.02,1.24.02,2.48,0,3.72,0,.06-.04.16-.09.16-.37.02-2.86.05-3.04,0l-.15-.16c-.04-1.95,0-3.91,0-5.86h8.51Z"/>
    <path class="st112" d="M69.08,36.24c.03-2.14-.02-4.28,0-6.41h3.28c-.02,2.14.03,4.28,0,6.41h-3.28Z"/>
    <path class="st112" d="M88.15,36.24h-3.18c0-2.14,0-4.28,0-6.41h3.13c.35,0,.04,1.19.04,1.39.02,1.67,0,3.36,0,5.03Z"/>
    <path class="st112" d="M62.72,36.16c-.02-1.77-.26-4.39,0-6.06.01-.08.05-.27.16-.27h3.13c.04,2.14-.05,4.28,0,6.41l-3.28-.08Z"/>
    <path class="st141" d="M114.51,36.24c-.96.1-1.96-.19-2.87,0,.04-.9-.18-1.83-.21-2.73-.04-1.23.04-2.46,0-3.69h2.92c.11,0,.15.19.16.27.26,1.73,0,4.31,0,6.14Z"/>
    <path class="st193" d="M58.51,36.24c0,1.95.04,3.91,0,5.86,0,.06-.04.16-.09.16-.37.02-2.86.05-3.04,0l-.15-.16c-.04-1.95,0-3.91,0-5.86h3.28Z"/>
    <path class="st94" d="M107.95,36.24c.11,1.94.14,3.91.1,5.86,0,.06-.04.15-.09.16-.31.02-2.58.04-2.73,0l-.15-.16c-.04-1.95,0-3.91,0-5.86h2.87Z"/>
    <path class="st66" d="M129.18,27.05c-.03.45-.08.91-.1,1.35l-23.38-.63,23.49-.71Z"/>
    <path class="st181" d="M29.29,25.15c3.47-.17,6.95.23,10.41.32,1.28.03,2.57-.03,3.85,0l-.1.12-15.59.67c.01-.31-.01-.63,0-.95.49-.05.93-.14,1.43-.16Z"/>
    <path class="st124" d="M93.59,42.09h3.07s.52-2.25.52-2.25c.07-.11,2.41-.05,2.78-.02l.51,2.26h3.38c.03.29.03.58.1.87h-3.33c-.08,0-.2-.22-.23-.3-.22-.59-.29-1.38-.44-2h-2.71c-.15.02-.36,2.3-.62,2.3h-2.97c-.34,0-.06-.77-.05-.87Z"/>
    <path class="st56" d="M73.39,42.09h3.17s.52-2.26.52-2.26h2.78s.62,2.25.62,2.25h3.27c.03.3-.02.59,0,.88h-3.23c-.42-.7-.42-1.57-.66-2.32-.07-.11-2.31-.05-2.68-.02-.27.15-.35,2.05-.66,2.34h-3.13c.02-.29-.03-.58,0-.87Z"/>
    <path class="st78" d="M116.25,36.63c.08,2.17.33,5.35,3.87,5.68,1,.09,2.23-.02,3-.57.12-.08.54-.64.71-.52.04.15.19.78.3.84.23.12,1.49-.02,1.85.03,0,.29,0,.58,0,.87h-1.95l-.31-.87c-1.96,1.83-5.66,1.29-6.82-.87-.57-1.06-.79-3-.77-4.16,0-.13-.07-.35.1-.43Z"/>
    <path class="st62" d="M61.69,26.73c-1.48.1-2.97.1-4.46.16-.81.03-1.76.15-2.56.16-1.48.03-2.11.3-2.41-.95,1.78.13,3.52-.18,5.28-.24.78-.03,2.14-.07,2.88,0,.91.08.86.52,1.28.87Z"/>
    <path class="st29" d="M62.82,39.09c.35,2.46,2.21,3.43,5.39,3.25,2.8-.16,4.01-1.51,4.15-3.57.17.37.05,1.04-.03,1.44-.79,3.92-8.05,3.93-9.36.7-.22-.54-.4-1.27-.15-1.82Z"/>
    <path class="st19" d="M51.34,42.09s.11.13.11.27c0,.21-.1.4-.11.6h-8.2c0-.29,0-.58,0-.87h8.2Z"/>
    <path class="st28" d="M92.77,42.09c0,.29,0,.58,0,.87-2.59-.05-5.21.1-7.79-.08-.02-.26,0-.53,0-.79h7.79Z"/>
    <path class="st124" d="M110.15,44.99c.11.25.18.56.31.83.79,1.67,1.71,3.31,2.38,5.02h3.06c0,.3,0,.59,0,.88h-2.92c-.51,0-3.08-6.63-3.64-7.36-.03-.37-.1-.74-.1-1.11.02-.02.12.04.15.08.1.12.64,1.39.77,1.66Z"/>
    <path class="st156" d="M119.64,34.57c-.01-.9.1-3.18,1.87-2.91,1.24.18,1.21,1.78,1.2,2.52l3.08-.24c0,.19.07.75-.1.84-.25.13-2.5.08-2.98.19-.15-.9.03-2.71-1.79-2.45-1.08.16-1.22,1.94-1.19,2.61-.19-.05-.1-.42-.1-.55Z"/>
    <path class="st52" d="M35.54,38.37c0-.29,0-.58,0-.87h1.79c1.29,0,2.68-.46,3.44-1.27.51-.55.73-1.15.82-1.82.27.85-.18,2.02-.84,2.72-1.22,1.28-3.36,1.17-5.21,1.24Z"/>
    <path class="st97" d="M129.18,23.17c.28-.53,2.8-1.54,3.55-1.81,1.33-.48,2.8-.9,4.24-1.12-1.25.81-2.94,1.17-4.38,1.81-1.08.48-2.03,1.11-3.11,1.6.06-.18-.13-.18-.31-.24.03-.05-.03-.18,0-.24Z"/>
    <path class="st116" d="M27.54,30.77c.59,0,4.37-.02,4.61.16.05.04-.02.51,0,.63l-4.72.16c.03-.3.06-.62.1-.95Z"/>
    <path class="st7" d="M51.03,31.96c0,.08.23.69.1.79h-4.72c0-.26,0-.53,0-.79h4.62Z"/>
    <path class="st28" d="M50.62,36.87c0,.26,0,.53,0,.79h-4.04s-.16-.32-.16-.32c0-.09.07-.46.17-.48h4.04Z"/>
    <path class="st173" d="M81.79,25.7c-.03.12-.19.15-.31.2-2.04.8-3.64.84-5.89.92-1.48.05-2.98,0-4.46.08-.37-.21.88-.15.97-.16,2.28-.18,4.75-.27,6.97-.48.84-.08,1.84-.52,2.73-.55Z"/>
    <path class="st108" d="M126,36.24h-4.72c-.01-.21-.4-.58.25-.64,1.32-.12,2.95.09,4.3.01.26.07.16.44.17.62Z"/>
    <path class="st27" d="M58.51,42.09c0,.29,0,.58,0,.87h-3.28c0-.29,0-.58,0-.87h3.28Z"/>
    <path class="st31" d="M35.54,42.09c0,.29,0,.58,0,.87h-3.28c0-.29,0-.58,0-.87h3.28Z"/>
    <path class="st130" d="M108.05,42.09c0,.29,0,.58,0,.87h-2.97c0-.29,0-.58,0-.87h2.97Z"/>
    <path class="st88" d="M52.36,31.96h2.87c0,.26,0,.53,0,.79-.71-.1-2.2.14-2.81-.01-.39-.1-.06-.67-.07-.78Z"/>
    <path class="st127" d="M61.39,31.96c0,.11.33.68-.07.78-.6.15-2.1-.09-2.81.01,0-.26,0-.53,0-.79h2.87Z"/>
    <path class="st117" d="M121.28,36.39c.02.39-.01.79,0,1.19h1.64c-.02.34.03.69,0,1.03-.22-.34-1.44-.03-1.7-.31-.12-.13-.08-1.65.06-1.9Z"/>
    <path class="st69" d="M33.18,16.44l.28-.12c1.76.22,3.52-.38,4.74-1.36l.32-.03c.08,0,.2.01.21.05.03.39.09,2.61,0,2.81l-.21.14.16-.21c1.3-.4,2.49-1.06,3.33-1.94l.31-.07c.18.08.11.29.09.42-.22,1.66-.64,3.3-.81,4.96-.02,0-.16.08-.35.08-1.6.02-3.21-.04-4.82,0-.39.1-.75,1.7-1.2,2-.39.26-2.26.42-2.87.52.11-.37-.31-.71-.41-.95-.68-1.58-1.26-3.37-1.85-4.99l-.1-.24s0-.05,0-.08c.83.2,2.22,1.09,3.11.86.68-.17-.48-1.04-.45-1.29.02-.19.4-.43.52-.6Z"/>
    <path class="st149" d="M101.18,15.33l2.26.16.41-3.33,2.56.16-1.33,8.83c-.22.12-2.15-.21-2.57-.2l.62-3.8c-.61-.02-1.43-.24-2.01-.23-.12,0-.19.03-.23.13l-.58,3.75-2.41-.16,1.04-8.86c.11-.08,2.21.09,2.51.14l-.26,3.41Z"/>
    <path class="st149" d="M96.97,20.48h-1.49c-.11,0-.97-.17-1.03-.24-.2-.24-.16-1.5-.26-1.58l-2.36-.08-.31,1.66-2.56-.16,3.07-8.83c.23-.12,2.75.17,3.22.21l.15.12,1.56,8.89Z"/>
    <path class="st149" d="M80.77,19.77h-2.56l-.4-1.55-2.26-.03-.2,1.58h-2.46l2.17-8.81.08-.1c.44-.02,3.1-.12,3.24.04l2.41,8.87Z"/>
    <path class="st15" d="M42.31,15.73c-.83.99-2.36,1.83-3.79,2.22v-3.01c-1.31,1.14-3.34,1.84-5.33,1.5-1.04-.18-1.98-.53-1.84-1.46.31-1.97,5.47-2.78,7.53-2.66,2.37.13,5.14,1.36,3.44,3.4Z"/>
    <path class="st163" d="M64.04,11.23c.1.3.41,1.36.02,1.53-.98.16-2.05.09-3.02.2-.15.02-.41.08-.46.21l.19,1.77,3.01-.16c.11.02.57,1.48-.03,1.63-.36.09-2.58.04-2.67.11,0,.72.05,1.49.2,2.18l3.7-.13.1,1.58-6.14.31-1.04-8.86,6.14-.38Z"/>
    <path class="st163" d="M56.26,11.77l.92,6.29c.22,1.81-.97,2.93-3.33,3.05-2.81.14-3.81-1.27-3.75-3.25.57.1,1.83-.27,2.29-.15.42.11-.09,1.77,1.24,1.74,1.16-.03.92-.77.87-1.47-.11-1.75-.68-3.58-.82-5.31-.01-.16-.04-.5.01-.62.12-.27,2.13-.24,2.55-.29Z"/>
    <path class="st149" d="M81.38,16.52h2.46c.24.52-.19,1.88.78,1.98,1.14.11,1.22-1.06,1.28-1.7.07-.81.08-1.79.1-2.61.03-1.04-.03-2.09,0-3.13h2.51c.29,0,.05.61.05.75-.08,1.87.06,3.76-.2,5.62s-1.13,2.76-3.75,2.66c-2.79-.11-3.46-1.65-3.23-3.57Z"/>
    <path class="st149" d="M68.26,11.06l.43,7.23c.1.24.49.05.75.05.71-.01,1.8-.06,2.47,0,.1,0,.35.04.35.12v1.46l-6.05.16-.61-9.03h2.67Z"/>
    <path class="st121" d="M28.98,24.28c-.22.04-.47.11-.72.16-1.55-.6-2.77-1.5-4.28-2.2-1.37-.64-2.91-1.1-4.24-1.72-.11-.05-.28-.08-.31-.2,3.57.55,6.94,2.01,9.54,3.96Z"/>
    <path class="st57" d="M26.52,35.6c-.01-.87.02-1.74,0-2.61.17.08.1.3.1.43,0,.59.07,1.34,0,1.91-.02.13.03.16-.11.27Z"/>
    <path class="st142" d="M30.11,17.79c-.02-.06-.07-.14-.1-.24l.1.24Z"/>
    <path class="st158" d="M35.54,32.67c.13-.28,1.05-.19,1.42-.14.94.13,1.26.41,1.35,1.09,0,.01.11.09.1.26,0,.18-.17.65-.27.83-.51.91-1.56.67-2.59.81.01-.95-.02-1.9,0-2.85Z"/>
    <path class="st20" d="M38.31,33.62l-.1.32c.15-1.31-1.37-1.34-2.67-1.27,0-.26,0-.53,0-.79h1.69s.5.22.57.27c.53.39.48.96.51,1.47Z"/>
    <path class="st155" d="M99.43,37.82c-.23.14-1.27.09-1.64.08-.06-.01-.1-.03-.1-.04.02-.46.47-3.73.69-3.82.17-.07.2-.07.39.02.21.1.7,3.31.65,3.76Z"/>
    <path class="st167" d="M99.43,36.24c.07.39.38,1.36,0,1.58l-.87-3.8-.77,3.88c-.07,0-.14,0-.2,0,.05-.53.03-1.15.1-1.66.18-1.22.68-2.42.82-3.64.19.04.25.25.28.38.26.99.46,2.25.64,3.27Z"/>
    <path class="st150" d="M77.49,37.82c.07-.48.64-3.72.87-3.8.05-.02.1-.03.15-.05.05,0,.09.02.14.03.24.05.77,3.35.79,3.82-.15.12-1.42.11-1.7.08-.11-.01-.2.03-.25-.08Z"/>
    <path class="st157" d="M79.33,36.31c.05.31.35,1.31.1,1.5l-.87-3.8-1.08,3.8c-.1-.24.05-1.26.1-1.58.16-1,.5-2.47.82-3.44.04-.11,0-.25.2-.28.14,1.28.51,2.53.72,3.8Z"/>
    <path class="st24" d="M88.54,24.61c.48-.04,1.78.63,1.52.94-.06.07-1,.35-1.16.37-1.7.23-1.48-1.23-.36-1.31Z"/>
    <path class="st68" d="M94,17.15h-1.64l1.03-3.64c.22.06.26.29.3.44.25,1,.23,2.18.32,3.2Z"/>
    <path class="st165" d="M77.59,16.68h-1.74c.15-.3.54-3.57.77-3.56.26,0,.28.25.33.38.37.97.44,2.18.65,3.18Z"/>
  </g>
</svg>