<?xml version="1.0" encoding="UTF-8"?>
<svg id="Layer_1" xmlns="http://www.w3.org/2000/svg" version="1.1" viewBox="0 0 160 160">
  <!-- Generator: Adobe Illustrator 29.8.3, SVG Export Plug-In . SVG Version: 2.1.1 Build 3)  -->
  <defs>
    <style>
      .st0 {
        fill: #9a5d34;
      }

      .st1 {
        fill: #a56636;
      }

      .st2 {
        fill: #9c5e34;
      }

      .st3 {
        fill: #c28046;
      }

      .st4 {
        fill: #8c512c;
      }

      .st5 {
        fill: #c38146;
      }

      .st6 {
        fill: #834a29;
      }
    </style>
  </defs>
  <path class="st0" d="M68.69,90.56l.68.34v114.01l-.68.44H10.6v-38.21c-.04-1.29-1.41-.55-2.03-1.25.26-.88,1.61-1.08,1.58-.24-.45-9.97-.11-19.93.45-29.89-.66-3.34-.66-6.7,0-10.04-1.02-4.69-.98-9.66,0-14.35.38-.61,1.07-.95,2.08-1.02,14.63-5.66,30.13-11.64,45.21-17.25,2.84-1.06,5.75-1.98,8.59-2.87.75-.23,1.87-.58,2.2.33Z"/>
  <path class="st1" d="M83.21,104.9c0-.28.07-.71.23-.72,15.48-.24,31.61-.08,47.03.26l.23.35c.16,33.34.2,66.71.13,100.1l-.68.45h-46.94l-.42-5.02c-.43-30.14-.45-60.27-.07-90.4l.49-5.02Z"/>
  <path class="st3" d="M149.74,90.56l.68.34v114.01l-.68.44h-14.52l-.68-.34v-104.67l.68-.45-.24.72h-51.35l-.42-.72c.92,1.65.94,3.38,0,5.02-.3,33.47.23,66.97,0,100.44h-14.52v-114.79c-.27-.75.16-1.13.87-1.14,26.62-.11,54.12-.15,80.26.27l-.08.87Z"/>
  <path class="st4" d="M83.21,104.9c.02-1.67-.01-3.35,0-5.02h52.01v105.47h-5.07v-100.45s-46.94,0-46.94,0Z"/>
  <path class="st5" d="M160.88,66.88v16.5c-.12.3-.59.28-.68.36l-2.05.72H62.69l-.42-.72c-.36-.01-.66-.15-.89-.42.18-5.35.18-10.74,0-16.18.76.6.71.51-.13-.26.31-.08.75-.63,1.35-.36l.24-.72h52.55c.06-1.02.36-1.74.91-2.15.38,1.25.09,2.7,1.18,2.87,13.93.57,28.38-.75,42.25-.03.43.02.84,0,1.14.38Z"/>
  <path class="st6" d="M62.27,83.74h97.93c-2.03,1.9-5.69,3.59-8.34,5.32-.76.5-1.51.4-2.13,1.49-.35-.59-1.28-.36-1.85-.36-26.01-.34-52.04.29-78.05-.02-.45-.2-.97.36-1.14.38-.98.16-1.7.23-2.69.55-13.01,4.12-26.72,10.11-39.67,14.89-3.03,1.12-6.22,1.96-9.23,3.11-2.02.77-4.27,2.5-6.49,2.26,0-1.12.22-4.3,0-5.02-2.77-.26-5.6-.31-8.47-.16-1.93-.52.28-1.46,1.46-1.49,16.81-6.12,33.56-12.43,50.26-18.91,2.75-1.23,5.55-1.91,8.41-2.04Z"/>
  <path class="st2" d="M61.26,66.88c1.35,0,.81-.48.76.63-.17,4.06.4,8.05.27,12.12-.05,1.38-.74,2.8-.02,4.11-19.77,6.16-38.82,15.22-58.48,21.64-.65.21-1.29.29-1.96.25-.08.63.77.34,1.18.36,2.23.1,5.01-.29,7.11,0,.34.05.38,0,.49.37-1.51-.25-9.04.48-9.63-.35l-1.85-14.72.2-1.11c7.98-2.8,15.86-5.93,23.77-8.93,7.82-4.12,16.13-7.3,24.65-9.33,4.27-1.59,9.22-3.85,13.51-5.02Z"/>
</svg>